%TF.GenerationSoftware,KiCad,Pcbnew,9.0.3*%
%TF.CreationDate,2026-01-20T13:20:06-07:00*%
%TF.ProjectId,Backplane,4261636b-706c-4616-9e65-2e6b69636164,rev?*%
%TF.SameCoordinates,Original*%
%TF.FileFunction,Legend,Top*%
%TF.FilePolarity,Positive*%
%FSLAX46Y46*%
G04 Gerber Fmt 4.6, Leading zero omitted, Abs format (unit mm)*
G04 Created by KiCad (PCBNEW 9.0.3) date 2026-01-20 13:20:06*
%MOMM*%
%LPD*%
G01*
G04 APERTURE LIST*
%ADD10C,0.300000*%
G04 APERTURE END LIST*
D10*
X104623082Y-40845828D02*
X104623082Y-41131542D01*
X105194510Y-40845828D02*
X105194510Y-41131542D01*
X106337367Y-41560114D02*
X105837367Y-41560114D01*
X105837367Y-42345828D02*
X105837367Y-40845828D01*
X105837367Y-40845828D02*
X106551653Y-40845828D01*
X107980224Y-42345828D02*
X107480224Y-41631542D01*
X107123081Y-42345828D02*
X107123081Y-40845828D01*
X107123081Y-40845828D02*
X107694510Y-40845828D01*
X107694510Y-40845828D02*
X107837367Y-40917257D01*
X107837367Y-40917257D02*
X107908796Y-40988685D01*
X107908796Y-40988685D02*
X107980224Y-41131542D01*
X107980224Y-41131542D02*
X107980224Y-41345828D01*
X107980224Y-41345828D02*
X107908796Y-41488685D01*
X107908796Y-41488685D02*
X107837367Y-41560114D01*
X107837367Y-41560114D02*
X107694510Y-41631542D01*
X107694510Y-41631542D02*
X107123081Y-41631542D01*
X108908796Y-40845828D02*
X109194510Y-40845828D01*
X109194510Y-40845828D02*
X109337367Y-40917257D01*
X109337367Y-40917257D02*
X109480224Y-41060114D01*
X109480224Y-41060114D02*
X109551653Y-41345828D01*
X109551653Y-41345828D02*
X109551653Y-41845828D01*
X109551653Y-41845828D02*
X109480224Y-42131542D01*
X109480224Y-42131542D02*
X109337367Y-42274400D01*
X109337367Y-42274400D02*
X109194510Y-42345828D01*
X109194510Y-42345828D02*
X108908796Y-42345828D01*
X108908796Y-42345828D02*
X108765939Y-42274400D01*
X108765939Y-42274400D02*
X108623081Y-42131542D01*
X108623081Y-42131542D02*
X108551653Y-41845828D01*
X108551653Y-41845828D02*
X108551653Y-41345828D01*
X108551653Y-41345828D02*
X108623081Y-41060114D01*
X108623081Y-41060114D02*
X108765939Y-40917257D01*
X108765939Y-40917257D02*
X108908796Y-40845828D01*
X110194510Y-42345828D02*
X110194510Y-40845828D01*
X110194510Y-40845828D02*
X111051653Y-42345828D01*
X111051653Y-42345828D02*
X111051653Y-40845828D01*
X111551654Y-40845828D02*
X112408797Y-40845828D01*
X111980225Y-42345828D02*
X111980225Y-40845828D01*
X112837368Y-40845828D02*
X112837368Y-41131542D01*
X113408796Y-40845828D02*
X113408796Y-41131542D01*
X116265939Y-40774400D02*
X114980225Y-42702971D01*
X118765939Y-42202971D02*
X118694511Y-42274400D01*
X118694511Y-42274400D02*
X118480225Y-42345828D01*
X118480225Y-42345828D02*
X118337368Y-42345828D01*
X118337368Y-42345828D02*
X118123082Y-42274400D01*
X118123082Y-42274400D02*
X117980225Y-42131542D01*
X117980225Y-42131542D02*
X117908796Y-41988685D01*
X117908796Y-41988685D02*
X117837368Y-41702971D01*
X117837368Y-41702971D02*
X117837368Y-41488685D01*
X117837368Y-41488685D02*
X117908796Y-41202971D01*
X117908796Y-41202971D02*
X117980225Y-41060114D01*
X117980225Y-41060114D02*
X118123082Y-40917257D01*
X118123082Y-40917257D02*
X118337368Y-40845828D01*
X118337368Y-40845828D02*
X118480225Y-40845828D01*
X118480225Y-40845828D02*
X118694511Y-40917257D01*
X118694511Y-40917257D02*
X118765939Y-40988685D01*
X119337368Y-41917257D02*
X120051654Y-41917257D01*
X119194511Y-42345828D02*
X119694511Y-40845828D01*
X119694511Y-40845828D02*
X120194511Y-42345828D01*
X121551653Y-42345828D02*
X121051653Y-41631542D01*
X120694510Y-42345828D02*
X120694510Y-40845828D01*
X120694510Y-40845828D02*
X121265939Y-40845828D01*
X121265939Y-40845828D02*
X121408796Y-40917257D01*
X121408796Y-40917257D02*
X121480225Y-40988685D01*
X121480225Y-40988685D02*
X121551653Y-41131542D01*
X121551653Y-41131542D02*
X121551653Y-41345828D01*
X121551653Y-41345828D02*
X121480225Y-41488685D01*
X121480225Y-41488685D02*
X121408796Y-41560114D01*
X121408796Y-41560114D02*
X121265939Y-41631542D01*
X121265939Y-41631542D02*
X120694510Y-41631542D01*
X122194510Y-42345828D02*
X122194510Y-40845828D01*
X122194510Y-40845828D02*
X122551653Y-40845828D01*
X122551653Y-40845828D02*
X122765939Y-40917257D01*
X122765939Y-40917257D02*
X122908796Y-41060114D01*
X122908796Y-41060114D02*
X122980225Y-41202971D01*
X122980225Y-41202971D02*
X123051653Y-41488685D01*
X123051653Y-41488685D02*
X123051653Y-41702971D01*
X123051653Y-41702971D02*
X122980225Y-41988685D01*
X122980225Y-41988685D02*
X122908796Y-42131542D01*
X122908796Y-42131542D02*
X122765939Y-42274400D01*
X122765939Y-42274400D02*
X122551653Y-42345828D01*
X122551653Y-42345828D02*
X122194510Y-42345828D01*
X123694510Y-41774400D02*
X124837368Y-41774400D01*
X125551653Y-41560114D02*
X126051653Y-41560114D01*
X126265939Y-42345828D02*
X125551653Y-42345828D01*
X125551653Y-42345828D02*
X125551653Y-40845828D01*
X125551653Y-40845828D02*
X126265939Y-40845828D01*
X126908796Y-42345828D02*
X126908796Y-40845828D01*
X126908796Y-40845828D02*
X127265939Y-40845828D01*
X127265939Y-40845828D02*
X127480225Y-40917257D01*
X127480225Y-40917257D02*
X127623082Y-41060114D01*
X127623082Y-41060114D02*
X127694511Y-41202971D01*
X127694511Y-41202971D02*
X127765939Y-41488685D01*
X127765939Y-41488685D02*
X127765939Y-41702971D01*
X127765939Y-41702971D02*
X127694511Y-41988685D01*
X127694511Y-41988685D02*
X127623082Y-42131542D01*
X127623082Y-42131542D02*
X127480225Y-42274400D01*
X127480225Y-42274400D02*
X127265939Y-42345828D01*
X127265939Y-42345828D02*
X126908796Y-42345828D01*
X129194511Y-40917257D02*
X129051654Y-40845828D01*
X129051654Y-40845828D02*
X128837368Y-40845828D01*
X128837368Y-40845828D02*
X128623082Y-40917257D01*
X128623082Y-40917257D02*
X128480225Y-41060114D01*
X128480225Y-41060114D02*
X128408796Y-41202971D01*
X128408796Y-41202971D02*
X128337368Y-41488685D01*
X128337368Y-41488685D02*
X128337368Y-41702971D01*
X128337368Y-41702971D02*
X128408796Y-41988685D01*
X128408796Y-41988685D02*
X128480225Y-42131542D01*
X128480225Y-42131542D02*
X128623082Y-42274400D01*
X128623082Y-42274400D02*
X128837368Y-42345828D01*
X128837368Y-42345828D02*
X128980225Y-42345828D01*
X128980225Y-42345828D02*
X129194511Y-42274400D01*
X129194511Y-42274400D02*
X129265939Y-42202971D01*
X129265939Y-42202971D02*
X129265939Y-41702971D01*
X129265939Y-41702971D02*
X128980225Y-41702971D01*
X129908796Y-41560114D02*
X130408796Y-41560114D01*
X130623082Y-42345828D02*
X129908796Y-42345828D01*
X129908796Y-42345828D02*
X129908796Y-40845828D01*
X129908796Y-40845828D02*
X130623082Y-40845828D01*
X132408796Y-42345828D02*
X132408796Y-40845828D01*
X132408796Y-40845828D02*
X132980225Y-40845828D01*
X132980225Y-40845828D02*
X133123082Y-40917257D01*
X133123082Y-40917257D02*
X133194511Y-40988685D01*
X133194511Y-40988685D02*
X133265939Y-41131542D01*
X133265939Y-41131542D02*
X133265939Y-41345828D01*
X133265939Y-41345828D02*
X133194511Y-41488685D01*
X133194511Y-41488685D02*
X133123082Y-41560114D01*
X133123082Y-41560114D02*
X132980225Y-41631542D01*
X132980225Y-41631542D02*
X132408796Y-41631542D01*
X133908796Y-42345828D02*
X133908796Y-40845828D01*
X134623082Y-42345828D02*
X134623082Y-40845828D01*
X134623082Y-40845828D02*
X135480225Y-42345828D01*
X135480225Y-42345828D02*
X135480225Y-40845828D01*
X138123083Y-42345828D02*
X137265940Y-42345828D01*
X137694511Y-42345828D02*
X137694511Y-40845828D01*
X137694511Y-40845828D02*
X137551654Y-41060114D01*
X137551654Y-41060114D02*
X137408797Y-41202971D01*
X137408797Y-41202971D02*
X137265940Y-41274400D01*
X139908796Y-41560114D02*
X141051654Y-41560114D01*
X141051654Y-41988685D02*
X139908796Y-41988685D01*
X141765939Y-41560114D02*
X142908797Y-41560114D01*
X142908797Y-41988685D02*
X141765939Y-41988685D01*
X143623082Y-41560114D02*
X144765940Y-41560114D01*
X144765940Y-41988685D02*
X143623082Y-41988685D01*
X145480225Y-41560114D02*
X146623083Y-41560114D01*
X146623083Y-41988685D02*
X145480225Y-41988685D01*
X147337368Y-41560114D02*
X148480226Y-41560114D01*
X148480226Y-41988685D02*
X147337368Y-41988685D01*
X149194511Y-41345828D02*
X150337369Y-41774400D01*
X150337369Y-41774400D02*
X149194511Y-42202971D01*
M02*
