M48
; DRILL file {KiCad 9.0.3} date 2026-01-20T13:20:04-0700
; FORMAT={-:-/ absolute / metric / decimal}
; #@! TF.CreationDate,2026-01-20T13:20:04-07:00
; #@! TF.GenerationSoftware,Kicad,Pcbnew,9.0.3
; #@! TF.FileFunction,Plated,1,2,PTH
FMAT,2
METRIC
; #@! TA.AperFunction,Plated,PTH,ComponentDrill
T1C1.067
%
G90
G05
T1
X25.4Y-45.72
X25.4Y-48.26
X25.4Y-50.8
X25.4Y-53.34
X25.4Y-55.88
X25.4Y-58.42
X25.4Y-60.96
X25.4Y-63.5
X25.4Y-66.04
X25.4Y-68.58
X25.4Y-71.12
X25.4Y-73.66
X25.4Y-76.2
X25.4Y-78.74
X25.4Y-81.28
X25.4Y-83.82
X25.4Y-86.36
X25.4Y-88.9
X25.4Y-91.44
X25.4Y-93.98
X25.4Y-96.52
X25.4Y-99.06
X25.4Y-101.6
X25.4Y-104.14
X25.4Y-106.68
X25.4Y-109.22
X25.4Y-111.76
X25.4Y-114.3
X25.4Y-116.84
X25.4Y-119.38
X25.4Y-121.92
X25.4Y-124.46
X25.4Y-127.0
X25.4Y-129.54
X25.4Y-132.08
X25.4Y-134.62
X25.4Y-137.16
X25.4Y-139.7
X25.4Y-142.24
X25.4Y-144.78
X25.4Y-147.32
X25.4Y-149.86
X25.4Y-152.4
X25.4Y-154.94
X25.4Y-157.48
X25.4Y-160.02
X25.4Y-162.56
X25.4Y-165.1
X25.4Y-167.64
X25.4Y-170.18
X27.94Y-45.72
X27.94Y-48.26
X27.94Y-50.8
X27.94Y-53.34
X27.94Y-55.88
X27.94Y-58.42
X27.94Y-60.96
X27.94Y-63.5
X27.94Y-66.04
X27.94Y-68.58
X27.94Y-71.12
X27.94Y-73.66
X27.94Y-76.2
X27.94Y-78.74
X27.94Y-81.28
X27.94Y-83.82
X27.94Y-86.36
X27.94Y-88.9
X27.94Y-91.44
X27.94Y-93.98
X27.94Y-96.52
X27.94Y-99.06
X27.94Y-101.6
X27.94Y-104.14
X27.94Y-106.68
X27.94Y-109.22
X27.94Y-111.76
X27.94Y-114.3
X27.94Y-116.84
X27.94Y-119.38
X27.94Y-121.92
X27.94Y-124.46
X27.94Y-127.0
X27.94Y-129.54
X27.94Y-132.08
X27.94Y-134.62
X27.94Y-137.16
X27.94Y-139.7
X27.94Y-142.24
X27.94Y-144.78
X27.94Y-147.32
X27.94Y-149.86
X27.94Y-152.4
X27.94Y-154.94
X27.94Y-157.48
X27.94Y-160.02
X27.94Y-162.56
X27.94Y-165.1
X27.94Y-167.64
X27.94Y-170.18
X30.48Y-45.72
X30.48Y-48.26
X30.48Y-50.8
X30.48Y-53.34
X30.48Y-55.88
X30.48Y-58.42
X30.48Y-60.96
X30.48Y-63.5
X30.48Y-66.04
X30.48Y-68.58
X30.48Y-71.12
X30.48Y-73.66
X30.48Y-76.2
X30.48Y-78.74
X30.48Y-81.28
X30.48Y-83.82
X30.48Y-86.36
X30.48Y-88.9
X30.48Y-91.44
X30.48Y-93.98
X30.48Y-96.52
X30.48Y-99.06
X30.48Y-101.6
X30.48Y-104.14
X30.48Y-106.68
X30.48Y-109.22
X30.48Y-111.76
X30.48Y-114.3
X30.48Y-116.84
X30.48Y-119.38
X30.48Y-121.92
X30.48Y-124.46
X30.48Y-127.0
X30.48Y-129.54
X30.48Y-132.08
X30.48Y-134.62
X30.48Y-137.16
X30.48Y-139.7
X30.48Y-142.24
X30.48Y-144.78
X30.48Y-147.32
X30.48Y-149.86
X30.48Y-152.4
X30.48Y-154.94
X30.48Y-157.48
X30.48Y-160.02
X30.48Y-162.56
X30.48Y-165.1
X30.48Y-167.64
X30.48Y-170.18
X33.02Y-45.72
X33.02Y-48.26
X33.02Y-50.8
X33.02Y-53.34
X33.02Y-55.88
X33.02Y-58.42
X33.02Y-60.96
X33.02Y-63.5
X33.02Y-66.04
X33.02Y-68.58
X33.02Y-71.12
X33.02Y-73.66
X33.02Y-76.2
X33.02Y-78.74
X33.02Y-81.28
X33.02Y-83.82
X33.02Y-86.36
X33.02Y-88.9
X33.02Y-91.44
X33.02Y-93.98
X33.02Y-96.52
X33.02Y-99.06
X33.02Y-101.6
X33.02Y-104.14
X33.02Y-106.68
X33.02Y-109.22
X33.02Y-111.76
X33.02Y-114.3
X33.02Y-116.84
X33.02Y-119.38
X33.02Y-121.92
X33.02Y-124.46
X33.02Y-127.0
X33.02Y-129.54
X33.02Y-132.08
X33.02Y-134.62
X33.02Y-137.16
X33.02Y-139.7
X33.02Y-142.24
X33.02Y-144.78
X33.02Y-147.32
X33.02Y-149.86
X33.02Y-152.4
X33.02Y-154.94
X33.02Y-157.48
X33.02Y-160.02
X33.02Y-162.56
X33.02Y-165.1
X33.02Y-167.64
X33.02Y-170.18
X35.56Y-45.72
X35.56Y-48.26
X35.56Y-50.8
X35.56Y-53.34
X35.56Y-55.88
X35.56Y-58.42
X35.56Y-60.96
X35.56Y-63.5
X35.56Y-66.04
X35.56Y-68.58
X35.56Y-71.12
X35.56Y-73.66
X35.56Y-76.2
X35.56Y-78.74
X35.56Y-81.28
X35.56Y-83.82
X35.56Y-86.36
X35.56Y-88.9
X35.56Y-91.44
X35.56Y-93.98
X35.56Y-96.52
X35.56Y-99.06
X35.56Y-101.6
X35.56Y-104.14
X35.56Y-106.68
X35.56Y-109.22
X35.56Y-111.76
X35.56Y-114.3
X35.56Y-116.84
X35.56Y-119.38
X35.56Y-121.92
X35.56Y-124.46
X35.56Y-127.0
X35.56Y-129.54
X35.56Y-132.08
X35.56Y-134.62
X35.56Y-137.16
X35.56Y-139.7
X35.56Y-142.24
X35.56Y-144.78
X35.56Y-147.32
X35.56Y-149.86
X35.56Y-152.4
X35.56Y-154.94
X35.56Y-157.48
X35.56Y-160.02
X35.56Y-162.56
X35.56Y-165.1
X35.56Y-167.64
X35.56Y-170.18
X38.1Y-45.72
X38.1Y-48.26
X38.1Y-50.8
X38.1Y-53.34
X38.1Y-55.88
X38.1Y-58.42
X38.1Y-60.96
X38.1Y-63.5
X38.1Y-66.04
X38.1Y-68.58
X38.1Y-71.12
X38.1Y-73.66
X38.1Y-76.2
X38.1Y-78.74
X38.1Y-81.28
X38.1Y-83.82
X38.1Y-86.36
X38.1Y-88.9
X38.1Y-91.44
X38.1Y-93.98
X38.1Y-96.52
X38.1Y-99.06
X38.1Y-101.6
X38.1Y-104.14
X38.1Y-106.68
X38.1Y-109.22
X38.1Y-111.76
X38.1Y-114.3
X38.1Y-116.84
X38.1Y-119.38
X38.1Y-121.92
X38.1Y-124.46
X38.1Y-127.0
X38.1Y-129.54
X38.1Y-132.08
X38.1Y-134.62
X38.1Y-137.16
X38.1Y-139.7
X38.1Y-142.24
X38.1Y-144.78
X38.1Y-147.32
X38.1Y-149.86
X38.1Y-152.4
X38.1Y-154.94
X38.1Y-157.48
X38.1Y-160.02
X38.1Y-162.56
X38.1Y-165.1
X38.1Y-167.64
X38.1Y-170.18
X40.64Y-45.72
X40.64Y-48.26
X40.64Y-50.8
X40.64Y-53.34
X40.64Y-55.88
X40.64Y-58.42
X40.64Y-60.96
X40.64Y-63.5
X40.64Y-66.04
X40.64Y-68.58
X40.64Y-71.12
X40.64Y-73.66
X40.64Y-76.2
X40.64Y-78.74
X40.64Y-81.28
X40.64Y-83.82
X40.64Y-86.36
X40.64Y-88.9
X40.64Y-91.44
X40.64Y-93.98
X40.64Y-96.52
X40.64Y-99.06
X40.64Y-101.6
X40.64Y-104.14
X40.64Y-106.68
X40.64Y-109.22
X40.64Y-111.76
X40.64Y-114.3
X40.64Y-116.84
X40.64Y-119.38
X40.64Y-121.92
X40.64Y-124.46
X40.64Y-127.0
X40.64Y-129.54
X40.64Y-132.08
X40.64Y-134.62
X40.64Y-137.16
X40.64Y-139.7
X40.64Y-142.24
X40.64Y-144.78
X40.64Y-147.32
X40.64Y-149.86
X40.64Y-152.4
X40.64Y-154.94
X40.64Y-157.48
X40.64Y-160.02
X40.64Y-162.56
X40.64Y-165.1
X40.64Y-167.64
X40.64Y-170.18
X43.18Y-45.72
X43.18Y-48.26
X43.18Y-50.8
X43.18Y-53.34
X43.18Y-55.88
X43.18Y-58.42
X43.18Y-60.96
X43.18Y-63.5
X43.18Y-66.04
X43.18Y-68.58
X43.18Y-71.12
X43.18Y-73.66
X43.18Y-76.2
X43.18Y-78.74
X43.18Y-81.28
X43.18Y-83.82
X43.18Y-86.36
X43.18Y-88.9
X43.18Y-91.44
X43.18Y-93.98
X43.18Y-96.52
X43.18Y-99.06
X43.18Y-101.6
X43.18Y-104.14
X43.18Y-106.68
X43.18Y-109.22
X43.18Y-111.76
X43.18Y-114.3
X43.18Y-116.84
X43.18Y-119.38
X43.18Y-121.92
X43.18Y-124.46
X43.18Y-127.0
X43.18Y-129.54
X43.18Y-132.08
X43.18Y-134.62
X43.18Y-137.16
X43.18Y-139.7
X43.18Y-142.24
X43.18Y-144.78
X43.18Y-147.32
X43.18Y-149.86
X43.18Y-152.4
X43.18Y-154.94
X43.18Y-157.48
X43.18Y-160.02
X43.18Y-162.56
X43.18Y-165.1
X43.18Y-167.64
X43.18Y-170.18
X45.72Y-45.72
X45.72Y-48.26
X45.72Y-50.8
X45.72Y-53.34
X45.72Y-55.88
X45.72Y-58.42
X45.72Y-60.96
X45.72Y-63.5
X45.72Y-66.04
X45.72Y-68.58
X45.72Y-71.12
X45.72Y-73.66
X45.72Y-76.2
X45.72Y-78.74
X45.72Y-81.28
X45.72Y-83.82
X45.72Y-86.36
X45.72Y-88.9
X45.72Y-91.44
X45.72Y-93.98
X45.72Y-96.52
X45.72Y-99.06
X45.72Y-101.6
X45.72Y-104.14
X45.72Y-106.68
X45.72Y-109.22
X45.72Y-111.76
X45.72Y-114.3
X45.72Y-116.84
X45.72Y-119.38
X45.72Y-121.92
X45.72Y-124.46
X45.72Y-127.0
X45.72Y-129.54
X45.72Y-132.08
X45.72Y-134.62
X45.72Y-137.16
X45.72Y-139.7
X45.72Y-142.24
X45.72Y-144.78
X45.72Y-147.32
X45.72Y-149.86
X45.72Y-152.4
X45.72Y-154.94
X45.72Y-157.48
X45.72Y-160.02
X45.72Y-162.56
X45.72Y-165.1
X45.72Y-167.64
X45.72Y-170.18
X48.26Y-45.72
X48.26Y-48.26
X48.26Y-50.8
X48.26Y-53.34
X48.26Y-55.88
X48.26Y-58.42
X48.26Y-60.96
X48.26Y-63.5
X48.26Y-66.04
X48.26Y-68.58
X48.26Y-71.12
X48.26Y-73.66
X48.26Y-76.2
X48.26Y-78.74
X48.26Y-81.28
X48.26Y-83.82
X48.26Y-86.36
X48.26Y-88.9
X48.26Y-91.44
X48.26Y-93.98
X48.26Y-96.52
X48.26Y-99.06
X48.26Y-101.6
X48.26Y-104.14
X48.26Y-106.68
X48.26Y-109.22
X48.26Y-111.76
X48.26Y-114.3
X48.26Y-116.84
X48.26Y-119.38
X48.26Y-121.92
X48.26Y-124.46
X48.26Y-127.0
X48.26Y-129.54
X48.26Y-132.08
X48.26Y-134.62
X48.26Y-137.16
X48.26Y-139.7
X48.26Y-142.24
X48.26Y-144.78
X48.26Y-147.32
X48.26Y-149.86
X48.26Y-152.4
X48.26Y-154.94
X48.26Y-157.48
X48.26Y-160.02
X48.26Y-162.56
X48.26Y-165.1
X48.26Y-167.64
X48.26Y-170.18
X50.8Y-45.72
X50.8Y-48.26
X50.8Y-50.8
X50.8Y-53.34
X50.8Y-55.88
X50.8Y-58.42
X50.8Y-60.96
X50.8Y-63.5
X50.8Y-66.04
X50.8Y-68.58
X50.8Y-71.12
X50.8Y-73.66
X50.8Y-76.2
X50.8Y-78.74
X50.8Y-81.28
X50.8Y-83.82
X50.8Y-86.36
X50.8Y-88.9
X50.8Y-91.44
X50.8Y-93.98
X50.8Y-96.52
X50.8Y-99.06
X50.8Y-101.6
X50.8Y-104.14
X50.8Y-106.68
X50.8Y-109.22
X50.8Y-111.76
X50.8Y-114.3
X50.8Y-116.84
X50.8Y-119.38
X50.8Y-121.92
X50.8Y-124.46
X50.8Y-127.0
X50.8Y-129.54
X50.8Y-132.08
X50.8Y-134.62
X50.8Y-137.16
X50.8Y-139.7
X50.8Y-142.24
X50.8Y-144.78
X50.8Y-147.32
X50.8Y-149.86
X50.8Y-152.4
X50.8Y-154.94
X50.8Y-157.48
X50.8Y-160.02
X50.8Y-162.56
X50.8Y-165.1
X50.8Y-167.64
X50.8Y-170.18
X53.34Y-45.72
X53.34Y-48.26
X53.34Y-50.8
X53.34Y-53.34
X53.34Y-55.88
X53.34Y-58.42
X53.34Y-60.96
X53.34Y-63.5
X53.34Y-66.04
X53.34Y-68.58
X53.34Y-71.12
X53.34Y-73.66
X53.34Y-76.2
X53.34Y-78.74
X53.34Y-81.28
X53.34Y-83.82
X53.34Y-86.36
X53.34Y-88.9
X53.34Y-91.44
X53.34Y-93.98
X53.34Y-96.52
X53.34Y-99.06
X53.34Y-101.6
X53.34Y-104.14
X53.34Y-106.68
X53.34Y-109.22
X53.34Y-111.76
X53.34Y-114.3
X53.34Y-116.84
X53.34Y-119.38
X53.34Y-121.92
X53.34Y-124.46
X53.34Y-127.0
X53.34Y-129.54
X53.34Y-132.08
X53.34Y-134.62
X53.34Y-137.16
X53.34Y-139.7
X53.34Y-142.24
X53.34Y-144.78
X53.34Y-147.32
X53.34Y-149.86
X53.34Y-152.4
X53.34Y-154.94
X53.34Y-157.48
X53.34Y-160.02
X53.34Y-162.56
X53.34Y-165.1
X53.34Y-167.64
X53.34Y-170.18
X55.88Y-45.72
X55.88Y-48.26
X55.88Y-50.8
X55.88Y-53.34
X55.88Y-55.88
X55.88Y-58.42
X55.88Y-60.96
X55.88Y-63.5
X55.88Y-66.04
X55.88Y-68.58
X55.88Y-71.12
X55.88Y-73.66
X55.88Y-76.2
X55.88Y-78.74
X55.88Y-81.28
X55.88Y-83.82
X55.88Y-86.36
X55.88Y-88.9
X55.88Y-91.44
X55.88Y-93.98
X55.88Y-96.52
X55.88Y-99.06
X55.88Y-101.6
X55.88Y-104.14
X55.88Y-106.68
X55.88Y-109.22
X55.88Y-111.76
X55.88Y-114.3
X55.88Y-116.84
X55.88Y-119.38
X55.88Y-121.92
X55.88Y-124.46
X55.88Y-127.0
X55.88Y-129.54
X55.88Y-132.08
X55.88Y-134.62
X55.88Y-137.16
X55.88Y-139.7
X55.88Y-142.24
X55.88Y-144.78
X55.88Y-147.32
X55.88Y-149.86
X55.88Y-152.4
X55.88Y-154.94
X55.88Y-157.48
X55.88Y-160.02
X55.88Y-162.56
X55.88Y-165.1
X55.88Y-167.64
X55.88Y-170.18
X58.42Y-45.72
X58.42Y-48.26
X58.42Y-50.8
X58.42Y-53.34
X58.42Y-55.88
X58.42Y-58.42
X58.42Y-60.96
X58.42Y-63.5
X58.42Y-66.04
X58.42Y-68.58
X58.42Y-71.12
X58.42Y-73.66
X58.42Y-76.2
X58.42Y-78.74
X58.42Y-81.28
X58.42Y-83.82
X58.42Y-86.36
X58.42Y-88.9
X58.42Y-91.44
X58.42Y-93.98
X58.42Y-96.52
X58.42Y-99.06
X58.42Y-101.6
X58.42Y-104.14
X58.42Y-106.68
X58.42Y-109.22
X58.42Y-111.76
X58.42Y-114.3
X58.42Y-116.84
X58.42Y-119.38
X58.42Y-121.92
X58.42Y-124.46
X58.42Y-127.0
X58.42Y-129.54
X58.42Y-132.08
X58.42Y-134.62
X58.42Y-137.16
X58.42Y-139.7
X58.42Y-142.24
X58.42Y-144.78
X58.42Y-147.32
X58.42Y-149.86
X58.42Y-152.4
X58.42Y-154.94
X58.42Y-157.48
X58.42Y-160.02
X58.42Y-162.56
X58.42Y-165.1
X58.42Y-167.64
X58.42Y-170.18
X60.96Y-45.72
X60.96Y-48.26
X60.96Y-50.8
X60.96Y-53.34
X60.96Y-55.88
X60.96Y-58.42
X60.96Y-60.96
X60.96Y-63.5
X60.96Y-66.04
X60.96Y-68.58
X60.96Y-71.12
X60.96Y-73.66
X60.96Y-76.2
X60.96Y-78.74
X60.96Y-81.28
X60.96Y-83.82
X60.96Y-86.36
X60.96Y-88.9
X60.96Y-91.44
X60.96Y-93.98
X60.96Y-96.52
X60.96Y-99.06
X60.96Y-101.6
X60.96Y-104.14
X60.96Y-106.68
X60.96Y-109.22
X60.96Y-111.76
X60.96Y-114.3
X60.96Y-116.84
X60.96Y-119.38
X60.96Y-121.92
X60.96Y-124.46
X60.96Y-127.0
X60.96Y-129.54
X60.96Y-132.08
X60.96Y-134.62
X60.96Y-137.16
X60.96Y-139.7
X60.96Y-142.24
X60.96Y-144.78
X60.96Y-147.32
X60.96Y-149.86
X60.96Y-152.4
X60.96Y-154.94
X60.96Y-157.48
X60.96Y-160.02
X60.96Y-162.56
X60.96Y-165.1
X60.96Y-167.64
X60.96Y-170.18
X63.5Y-45.72
X63.5Y-48.26
X63.5Y-50.8
X63.5Y-53.34
X63.5Y-55.88
X63.5Y-58.42
X63.5Y-60.96
X63.5Y-63.5
X63.5Y-66.04
X63.5Y-68.58
X63.5Y-71.12
X63.5Y-73.66
X63.5Y-76.2
X63.5Y-78.74
X63.5Y-81.28
X63.5Y-83.82
X63.5Y-86.36
X63.5Y-88.9
X63.5Y-91.44
X63.5Y-93.98
X63.5Y-96.52
X63.5Y-99.06
X63.5Y-101.6
X63.5Y-104.14
X63.5Y-106.68
X63.5Y-109.22
X63.5Y-111.76
X63.5Y-114.3
X63.5Y-116.84
X63.5Y-119.38
X63.5Y-121.92
X63.5Y-124.46
X63.5Y-127.0
X63.5Y-129.54
X63.5Y-132.08
X63.5Y-134.62
X63.5Y-137.16
X63.5Y-139.7
X63.5Y-142.24
X63.5Y-144.78
X63.5Y-147.32
X63.5Y-149.86
X63.5Y-152.4
X63.5Y-154.94
X63.5Y-157.48
X63.5Y-160.02
X63.5Y-162.56
X63.5Y-165.1
X63.5Y-167.64
X63.5Y-170.18
X66.04Y-45.72
X66.04Y-48.26
X66.04Y-50.8
X66.04Y-53.34
X66.04Y-55.88
X66.04Y-58.42
X66.04Y-60.96
X66.04Y-63.5
X66.04Y-66.04
X66.04Y-68.58
X66.04Y-71.12
X66.04Y-73.66
X66.04Y-76.2
X66.04Y-78.74
X66.04Y-81.28
X66.04Y-83.82
X66.04Y-86.36
X66.04Y-88.9
X66.04Y-91.44
X66.04Y-93.98
X66.04Y-96.52
X66.04Y-99.06
X66.04Y-101.6
X66.04Y-104.14
X66.04Y-106.68
X66.04Y-109.22
X66.04Y-111.76
X66.04Y-114.3
X66.04Y-116.84
X66.04Y-119.38
X66.04Y-121.92
X66.04Y-124.46
X66.04Y-127.0
X66.04Y-129.54
X66.04Y-132.08
X66.04Y-134.62
X66.04Y-137.16
X66.04Y-139.7
X66.04Y-142.24
X66.04Y-144.78
X66.04Y-147.32
X66.04Y-149.86
X66.04Y-152.4
X66.04Y-154.94
X66.04Y-157.48
X66.04Y-160.02
X66.04Y-162.56
X66.04Y-165.1
X66.04Y-167.64
X66.04Y-170.18
X68.58Y-45.72
X68.58Y-48.26
X68.58Y-50.8
X68.58Y-53.34
X68.58Y-55.88
X68.58Y-58.42
X68.58Y-60.96
X68.58Y-63.5
X68.58Y-66.04
X68.58Y-68.58
X68.58Y-71.12
X68.58Y-73.66
X68.58Y-76.2
X68.58Y-78.74
X68.58Y-81.28
X68.58Y-83.82
X68.58Y-86.36
X68.58Y-88.9
X68.58Y-91.44
X68.58Y-93.98
X68.58Y-96.52
X68.58Y-99.06
X68.58Y-101.6
X68.58Y-104.14
X68.58Y-106.68
X68.58Y-109.22
X68.58Y-111.76
X68.58Y-114.3
X68.58Y-116.84
X68.58Y-119.38
X68.58Y-121.92
X68.58Y-124.46
X68.58Y-127.0
X68.58Y-129.54
X68.58Y-132.08
X68.58Y-134.62
X68.58Y-137.16
X68.58Y-139.7
X68.58Y-142.24
X68.58Y-144.78
X68.58Y-147.32
X68.58Y-149.86
X68.58Y-152.4
X68.58Y-154.94
X68.58Y-157.48
X68.58Y-160.02
X68.58Y-162.56
X68.58Y-165.1
X68.58Y-167.64
X68.58Y-170.18
X71.12Y-45.72
X71.12Y-48.26
X71.12Y-50.8
X71.12Y-53.34
X71.12Y-55.88
X71.12Y-58.42
X71.12Y-60.96
X71.12Y-63.5
X71.12Y-66.04
X71.12Y-68.58
X71.12Y-71.12
X71.12Y-73.66
X71.12Y-76.2
X71.12Y-78.74
X71.12Y-81.28
X71.12Y-83.82
X71.12Y-86.36
X71.12Y-88.9
X71.12Y-91.44
X71.12Y-93.98
X71.12Y-96.52
X71.12Y-99.06
X71.12Y-101.6
X71.12Y-104.14
X71.12Y-106.68
X71.12Y-109.22
X71.12Y-111.76
X71.12Y-114.3
X71.12Y-116.84
X71.12Y-119.38
X71.12Y-121.92
X71.12Y-124.46
X71.12Y-127.0
X71.12Y-129.54
X71.12Y-132.08
X71.12Y-134.62
X71.12Y-137.16
X71.12Y-139.7
X71.12Y-142.24
X71.12Y-144.78
X71.12Y-147.32
X71.12Y-149.86
X71.12Y-152.4
X71.12Y-154.94
X71.12Y-157.48
X71.12Y-160.02
X71.12Y-162.56
X71.12Y-165.1
X71.12Y-167.64
X71.12Y-170.18
X73.66Y-45.72
X73.66Y-48.26
X73.66Y-50.8
X73.66Y-53.34
X73.66Y-55.88
X73.66Y-58.42
X73.66Y-60.96
X73.66Y-63.5
X73.66Y-66.04
X73.66Y-68.58
X73.66Y-71.12
X73.66Y-73.66
X73.66Y-76.2
X73.66Y-78.74
X73.66Y-81.28
X73.66Y-83.82
X73.66Y-86.36
X73.66Y-88.9
X73.66Y-91.44
X73.66Y-93.98
X73.66Y-96.52
X73.66Y-99.06
X73.66Y-101.6
X73.66Y-104.14
X73.66Y-106.68
X73.66Y-109.22
X73.66Y-111.76
X73.66Y-114.3
X73.66Y-116.84
X73.66Y-119.38
X73.66Y-121.92
X73.66Y-124.46
X73.66Y-127.0
X73.66Y-129.54
X73.66Y-132.08
X73.66Y-134.62
X73.66Y-137.16
X73.66Y-139.7
X73.66Y-142.24
X73.66Y-144.78
X73.66Y-147.32
X73.66Y-149.86
X73.66Y-152.4
X73.66Y-154.94
X73.66Y-157.48
X73.66Y-160.02
X73.66Y-162.56
X73.66Y-165.1
X73.66Y-167.64
X73.66Y-170.18
X76.2Y-45.72
X76.2Y-48.26
X76.2Y-50.8
X76.2Y-53.34
X76.2Y-55.88
X76.2Y-58.42
X76.2Y-60.96
X76.2Y-63.5
X76.2Y-66.04
X76.2Y-68.58
X76.2Y-71.12
X76.2Y-73.66
X76.2Y-76.2
X76.2Y-78.74
X76.2Y-81.28
X76.2Y-83.82
X76.2Y-86.36
X76.2Y-88.9
X76.2Y-91.44
X76.2Y-93.98
X76.2Y-96.52
X76.2Y-99.06
X76.2Y-101.6
X76.2Y-104.14
X76.2Y-106.68
X76.2Y-109.22
X76.2Y-111.76
X76.2Y-114.3
X76.2Y-116.84
X76.2Y-119.38
X76.2Y-121.92
X76.2Y-124.46
X76.2Y-127.0
X76.2Y-129.54
X76.2Y-132.08
X76.2Y-134.62
X76.2Y-137.16
X76.2Y-139.7
X76.2Y-142.24
X76.2Y-144.78
X76.2Y-147.32
X76.2Y-149.86
X76.2Y-152.4
X76.2Y-154.94
X76.2Y-157.48
X76.2Y-160.02
X76.2Y-162.56
X76.2Y-165.1
X76.2Y-167.64
X76.2Y-170.18
X78.74Y-45.72
X78.74Y-48.26
X78.74Y-50.8
X78.74Y-53.34
X78.74Y-55.88
X78.74Y-58.42
X78.74Y-60.96
X78.74Y-63.5
X78.74Y-66.04
X78.74Y-68.58
X78.74Y-71.12
X78.74Y-73.66
X78.74Y-76.2
X78.74Y-78.74
X78.74Y-81.28
X78.74Y-83.82
X78.74Y-86.36
X78.74Y-88.9
X78.74Y-91.44
X78.74Y-93.98
X78.74Y-96.52
X78.74Y-99.06
X78.74Y-101.6
X78.74Y-104.14
X78.74Y-106.68
X78.74Y-109.22
X78.74Y-111.76
X78.74Y-114.3
X78.74Y-116.84
X78.74Y-119.38
X78.74Y-121.92
X78.74Y-124.46
X78.74Y-127.0
X78.74Y-129.54
X78.74Y-132.08
X78.74Y-134.62
X78.74Y-137.16
X78.74Y-139.7
X78.74Y-142.24
X78.74Y-144.78
X78.74Y-147.32
X78.74Y-149.86
X78.74Y-152.4
X78.74Y-154.94
X78.74Y-157.48
X78.74Y-160.02
X78.74Y-162.56
X78.74Y-165.1
X78.74Y-167.64
X78.74Y-170.18
X81.28Y-45.72
X81.28Y-48.26
X81.28Y-50.8
X81.28Y-53.34
X81.28Y-55.88
X81.28Y-58.42
X81.28Y-60.96
X81.28Y-63.5
X81.28Y-66.04
X81.28Y-68.58
X81.28Y-71.12
X81.28Y-73.66
X81.28Y-76.2
X81.28Y-78.74
X81.28Y-81.28
X81.28Y-83.82
X81.28Y-86.36
X81.28Y-88.9
X81.28Y-91.44
X81.28Y-93.98
X81.28Y-96.52
X81.28Y-99.06
X81.28Y-101.6
X81.28Y-104.14
X81.28Y-106.68
X81.28Y-109.22
X81.28Y-111.76
X81.28Y-114.3
X81.28Y-116.84
X81.28Y-119.38
X81.28Y-121.92
X81.28Y-124.46
X81.28Y-127.0
X81.28Y-129.54
X81.28Y-132.08
X81.28Y-134.62
X81.28Y-137.16
X81.28Y-139.7
X81.28Y-142.24
X81.28Y-144.78
X81.28Y-147.32
X81.28Y-149.86
X81.28Y-152.4
X81.28Y-154.94
X81.28Y-157.48
X81.28Y-160.02
X81.28Y-162.56
X81.28Y-165.1
X81.28Y-167.64
X81.28Y-170.18
X83.82Y-45.72
X83.82Y-48.26
X83.82Y-50.8
X83.82Y-53.34
X83.82Y-55.88
X83.82Y-58.42
X83.82Y-60.96
X83.82Y-63.5
X83.82Y-66.04
X83.82Y-68.58
X83.82Y-71.12
X83.82Y-73.66
X83.82Y-76.2
X83.82Y-78.74
X83.82Y-81.28
X83.82Y-83.82
X83.82Y-86.36
X83.82Y-88.9
X83.82Y-91.44
X83.82Y-93.98
X83.82Y-96.52
X83.82Y-99.06
X83.82Y-101.6
X83.82Y-104.14
X83.82Y-106.68
X83.82Y-109.22
X83.82Y-111.76
X83.82Y-114.3
X83.82Y-116.84
X83.82Y-119.38
X83.82Y-121.92
X83.82Y-124.46
X83.82Y-127.0
X83.82Y-129.54
X83.82Y-132.08
X83.82Y-134.62
X83.82Y-137.16
X83.82Y-139.7
X83.82Y-142.24
X83.82Y-144.78
X83.82Y-147.32
X83.82Y-149.86
X83.82Y-152.4
X83.82Y-154.94
X83.82Y-157.48
X83.82Y-160.02
X83.82Y-162.56
X83.82Y-165.1
X83.82Y-167.64
X83.82Y-170.18
X86.36Y-45.72
X86.36Y-48.26
X86.36Y-50.8
X86.36Y-53.34
X86.36Y-55.88
X86.36Y-58.42
X86.36Y-60.96
X86.36Y-63.5
X86.36Y-66.04
X86.36Y-68.58
X86.36Y-71.12
X86.36Y-73.66
X86.36Y-76.2
X86.36Y-78.74
X86.36Y-81.28
X86.36Y-83.82
X86.36Y-86.36
X86.36Y-88.9
X86.36Y-91.44
X86.36Y-93.98
X86.36Y-96.52
X86.36Y-99.06
X86.36Y-101.6
X86.36Y-104.14
X86.36Y-106.68
X86.36Y-109.22
X86.36Y-111.76
X86.36Y-114.3
X86.36Y-116.84
X86.36Y-119.38
X86.36Y-121.92
X86.36Y-124.46
X86.36Y-127.0
X86.36Y-129.54
X86.36Y-132.08
X86.36Y-134.62
X86.36Y-137.16
X86.36Y-139.7
X86.36Y-142.24
X86.36Y-144.78
X86.36Y-147.32
X86.36Y-149.86
X86.36Y-152.4
X86.36Y-154.94
X86.36Y-157.48
X86.36Y-160.02
X86.36Y-162.56
X86.36Y-165.1
X86.36Y-167.64
X86.36Y-170.18
X88.9Y-45.72
X88.9Y-48.26
X88.9Y-50.8
X88.9Y-53.34
X88.9Y-55.88
X88.9Y-58.42
X88.9Y-60.96
X88.9Y-63.5
X88.9Y-66.04
X88.9Y-68.58
X88.9Y-71.12
X88.9Y-73.66
X88.9Y-76.2
X88.9Y-78.74
X88.9Y-81.28
X88.9Y-83.82
X88.9Y-86.36
X88.9Y-88.9
X88.9Y-91.44
X88.9Y-93.98
X88.9Y-96.52
X88.9Y-99.06
X88.9Y-101.6
X88.9Y-104.14
X88.9Y-106.68
X88.9Y-109.22
X88.9Y-111.76
X88.9Y-114.3
X88.9Y-116.84
X88.9Y-119.38
X88.9Y-121.92
X88.9Y-124.46
X88.9Y-127.0
X88.9Y-129.54
X88.9Y-132.08
X88.9Y-134.62
X88.9Y-137.16
X88.9Y-139.7
X88.9Y-142.24
X88.9Y-144.78
X88.9Y-147.32
X88.9Y-149.86
X88.9Y-152.4
X88.9Y-154.94
X88.9Y-157.48
X88.9Y-160.02
X88.9Y-162.56
X88.9Y-165.1
X88.9Y-167.64
X88.9Y-170.18
X91.44Y-45.72
X91.44Y-48.26
X91.44Y-50.8
X91.44Y-53.34
X91.44Y-55.88
X91.44Y-58.42
X91.44Y-60.96
X91.44Y-63.5
X91.44Y-66.04
X91.44Y-68.58
X91.44Y-71.12
X91.44Y-73.66
X91.44Y-76.2
X91.44Y-78.74
X91.44Y-81.28
X91.44Y-83.82
X91.44Y-86.36
X91.44Y-88.9
X91.44Y-91.44
X91.44Y-93.98
X91.44Y-96.52
X91.44Y-99.06
X91.44Y-101.6
X91.44Y-104.14
X91.44Y-106.68
X91.44Y-109.22
X91.44Y-111.76
X91.44Y-114.3
X91.44Y-116.84
X91.44Y-119.38
X91.44Y-121.92
X91.44Y-124.46
X91.44Y-127.0
X91.44Y-129.54
X91.44Y-132.08
X91.44Y-134.62
X91.44Y-137.16
X91.44Y-139.7
X91.44Y-142.24
X91.44Y-144.78
X91.44Y-147.32
X91.44Y-149.86
X91.44Y-152.4
X91.44Y-154.94
X91.44Y-157.48
X91.44Y-160.02
X91.44Y-162.56
X91.44Y-165.1
X91.44Y-167.64
X91.44Y-170.18
X93.98Y-45.72
X93.98Y-48.26
X93.98Y-50.8
X93.98Y-53.34
X93.98Y-55.88
X93.98Y-58.42
X93.98Y-60.96
X93.98Y-63.5
X93.98Y-66.04
X93.98Y-68.58
X93.98Y-71.12
X93.98Y-73.66
X93.98Y-76.2
X93.98Y-78.74
X93.98Y-81.28
X93.98Y-83.82
X93.98Y-86.36
X93.98Y-88.9
X93.98Y-91.44
X93.98Y-93.98
X93.98Y-96.52
X93.98Y-99.06
X93.98Y-101.6
X93.98Y-104.14
X93.98Y-106.68
X93.98Y-109.22
X93.98Y-111.76
X93.98Y-114.3
X93.98Y-116.84
X93.98Y-119.38
X93.98Y-121.92
X93.98Y-124.46
X93.98Y-127.0
X93.98Y-129.54
X93.98Y-132.08
X93.98Y-134.62
X93.98Y-137.16
X93.98Y-139.7
X93.98Y-142.24
X93.98Y-144.78
X93.98Y-147.32
X93.98Y-149.86
X93.98Y-152.4
X93.98Y-154.94
X93.98Y-157.48
X93.98Y-160.02
X93.98Y-162.56
X93.98Y-165.1
X93.98Y-167.64
X93.98Y-170.18
X96.52Y-45.72
X96.52Y-48.26
X96.52Y-50.8
X96.52Y-53.34
X96.52Y-55.88
X96.52Y-58.42
X96.52Y-60.96
X96.52Y-63.5
X96.52Y-66.04
X96.52Y-68.58
X96.52Y-71.12
X96.52Y-73.66
X96.52Y-76.2
X96.52Y-78.74
X96.52Y-81.28
X96.52Y-83.82
X96.52Y-86.36
X96.52Y-88.9
X96.52Y-91.44
X96.52Y-93.98
X96.52Y-96.52
X96.52Y-99.06
X96.52Y-101.6
X96.52Y-104.14
X96.52Y-106.68
X96.52Y-109.22
X96.52Y-111.76
X96.52Y-114.3
X96.52Y-116.84
X96.52Y-119.38
X96.52Y-121.92
X96.52Y-124.46
X96.52Y-127.0
X96.52Y-129.54
X96.52Y-132.08
X96.52Y-134.62
X96.52Y-137.16
X96.52Y-139.7
X96.52Y-142.24
X96.52Y-144.78
X96.52Y-147.32
X96.52Y-149.86
X96.52Y-152.4
X96.52Y-154.94
X96.52Y-157.48
X96.52Y-160.02
X96.52Y-162.56
X96.52Y-165.1
X96.52Y-167.64
X96.52Y-170.18
X99.06Y-45.72
X99.06Y-48.26
X99.06Y-50.8
X99.06Y-53.34
X99.06Y-55.88
X99.06Y-58.42
X99.06Y-60.96
X99.06Y-63.5
X99.06Y-66.04
X99.06Y-68.58
X99.06Y-71.12
X99.06Y-73.66
X99.06Y-76.2
X99.06Y-78.74
X99.06Y-81.28
X99.06Y-83.82
X99.06Y-86.36
X99.06Y-88.9
X99.06Y-91.44
X99.06Y-93.98
X99.06Y-96.52
X99.06Y-99.06
X99.06Y-101.6
X99.06Y-104.14
X99.06Y-106.68
X99.06Y-109.22
X99.06Y-111.76
X99.06Y-114.3
X99.06Y-116.84
X99.06Y-119.38
X99.06Y-121.92
X99.06Y-124.46
X99.06Y-127.0
X99.06Y-129.54
X99.06Y-132.08
X99.06Y-134.62
X99.06Y-137.16
X99.06Y-139.7
X99.06Y-142.24
X99.06Y-144.78
X99.06Y-147.32
X99.06Y-149.86
X99.06Y-152.4
X99.06Y-154.94
X99.06Y-157.48
X99.06Y-160.02
X99.06Y-162.56
X99.06Y-165.1
X99.06Y-167.64
X99.06Y-170.18
X101.6Y-45.72
X101.6Y-48.26
X101.6Y-50.8
X101.6Y-53.34
X101.6Y-55.88
X101.6Y-58.42
X101.6Y-60.96
X101.6Y-63.5
X101.6Y-66.04
X101.6Y-68.58
X101.6Y-71.12
X101.6Y-73.66
X101.6Y-76.2
X101.6Y-78.74
X101.6Y-81.28
X101.6Y-83.82
X101.6Y-86.36
X101.6Y-88.9
X101.6Y-91.44
X101.6Y-93.98
X101.6Y-96.52
X101.6Y-99.06
X101.6Y-101.6
X101.6Y-104.14
X101.6Y-106.68
X101.6Y-109.22
X101.6Y-111.76
X101.6Y-114.3
X101.6Y-116.84
X101.6Y-119.38
X101.6Y-121.92
X101.6Y-124.46
X101.6Y-127.0
X101.6Y-129.54
X101.6Y-132.08
X101.6Y-134.62
X101.6Y-137.16
X101.6Y-139.7
X101.6Y-142.24
X101.6Y-144.78
X101.6Y-147.32
X101.6Y-149.86
X101.6Y-152.4
X101.6Y-154.94
X101.6Y-157.48
X101.6Y-160.02
X101.6Y-162.56
X101.6Y-165.1
X101.6Y-167.64
X101.6Y-170.18
X104.14Y-45.72
X104.14Y-48.26
X104.14Y-50.8
X104.14Y-53.34
X104.14Y-55.88
X104.14Y-58.42
X104.14Y-60.96
X104.14Y-63.5
X104.14Y-66.04
X104.14Y-68.58
X104.14Y-71.12
X104.14Y-73.66
X104.14Y-76.2
X104.14Y-78.74
X104.14Y-81.28
X104.14Y-83.82
X104.14Y-86.36
X104.14Y-88.9
X104.14Y-91.44
X104.14Y-93.98
X104.14Y-96.52
X104.14Y-99.06
X104.14Y-101.6
X104.14Y-104.14
X104.14Y-106.68
X104.14Y-109.22
X104.14Y-111.76
X104.14Y-114.3
X104.14Y-116.84
X104.14Y-119.38
X104.14Y-121.92
X104.14Y-124.46
X104.14Y-127.0
X104.14Y-129.54
X104.14Y-132.08
X104.14Y-134.62
X104.14Y-137.16
X104.14Y-139.7
X104.14Y-142.24
X104.14Y-144.78
X104.14Y-147.32
X104.14Y-149.86
X104.14Y-152.4
X104.14Y-154.94
X104.14Y-157.48
X104.14Y-160.02
X104.14Y-162.56
X104.14Y-165.1
X104.14Y-167.64
X104.14Y-170.18
X106.68Y-45.72
X106.68Y-48.26
X106.68Y-50.8
X106.68Y-53.34
X106.68Y-55.88
X106.68Y-58.42
X106.68Y-60.96
X106.68Y-63.5
X106.68Y-66.04
X106.68Y-68.58
X106.68Y-71.12
X106.68Y-73.66
X106.68Y-76.2
X106.68Y-78.74
X106.68Y-81.28
X106.68Y-83.82
X106.68Y-86.36
X106.68Y-88.9
X106.68Y-91.44
X106.68Y-93.98
X106.68Y-96.52
X106.68Y-99.06
X106.68Y-101.6
X106.68Y-104.14
X106.68Y-106.68
X106.68Y-109.22
X106.68Y-111.76
X106.68Y-114.3
X106.68Y-116.84
X106.68Y-119.38
X106.68Y-121.92
X106.68Y-124.46
X106.68Y-127.0
X106.68Y-129.54
X106.68Y-132.08
X106.68Y-134.62
X106.68Y-137.16
X106.68Y-139.7
X106.68Y-142.24
X106.68Y-144.78
X106.68Y-147.32
X106.68Y-149.86
X106.68Y-152.4
X106.68Y-154.94
X106.68Y-157.48
X106.68Y-160.02
X106.68Y-162.56
X106.68Y-165.1
X106.68Y-167.64
X106.68Y-170.18
X109.22Y-45.72
X109.22Y-48.26
X109.22Y-50.8
X109.22Y-53.34
X109.22Y-55.88
X109.22Y-58.42
X109.22Y-60.96
X109.22Y-63.5
X109.22Y-66.04
X109.22Y-68.58
X109.22Y-71.12
X109.22Y-73.66
X109.22Y-76.2
X109.22Y-78.74
X109.22Y-81.28
X109.22Y-83.82
X109.22Y-86.36
X109.22Y-88.9
X109.22Y-91.44
X109.22Y-93.98
X109.22Y-96.52
X109.22Y-99.06
X109.22Y-101.6
X109.22Y-104.14
X109.22Y-106.68
X109.22Y-109.22
X109.22Y-111.76
X109.22Y-114.3
X109.22Y-116.84
X109.22Y-119.38
X109.22Y-121.92
X109.22Y-124.46
X109.22Y-127.0
X109.22Y-129.54
X109.22Y-132.08
X109.22Y-134.62
X109.22Y-137.16
X109.22Y-139.7
X109.22Y-142.24
X109.22Y-144.78
X109.22Y-147.32
X109.22Y-149.86
X109.22Y-152.4
X109.22Y-154.94
X109.22Y-157.48
X109.22Y-160.02
X109.22Y-162.56
X109.22Y-165.1
X109.22Y-167.64
X109.22Y-170.18
X111.76Y-45.72
X111.76Y-48.26
X111.76Y-50.8
X111.76Y-53.34
X111.76Y-55.88
X111.76Y-58.42
X111.76Y-60.96
X111.76Y-63.5
X111.76Y-66.04
X111.76Y-68.58
X111.76Y-71.12
X111.76Y-73.66
X111.76Y-76.2
X111.76Y-78.74
X111.76Y-81.28
X111.76Y-83.82
X111.76Y-86.36
X111.76Y-88.9
X111.76Y-91.44
X111.76Y-93.98
X111.76Y-96.52
X111.76Y-99.06
X111.76Y-101.6
X111.76Y-104.14
X111.76Y-106.68
X111.76Y-109.22
X111.76Y-111.76
X111.76Y-114.3
X111.76Y-116.84
X111.76Y-119.38
X111.76Y-121.92
X111.76Y-124.46
X111.76Y-127.0
X111.76Y-129.54
X111.76Y-132.08
X111.76Y-134.62
X111.76Y-137.16
X111.76Y-139.7
X111.76Y-142.24
X111.76Y-144.78
X111.76Y-147.32
X111.76Y-149.86
X111.76Y-152.4
X111.76Y-154.94
X111.76Y-157.48
X111.76Y-160.02
X111.76Y-162.56
X111.76Y-165.1
X111.76Y-167.64
X111.76Y-170.18
X114.3Y-45.72
X114.3Y-48.26
X114.3Y-50.8
X114.3Y-53.34
X114.3Y-55.88
X114.3Y-58.42
X114.3Y-60.96
X114.3Y-63.5
X114.3Y-66.04
X114.3Y-68.58
X114.3Y-71.12
X114.3Y-73.66
X114.3Y-76.2
X114.3Y-78.74
X114.3Y-81.28
X114.3Y-83.82
X114.3Y-86.36
X114.3Y-88.9
X114.3Y-91.44
X114.3Y-93.98
X114.3Y-96.52
X114.3Y-99.06
X114.3Y-101.6
X114.3Y-104.14
X114.3Y-106.68
X114.3Y-109.22
X114.3Y-111.76
X114.3Y-114.3
X114.3Y-116.84
X114.3Y-119.38
X114.3Y-121.92
X114.3Y-124.46
X114.3Y-127.0
X114.3Y-129.54
X114.3Y-132.08
X114.3Y-134.62
X114.3Y-137.16
X114.3Y-139.7
X114.3Y-142.24
X114.3Y-144.78
X114.3Y-147.32
X114.3Y-149.86
X114.3Y-152.4
X114.3Y-154.94
X114.3Y-157.48
X114.3Y-160.02
X114.3Y-162.56
X114.3Y-165.1
X114.3Y-167.64
X114.3Y-170.18
X116.84Y-45.72
X116.84Y-48.26
X116.84Y-50.8
X116.84Y-53.34
X116.84Y-55.88
X116.84Y-58.42
X116.84Y-60.96
X116.84Y-63.5
X116.84Y-66.04
X116.84Y-68.58
X116.84Y-71.12
X116.84Y-73.66
X116.84Y-76.2
X116.84Y-78.74
X116.84Y-81.28
X116.84Y-83.82
X116.84Y-86.36
X116.84Y-88.9
X116.84Y-91.44
X116.84Y-93.98
X116.84Y-96.52
X116.84Y-99.06
X116.84Y-101.6
X116.84Y-104.14
X116.84Y-106.68
X116.84Y-109.22
X116.84Y-111.76
X116.84Y-114.3
X116.84Y-116.84
X116.84Y-119.38
X116.84Y-121.92
X116.84Y-124.46
X116.84Y-127.0
X116.84Y-129.54
X116.84Y-132.08
X116.84Y-134.62
X116.84Y-137.16
X116.84Y-139.7
X116.84Y-142.24
X116.84Y-144.78
X116.84Y-147.32
X116.84Y-149.86
X116.84Y-152.4
X116.84Y-154.94
X116.84Y-157.48
X116.84Y-160.02
X116.84Y-162.56
X116.84Y-165.1
X116.84Y-167.64
X116.84Y-170.18
X119.38Y-45.72
X119.38Y-48.26
X119.38Y-50.8
X119.38Y-53.34
X119.38Y-55.88
X119.38Y-58.42
X119.38Y-60.96
X119.38Y-63.5
X119.38Y-66.04
X119.38Y-68.58
X119.38Y-71.12
X119.38Y-73.66
X119.38Y-76.2
X119.38Y-78.74
X119.38Y-81.28
X119.38Y-83.82
X119.38Y-86.36
X119.38Y-88.9
X119.38Y-91.44
X119.38Y-93.98
X119.38Y-96.52
X119.38Y-99.06
X119.38Y-101.6
X119.38Y-104.14
X119.38Y-106.68
X119.38Y-109.22
X119.38Y-111.76
X119.38Y-114.3
X119.38Y-116.84
X119.38Y-119.38
X119.38Y-121.92
X119.38Y-124.46
X119.38Y-127.0
X119.38Y-129.54
X119.38Y-132.08
X119.38Y-134.62
X119.38Y-137.16
X119.38Y-139.7
X119.38Y-142.24
X119.38Y-144.78
X119.38Y-147.32
X119.38Y-149.86
X119.38Y-152.4
X119.38Y-154.94
X119.38Y-157.48
X119.38Y-160.02
X119.38Y-162.56
X119.38Y-165.1
X119.38Y-167.64
X119.38Y-170.18
X121.92Y-45.72
X121.92Y-48.26
X121.92Y-50.8
X121.92Y-53.34
X121.92Y-55.88
X121.92Y-58.42
X121.92Y-60.96
X121.92Y-63.5
X121.92Y-66.04
X121.92Y-68.58
X121.92Y-71.12
X121.92Y-73.66
X121.92Y-76.2
X121.92Y-78.74
X121.92Y-81.28
X121.92Y-83.82
X121.92Y-86.36
X121.92Y-88.9
X121.92Y-91.44
X121.92Y-93.98
X121.92Y-96.52
X121.92Y-99.06
X121.92Y-101.6
X121.92Y-104.14
X121.92Y-106.68
X121.92Y-109.22
X121.92Y-111.76
X121.92Y-114.3
X121.92Y-116.84
X121.92Y-119.38
X121.92Y-121.92
X121.92Y-124.46
X121.92Y-127.0
X121.92Y-129.54
X121.92Y-132.08
X121.92Y-134.62
X121.92Y-137.16
X121.92Y-139.7
X121.92Y-142.24
X121.92Y-144.78
X121.92Y-147.32
X121.92Y-149.86
X121.92Y-152.4
X121.92Y-154.94
X121.92Y-157.48
X121.92Y-160.02
X121.92Y-162.56
X121.92Y-165.1
X121.92Y-167.64
X121.92Y-170.18
X124.46Y-45.72
X124.46Y-48.26
X124.46Y-50.8
X124.46Y-53.34
X124.46Y-55.88
X124.46Y-58.42
X124.46Y-60.96
X124.46Y-63.5
X124.46Y-66.04
X124.46Y-68.58
X124.46Y-71.12
X124.46Y-73.66
X124.46Y-76.2
X124.46Y-78.74
X124.46Y-81.28
X124.46Y-83.82
X124.46Y-86.36
X124.46Y-88.9
X124.46Y-91.44
X124.46Y-93.98
X124.46Y-96.52
X124.46Y-99.06
X124.46Y-101.6
X124.46Y-104.14
X124.46Y-106.68
X124.46Y-109.22
X124.46Y-111.76
X124.46Y-114.3
X124.46Y-116.84
X124.46Y-119.38
X124.46Y-121.92
X124.46Y-124.46
X124.46Y-127.0
X124.46Y-129.54
X124.46Y-132.08
X124.46Y-134.62
X124.46Y-137.16
X124.46Y-139.7
X124.46Y-142.24
X124.46Y-144.78
X124.46Y-147.32
X124.46Y-149.86
X124.46Y-152.4
X124.46Y-154.94
X124.46Y-157.48
X124.46Y-160.02
X124.46Y-162.56
X124.46Y-165.1
X124.46Y-167.64
X124.46Y-170.18
X127.0Y-45.72
X127.0Y-48.26
X127.0Y-50.8
X127.0Y-53.34
X127.0Y-55.88
X127.0Y-58.42
X127.0Y-60.96
X127.0Y-63.5
X127.0Y-66.04
X127.0Y-68.58
X127.0Y-71.12
X127.0Y-73.66
X127.0Y-76.2
X127.0Y-78.74
X127.0Y-81.28
X127.0Y-83.82
X127.0Y-86.36
X127.0Y-88.9
X127.0Y-91.44
X127.0Y-93.98
X127.0Y-96.52
X127.0Y-99.06
X127.0Y-101.6
X127.0Y-104.14
X127.0Y-106.68
X127.0Y-109.22
X127.0Y-111.76
X127.0Y-114.3
X127.0Y-116.84
X127.0Y-119.38
X127.0Y-121.92
X127.0Y-124.46
X127.0Y-127.0
X127.0Y-129.54
X127.0Y-132.08
X127.0Y-134.62
X127.0Y-137.16
X127.0Y-139.7
X127.0Y-142.24
X127.0Y-144.78
X127.0Y-147.32
X127.0Y-149.86
X127.0Y-152.4
X127.0Y-154.94
X127.0Y-157.48
X127.0Y-160.02
X127.0Y-162.56
X127.0Y-165.1
X127.0Y-167.64
X127.0Y-170.18
X129.54Y-45.72
X129.54Y-48.26
X129.54Y-50.8
X129.54Y-53.34
X129.54Y-55.88
X129.54Y-58.42
X129.54Y-60.96
X129.54Y-63.5
X129.54Y-66.04
X129.54Y-68.58
X129.54Y-71.12
X129.54Y-73.66
X129.54Y-76.2
X129.54Y-78.74
X129.54Y-81.28
X129.54Y-83.82
X129.54Y-86.36
X129.54Y-88.9
X129.54Y-91.44
X129.54Y-93.98
X129.54Y-96.52
X129.54Y-99.06
X129.54Y-101.6
X129.54Y-104.14
X129.54Y-106.68
X129.54Y-109.22
X129.54Y-111.76
X129.54Y-114.3
X129.54Y-116.84
X129.54Y-119.38
X129.54Y-121.92
X129.54Y-124.46
X129.54Y-127.0
X129.54Y-129.54
X129.54Y-132.08
X129.54Y-134.62
X129.54Y-137.16
X129.54Y-139.7
X129.54Y-142.24
X129.54Y-144.78
X129.54Y-147.32
X129.54Y-149.86
X129.54Y-152.4
X129.54Y-154.94
X129.54Y-157.48
X129.54Y-160.02
X129.54Y-162.56
X129.54Y-165.1
X129.54Y-167.64
X129.54Y-170.18
X132.08Y-45.72
X132.08Y-48.26
X132.08Y-50.8
X132.08Y-53.34
X132.08Y-55.88
X132.08Y-58.42
X132.08Y-60.96
X132.08Y-63.5
X132.08Y-66.04
X132.08Y-68.58
X132.08Y-71.12
X132.08Y-73.66
X132.08Y-76.2
X132.08Y-78.74
X132.08Y-81.28
X132.08Y-83.82
X132.08Y-86.36
X132.08Y-88.9
X132.08Y-91.44
X132.08Y-93.98
X132.08Y-96.52
X132.08Y-99.06
X132.08Y-101.6
X132.08Y-104.14
X132.08Y-106.68
X132.08Y-109.22
X132.08Y-111.76
X132.08Y-114.3
X132.08Y-116.84
X132.08Y-119.38
X132.08Y-121.92
X132.08Y-124.46
X132.08Y-127.0
X132.08Y-129.54
X132.08Y-132.08
X132.08Y-134.62
X132.08Y-137.16
X132.08Y-139.7
X132.08Y-142.24
X132.08Y-144.78
X132.08Y-147.32
X132.08Y-149.86
X132.08Y-152.4
X132.08Y-154.94
X132.08Y-157.48
X132.08Y-160.02
X132.08Y-162.56
X132.08Y-165.1
X132.08Y-167.64
X132.08Y-170.18
X134.62Y-45.72
X134.62Y-48.26
X134.62Y-50.8
X134.62Y-53.34
X134.62Y-55.88
X134.62Y-58.42
X134.62Y-60.96
X134.62Y-63.5
X134.62Y-66.04
X134.62Y-68.58
X134.62Y-71.12
X134.62Y-73.66
X134.62Y-76.2
X134.62Y-78.74
X134.62Y-81.28
X134.62Y-83.82
X134.62Y-86.36
X134.62Y-88.9
X134.62Y-91.44
X134.62Y-93.98
X134.62Y-96.52
X134.62Y-99.06
X134.62Y-101.6
X134.62Y-104.14
X134.62Y-106.68
X134.62Y-109.22
X134.62Y-111.76
X134.62Y-114.3
X134.62Y-116.84
X134.62Y-119.38
X134.62Y-121.92
X134.62Y-124.46
X134.62Y-127.0
X134.62Y-129.54
X134.62Y-132.08
X134.62Y-134.62
X134.62Y-137.16
X134.62Y-139.7
X134.62Y-142.24
X134.62Y-144.78
X134.62Y-147.32
X134.62Y-149.86
X134.62Y-152.4
X134.62Y-154.94
X134.62Y-157.48
X134.62Y-160.02
X134.62Y-162.56
X134.62Y-165.1
X134.62Y-167.64
X134.62Y-170.18
X137.16Y-45.72
X137.16Y-48.26
X137.16Y-50.8
X137.16Y-53.34
X137.16Y-55.88
X137.16Y-58.42
X137.16Y-60.96
X137.16Y-63.5
X137.16Y-66.04
X137.16Y-68.58
X137.16Y-71.12
X137.16Y-73.66
X137.16Y-76.2
X137.16Y-78.74
X137.16Y-81.28
X137.16Y-83.82
X137.16Y-86.36
X137.16Y-88.9
X137.16Y-91.44
X137.16Y-93.98
X137.16Y-96.52
X137.16Y-99.06
X137.16Y-101.6
X137.16Y-104.14
X137.16Y-106.68
X137.16Y-109.22
X137.16Y-111.76
X137.16Y-114.3
X137.16Y-116.84
X137.16Y-119.38
X137.16Y-121.92
X137.16Y-124.46
X137.16Y-127.0
X137.16Y-129.54
X137.16Y-132.08
X137.16Y-134.62
X137.16Y-137.16
X137.16Y-139.7
X137.16Y-142.24
X137.16Y-144.78
X137.16Y-147.32
X137.16Y-149.86
X137.16Y-152.4
X137.16Y-154.94
X137.16Y-157.48
X137.16Y-160.02
X137.16Y-162.56
X137.16Y-165.1
X137.16Y-167.64
X137.16Y-170.18
X139.7Y-45.72
X139.7Y-48.26
X139.7Y-50.8
X139.7Y-53.34
X139.7Y-55.88
X139.7Y-58.42
X139.7Y-60.96
X139.7Y-63.5
X139.7Y-66.04
X139.7Y-68.58
X139.7Y-71.12
X139.7Y-73.66
X139.7Y-76.2
X139.7Y-78.74
X139.7Y-81.28
X139.7Y-83.82
X139.7Y-86.36
X139.7Y-88.9
X139.7Y-91.44
X139.7Y-93.98
X139.7Y-96.52
X139.7Y-99.06
X139.7Y-101.6
X139.7Y-104.14
X139.7Y-106.68
X139.7Y-109.22
X139.7Y-111.76
X139.7Y-114.3
X139.7Y-116.84
X139.7Y-119.38
X139.7Y-121.92
X139.7Y-124.46
X139.7Y-127.0
X139.7Y-129.54
X139.7Y-132.08
X139.7Y-134.62
X139.7Y-137.16
X139.7Y-139.7
X139.7Y-142.24
X139.7Y-144.78
X139.7Y-147.32
X139.7Y-149.86
X139.7Y-152.4
X139.7Y-154.94
X139.7Y-157.48
X139.7Y-160.02
X139.7Y-162.56
X139.7Y-165.1
X139.7Y-167.64
X139.7Y-170.18
X142.24Y-45.72
X142.24Y-48.26
X142.24Y-50.8
X142.24Y-53.34
X142.24Y-55.88
X142.24Y-58.42
X142.24Y-60.96
X142.24Y-63.5
X142.24Y-66.04
X142.24Y-68.58
X142.24Y-71.12
X142.24Y-73.66
X142.24Y-76.2
X142.24Y-78.74
X142.24Y-81.28
X142.24Y-83.82
X142.24Y-86.36
X142.24Y-88.9
X142.24Y-91.44
X142.24Y-93.98
X142.24Y-96.52
X142.24Y-99.06
X142.24Y-101.6
X142.24Y-104.14
X142.24Y-106.68
X142.24Y-109.22
X142.24Y-111.76
X142.24Y-114.3
X142.24Y-116.84
X142.24Y-119.38
X142.24Y-121.92
X142.24Y-124.46
X142.24Y-127.0
X142.24Y-129.54
X142.24Y-132.08
X142.24Y-134.62
X142.24Y-137.16
X142.24Y-139.7
X142.24Y-142.24
X142.24Y-144.78
X142.24Y-147.32
X142.24Y-149.86
X142.24Y-152.4
X142.24Y-154.94
X142.24Y-157.48
X142.24Y-160.02
X142.24Y-162.56
X142.24Y-165.1
X142.24Y-167.64
X142.24Y-170.18
X144.78Y-45.72
X144.78Y-48.26
X144.78Y-50.8
X144.78Y-53.34
X144.78Y-55.88
X144.78Y-58.42
X144.78Y-60.96
X144.78Y-63.5
X144.78Y-66.04
X144.78Y-68.58
X144.78Y-71.12
X144.78Y-73.66
X144.78Y-76.2
X144.78Y-78.74
X144.78Y-81.28
X144.78Y-83.82
X144.78Y-86.36
X144.78Y-88.9
X144.78Y-91.44
X144.78Y-93.98
X144.78Y-96.52
X144.78Y-99.06
X144.78Y-101.6
X144.78Y-104.14
X144.78Y-106.68
X144.78Y-109.22
X144.78Y-111.76
X144.78Y-114.3
X144.78Y-116.84
X144.78Y-119.38
X144.78Y-121.92
X144.78Y-124.46
X144.78Y-127.0
X144.78Y-129.54
X144.78Y-132.08
X144.78Y-134.62
X144.78Y-137.16
X144.78Y-139.7
X144.78Y-142.24
X144.78Y-144.78
X144.78Y-147.32
X144.78Y-149.86
X144.78Y-152.4
X144.78Y-154.94
X144.78Y-157.48
X144.78Y-160.02
X144.78Y-162.56
X144.78Y-165.1
X144.78Y-167.64
X144.78Y-170.18
X147.32Y-45.72
X147.32Y-48.26
X147.32Y-50.8
X147.32Y-53.34
X147.32Y-55.88
X147.32Y-58.42
X147.32Y-60.96
X147.32Y-63.5
X147.32Y-66.04
X147.32Y-68.58
X147.32Y-71.12
X147.32Y-73.66
X147.32Y-76.2
X147.32Y-78.74
X147.32Y-81.28
X147.32Y-83.82
X147.32Y-86.36
X147.32Y-88.9
X147.32Y-91.44
X147.32Y-93.98
X147.32Y-96.52
X147.32Y-99.06
X147.32Y-101.6
X147.32Y-104.14
X147.32Y-106.68
X147.32Y-109.22
X147.32Y-111.76
X147.32Y-114.3
X147.32Y-116.84
X147.32Y-119.38
X147.32Y-121.92
X147.32Y-124.46
X147.32Y-127.0
X147.32Y-129.54
X147.32Y-132.08
X147.32Y-134.62
X147.32Y-137.16
X147.32Y-139.7
X147.32Y-142.24
X147.32Y-144.78
X147.32Y-147.32
X147.32Y-149.86
X147.32Y-152.4
X147.32Y-154.94
X147.32Y-157.48
X147.32Y-160.02
X147.32Y-162.56
X147.32Y-165.1
X147.32Y-167.64
X147.32Y-170.18
X149.86Y-45.72
X149.86Y-48.26
X149.86Y-50.8
X149.86Y-53.34
X149.86Y-55.88
X149.86Y-58.42
X149.86Y-60.96
X149.86Y-63.5
X149.86Y-66.04
X149.86Y-68.58
X149.86Y-71.12
X149.86Y-73.66
X149.86Y-76.2
X149.86Y-78.74
X149.86Y-81.28
X149.86Y-83.82
X149.86Y-86.36
X149.86Y-88.9
X149.86Y-91.44
X149.86Y-93.98
X149.86Y-96.52
X149.86Y-99.06
X149.86Y-101.6
X149.86Y-104.14
X149.86Y-106.68
X149.86Y-109.22
X149.86Y-111.76
X149.86Y-114.3
X149.86Y-116.84
X149.86Y-119.38
X149.86Y-121.92
X149.86Y-124.46
X149.86Y-127.0
X149.86Y-129.54
X149.86Y-132.08
X149.86Y-134.62
X149.86Y-137.16
X149.86Y-139.7
X149.86Y-142.24
X149.86Y-144.78
X149.86Y-147.32
X149.86Y-149.86
X149.86Y-152.4
X149.86Y-154.94
X149.86Y-157.48
X149.86Y-160.02
X149.86Y-162.56
X149.86Y-165.1
X149.86Y-167.64
X149.86Y-170.18
M30
