%TF.GenerationSoftware,KiCad,Pcbnew,9.0.3*%
%TF.CreationDate,2026-01-20T13:20:06-07:00*%
%TF.ProjectId,Backplane,4261636b-706c-4616-9e65-2e6b69636164,rev?*%
%TF.SameCoordinates,Original*%
%TF.FileFunction,Soldermask,Top*%
%TF.FilePolarity,Negative*%
%FSLAX46Y46*%
G04 Gerber Fmt 4.6, Leading zero omitted, Abs format (unit mm)*
G04 Created by KiCad (PCBNEW 9.0.3) date 2026-01-20 13:20:06*
%MOMM*%
%LPD*%
G01*
G04 APERTURE LIST*
%ADD10R,1.780000X7.620000*%
%ADD11C,1.574800*%
G04 APERTURE END LIST*
D10*
%TO.C,REF\u002A\u002A*%
X38100000Y-177165000D03*
X40640000Y-177165000D03*
X43180000Y-177165000D03*
X45720000Y-177165000D03*
X48260000Y-177165000D03*
X50800000Y-177165000D03*
X53340000Y-177165000D03*
X55880000Y-177165000D03*
X58420000Y-177165000D03*
X60960000Y-177165000D03*
X63500000Y-177165000D03*
X66040000Y-177165000D03*
X68580000Y-177165000D03*
X71120000Y-177165000D03*
X73660000Y-177165000D03*
X76200000Y-177165000D03*
X78740000Y-177165000D03*
X81280000Y-177165000D03*
X83820000Y-177165000D03*
X86360000Y-177165000D03*
X88900000Y-177165000D03*
X91440000Y-177165000D03*
X93980000Y-177165000D03*
X96520000Y-177165000D03*
X99060000Y-177165000D03*
X101600000Y-177165000D03*
X104140000Y-177165000D03*
X106680000Y-177165000D03*
X109220000Y-177165000D03*
X111760000Y-177165000D03*
X114300000Y-177165000D03*
%TD*%
D11*
%TO.C,*%
X132080000Y-170180000D03*
%TD*%
%TO.C,*%
X142240000Y-170180000D03*
%TD*%
%TO.C,*%
X134620000Y-170180000D03*
%TD*%
%TO.C,*%
X149860000Y-170180000D03*
%TD*%
%TO.C,*%
X124460000Y-170180000D03*
%TD*%
%TO.C,*%
X119380000Y-170180000D03*
%TD*%
%TO.C,*%
X101600000Y-170180000D03*
%TD*%
%TO.C,*%
X147320000Y-170180000D03*
%TD*%
%TO.C,*%
X137160000Y-170180000D03*
%TD*%
%TO.C,*%
X144780000Y-170180000D03*
%TD*%
%TO.C,*%
X58420000Y-170180000D03*
%TD*%
%TO.C,*%
X93980000Y-170180000D03*
%TD*%
%TO.C,*%
X109220000Y-170180000D03*
%TD*%
%TO.C,*%
X76200000Y-170180000D03*
%TD*%
%TO.C,*%
X129540000Y-170180000D03*
%TD*%
%TO.C,*%
X83820000Y-170180000D03*
%TD*%
%TO.C,*%
X50800000Y-170180000D03*
%TD*%
%TO.C,*%
X88900000Y-170180000D03*
%TD*%
%TO.C,*%
X114300000Y-170180000D03*
%TD*%
%TO.C,*%
X104140000Y-170180000D03*
%TD*%
%TO.C,*%
X116840000Y-170180000D03*
%TD*%
%TO.C,*%
X127000000Y-170180000D03*
%TD*%
%TO.C,*%
X111760000Y-170180000D03*
%TD*%
%TO.C,*%
X99060000Y-170180000D03*
%TD*%
%TO.C,*%
X121920000Y-170180000D03*
%TD*%
%TO.C,*%
X139700000Y-170180000D03*
%TD*%
%TO.C,*%
X73660000Y-170180000D03*
%TD*%
%TO.C,*%
X86360000Y-170180000D03*
%TD*%
%TO.C,*%
X81280000Y-170180000D03*
%TD*%
%TO.C,*%
X96520000Y-170180000D03*
%TD*%
%TO.C,*%
X91440000Y-170180000D03*
%TD*%
%TO.C,*%
X60960000Y-170180000D03*
%TD*%
%TO.C,*%
X106680000Y-170180000D03*
%TD*%
%TO.C,*%
X78740000Y-170180000D03*
%TD*%
%TO.C,*%
X55880000Y-170180000D03*
%TD*%
%TO.C,*%
X43180000Y-170180000D03*
%TD*%
%TO.C,*%
X25400000Y-170180000D03*
%TD*%
%TO.C,*%
X30480000Y-170180000D03*
%TD*%
%TO.C,*%
X45720000Y-170180000D03*
%TD*%
%TO.C,*%
X66040000Y-170180000D03*
%TD*%
%TO.C,*%
X119380000Y-167640000D03*
%TD*%
%TO.C,*%
X149860000Y-167640000D03*
%TD*%
%TO.C,*%
X40640000Y-170180000D03*
%TD*%
%TO.C,*%
X53340000Y-170180000D03*
%TD*%
%TO.C,*%
X68580000Y-170180000D03*
%TD*%
%TO.C,*%
X71120000Y-170180000D03*
%TD*%
%TO.C,*%
X27940000Y-170180000D03*
%TD*%
%TO.C,*%
X101600000Y-167640000D03*
%TD*%
%TO.C,*%
X137160000Y-167640000D03*
%TD*%
%TO.C,*%
X132080000Y-167640000D03*
%TD*%
%TO.C,*%
X35560000Y-170180000D03*
%TD*%
%TO.C,*%
X147320000Y-167640000D03*
%TD*%
%TO.C,*%
X48260000Y-170180000D03*
%TD*%
%TO.C,*%
X33020000Y-170180000D03*
%TD*%
%TO.C,*%
X38100000Y-170180000D03*
%TD*%
%TO.C,*%
X63500000Y-170180000D03*
%TD*%
%TO.C,*%
X116840000Y-167640000D03*
%TD*%
%TO.C,*%
X142240000Y-167640000D03*
%TD*%
%TO.C,*%
X109220000Y-167640000D03*
%TD*%
%TO.C,*%
X88900000Y-167640000D03*
%TD*%
%TO.C,*%
X134620000Y-167640000D03*
%TD*%
%TO.C,*%
X124460000Y-167640000D03*
%TD*%
%TO.C,*%
X111760000Y-167640000D03*
%TD*%
%TO.C,*%
X129540000Y-167640000D03*
%TD*%
%TO.C,*%
X104140000Y-167640000D03*
%TD*%
%TO.C,*%
X99060000Y-167640000D03*
%TD*%
%TO.C,*%
X114300000Y-167640000D03*
%TD*%
%TO.C,*%
X121920000Y-167640000D03*
%TD*%
%TO.C,*%
X127000000Y-167640000D03*
%TD*%
%TO.C,*%
X139700000Y-167640000D03*
%TD*%
%TO.C,*%
X50800000Y-167640000D03*
%TD*%
%TO.C,*%
X93980000Y-167640000D03*
%TD*%
%TO.C,*%
X83820000Y-167640000D03*
%TD*%
%TO.C,*%
X144780000Y-167640000D03*
%TD*%
%TO.C,*%
X33020000Y-149860000D03*
%TD*%
%TO.C,*%
X38100000Y-149860000D03*
%TD*%
%TO.C,*%
X30480000Y-149860000D03*
%TD*%
%TO.C,*%
X45720000Y-149860000D03*
%TD*%
%TO.C,*%
X40640000Y-149860000D03*
%TD*%
%TO.C,*%
X25400000Y-149860000D03*
%TD*%
%TO.C,*%
X27940000Y-149860000D03*
%TD*%
%TO.C,*%
X63500000Y-149860000D03*
%TD*%
%TO.C,*%
X149860000Y-147320000D03*
%TD*%
%TO.C,*%
X60960000Y-149860000D03*
%TD*%
%TO.C,*%
X43180000Y-149860000D03*
%TD*%
%TO.C,*%
X106680000Y-149860000D03*
%TD*%
%TO.C,*%
X78740000Y-149860000D03*
%TD*%
%TO.C,*%
X48260000Y-149860000D03*
%TD*%
%TO.C,*%
X55880000Y-149860000D03*
%TD*%
%TO.C,*%
X71120000Y-149860000D03*
%TD*%
%TO.C,*%
X53340000Y-149860000D03*
%TD*%
%TO.C,*%
X35560000Y-149860000D03*
%TD*%
%TO.C,*%
X66040000Y-149860000D03*
%TD*%
%TO.C,*%
X119380000Y-147320000D03*
%TD*%
%TO.C,*%
X101600000Y-147320000D03*
%TD*%
%TO.C,*%
X137160000Y-147320000D03*
%TD*%
%TO.C,*%
X132080000Y-147320000D03*
%TD*%
%TO.C,*%
X147320000Y-147320000D03*
%TD*%
%TO.C,*%
X144780000Y-147320000D03*
%TD*%
%TO.C,*%
X142240000Y-147320000D03*
%TD*%
%TO.C,*%
X134620000Y-147320000D03*
%TD*%
%TO.C,*%
X124460000Y-147320000D03*
%TD*%
%TO.C,*%
X127000000Y-147320000D03*
%TD*%
%TO.C,*%
X111760000Y-147320000D03*
%TD*%
%TO.C,*%
X139700000Y-147320000D03*
%TD*%
%TO.C,*%
X109220000Y-147320000D03*
%TD*%
%TO.C,*%
X129540000Y-147320000D03*
%TD*%
%TO.C,*%
X114300000Y-147320000D03*
%TD*%
%TO.C,*%
X83820000Y-147320000D03*
%TD*%
%TO.C,*%
X50800000Y-147320000D03*
%TD*%
%TO.C,*%
X88900000Y-147320000D03*
%TD*%
%TO.C,*%
X121920000Y-147320000D03*
%TD*%
%TO.C,*%
X116840000Y-147320000D03*
%TD*%
%TO.C,*%
X104140000Y-147320000D03*
%TD*%
%TO.C,*%
X99060000Y-147320000D03*
%TD*%
%TO.C,*%
X93980000Y-147320000D03*
%TD*%
%TO.C,*%
X73660000Y-147320000D03*
%TD*%
%TO.C,*%
X76200000Y-147320000D03*
%TD*%
%TO.C,*%
X58420000Y-147320000D03*
%TD*%
%TO.C,*%
X68580000Y-147320000D03*
%TD*%
%TO.C,*%
X86360000Y-147320000D03*
%TD*%
%TO.C,*%
X81280000Y-147320000D03*
%TD*%
%TO.C,*%
X96520000Y-147320000D03*
%TD*%
%TO.C,*%
X91440000Y-147320000D03*
%TD*%
%TO.C,*%
X60960000Y-147320000D03*
%TD*%
%TO.C,*%
X106680000Y-147320000D03*
%TD*%
%TO.C,*%
X78740000Y-147320000D03*
%TD*%
%TO.C,*%
X55880000Y-147320000D03*
%TD*%
%TO.C,*%
X71120000Y-147320000D03*
%TD*%
%TO.C,*%
X53340000Y-147320000D03*
%TD*%
%TO.C,*%
X48260000Y-147320000D03*
%TD*%
%TO.C,*%
X43180000Y-147320000D03*
%TD*%
%TO.C,*%
X35560000Y-147320000D03*
%TD*%
%TO.C,*%
X33020000Y-147320000D03*
%TD*%
%TO.C,*%
X25400000Y-147320000D03*
%TD*%
%TO.C,*%
X38100000Y-147320000D03*
%TD*%
%TO.C,*%
X30480000Y-147320000D03*
%TD*%
%TO.C,*%
X63500000Y-147320000D03*
%TD*%
%TO.C,*%
X66040000Y-147320000D03*
%TD*%
%TO.C,*%
X45720000Y-147320000D03*
%TD*%
%TO.C,*%
X40640000Y-147320000D03*
%TD*%
%TO.C,*%
X27940000Y-147320000D03*
%TD*%
%TO.C,*%
X88900000Y-152400000D03*
%TD*%
%TO.C,*%
X121920000Y-152400000D03*
%TD*%
%TO.C,*%
X73660000Y-152400000D03*
%TD*%
%TO.C,*%
X104140000Y-152400000D03*
%TD*%
%TO.C,*%
X99060000Y-152400000D03*
%TD*%
%TO.C,*%
X116840000Y-152400000D03*
%TD*%
%TO.C,*%
X93980000Y-152400000D03*
%TD*%
%TO.C,*%
X43180000Y-152400000D03*
%TD*%
%TO.C,*%
X81280000Y-152400000D03*
%TD*%
%TO.C,*%
X58420000Y-152400000D03*
%TD*%
%TO.C,*%
X86360000Y-152400000D03*
%TD*%
%TO.C,*%
X96520000Y-152400000D03*
%TD*%
%TO.C,*%
X48260000Y-152400000D03*
%TD*%
%TO.C,*%
X60960000Y-152400000D03*
%TD*%
%TO.C,*%
X25400000Y-152400000D03*
%TD*%
%TO.C,*%
X53340000Y-152400000D03*
%TD*%
%TO.C,*%
X71120000Y-152400000D03*
%TD*%
%TO.C,*%
X55880000Y-152400000D03*
%TD*%
%TO.C,*%
X78740000Y-152400000D03*
%TD*%
%TO.C,*%
X106680000Y-152400000D03*
%TD*%
%TO.C,*%
X35560000Y-152400000D03*
%TD*%
%TO.C,*%
X38100000Y-152400000D03*
%TD*%
%TO.C,*%
X68580000Y-152400000D03*
%TD*%
%TO.C,*%
X91440000Y-152400000D03*
%TD*%
%TO.C,*%
X76200000Y-152400000D03*
%TD*%
%TO.C,*%
X33020000Y-152400000D03*
%TD*%
%TO.C,*%
X147320000Y-149860000D03*
%TD*%
%TO.C,*%
X144780000Y-149860000D03*
%TD*%
%TO.C,*%
X137160000Y-149860000D03*
%TD*%
%TO.C,*%
X132080000Y-149860000D03*
%TD*%
%TO.C,*%
X63500000Y-152400000D03*
%TD*%
%TO.C,*%
X66040000Y-152400000D03*
%TD*%
%TO.C,*%
X40640000Y-152400000D03*
%TD*%
%TO.C,*%
X134620000Y-149860000D03*
%TD*%
%TO.C,*%
X127000000Y-149860000D03*
%TD*%
%TO.C,*%
X45720000Y-152400000D03*
%TD*%
%TO.C,*%
X111760000Y-149860000D03*
%TD*%
%TO.C,*%
X149860000Y-149860000D03*
%TD*%
%TO.C,*%
X27940000Y-152400000D03*
%TD*%
%TO.C,*%
X142240000Y-149860000D03*
%TD*%
%TO.C,*%
X124460000Y-149860000D03*
%TD*%
%TO.C,*%
X119380000Y-149860000D03*
%TD*%
%TO.C,*%
X30480000Y-152400000D03*
%TD*%
%TO.C,*%
X101600000Y-149860000D03*
%TD*%
%TO.C,*%
X109220000Y-149860000D03*
%TD*%
%TO.C,*%
X116840000Y-149860000D03*
%TD*%
%TO.C,*%
X91440000Y-149860000D03*
%TD*%
%TO.C,*%
X73660000Y-149860000D03*
%TD*%
%TO.C,*%
X86360000Y-149860000D03*
%TD*%
%TO.C,*%
X58420000Y-149860000D03*
%TD*%
%TO.C,*%
X81280000Y-149860000D03*
%TD*%
%TO.C,*%
X96520000Y-149860000D03*
%TD*%
%TO.C,*%
X104140000Y-149860000D03*
%TD*%
%TO.C,*%
X76200000Y-149860000D03*
%TD*%
%TO.C,*%
X129540000Y-149860000D03*
%TD*%
%TO.C,*%
X121920000Y-149860000D03*
%TD*%
%TO.C,*%
X93980000Y-149860000D03*
%TD*%
%TO.C,*%
X68580000Y-149860000D03*
%TD*%
%TO.C,*%
X114300000Y-149860000D03*
%TD*%
%TO.C,*%
X88900000Y-149860000D03*
%TD*%
%TO.C,*%
X83820000Y-149860000D03*
%TD*%
%TO.C,*%
X139700000Y-149860000D03*
%TD*%
%TO.C,*%
X50800000Y-149860000D03*
%TD*%
%TO.C,*%
X99060000Y-149860000D03*
%TD*%
%TO.C,*%
X81280000Y-167640000D03*
%TD*%
%TO.C,*%
X43180000Y-167640000D03*
%TD*%
%TO.C,*%
X96520000Y-167640000D03*
%TD*%
%TO.C,*%
X106680000Y-167640000D03*
%TD*%
%TO.C,*%
X53340000Y-167640000D03*
%TD*%
%TO.C,*%
X71120000Y-167640000D03*
%TD*%
%TO.C,*%
X86360000Y-167640000D03*
%TD*%
%TO.C,*%
X33020000Y-167640000D03*
%TD*%
%TO.C,*%
X73660000Y-167640000D03*
%TD*%
%TO.C,*%
X76200000Y-167640000D03*
%TD*%
%TO.C,*%
X58420000Y-167640000D03*
%TD*%
%TO.C,*%
X91440000Y-167640000D03*
%TD*%
%TO.C,*%
X68580000Y-167640000D03*
%TD*%
%TO.C,*%
X60960000Y-167640000D03*
%TD*%
%TO.C,*%
X78740000Y-167640000D03*
%TD*%
%TO.C,*%
X48260000Y-167640000D03*
%TD*%
%TO.C,*%
X35560000Y-167640000D03*
%TD*%
%TO.C,*%
X25400000Y-167640000D03*
%TD*%
%TO.C,*%
X55880000Y-167640000D03*
%TD*%
%TO.C,*%
X101600000Y-165100000D03*
%TD*%
%TO.C,*%
X30480000Y-167640000D03*
%TD*%
%TO.C,*%
X119380000Y-165100000D03*
%TD*%
%TO.C,*%
X63500000Y-167640000D03*
%TD*%
%TO.C,*%
X137160000Y-165100000D03*
%TD*%
%TO.C,*%
X66040000Y-167640000D03*
%TD*%
%TO.C,*%
X144780000Y-165100000D03*
%TD*%
%TO.C,*%
X147320000Y-165100000D03*
%TD*%
%TO.C,*%
X142240000Y-165100000D03*
%TD*%
%TO.C,*%
X134620000Y-165100000D03*
%TD*%
%TO.C,*%
X38100000Y-167640000D03*
%TD*%
%TO.C,*%
X45720000Y-167640000D03*
%TD*%
%TO.C,*%
X149860000Y-165100000D03*
%TD*%
%TO.C,*%
X124460000Y-165100000D03*
%TD*%
%TO.C,*%
X27940000Y-167640000D03*
%TD*%
%TO.C,*%
X40640000Y-167640000D03*
%TD*%
%TO.C,*%
X132080000Y-165100000D03*
%TD*%
%TO.C,*%
X111760000Y-165100000D03*
%TD*%
%TO.C,*%
X139700000Y-165100000D03*
%TD*%
%TO.C,*%
X109220000Y-165100000D03*
%TD*%
%TO.C,*%
X99060000Y-165100000D03*
%TD*%
%TO.C,*%
X129540000Y-165100000D03*
%TD*%
%TO.C,*%
X83820000Y-165100000D03*
%TD*%
%TO.C,*%
X50800000Y-165100000D03*
%TD*%
%TO.C,*%
X58420000Y-165100000D03*
%TD*%
%TO.C,*%
X91440000Y-165100000D03*
%TD*%
%TO.C,*%
X86360000Y-165100000D03*
%TD*%
%TO.C,*%
X78740000Y-165100000D03*
%TD*%
%TO.C,*%
X81280000Y-165100000D03*
%TD*%
%TO.C,*%
X106680000Y-165100000D03*
%TD*%
%TO.C,*%
X116840000Y-165100000D03*
%TD*%
%TO.C,*%
X104140000Y-165100000D03*
%TD*%
%TO.C,*%
X88900000Y-165100000D03*
%TD*%
%TO.C,*%
X121920000Y-165100000D03*
%TD*%
%TO.C,*%
X127000000Y-165100000D03*
%TD*%
%TO.C,*%
X114300000Y-165100000D03*
%TD*%
%TO.C,*%
X73660000Y-165100000D03*
%TD*%
%TO.C,*%
X68580000Y-165100000D03*
%TD*%
%TO.C,*%
X60960000Y-165100000D03*
%TD*%
%TO.C,*%
X55880000Y-165100000D03*
%TD*%
%TO.C,*%
X93980000Y-165100000D03*
%TD*%
%TO.C,*%
X76200000Y-165100000D03*
%TD*%
%TO.C,*%
X96520000Y-165100000D03*
%TD*%
%TO.C,*%
X48260000Y-165100000D03*
%TD*%
%TO.C,*%
X66040000Y-165100000D03*
%TD*%
%TO.C,*%
X147320000Y-162560000D03*
%TD*%
%TO.C,*%
X25400000Y-165100000D03*
%TD*%
%TO.C,*%
X30480000Y-165100000D03*
%TD*%
%TO.C,*%
X63500000Y-165100000D03*
%TD*%
%TO.C,*%
X137160000Y-162560000D03*
%TD*%
%TO.C,*%
X38100000Y-165100000D03*
%TD*%
%TO.C,*%
X119380000Y-162560000D03*
%TD*%
%TO.C,*%
X45720000Y-165100000D03*
%TD*%
%TO.C,*%
X35560000Y-165100000D03*
%TD*%
%TO.C,*%
X40640000Y-165100000D03*
%TD*%
%TO.C,*%
X149860000Y-162560000D03*
%TD*%
%TO.C,*%
X53340000Y-165100000D03*
%TD*%
%TO.C,*%
X43180000Y-165100000D03*
%TD*%
%TO.C,*%
X101600000Y-162560000D03*
%TD*%
%TO.C,*%
X27940000Y-165100000D03*
%TD*%
%TO.C,*%
X71120000Y-165100000D03*
%TD*%
%TO.C,*%
X33020000Y-165100000D03*
%TD*%
%TO.C,*%
X132080000Y-162560000D03*
%TD*%
%TO.C,*%
X144780000Y-162560000D03*
%TD*%
%TO.C,*%
X142240000Y-162560000D03*
%TD*%
%TO.C,*%
X127000000Y-162560000D03*
%TD*%
%TO.C,*%
X139700000Y-162560000D03*
%TD*%
%TO.C,*%
X83820000Y-162560000D03*
%TD*%
%TO.C,*%
X104140000Y-162560000D03*
%TD*%
%TO.C,*%
X73660000Y-162560000D03*
%TD*%
%TO.C,*%
X58420000Y-162560000D03*
%TD*%
%TO.C,*%
X86360000Y-162560000D03*
%TD*%
%TO.C,*%
X68580000Y-162560000D03*
%TD*%
%TO.C,*%
X124460000Y-162560000D03*
%TD*%
%TO.C,*%
X111760000Y-162560000D03*
%TD*%
%TO.C,*%
X129540000Y-162560000D03*
%TD*%
%TO.C,*%
X109220000Y-162560000D03*
%TD*%
%TO.C,*%
X76200000Y-162560000D03*
%TD*%
%TO.C,*%
X88900000Y-162560000D03*
%TD*%
%TO.C,*%
X114300000Y-162560000D03*
%TD*%
%TO.C,*%
X50800000Y-162560000D03*
%TD*%
%TO.C,*%
X116840000Y-162560000D03*
%TD*%
%TO.C,*%
X134620000Y-162560000D03*
%TD*%
%TO.C,*%
X121920000Y-162560000D03*
%TD*%
%TO.C,*%
X81280000Y-162560000D03*
%TD*%
%TO.C,*%
X99060000Y-162560000D03*
%TD*%
%TO.C,*%
X93980000Y-162560000D03*
%TD*%
%TO.C,*%
X91440000Y-162560000D03*
%TD*%
%TO.C,*%
X60960000Y-162560000D03*
%TD*%
%TO.C,*%
X78740000Y-162560000D03*
%TD*%
%TO.C,*%
X106680000Y-162560000D03*
%TD*%
%TO.C,*%
X53340000Y-162560000D03*
%TD*%
%TO.C,*%
X43180000Y-162560000D03*
%TD*%
%TO.C,*%
X55880000Y-162560000D03*
%TD*%
%TO.C,*%
X48260000Y-162560000D03*
%TD*%
%TO.C,*%
X33020000Y-162560000D03*
%TD*%
%TO.C,*%
X35560000Y-162560000D03*
%TD*%
%TO.C,*%
X25400000Y-162560000D03*
%TD*%
%TO.C,*%
X30480000Y-162560000D03*
%TD*%
%TO.C,*%
X38100000Y-162560000D03*
%TD*%
%TO.C,*%
X149860000Y-160020000D03*
%TD*%
%TO.C,*%
X101600000Y-160020000D03*
%TD*%
%TO.C,*%
X137160000Y-160020000D03*
%TD*%
%TO.C,*%
X71120000Y-162560000D03*
%TD*%
%TO.C,*%
X96520000Y-162560000D03*
%TD*%
%TO.C,*%
X66040000Y-162560000D03*
%TD*%
%TO.C,*%
X27940000Y-162560000D03*
%TD*%
%TO.C,*%
X45720000Y-162560000D03*
%TD*%
%TO.C,*%
X40640000Y-162560000D03*
%TD*%
%TO.C,*%
X144780000Y-160020000D03*
%TD*%
%TO.C,*%
X139700000Y-160020000D03*
%TD*%
%TO.C,*%
X109220000Y-160020000D03*
%TD*%
%TO.C,*%
X129540000Y-160020000D03*
%TD*%
%TO.C,*%
X114300000Y-160020000D03*
%TD*%
%TO.C,*%
X50800000Y-160020000D03*
%TD*%
%TO.C,*%
X116840000Y-160020000D03*
%TD*%
%TO.C,*%
X88900000Y-160020000D03*
%TD*%
%TO.C,*%
X63500000Y-162560000D03*
%TD*%
%TO.C,*%
X119380000Y-160020000D03*
%TD*%
%TO.C,*%
X134620000Y-160020000D03*
%TD*%
%TO.C,*%
X124460000Y-160020000D03*
%TD*%
%TO.C,*%
X83820000Y-160020000D03*
%TD*%
%TO.C,*%
X127000000Y-160020000D03*
%TD*%
%TO.C,*%
X111760000Y-160020000D03*
%TD*%
%TO.C,*%
X132080000Y-160020000D03*
%TD*%
%TO.C,*%
X121920000Y-160020000D03*
%TD*%
%TO.C,*%
X147320000Y-160020000D03*
%TD*%
%TO.C,*%
X142240000Y-160020000D03*
%TD*%
%TO.C,*%
X76200000Y-160020000D03*
%TD*%
%TO.C,*%
X53340000Y-160020000D03*
%TD*%
%TO.C,*%
X48260000Y-160020000D03*
%TD*%
%TO.C,*%
X96520000Y-160020000D03*
%TD*%
%TO.C,*%
X99060000Y-160020000D03*
%TD*%
%TO.C,*%
X73660000Y-160020000D03*
%TD*%
%TO.C,*%
X60960000Y-160020000D03*
%TD*%
%TO.C,*%
X58420000Y-160020000D03*
%TD*%
%TO.C,*%
X106680000Y-160020000D03*
%TD*%
%TO.C,*%
X81280000Y-160020000D03*
%TD*%
%TO.C,*%
X55880000Y-160020000D03*
%TD*%
%TO.C,*%
X91440000Y-160020000D03*
%TD*%
%TO.C,*%
X71120000Y-160020000D03*
%TD*%
%TO.C,*%
X86360000Y-160020000D03*
%TD*%
%TO.C,*%
X43180000Y-160020000D03*
%TD*%
%TO.C,*%
X104140000Y-160020000D03*
%TD*%
%TO.C,*%
X78740000Y-160020000D03*
%TD*%
%TO.C,*%
X93980000Y-160020000D03*
%TD*%
%TO.C,*%
X68580000Y-160020000D03*
%TD*%
%TO.C,*%
X25400000Y-160020000D03*
%TD*%
%TO.C,*%
X40640000Y-160020000D03*
%TD*%
%TO.C,*%
X63500000Y-160020000D03*
%TD*%
%TO.C,*%
X132080000Y-157480000D03*
%TD*%
%TO.C,*%
X45720000Y-160020000D03*
%TD*%
%TO.C,*%
X27940000Y-160020000D03*
%TD*%
%TO.C,*%
X144780000Y-157480000D03*
%TD*%
%TO.C,*%
X137160000Y-157480000D03*
%TD*%
%TO.C,*%
X30480000Y-160020000D03*
%TD*%
%TO.C,*%
X66040000Y-160020000D03*
%TD*%
%TO.C,*%
X134620000Y-157480000D03*
%TD*%
%TO.C,*%
X147320000Y-157480000D03*
%TD*%
%TO.C,*%
X142240000Y-157480000D03*
%TD*%
%TO.C,*%
X119380000Y-157480000D03*
%TD*%
%TO.C,*%
X149860000Y-157480000D03*
%TD*%
%TO.C,*%
X101600000Y-157480000D03*
%TD*%
%TO.C,*%
X35560000Y-160020000D03*
%TD*%
%TO.C,*%
X33020000Y-160020000D03*
%TD*%
%TO.C,*%
X38100000Y-160020000D03*
%TD*%
%TO.C,*%
X50800000Y-157480000D03*
%TD*%
%TO.C,*%
X76200000Y-157480000D03*
%TD*%
%TO.C,*%
X127000000Y-157480000D03*
%TD*%
%TO.C,*%
X139700000Y-157480000D03*
%TD*%
%TO.C,*%
X99060000Y-157480000D03*
%TD*%
%TO.C,*%
X129540000Y-157480000D03*
%TD*%
%TO.C,*%
X83820000Y-157480000D03*
%TD*%
%TO.C,*%
X121920000Y-157480000D03*
%TD*%
%TO.C,*%
X104140000Y-157480000D03*
%TD*%
%TO.C,*%
X111760000Y-157480000D03*
%TD*%
%TO.C,*%
X109220000Y-157480000D03*
%TD*%
%TO.C,*%
X114300000Y-157480000D03*
%TD*%
%TO.C,*%
X116840000Y-157480000D03*
%TD*%
%TO.C,*%
X93980000Y-157480000D03*
%TD*%
%TO.C,*%
X58420000Y-157480000D03*
%TD*%
%TO.C,*%
X88900000Y-157480000D03*
%TD*%
%TO.C,*%
X73660000Y-157480000D03*
%TD*%
%TO.C,*%
X124460000Y-157480000D03*
%TD*%
%TO.C,*%
X91440000Y-157480000D03*
%TD*%
%TO.C,*%
X60960000Y-157480000D03*
%TD*%
%TO.C,*%
X81280000Y-157480000D03*
%TD*%
%TO.C,*%
X96520000Y-157480000D03*
%TD*%
%TO.C,*%
X55880000Y-157480000D03*
%TD*%
%TO.C,*%
X106680000Y-157480000D03*
%TD*%
%TO.C,*%
X78740000Y-157480000D03*
%TD*%
%TO.C,*%
X71120000Y-157480000D03*
%TD*%
%TO.C,*%
X48260000Y-157480000D03*
%TD*%
%TO.C,*%
X27940000Y-157480000D03*
%TD*%
%TO.C,*%
X137160000Y-154940000D03*
%TD*%
%TO.C,*%
X25400000Y-157480000D03*
%TD*%
%TO.C,*%
X86360000Y-157480000D03*
%TD*%
%TO.C,*%
X35560000Y-157480000D03*
%TD*%
%TO.C,*%
X33020000Y-157480000D03*
%TD*%
%TO.C,*%
X63500000Y-157480000D03*
%TD*%
%TO.C,*%
X53340000Y-157480000D03*
%TD*%
%TO.C,*%
X68580000Y-157480000D03*
%TD*%
%TO.C,*%
X66040000Y-157480000D03*
%TD*%
%TO.C,*%
X40640000Y-157480000D03*
%TD*%
%TO.C,*%
X119380000Y-154940000D03*
%TD*%
%TO.C,*%
X43180000Y-157480000D03*
%TD*%
%TO.C,*%
X149860000Y-154940000D03*
%TD*%
%TO.C,*%
X30480000Y-157480000D03*
%TD*%
%TO.C,*%
X45720000Y-157480000D03*
%TD*%
%TO.C,*%
X101600000Y-154940000D03*
%TD*%
%TO.C,*%
X38100000Y-157480000D03*
%TD*%
%TO.C,*%
X132080000Y-154940000D03*
%TD*%
%TO.C,*%
X147320000Y-154940000D03*
%TD*%
%TO.C,*%
X142240000Y-154940000D03*
%TD*%
%TO.C,*%
X127000000Y-154940000D03*
%TD*%
%TO.C,*%
X50800000Y-154940000D03*
%TD*%
%TO.C,*%
X111760000Y-154940000D03*
%TD*%
%TO.C,*%
X139700000Y-154940000D03*
%TD*%
%TO.C,*%
X129540000Y-154940000D03*
%TD*%
%TO.C,*%
X109220000Y-154940000D03*
%TD*%
%TO.C,*%
X83820000Y-154940000D03*
%TD*%
%TO.C,*%
X114300000Y-154940000D03*
%TD*%
%TO.C,*%
X121920000Y-154940000D03*
%TD*%
%TO.C,*%
X91440000Y-154940000D03*
%TD*%
%TO.C,*%
X96520000Y-154940000D03*
%TD*%
%TO.C,*%
X55880000Y-154940000D03*
%TD*%
%TO.C,*%
X116840000Y-154940000D03*
%TD*%
%TO.C,*%
X104140000Y-154940000D03*
%TD*%
%TO.C,*%
X99060000Y-154940000D03*
%TD*%
%TO.C,*%
X124460000Y-154940000D03*
%TD*%
%TO.C,*%
X144780000Y-154940000D03*
%TD*%
%TO.C,*%
X134620000Y-154940000D03*
%TD*%
%TO.C,*%
X93980000Y-154940000D03*
%TD*%
%TO.C,*%
X73660000Y-154940000D03*
%TD*%
%TO.C,*%
X58420000Y-154940000D03*
%TD*%
%TO.C,*%
X68580000Y-154940000D03*
%TD*%
%TO.C,*%
X81280000Y-154940000D03*
%TD*%
%TO.C,*%
X60960000Y-154940000D03*
%TD*%
%TO.C,*%
X76200000Y-154940000D03*
%TD*%
%TO.C,*%
X88900000Y-154940000D03*
%TD*%
%TO.C,*%
X86360000Y-154940000D03*
%TD*%
%TO.C,*%
X78740000Y-154940000D03*
%TD*%
%TO.C,*%
X106680000Y-154940000D03*
%TD*%
%TO.C,*%
X53340000Y-154940000D03*
%TD*%
%TO.C,*%
X40640000Y-154940000D03*
%TD*%
%TO.C,*%
X35560000Y-154940000D03*
%TD*%
%TO.C,*%
X25400000Y-154940000D03*
%TD*%
%TO.C,*%
X27940000Y-154940000D03*
%TD*%
%TO.C,*%
X119380000Y-152400000D03*
%TD*%
%TO.C,*%
X63500000Y-154940000D03*
%TD*%
%TO.C,*%
X66040000Y-154940000D03*
%TD*%
%TO.C,*%
X43180000Y-154940000D03*
%TD*%
%TO.C,*%
X45720000Y-154940000D03*
%TD*%
%TO.C,*%
X33020000Y-154940000D03*
%TD*%
%TO.C,*%
X38100000Y-154940000D03*
%TD*%
%TO.C,*%
X149860000Y-152400000D03*
%TD*%
%TO.C,*%
X30480000Y-154940000D03*
%TD*%
%TO.C,*%
X109220000Y-152400000D03*
%TD*%
%TO.C,*%
X129540000Y-152400000D03*
%TD*%
%TO.C,*%
X83820000Y-152400000D03*
%TD*%
%TO.C,*%
X71120000Y-154940000D03*
%TD*%
%TO.C,*%
X48260000Y-154940000D03*
%TD*%
%TO.C,*%
X132080000Y-152400000D03*
%TD*%
%TO.C,*%
X147320000Y-152400000D03*
%TD*%
%TO.C,*%
X144780000Y-152400000D03*
%TD*%
%TO.C,*%
X142240000Y-152400000D03*
%TD*%
%TO.C,*%
X134620000Y-152400000D03*
%TD*%
%TO.C,*%
X124460000Y-152400000D03*
%TD*%
%TO.C,*%
X50800000Y-152400000D03*
%TD*%
%TO.C,*%
X127000000Y-152400000D03*
%TD*%
%TO.C,*%
X111760000Y-152400000D03*
%TD*%
%TO.C,*%
X139700000Y-152400000D03*
%TD*%
%TO.C,*%
X114300000Y-152400000D03*
%TD*%
%TO.C,*%
X137160000Y-152400000D03*
%TD*%
%TO.C,*%
X101600000Y-152400000D03*
%TD*%
%TO.C,*%
X132080000Y-144780000D03*
%TD*%
%TO.C,*%
X142240000Y-144780000D03*
%TD*%
%TO.C,*%
X134620000Y-144780000D03*
%TD*%
%TO.C,*%
X149860000Y-144780000D03*
%TD*%
%TO.C,*%
X124460000Y-144780000D03*
%TD*%
%TO.C,*%
X119380000Y-144780000D03*
%TD*%
%TO.C,*%
X101600000Y-144780000D03*
%TD*%
%TO.C,*%
X147320000Y-144780000D03*
%TD*%
%TO.C,*%
X137160000Y-144780000D03*
%TD*%
%TO.C,*%
X144780000Y-144780000D03*
%TD*%
%TO.C,*%
X58420000Y-144780000D03*
%TD*%
%TO.C,*%
X93980000Y-144780000D03*
%TD*%
%TO.C,*%
X109220000Y-144780000D03*
%TD*%
%TO.C,*%
X76200000Y-144780000D03*
%TD*%
%TO.C,*%
X129540000Y-144780000D03*
%TD*%
%TO.C,*%
X83820000Y-144780000D03*
%TD*%
%TO.C,*%
X50800000Y-144780000D03*
%TD*%
%TO.C,*%
X88900000Y-144780000D03*
%TD*%
%TO.C,*%
X114300000Y-144780000D03*
%TD*%
%TO.C,*%
X104140000Y-144780000D03*
%TD*%
%TO.C,*%
X116840000Y-144780000D03*
%TD*%
%TO.C,*%
X127000000Y-144780000D03*
%TD*%
%TO.C,*%
X111760000Y-144780000D03*
%TD*%
%TO.C,*%
X99060000Y-144780000D03*
%TD*%
%TO.C,*%
X121920000Y-144780000D03*
%TD*%
%TO.C,*%
X139700000Y-144780000D03*
%TD*%
%TO.C,*%
X73660000Y-144780000D03*
%TD*%
%TO.C,*%
X86360000Y-144780000D03*
%TD*%
%TO.C,*%
X81280000Y-144780000D03*
%TD*%
%TO.C,*%
X96520000Y-144780000D03*
%TD*%
%TO.C,*%
X91440000Y-144780000D03*
%TD*%
%TO.C,*%
X60960000Y-144780000D03*
%TD*%
%TO.C,*%
X106680000Y-144780000D03*
%TD*%
%TO.C,*%
X78740000Y-144780000D03*
%TD*%
%TO.C,*%
X55880000Y-144780000D03*
%TD*%
%TO.C,*%
X43180000Y-144780000D03*
%TD*%
%TO.C,*%
X25400000Y-144780000D03*
%TD*%
%TO.C,*%
X30480000Y-144780000D03*
%TD*%
%TO.C,*%
X45720000Y-144780000D03*
%TD*%
%TO.C,*%
X66040000Y-144780000D03*
%TD*%
%TO.C,*%
X119380000Y-142240000D03*
%TD*%
%TO.C,*%
X149860000Y-142240000D03*
%TD*%
%TO.C,*%
X40640000Y-144780000D03*
%TD*%
%TO.C,*%
X53340000Y-144780000D03*
%TD*%
%TO.C,*%
X68580000Y-144780000D03*
%TD*%
%TO.C,*%
X71120000Y-144780000D03*
%TD*%
%TO.C,*%
X27940000Y-144780000D03*
%TD*%
%TO.C,*%
X101600000Y-142240000D03*
%TD*%
%TO.C,*%
X137160000Y-142240000D03*
%TD*%
%TO.C,*%
X132080000Y-142240000D03*
%TD*%
%TO.C,*%
X35560000Y-144780000D03*
%TD*%
%TO.C,*%
X147320000Y-142240000D03*
%TD*%
%TO.C,*%
X48260000Y-144780000D03*
%TD*%
%TO.C,*%
X33020000Y-144780000D03*
%TD*%
%TO.C,*%
X38100000Y-144780000D03*
%TD*%
%TO.C,*%
X63500000Y-144780000D03*
%TD*%
%TO.C,*%
X116840000Y-142240000D03*
%TD*%
%TO.C,*%
X142240000Y-142240000D03*
%TD*%
%TO.C,*%
X109220000Y-142240000D03*
%TD*%
%TO.C,*%
X88900000Y-142240000D03*
%TD*%
%TO.C,*%
X134620000Y-142240000D03*
%TD*%
%TO.C,*%
X124460000Y-142240000D03*
%TD*%
%TO.C,*%
X111760000Y-142240000D03*
%TD*%
%TO.C,*%
X129540000Y-142240000D03*
%TD*%
%TO.C,*%
X104140000Y-142240000D03*
%TD*%
%TO.C,*%
X99060000Y-142240000D03*
%TD*%
%TO.C,*%
X114300000Y-142240000D03*
%TD*%
%TO.C,*%
X121920000Y-142240000D03*
%TD*%
%TO.C,*%
X127000000Y-142240000D03*
%TD*%
%TO.C,*%
X139700000Y-142240000D03*
%TD*%
%TO.C,*%
X50800000Y-142240000D03*
%TD*%
%TO.C,*%
X93980000Y-142240000D03*
%TD*%
%TO.C,*%
X83820000Y-142240000D03*
%TD*%
%TO.C,*%
X144780000Y-142240000D03*
%TD*%
%TO.C,*%
X33020000Y-124460000D03*
%TD*%
%TO.C,*%
X38100000Y-124460000D03*
%TD*%
%TO.C,*%
X30480000Y-124460000D03*
%TD*%
%TO.C,*%
X45720000Y-124460000D03*
%TD*%
%TO.C,*%
X40640000Y-124460000D03*
%TD*%
%TO.C,*%
X25400000Y-124460000D03*
%TD*%
%TO.C,*%
X27940000Y-124460000D03*
%TD*%
%TO.C,*%
X63500000Y-124460000D03*
%TD*%
%TO.C,*%
X149860000Y-121920000D03*
%TD*%
%TO.C,*%
X60960000Y-124460000D03*
%TD*%
%TO.C,*%
X43180000Y-124460000D03*
%TD*%
%TO.C,*%
X106680000Y-124460000D03*
%TD*%
%TO.C,*%
X78740000Y-124460000D03*
%TD*%
%TO.C,*%
X48260000Y-124460000D03*
%TD*%
%TO.C,*%
X55880000Y-124460000D03*
%TD*%
%TO.C,*%
X71120000Y-124460000D03*
%TD*%
%TO.C,*%
X53340000Y-124460000D03*
%TD*%
%TO.C,*%
X35560000Y-124460000D03*
%TD*%
%TO.C,*%
X66040000Y-124460000D03*
%TD*%
%TO.C,*%
X119380000Y-121920000D03*
%TD*%
%TO.C,*%
X101600000Y-121920000D03*
%TD*%
%TO.C,*%
X137160000Y-121920000D03*
%TD*%
%TO.C,*%
X132080000Y-121920000D03*
%TD*%
%TO.C,*%
X147320000Y-121920000D03*
%TD*%
%TO.C,*%
X144780000Y-121920000D03*
%TD*%
%TO.C,*%
X142240000Y-121920000D03*
%TD*%
%TO.C,*%
X134620000Y-121920000D03*
%TD*%
%TO.C,*%
X124460000Y-121920000D03*
%TD*%
%TO.C,*%
X127000000Y-121920000D03*
%TD*%
%TO.C,*%
X111760000Y-121920000D03*
%TD*%
%TO.C,*%
X139700000Y-121920000D03*
%TD*%
%TO.C,*%
X109220000Y-121920000D03*
%TD*%
%TO.C,*%
X129540000Y-121920000D03*
%TD*%
%TO.C,*%
X114300000Y-121920000D03*
%TD*%
%TO.C,*%
X83820000Y-121920000D03*
%TD*%
%TO.C,*%
X50800000Y-121920000D03*
%TD*%
%TO.C,*%
X88900000Y-121920000D03*
%TD*%
%TO.C,*%
X121920000Y-121920000D03*
%TD*%
%TO.C,*%
X116840000Y-121920000D03*
%TD*%
%TO.C,*%
X104140000Y-121920000D03*
%TD*%
%TO.C,*%
X99060000Y-121920000D03*
%TD*%
%TO.C,*%
X93980000Y-121920000D03*
%TD*%
%TO.C,*%
X73660000Y-121920000D03*
%TD*%
%TO.C,*%
X76200000Y-121920000D03*
%TD*%
%TO.C,*%
X58420000Y-121920000D03*
%TD*%
%TO.C,*%
X68580000Y-121920000D03*
%TD*%
%TO.C,*%
X86360000Y-121920000D03*
%TD*%
%TO.C,*%
X81280000Y-121920000D03*
%TD*%
%TO.C,*%
X96520000Y-121920000D03*
%TD*%
%TO.C,*%
X91440000Y-121920000D03*
%TD*%
%TO.C,*%
X60960000Y-121920000D03*
%TD*%
%TO.C,*%
X106680000Y-121920000D03*
%TD*%
%TO.C,*%
X78740000Y-121920000D03*
%TD*%
%TO.C,*%
X55880000Y-121920000D03*
%TD*%
%TO.C,*%
X71120000Y-121920000D03*
%TD*%
%TO.C,*%
X53340000Y-121920000D03*
%TD*%
%TO.C,*%
X48260000Y-121920000D03*
%TD*%
%TO.C,*%
X43180000Y-121920000D03*
%TD*%
%TO.C,*%
X35560000Y-121920000D03*
%TD*%
%TO.C,*%
X33020000Y-121920000D03*
%TD*%
%TO.C,*%
X25400000Y-121920000D03*
%TD*%
%TO.C,*%
X38100000Y-121920000D03*
%TD*%
%TO.C,*%
X30480000Y-121920000D03*
%TD*%
%TO.C,*%
X63500000Y-121920000D03*
%TD*%
%TO.C,*%
X66040000Y-121920000D03*
%TD*%
%TO.C,*%
X45720000Y-121920000D03*
%TD*%
%TO.C,*%
X40640000Y-121920000D03*
%TD*%
%TO.C,*%
X27940000Y-121920000D03*
%TD*%
%TO.C,*%
X88900000Y-127000000D03*
%TD*%
%TO.C,*%
X121920000Y-127000000D03*
%TD*%
%TO.C,*%
X73660000Y-127000000D03*
%TD*%
%TO.C,*%
X104140000Y-127000000D03*
%TD*%
%TO.C,*%
X99060000Y-127000000D03*
%TD*%
%TO.C,*%
X116840000Y-127000000D03*
%TD*%
%TO.C,*%
X93980000Y-127000000D03*
%TD*%
%TO.C,*%
X43180000Y-127000000D03*
%TD*%
%TO.C,*%
X81280000Y-127000000D03*
%TD*%
%TO.C,*%
X58420000Y-127000000D03*
%TD*%
%TO.C,*%
X86360000Y-127000000D03*
%TD*%
%TO.C,*%
X96520000Y-127000000D03*
%TD*%
%TO.C,*%
X48260000Y-127000000D03*
%TD*%
%TO.C,*%
X60960000Y-127000000D03*
%TD*%
%TO.C,*%
X25400000Y-127000000D03*
%TD*%
%TO.C,*%
X53340000Y-127000000D03*
%TD*%
%TO.C,*%
X71120000Y-127000000D03*
%TD*%
%TO.C,*%
X55880000Y-127000000D03*
%TD*%
%TO.C,*%
X78740000Y-127000000D03*
%TD*%
%TO.C,*%
X106680000Y-127000000D03*
%TD*%
%TO.C,*%
X35560000Y-127000000D03*
%TD*%
%TO.C,*%
X38100000Y-127000000D03*
%TD*%
%TO.C,*%
X68580000Y-127000000D03*
%TD*%
%TO.C,*%
X91440000Y-127000000D03*
%TD*%
%TO.C,*%
X76200000Y-127000000D03*
%TD*%
%TO.C,*%
X33020000Y-127000000D03*
%TD*%
%TO.C,*%
X147320000Y-124460000D03*
%TD*%
%TO.C,*%
X144780000Y-124460000D03*
%TD*%
%TO.C,*%
X137160000Y-124460000D03*
%TD*%
%TO.C,*%
X132080000Y-124460000D03*
%TD*%
%TO.C,*%
X63500000Y-127000000D03*
%TD*%
%TO.C,*%
X66040000Y-127000000D03*
%TD*%
%TO.C,*%
X40640000Y-127000000D03*
%TD*%
%TO.C,*%
X134620000Y-124460000D03*
%TD*%
%TO.C,*%
X127000000Y-124460000D03*
%TD*%
%TO.C,*%
X45720000Y-127000000D03*
%TD*%
%TO.C,*%
X111760000Y-124460000D03*
%TD*%
%TO.C,*%
X149860000Y-124460000D03*
%TD*%
%TO.C,*%
X27940000Y-127000000D03*
%TD*%
%TO.C,*%
X142240000Y-124460000D03*
%TD*%
%TO.C,*%
X124460000Y-124460000D03*
%TD*%
%TO.C,*%
X119380000Y-124460000D03*
%TD*%
%TO.C,*%
X30480000Y-127000000D03*
%TD*%
%TO.C,*%
X101600000Y-124460000D03*
%TD*%
%TO.C,*%
X109220000Y-124460000D03*
%TD*%
%TO.C,*%
X116840000Y-124460000D03*
%TD*%
%TO.C,*%
X91440000Y-124460000D03*
%TD*%
%TO.C,*%
X73660000Y-124460000D03*
%TD*%
%TO.C,*%
X86360000Y-124460000D03*
%TD*%
%TO.C,*%
X58420000Y-124460000D03*
%TD*%
%TO.C,*%
X81280000Y-124460000D03*
%TD*%
%TO.C,*%
X96520000Y-124460000D03*
%TD*%
%TO.C,*%
X104140000Y-124460000D03*
%TD*%
%TO.C,*%
X76200000Y-124460000D03*
%TD*%
%TO.C,*%
X129540000Y-124460000D03*
%TD*%
%TO.C,*%
X121920000Y-124460000D03*
%TD*%
%TO.C,*%
X93980000Y-124460000D03*
%TD*%
%TO.C,*%
X68580000Y-124460000D03*
%TD*%
%TO.C,*%
X114300000Y-124460000D03*
%TD*%
%TO.C,*%
X88900000Y-124460000D03*
%TD*%
%TO.C,*%
X83820000Y-124460000D03*
%TD*%
%TO.C,*%
X139700000Y-124460000D03*
%TD*%
%TO.C,*%
X50800000Y-124460000D03*
%TD*%
%TO.C,*%
X99060000Y-124460000D03*
%TD*%
%TO.C,*%
X81280000Y-142240000D03*
%TD*%
%TO.C,*%
X43180000Y-142240000D03*
%TD*%
%TO.C,*%
X96520000Y-142240000D03*
%TD*%
%TO.C,*%
X106680000Y-142240000D03*
%TD*%
%TO.C,*%
X53340000Y-142240000D03*
%TD*%
%TO.C,*%
X71120000Y-142240000D03*
%TD*%
%TO.C,*%
X86360000Y-142240000D03*
%TD*%
%TO.C,*%
X33020000Y-142240000D03*
%TD*%
%TO.C,*%
X73660000Y-142240000D03*
%TD*%
%TO.C,*%
X76200000Y-142240000D03*
%TD*%
%TO.C,*%
X58420000Y-142240000D03*
%TD*%
%TO.C,*%
X91440000Y-142240000D03*
%TD*%
%TO.C,*%
X68580000Y-142240000D03*
%TD*%
%TO.C,*%
X60960000Y-142240000D03*
%TD*%
%TO.C,*%
X78740000Y-142240000D03*
%TD*%
%TO.C,*%
X48260000Y-142240000D03*
%TD*%
%TO.C,*%
X35560000Y-142240000D03*
%TD*%
%TO.C,*%
X25400000Y-142240000D03*
%TD*%
%TO.C,*%
X55880000Y-142240000D03*
%TD*%
%TO.C,*%
X101600000Y-139700000D03*
%TD*%
%TO.C,*%
X30480000Y-142240000D03*
%TD*%
%TO.C,*%
X119380000Y-139700000D03*
%TD*%
%TO.C,*%
X63500000Y-142240000D03*
%TD*%
%TO.C,*%
X137160000Y-139700000D03*
%TD*%
%TO.C,*%
X66040000Y-142240000D03*
%TD*%
%TO.C,*%
X144780000Y-139700000D03*
%TD*%
%TO.C,*%
X147320000Y-139700000D03*
%TD*%
%TO.C,*%
X142240000Y-139700000D03*
%TD*%
%TO.C,*%
X134620000Y-139700000D03*
%TD*%
%TO.C,*%
X38100000Y-142240000D03*
%TD*%
%TO.C,*%
X45720000Y-142240000D03*
%TD*%
%TO.C,*%
X149860000Y-139700000D03*
%TD*%
%TO.C,*%
X124460000Y-139700000D03*
%TD*%
%TO.C,*%
X27940000Y-142240000D03*
%TD*%
%TO.C,*%
X40640000Y-142240000D03*
%TD*%
%TO.C,*%
X132080000Y-139700000D03*
%TD*%
%TO.C,*%
X111760000Y-139700000D03*
%TD*%
%TO.C,*%
X139700000Y-139700000D03*
%TD*%
%TO.C,*%
X109220000Y-139700000D03*
%TD*%
%TO.C,*%
X99060000Y-139700000D03*
%TD*%
%TO.C,*%
X129540000Y-139700000D03*
%TD*%
%TO.C,*%
X83820000Y-139700000D03*
%TD*%
%TO.C,*%
X50800000Y-139700000D03*
%TD*%
%TO.C,*%
X58420000Y-139700000D03*
%TD*%
%TO.C,*%
X91440000Y-139700000D03*
%TD*%
%TO.C,*%
X86360000Y-139700000D03*
%TD*%
%TO.C,*%
X78740000Y-139700000D03*
%TD*%
%TO.C,*%
X81280000Y-139700000D03*
%TD*%
%TO.C,*%
X106680000Y-139700000D03*
%TD*%
%TO.C,*%
X116840000Y-139700000D03*
%TD*%
%TO.C,*%
X104140000Y-139700000D03*
%TD*%
%TO.C,*%
X88900000Y-139700000D03*
%TD*%
%TO.C,*%
X121920000Y-139700000D03*
%TD*%
%TO.C,*%
X127000000Y-139700000D03*
%TD*%
%TO.C,*%
X114300000Y-139700000D03*
%TD*%
%TO.C,*%
X73660000Y-139700000D03*
%TD*%
%TO.C,*%
X68580000Y-139700000D03*
%TD*%
%TO.C,*%
X60960000Y-139700000D03*
%TD*%
%TO.C,*%
X55880000Y-139700000D03*
%TD*%
%TO.C,*%
X93980000Y-139700000D03*
%TD*%
%TO.C,*%
X76200000Y-139700000D03*
%TD*%
%TO.C,*%
X96520000Y-139700000D03*
%TD*%
%TO.C,*%
X48260000Y-139700000D03*
%TD*%
%TO.C,*%
X66040000Y-139700000D03*
%TD*%
%TO.C,*%
X147320000Y-137160000D03*
%TD*%
%TO.C,*%
X25400000Y-139700000D03*
%TD*%
%TO.C,*%
X30480000Y-139700000D03*
%TD*%
%TO.C,*%
X63500000Y-139700000D03*
%TD*%
%TO.C,*%
X137160000Y-137160000D03*
%TD*%
%TO.C,*%
X38100000Y-139700000D03*
%TD*%
%TO.C,*%
X119380000Y-137160000D03*
%TD*%
%TO.C,*%
X45720000Y-139700000D03*
%TD*%
%TO.C,*%
X35560000Y-139700000D03*
%TD*%
%TO.C,*%
X40640000Y-139700000D03*
%TD*%
%TO.C,*%
X149860000Y-137160000D03*
%TD*%
%TO.C,*%
X53340000Y-139700000D03*
%TD*%
%TO.C,*%
X43180000Y-139700000D03*
%TD*%
%TO.C,*%
X101600000Y-137160000D03*
%TD*%
%TO.C,*%
X27940000Y-139700000D03*
%TD*%
%TO.C,*%
X71120000Y-139700000D03*
%TD*%
%TO.C,*%
X33020000Y-139700000D03*
%TD*%
%TO.C,*%
X132080000Y-137160000D03*
%TD*%
%TO.C,*%
X144780000Y-137160000D03*
%TD*%
%TO.C,*%
X142240000Y-137160000D03*
%TD*%
%TO.C,*%
X127000000Y-137160000D03*
%TD*%
%TO.C,*%
X139700000Y-137160000D03*
%TD*%
%TO.C,*%
X83820000Y-137160000D03*
%TD*%
%TO.C,*%
X104140000Y-137160000D03*
%TD*%
%TO.C,*%
X73660000Y-137160000D03*
%TD*%
%TO.C,*%
X58420000Y-137160000D03*
%TD*%
%TO.C,*%
X86360000Y-137160000D03*
%TD*%
%TO.C,*%
X68580000Y-137160000D03*
%TD*%
%TO.C,*%
X124460000Y-137160000D03*
%TD*%
%TO.C,*%
X111760000Y-137160000D03*
%TD*%
%TO.C,*%
X129540000Y-137160000D03*
%TD*%
%TO.C,*%
X109220000Y-137160000D03*
%TD*%
%TO.C,*%
X76200000Y-137160000D03*
%TD*%
%TO.C,*%
X88900000Y-137160000D03*
%TD*%
%TO.C,*%
X114300000Y-137160000D03*
%TD*%
%TO.C,*%
X50800000Y-137160000D03*
%TD*%
%TO.C,*%
X116840000Y-137160000D03*
%TD*%
%TO.C,*%
X134620000Y-137160000D03*
%TD*%
%TO.C,*%
X121920000Y-137160000D03*
%TD*%
%TO.C,*%
X81280000Y-137160000D03*
%TD*%
%TO.C,*%
X99060000Y-137160000D03*
%TD*%
%TO.C,*%
X93980000Y-137160000D03*
%TD*%
%TO.C,*%
X91440000Y-137160000D03*
%TD*%
%TO.C,*%
X60960000Y-137160000D03*
%TD*%
%TO.C,*%
X78740000Y-137160000D03*
%TD*%
%TO.C,*%
X106680000Y-137160000D03*
%TD*%
%TO.C,*%
X53340000Y-137160000D03*
%TD*%
%TO.C,*%
X43180000Y-137160000D03*
%TD*%
%TO.C,*%
X55880000Y-137160000D03*
%TD*%
%TO.C,*%
X48260000Y-137160000D03*
%TD*%
%TO.C,*%
X33020000Y-137160000D03*
%TD*%
%TO.C,*%
X35560000Y-137160000D03*
%TD*%
%TO.C,*%
X25400000Y-137160000D03*
%TD*%
%TO.C,*%
X30480000Y-137160000D03*
%TD*%
%TO.C,*%
X38100000Y-137160000D03*
%TD*%
%TO.C,*%
X149860000Y-134620000D03*
%TD*%
%TO.C,*%
X101600000Y-134620000D03*
%TD*%
%TO.C,*%
X137160000Y-134620000D03*
%TD*%
%TO.C,*%
X71120000Y-137160000D03*
%TD*%
%TO.C,*%
X96520000Y-137160000D03*
%TD*%
%TO.C,*%
X66040000Y-137160000D03*
%TD*%
%TO.C,*%
X27940000Y-137160000D03*
%TD*%
%TO.C,*%
X45720000Y-137160000D03*
%TD*%
%TO.C,*%
X40640000Y-137160000D03*
%TD*%
%TO.C,*%
X144780000Y-134620000D03*
%TD*%
%TO.C,*%
X139700000Y-134620000D03*
%TD*%
%TO.C,*%
X109220000Y-134620000D03*
%TD*%
%TO.C,*%
X129540000Y-134620000D03*
%TD*%
%TO.C,*%
X114300000Y-134620000D03*
%TD*%
%TO.C,*%
X50800000Y-134620000D03*
%TD*%
%TO.C,*%
X116840000Y-134620000D03*
%TD*%
%TO.C,*%
X88900000Y-134620000D03*
%TD*%
%TO.C,*%
X63500000Y-137160000D03*
%TD*%
%TO.C,*%
X119380000Y-134620000D03*
%TD*%
%TO.C,*%
X134620000Y-134620000D03*
%TD*%
%TO.C,*%
X124460000Y-134620000D03*
%TD*%
%TO.C,*%
X83820000Y-134620000D03*
%TD*%
%TO.C,*%
X127000000Y-134620000D03*
%TD*%
%TO.C,*%
X111760000Y-134620000D03*
%TD*%
%TO.C,*%
X132080000Y-134620000D03*
%TD*%
%TO.C,*%
X121920000Y-134620000D03*
%TD*%
%TO.C,*%
X147320000Y-134620000D03*
%TD*%
%TO.C,*%
X142240000Y-134620000D03*
%TD*%
%TO.C,*%
X76200000Y-134620000D03*
%TD*%
%TO.C,*%
X53340000Y-134620000D03*
%TD*%
%TO.C,*%
X48260000Y-134620000D03*
%TD*%
%TO.C,*%
X96520000Y-134620000D03*
%TD*%
%TO.C,*%
X99060000Y-134620000D03*
%TD*%
%TO.C,*%
X73660000Y-134620000D03*
%TD*%
%TO.C,*%
X60960000Y-134620000D03*
%TD*%
%TO.C,*%
X58420000Y-134620000D03*
%TD*%
%TO.C,*%
X106680000Y-134620000D03*
%TD*%
%TO.C,*%
X81280000Y-134620000D03*
%TD*%
%TO.C,*%
X55880000Y-134620000D03*
%TD*%
%TO.C,*%
X91440000Y-134620000D03*
%TD*%
%TO.C,*%
X71120000Y-134620000D03*
%TD*%
%TO.C,*%
X86360000Y-134620000D03*
%TD*%
%TO.C,*%
X43180000Y-134620000D03*
%TD*%
%TO.C,*%
X104140000Y-134620000D03*
%TD*%
%TO.C,*%
X78740000Y-134620000D03*
%TD*%
%TO.C,*%
X93980000Y-134620000D03*
%TD*%
%TO.C,*%
X68580000Y-134620000D03*
%TD*%
%TO.C,*%
X25400000Y-134620000D03*
%TD*%
%TO.C,*%
X40640000Y-134620000D03*
%TD*%
%TO.C,*%
X63500000Y-134620000D03*
%TD*%
%TO.C,*%
X132080000Y-132080000D03*
%TD*%
%TO.C,*%
X45720000Y-134620000D03*
%TD*%
%TO.C,*%
X27940000Y-134620000D03*
%TD*%
%TO.C,*%
X144780000Y-132080000D03*
%TD*%
%TO.C,*%
X137160000Y-132080000D03*
%TD*%
%TO.C,*%
X30480000Y-134620000D03*
%TD*%
%TO.C,*%
X66040000Y-134620000D03*
%TD*%
%TO.C,*%
X134620000Y-132080000D03*
%TD*%
%TO.C,*%
X147320000Y-132080000D03*
%TD*%
%TO.C,*%
X142240000Y-132080000D03*
%TD*%
%TO.C,*%
X119380000Y-132080000D03*
%TD*%
%TO.C,*%
X149860000Y-132080000D03*
%TD*%
%TO.C,*%
X101600000Y-132080000D03*
%TD*%
%TO.C,*%
X35560000Y-134620000D03*
%TD*%
%TO.C,*%
X33020000Y-134620000D03*
%TD*%
%TO.C,*%
X38100000Y-134620000D03*
%TD*%
%TO.C,*%
X50800000Y-132080000D03*
%TD*%
%TO.C,*%
X76200000Y-132080000D03*
%TD*%
%TO.C,*%
X127000000Y-132080000D03*
%TD*%
%TO.C,*%
X139700000Y-132080000D03*
%TD*%
%TO.C,*%
X99060000Y-132080000D03*
%TD*%
%TO.C,*%
X129540000Y-132080000D03*
%TD*%
%TO.C,*%
X83820000Y-132080000D03*
%TD*%
%TO.C,*%
X121920000Y-132080000D03*
%TD*%
%TO.C,*%
X104140000Y-132080000D03*
%TD*%
%TO.C,*%
X111760000Y-132080000D03*
%TD*%
%TO.C,*%
X109220000Y-132080000D03*
%TD*%
%TO.C,*%
X114300000Y-132080000D03*
%TD*%
%TO.C,*%
X116840000Y-132080000D03*
%TD*%
%TO.C,*%
X93980000Y-132080000D03*
%TD*%
%TO.C,*%
X58420000Y-132080000D03*
%TD*%
%TO.C,*%
X88900000Y-132080000D03*
%TD*%
%TO.C,*%
X73660000Y-132080000D03*
%TD*%
%TO.C,*%
X124460000Y-132080000D03*
%TD*%
%TO.C,*%
X91440000Y-132080000D03*
%TD*%
%TO.C,*%
X60960000Y-132080000D03*
%TD*%
%TO.C,*%
X81280000Y-132080000D03*
%TD*%
%TO.C,*%
X96520000Y-132080000D03*
%TD*%
%TO.C,*%
X55880000Y-132080000D03*
%TD*%
%TO.C,*%
X106680000Y-132080000D03*
%TD*%
%TO.C,*%
X78740000Y-132080000D03*
%TD*%
%TO.C,*%
X71120000Y-132080000D03*
%TD*%
%TO.C,*%
X48260000Y-132080000D03*
%TD*%
%TO.C,*%
X27940000Y-132080000D03*
%TD*%
%TO.C,*%
X137160000Y-129540000D03*
%TD*%
%TO.C,*%
X25400000Y-132080000D03*
%TD*%
%TO.C,*%
X86360000Y-132080000D03*
%TD*%
%TO.C,*%
X35560000Y-132080000D03*
%TD*%
%TO.C,*%
X33020000Y-132080000D03*
%TD*%
%TO.C,*%
X63500000Y-132080000D03*
%TD*%
%TO.C,*%
X53340000Y-132080000D03*
%TD*%
%TO.C,*%
X68580000Y-132080000D03*
%TD*%
%TO.C,*%
X66040000Y-132080000D03*
%TD*%
%TO.C,*%
X40640000Y-132080000D03*
%TD*%
%TO.C,*%
X119380000Y-129540000D03*
%TD*%
%TO.C,*%
X43180000Y-132080000D03*
%TD*%
%TO.C,*%
X149860000Y-129540000D03*
%TD*%
%TO.C,*%
X30480000Y-132080000D03*
%TD*%
%TO.C,*%
X45720000Y-132080000D03*
%TD*%
%TO.C,*%
X101600000Y-129540000D03*
%TD*%
%TO.C,*%
X38100000Y-132080000D03*
%TD*%
%TO.C,*%
X132080000Y-129540000D03*
%TD*%
%TO.C,*%
X147320000Y-129540000D03*
%TD*%
%TO.C,*%
X142240000Y-129540000D03*
%TD*%
%TO.C,*%
X127000000Y-129540000D03*
%TD*%
%TO.C,*%
X50800000Y-129540000D03*
%TD*%
%TO.C,*%
X111760000Y-129540000D03*
%TD*%
%TO.C,*%
X139700000Y-129540000D03*
%TD*%
%TO.C,*%
X129540000Y-129540000D03*
%TD*%
%TO.C,*%
X109220000Y-129540000D03*
%TD*%
%TO.C,*%
X83820000Y-129540000D03*
%TD*%
%TO.C,*%
X114300000Y-129540000D03*
%TD*%
%TO.C,*%
X121920000Y-129540000D03*
%TD*%
%TO.C,*%
X91440000Y-129540000D03*
%TD*%
%TO.C,*%
X96520000Y-129540000D03*
%TD*%
%TO.C,*%
X55880000Y-129540000D03*
%TD*%
%TO.C,*%
X116840000Y-129540000D03*
%TD*%
%TO.C,*%
X104140000Y-129540000D03*
%TD*%
%TO.C,*%
X99060000Y-129540000D03*
%TD*%
%TO.C,*%
X124460000Y-129540000D03*
%TD*%
%TO.C,*%
X144780000Y-129540000D03*
%TD*%
%TO.C,*%
X134620000Y-129540000D03*
%TD*%
%TO.C,*%
X93980000Y-129540000D03*
%TD*%
%TO.C,*%
X73660000Y-129540000D03*
%TD*%
%TO.C,*%
X58420000Y-129540000D03*
%TD*%
%TO.C,*%
X68580000Y-129540000D03*
%TD*%
%TO.C,*%
X81280000Y-129540000D03*
%TD*%
%TO.C,*%
X60960000Y-129540000D03*
%TD*%
%TO.C,*%
X76200000Y-129540000D03*
%TD*%
%TO.C,*%
X88900000Y-129540000D03*
%TD*%
%TO.C,*%
X86360000Y-129540000D03*
%TD*%
%TO.C,*%
X78740000Y-129540000D03*
%TD*%
%TO.C,*%
X106680000Y-129540000D03*
%TD*%
%TO.C,*%
X53340000Y-129540000D03*
%TD*%
%TO.C,*%
X40640000Y-129540000D03*
%TD*%
%TO.C,*%
X35560000Y-129540000D03*
%TD*%
%TO.C,*%
X25400000Y-129540000D03*
%TD*%
%TO.C,*%
X27940000Y-129540000D03*
%TD*%
%TO.C,*%
X119380000Y-127000000D03*
%TD*%
%TO.C,*%
X63500000Y-129540000D03*
%TD*%
%TO.C,*%
X66040000Y-129540000D03*
%TD*%
%TO.C,*%
X43180000Y-129540000D03*
%TD*%
%TO.C,*%
X45720000Y-129540000D03*
%TD*%
%TO.C,*%
X33020000Y-129540000D03*
%TD*%
%TO.C,*%
X38100000Y-129540000D03*
%TD*%
%TO.C,*%
X149860000Y-127000000D03*
%TD*%
%TO.C,*%
X30480000Y-129540000D03*
%TD*%
%TO.C,*%
X109220000Y-127000000D03*
%TD*%
%TO.C,*%
X129540000Y-127000000D03*
%TD*%
%TO.C,*%
X83820000Y-127000000D03*
%TD*%
%TO.C,*%
X71120000Y-129540000D03*
%TD*%
%TO.C,*%
X48260000Y-129540000D03*
%TD*%
%TO.C,*%
X132080000Y-127000000D03*
%TD*%
%TO.C,*%
X147320000Y-127000000D03*
%TD*%
%TO.C,*%
X144780000Y-127000000D03*
%TD*%
%TO.C,*%
X142240000Y-127000000D03*
%TD*%
%TO.C,*%
X134620000Y-127000000D03*
%TD*%
%TO.C,*%
X124460000Y-127000000D03*
%TD*%
%TO.C,*%
X50800000Y-127000000D03*
%TD*%
%TO.C,*%
X127000000Y-127000000D03*
%TD*%
%TO.C,*%
X111760000Y-127000000D03*
%TD*%
%TO.C,*%
X139700000Y-127000000D03*
%TD*%
%TO.C,*%
X114300000Y-127000000D03*
%TD*%
%TO.C,*%
X137160000Y-127000000D03*
%TD*%
%TO.C,*%
X101600000Y-127000000D03*
%TD*%
%TO.C,*%
X132080000Y-119380000D03*
%TD*%
%TO.C,*%
X142240000Y-119380000D03*
%TD*%
%TO.C,*%
X134620000Y-119380000D03*
%TD*%
%TO.C,*%
X149860000Y-119380000D03*
%TD*%
%TO.C,*%
X124460000Y-119380000D03*
%TD*%
%TO.C,*%
X119380000Y-119380000D03*
%TD*%
%TO.C,*%
X101600000Y-119380000D03*
%TD*%
%TO.C,*%
X147320000Y-119380000D03*
%TD*%
%TO.C,*%
X137160000Y-119380000D03*
%TD*%
%TO.C,*%
X144780000Y-119380000D03*
%TD*%
%TO.C,*%
X58420000Y-119380000D03*
%TD*%
%TO.C,*%
X93980000Y-119380000D03*
%TD*%
%TO.C,*%
X109220000Y-119380000D03*
%TD*%
%TO.C,*%
X76200000Y-119380000D03*
%TD*%
%TO.C,*%
X129540000Y-119380000D03*
%TD*%
%TO.C,*%
X83820000Y-119380000D03*
%TD*%
%TO.C,*%
X50800000Y-119380000D03*
%TD*%
%TO.C,*%
X88900000Y-119380000D03*
%TD*%
%TO.C,*%
X114300000Y-119380000D03*
%TD*%
%TO.C,*%
X104140000Y-119380000D03*
%TD*%
%TO.C,*%
X116840000Y-119380000D03*
%TD*%
%TO.C,*%
X127000000Y-119380000D03*
%TD*%
%TO.C,*%
X111760000Y-119380000D03*
%TD*%
%TO.C,*%
X99060000Y-119380000D03*
%TD*%
%TO.C,*%
X121920000Y-119380000D03*
%TD*%
%TO.C,*%
X139700000Y-119380000D03*
%TD*%
%TO.C,*%
X73660000Y-119380000D03*
%TD*%
%TO.C,*%
X86360000Y-119380000D03*
%TD*%
%TO.C,*%
X81280000Y-119380000D03*
%TD*%
%TO.C,*%
X96520000Y-119380000D03*
%TD*%
%TO.C,*%
X91440000Y-119380000D03*
%TD*%
%TO.C,*%
X60960000Y-119380000D03*
%TD*%
%TO.C,*%
X106680000Y-119380000D03*
%TD*%
%TO.C,*%
X78740000Y-119380000D03*
%TD*%
%TO.C,*%
X55880000Y-119380000D03*
%TD*%
%TO.C,*%
X43180000Y-119380000D03*
%TD*%
%TO.C,*%
X25400000Y-119380000D03*
%TD*%
%TO.C,*%
X30480000Y-119380000D03*
%TD*%
%TO.C,*%
X45720000Y-119380000D03*
%TD*%
%TO.C,*%
X66040000Y-119380000D03*
%TD*%
%TO.C,*%
X119380000Y-116840000D03*
%TD*%
%TO.C,*%
X149860000Y-116840000D03*
%TD*%
%TO.C,*%
X40640000Y-119380000D03*
%TD*%
%TO.C,*%
X53340000Y-119380000D03*
%TD*%
%TO.C,*%
X68580000Y-119380000D03*
%TD*%
%TO.C,*%
X71120000Y-119380000D03*
%TD*%
%TO.C,*%
X27940000Y-119380000D03*
%TD*%
%TO.C,*%
X101600000Y-116840000D03*
%TD*%
%TO.C,*%
X137160000Y-116840000D03*
%TD*%
%TO.C,*%
X132080000Y-116840000D03*
%TD*%
%TO.C,*%
X35560000Y-119380000D03*
%TD*%
%TO.C,*%
X147320000Y-116840000D03*
%TD*%
%TO.C,*%
X48260000Y-119380000D03*
%TD*%
%TO.C,*%
X33020000Y-119380000D03*
%TD*%
%TO.C,*%
X38100000Y-119380000D03*
%TD*%
%TO.C,*%
X63500000Y-119380000D03*
%TD*%
%TO.C,*%
X116840000Y-116840000D03*
%TD*%
%TO.C,*%
X142240000Y-116840000D03*
%TD*%
%TO.C,*%
X109220000Y-116840000D03*
%TD*%
%TO.C,*%
X88900000Y-116840000D03*
%TD*%
%TO.C,*%
X134620000Y-116840000D03*
%TD*%
%TO.C,*%
X124460000Y-116840000D03*
%TD*%
%TO.C,*%
X111760000Y-116840000D03*
%TD*%
%TO.C,*%
X129540000Y-116840000D03*
%TD*%
%TO.C,*%
X104140000Y-116840000D03*
%TD*%
%TO.C,*%
X99060000Y-116840000D03*
%TD*%
%TO.C,*%
X114300000Y-116840000D03*
%TD*%
%TO.C,*%
X121920000Y-116840000D03*
%TD*%
%TO.C,*%
X127000000Y-116840000D03*
%TD*%
%TO.C,*%
X139700000Y-116840000D03*
%TD*%
%TO.C,*%
X50800000Y-116840000D03*
%TD*%
%TO.C,*%
X93980000Y-116840000D03*
%TD*%
%TO.C,*%
X83820000Y-116840000D03*
%TD*%
%TO.C,*%
X144780000Y-116840000D03*
%TD*%
%TO.C,*%
X33020000Y-99060000D03*
%TD*%
%TO.C,*%
X38100000Y-99060000D03*
%TD*%
%TO.C,*%
X30480000Y-99060000D03*
%TD*%
%TO.C,*%
X45720000Y-99060000D03*
%TD*%
%TO.C,*%
X40640000Y-99060000D03*
%TD*%
%TO.C,*%
X25400000Y-99060000D03*
%TD*%
%TO.C,*%
X27940000Y-99060000D03*
%TD*%
%TO.C,*%
X63500000Y-99060000D03*
%TD*%
%TO.C,*%
X149860000Y-96520000D03*
%TD*%
%TO.C,*%
X60960000Y-99060000D03*
%TD*%
%TO.C,*%
X43180000Y-99060000D03*
%TD*%
%TO.C,*%
X106680000Y-99060000D03*
%TD*%
%TO.C,*%
X78740000Y-99060000D03*
%TD*%
%TO.C,*%
X48260000Y-99060000D03*
%TD*%
%TO.C,*%
X55880000Y-99060000D03*
%TD*%
%TO.C,*%
X71120000Y-99060000D03*
%TD*%
%TO.C,*%
X53340000Y-99060000D03*
%TD*%
%TO.C,*%
X35560000Y-99060000D03*
%TD*%
%TO.C,*%
X66040000Y-99060000D03*
%TD*%
%TO.C,*%
X119380000Y-96520000D03*
%TD*%
%TO.C,*%
X101600000Y-96520000D03*
%TD*%
%TO.C,*%
X137160000Y-96520000D03*
%TD*%
%TO.C,*%
X132080000Y-96520000D03*
%TD*%
%TO.C,*%
X147320000Y-96520000D03*
%TD*%
%TO.C,*%
X144780000Y-96520000D03*
%TD*%
%TO.C,*%
X142240000Y-96520000D03*
%TD*%
%TO.C,*%
X134620000Y-96520000D03*
%TD*%
%TO.C,*%
X124460000Y-96520000D03*
%TD*%
%TO.C,*%
X127000000Y-96520000D03*
%TD*%
%TO.C,*%
X111760000Y-96520000D03*
%TD*%
%TO.C,*%
X139700000Y-96520000D03*
%TD*%
%TO.C,*%
X109220000Y-96520000D03*
%TD*%
%TO.C,*%
X129540000Y-96520000D03*
%TD*%
%TO.C,*%
X114300000Y-96520000D03*
%TD*%
%TO.C,*%
X83820000Y-96520000D03*
%TD*%
%TO.C,*%
X50800000Y-96520000D03*
%TD*%
%TO.C,*%
X88900000Y-96520000D03*
%TD*%
%TO.C,*%
X121920000Y-96520000D03*
%TD*%
%TO.C,*%
X116840000Y-96520000D03*
%TD*%
%TO.C,*%
X104140000Y-96520000D03*
%TD*%
%TO.C,*%
X99060000Y-96520000D03*
%TD*%
%TO.C,*%
X93980000Y-96520000D03*
%TD*%
%TO.C,*%
X73660000Y-96520000D03*
%TD*%
%TO.C,*%
X76200000Y-96520000D03*
%TD*%
%TO.C,*%
X58420000Y-96520000D03*
%TD*%
%TO.C,*%
X68580000Y-96520000D03*
%TD*%
%TO.C,*%
X86360000Y-96520000D03*
%TD*%
%TO.C,*%
X81280000Y-96520000D03*
%TD*%
%TO.C,*%
X96520000Y-96520000D03*
%TD*%
%TO.C,*%
X91440000Y-96520000D03*
%TD*%
%TO.C,*%
X60960000Y-96520000D03*
%TD*%
%TO.C,*%
X106680000Y-96520000D03*
%TD*%
%TO.C,*%
X78740000Y-96520000D03*
%TD*%
%TO.C,*%
X55880000Y-96520000D03*
%TD*%
%TO.C,*%
X71120000Y-96520000D03*
%TD*%
%TO.C,*%
X53340000Y-96520000D03*
%TD*%
%TO.C,*%
X48260000Y-96520000D03*
%TD*%
%TO.C,*%
X43180000Y-96520000D03*
%TD*%
%TO.C,*%
X35560000Y-96520000D03*
%TD*%
%TO.C,*%
X33020000Y-96520000D03*
%TD*%
%TO.C,*%
X25400000Y-96520000D03*
%TD*%
%TO.C,*%
X38100000Y-96520000D03*
%TD*%
%TO.C,*%
X30480000Y-96520000D03*
%TD*%
%TO.C,*%
X63500000Y-96520000D03*
%TD*%
%TO.C,*%
X66040000Y-96520000D03*
%TD*%
%TO.C,*%
X45720000Y-96520000D03*
%TD*%
%TO.C,*%
X40640000Y-96520000D03*
%TD*%
%TO.C,*%
X27940000Y-96520000D03*
%TD*%
%TO.C,*%
X88900000Y-101600000D03*
%TD*%
%TO.C,*%
X121920000Y-101600000D03*
%TD*%
%TO.C,*%
X73660000Y-101600000D03*
%TD*%
%TO.C,*%
X104140000Y-101600000D03*
%TD*%
%TO.C,*%
X99060000Y-101600000D03*
%TD*%
%TO.C,*%
X116840000Y-101600000D03*
%TD*%
%TO.C,*%
X93980000Y-101600000D03*
%TD*%
%TO.C,*%
X43180000Y-101600000D03*
%TD*%
%TO.C,*%
X81280000Y-101600000D03*
%TD*%
%TO.C,*%
X58420000Y-101600000D03*
%TD*%
%TO.C,*%
X86360000Y-101600000D03*
%TD*%
%TO.C,*%
X96520000Y-101600000D03*
%TD*%
%TO.C,*%
X48260000Y-101600000D03*
%TD*%
%TO.C,*%
X60960000Y-101600000D03*
%TD*%
%TO.C,*%
X25400000Y-101600000D03*
%TD*%
%TO.C,*%
X53340000Y-101600000D03*
%TD*%
%TO.C,*%
X71120000Y-101600000D03*
%TD*%
%TO.C,*%
X55880000Y-101600000D03*
%TD*%
%TO.C,*%
X78740000Y-101600000D03*
%TD*%
%TO.C,*%
X106680000Y-101600000D03*
%TD*%
%TO.C,*%
X35560000Y-101600000D03*
%TD*%
%TO.C,*%
X38100000Y-101600000D03*
%TD*%
%TO.C,*%
X68580000Y-101600000D03*
%TD*%
%TO.C,*%
X91440000Y-101600000D03*
%TD*%
%TO.C,*%
X76200000Y-101600000D03*
%TD*%
%TO.C,*%
X33020000Y-101600000D03*
%TD*%
%TO.C,*%
X147320000Y-99060000D03*
%TD*%
%TO.C,*%
X144780000Y-99060000D03*
%TD*%
%TO.C,*%
X137160000Y-99060000D03*
%TD*%
%TO.C,*%
X132080000Y-99060000D03*
%TD*%
%TO.C,*%
X63500000Y-101600000D03*
%TD*%
%TO.C,*%
X66040000Y-101600000D03*
%TD*%
%TO.C,*%
X40640000Y-101600000D03*
%TD*%
%TO.C,*%
X134620000Y-99060000D03*
%TD*%
%TO.C,*%
X127000000Y-99060000D03*
%TD*%
%TO.C,*%
X45720000Y-101600000D03*
%TD*%
%TO.C,*%
X111760000Y-99060000D03*
%TD*%
%TO.C,*%
X149860000Y-99060000D03*
%TD*%
%TO.C,*%
X27940000Y-101600000D03*
%TD*%
%TO.C,*%
X142240000Y-99060000D03*
%TD*%
%TO.C,*%
X124460000Y-99060000D03*
%TD*%
%TO.C,*%
X119380000Y-99060000D03*
%TD*%
%TO.C,*%
X30480000Y-101600000D03*
%TD*%
%TO.C,*%
X101600000Y-99060000D03*
%TD*%
%TO.C,*%
X109220000Y-99060000D03*
%TD*%
%TO.C,*%
X116840000Y-99060000D03*
%TD*%
%TO.C,*%
X91440000Y-99060000D03*
%TD*%
%TO.C,*%
X73660000Y-99060000D03*
%TD*%
%TO.C,*%
X86360000Y-99060000D03*
%TD*%
%TO.C,*%
X58420000Y-99060000D03*
%TD*%
%TO.C,*%
X81280000Y-99060000D03*
%TD*%
%TO.C,*%
X96520000Y-99060000D03*
%TD*%
%TO.C,*%
X104140000Y-99060000D03*
%TD*%
%TO.C,*%
X76200000Y-99060000D03*
%TD*%
%TO.C,*%
X129540000Y-99060000D03*
%TD*%
%TO.C,*%
X121920000Y-99060000D03*
%TD*%
%TO.C,*%
X93980000Y-99060000D03*
%TD*%
%TO.C,*%
X68580000Y-99060000D03*
%TD*%
%TO.C,*%
X114300000Y-99060000D03*
%TD*%
%TO.C,*%
X88900000Y-99060000D03*
%TD*%
%TO.C,*%
X83820000Y-99060000D03*
%TD*%
%TO.C,*%
X139700000Y-99060000D03*
%TD*%
%TO.C,*%
X50800000Y-99060000D03*
%TD*%
%TO.C,*%
X99060000Y-99060000D03*
%TD*%
%TO.C,*%
X81280000Y-116840000D03*
%TD*%
%TO.C,*%
X43180000Y-116840000D03*
%TD*%
%TO.C,*%
X96520000Y-116840000D03*
%TD*%
%TO.C,*%
X106680000Y-116840000D03*
%TD*%
%TO.C,*%
X53340000Y-116840000D03*
%TD*%
%TO.C,*%
X71120000Y-116840000D03*
%TD*%
%TO.C,*%
X86360000Y-116840000D03*
%TD*%
%TO.C,*%
X33020000Y-116840000D03*
%TD*%
%TO.C,*%
X73660000Y-116840000D03*
%TD*%
%TO.C,*%
X76200000Y-116840000D03*
%TD*%
%TO.C,*%
X58420000Y-116840000D03*
%TD*%
%TO.C,*%
X91440000Y-116840000D03*
%TD*%
%TO.C,*%
X68580000Y-116840000D03*
%TD*%
%TO.C,*%
X60960000Y-116840000D03*
%TD*%
%TO.C,*%
X78740000Y-116840000D03*
%TD*%
%TO.C,*%
X48260000Y-116840000D03*
%TD*%
%TO.C,*%
X35560000Y-116840000D03*
%TD*%
%TO.C,*%
X25400000Y-116840000D03*
%TD*%
%TO.C,*%
X55880000Y-116840000D03*
%TD*%
%TO.C,*%
X101600000Y-114300000D03*
%TD*%
%TO.C,*%
X30480000Y-116840000D03*
%TD*%
%TO.C,*%
X119380000Y-114300000D03*
%TD*%
%TO.C,*%
X63500000Y-116840000D03*
%TD*%
%TO.C,*%
X137160000Y-114300000D03*
%TD*%
%TO.C,*%
X66040000Y-116840000D03*
%TD*%
%TO.C,*%
X144780000Y-114300000D03*
%TD*%
%TO.C,*%
X147320000Y-114300000D03*
%TD*%
%TO.C,*%
X142240000Y-114300000D03*
%TD*%
%TO.C,*%
X134620000Y-114300000D03*
%TD*%
%TO.C,*%
X38100000Y-116840000D03*
%TD*%
%TO.C,*%
X45720000Y-116840000D03*
%TD*%
%TO.C,*%
X149860000Y-114300000D03*
%TD*%
%TO.C,*%
X124460000Y-114300000D03*
%TD*%
%TO.C,*%
X27940000Y-116840000D03*
%TD*%
%TO.C,*%
X40640000Y-116840000D03*
%TD*%
%TO.C,*%
X132080000Y-114300000D03*
%TD*%
%TO.C,*%
X111760000Y-114300000D03*
%TD*%
%TO.C,*%
X139700000Y-114300000D03*
%TD*%
%TO.C,*%
X109220000Y-114300000D03*
%TD*%
%TO.C,*%
X99060000Y-114300000D03*
%TD*%
%TO.C,*%
X129540000Y-114300000D03*
%TD*%
%TO.C,*%
X83820000Y-114300000D03*
%TD*%
%TO.C,*%
X50800000Y-114300000D03*
%TD*%
%TO.C,*%
X58420000Y-114300000D03*
%TD*%
%TO.C,*%
X91440000Y-114300000D03*
%TD*%
%TO.C,*%
X86360000Y-114300000D03*
%TD*%
%TO.C,*%
X78740000Y-114300000D03*
%TD*%
%TO.C,*%
X81280000Y-114300000D03*
%TD*%
%TO.C,*%
X106680000Y-114300000D03*
%TD*%
%TO.C,*%
X116840000Y-114300000D03*
%TD*%
%TO.C,*%
X104140000Y-114300000D03*
%TD*%
%TO.C,*%
X88900000Y-114300000D03*
%TD*%
%TO.C,*%
X121920000Y-114300000D03*
%TD*%
%TO.C,*%
X127000000Y-114300000D03*
%TD*%
%TO.C,*%
X114300000Y-114300000D03*
%TD*%
%TO.C,*%
X73660000Y-114300000D03*
%TD*%
%TO.C,*%
X68580000Y-114300000D03*
%TD*%
%TO.C,*%
X60960000Y-114300000D03*
%TD*%
%TO.C,*%
X55880000Y-114300000D03*
%TD*%
%TO.C,*%
X93980000Y-114300000D03*
%TD*%
%TO.C,*%
X76200000Y-114300000D03*
%TD*%
%TO.C,*%
X96520000Y-114300000D03*
%TD*%
%TO.C,*%
X48260000Y-114300000D03*
%TD*%
%TO.C,*%
X66040000Y-114300000D03*
%TD*%
%TO.C,*%
X147320000Y-111760000D03*
%TD*%
%TO.C,*%
X25400000Y-114300000D03*
%TD*%
%TO.C,*%
X30480000Y-114300000D03*
%TD*%
%TO.C,*%
X63500000Y-114300000D03*
%TD*%
%TO.C,*%
X137160000Y-111760000D03*
%TD*%
%TO.C,*%
X38100000Y-114300000D03*
%TD*%
%TO.C,*%
X119380000Y-111760000D03*
%TD*%
%TO.C,*%
X45720000Y-114300000D03*
%TD*%
%TO.C,*%
X35560000Y-114300000D03*
%TD*%
%TO.C,*%
X40640000Y-114300000D03*
%TD*%
%TO.C,*%
X149860000Y-111760000D03*
%TD*%
%TO.C,*%
X53340000Y-114300000D03*
%TD*%
%TO.C,*%
X43180000Y-114300000D03*
%TD*%
%TO.C,*%
X101600000Y-111760000D03*
%TD*%
%TO.C,*%
X27940000Y-114300000D03*
%TD*%
%TO.C,*%
X71120000Y-114300000D03*
%TD*%
%TO.C,*%
X33020000Y-114300000D03*
%TD*%
%TO.C,*%
X132080000Y-111760000D03*
%TD*%
%TO.C,*%
X144780000Y-111760000D03*
%TD*%
%TO.C,*%
X142240000Y-111760000D03*
%TD*%
%TO.C,*%
X127000000Y-111760000D03*
%TD*%
%TO.C,*%
X139700000Y-111760000D03*
%TD*%
%TO.C,*%
X83820000Y-111760000D03*
%TD*%
%TO.C,*%
X104140000Y-111760000D03*
%TD*%
%TO.C,*%
X73660000Y-111760000D03*
%TD*%
%TO.C,*%
X58420000Y-111760000D03*
%TD*%
%TO.C,*%
X86360000Y-111760000D03*
%TD*%
%TO.C,*%
X68580000Y-111760000D03*
%TD*%
%TO.C,*%
X124460000Y-111760000D03*
%TD*%
%TO.C,*%
X111760000Y-111760000D03*
%TD*%
%TO.C,*%
X129540000Y-111760000D03*
%TD*%
%TO.C,*%
X109220000Y-111760000D03*
%TD*%
%TO.C,*%
X76200000Y-111760000D03*
%TD*%
%TO.C,*%
X88900000Y-111760000D03*
%TD*%
%TO.C,*%
X114300000Y-111760000D03*
%TD*%
%TO.C,*%
X50800000Y-111760000D03*
%TD*%
%TO.C,*%
X116840000Y-111760000D03*
%TD*%
%TO.C,*%
X134620000Y-111760000D03*
%TD*%
%TO.C,*%
X121920000Y-111760000D03*
%TD*%
%TO.C,*%
X81280000Y-111760000D03*
%TD*%
%TO.C,*%
X99060000Y-111760000D03*
%TD*%
%TO.C,*%
X93980000Y-111760000D03*
%TD*%
%TO.C,*%
X91440000Y-111760000D03*
%TD*%
%TO.C,*%
X60960000Y-111760000D03*
%TD*%
%TO.C,*%
X78740000Y-111760000D03*
%TD*%
%TO.C,*%
X106680000Y-111760000D03*
%TD*%
%TO.C,*%
X53340000Y-111760000D03*
%TD*%
%TO.C,*%
X43180000Y-111760000D03*
%TD*%
%TO.C,*%
X55880000Y-111760000D03*
%TD*%
%TO.C,*%
X48260000Y-111760000D03*
%TD*%
%TO.C,*%
X33020000Y-111760000D03*
%TD*%
%TO.C,*%
X35560000Y-111760000D03*
%TD*%
%TO.C,*%
X25400000Y-111760000D03*
%TD*%
%TO.C,*%
X30480000Y-111760000D03*
%TD*%
%TO.C,*%
X38100000Y-111760000D03*
%TD*%
%TO.C,*%
X149860000Y-109220000D03*
%TD*%
%TO.C,*%
X101600000Y-109220000D03*
%TD*%
%TO.C,*%
X137160000Y-109220000D03*
%TD*%
%TO.C,*%
X71120000Y-111760000D03*
%TD*%
%TO.C,*%
X96520000Y-111760000D03*
%TD*%
%TO.C,*%
X66040000Y-111760000D03*
%TD*%
%TO.C,*%
X27940000Y-111760000D03*
%TD*%
%TO.C,*%
X45720000Y-111760000D03*
%TD*%
%TO.C,*%
X40640000Y-111760000D03*
%TD*%
%TO.C,*%
X144780000Y-109220000D03*
%TD*%
%TO.C,*%
X139700000Y-109220000D03*
%TD*%
%TO.C,*%
X109220000Y-109220000D03*
%TD*%
%TO.C,*%
X129540000Y-109220000D03*
%TD*%
%TO.C,*%
X114300000Y-109220000D03*
%TD*%
%TO.C,*%
X50800000Y-109220000D03*
%TD*%
%TO.C,*%
X116840000Y-109220000D03*
%TD*%
%TO.C,*%
X88900000Y-109220000D03*
%TD*%
%TO.C,*%
X63500000Y-111760000D03*
%TD*%
%TO.C,*%
X119380000Y-109220000D03*
%TD*%
%TO.C,*%
X134620000Y-109220000D03*
%TD*%
%TO.C,*%
X124460000Y-109220000D03*
%TD*%
%TO.C,*%
X83820000Y-109220000D03*
%TD*%
%TO.C,*%
X127000000Y-109220000D03*
%TD*%
%TO.C,*%
X111760000Y-109220000D03*
%TD*%
%TO.C,*%
X132080000Y-109220000D03*
%TD*%
%TO.C,*%
X121920000Y-109220000D03*
%TD*%
%TO.C,*%
X147320000Y-109220000D03*
%TD*%
%TO.C,*%
X142240000Y-109220000D03*
%TD*%
%TO.C,*%
X76200000Y-109220000D03*
%TD*%
%TO.C,*%
X53340000Y-109220000D03*
%TD*%
%TO.C,*%
X48260000Y-109220000D03*
%TD*%
%TO.C,*%
X96520000Y-109220000D03*
%TD*%
%TO.C,*%
X99060000Y-109220000D03*
%TD*%
%TO.C,*%
X73660000Y-109220000D03*
%TD*%
%TO.C,*%
X60960000Y-109220000D03*
%TD*%
%TO.C,*%
X58420000Y-109220000D03*
%TD*%
%TO.C,*%
X106680000Y-109220000D03*
%TD*%
%TO.C,*%
X81280000Y-109220000D03*
%TD*%
%TO.C,*%
X55880000Y-109220000D03*
%TD*%
%TO.C,*%
X91440000Y-109220000D03*
%TD*%
%TO.C,*%
X71120000Y-109220000D03*
%TD*%
%TO.C,*%
X86360000Y-109220000D03*
%TD*%
%TO.C,*%
X43180000Y-109220000D03*
%TD*%
%TO.C,*%
X104140000Y-109220000D03*
%TD*%
%TO.C,*%
X78740000Y-109220000D03*
%TD*%
%TO.C,*%
X93980000Y-109220000D03*
%TD*%
%TO.C,*%
X68580000Y-109220000D03*
%TD*%
%TO.C,*%
X25400000Y-109220000D03*
%TD*%
%TO.C,*%
X40640000Y-109220000D03*
%TD*%
%TO.C,*%
X63500000Y-109220000D03*
%TD*%
%TO.C,*%
X132080000Y-106680000D03*
%TD*%
%TO.C,*%
X45720000Y-109220000D03*
%TD*%
%TO.C,*%
X27940000Y-109220000D03*
%TD*%
%TO.C,*%
X144780000Y-106680000D03*
%TD*%
%TO.C,*%
X137160000Y-106680000D03*
%TD*%
%TO.C,*%
X30480000Y-109220000D03*
%TD*%
%TO.C,*%
X66040000Y-109220000D03*
%TD*%
%TO.C,*%
X134620000Y-106680000D03*
%TD*%
%TO.C,*%
X147320000Y-106680000D03*
%TD*%
%TO.C,*%
X142240000Y-106680000D03*
%TD*%
%TO.C,*%
X119380000Y-106680000D03*
%TD*%
%TO.C,*%
X149860000Y-106680000D03*
%TD*%
%TO.C,*%
X101600000Y-106680000D03*
%TD*%
%TO.C,*%
X35560000Y-109220000D03*
%TD*%
%TO.C,*%
X33020000Y-109220000D03*
%TD*%
%TO.C,*%
X38100000Y-109220000D03*
%TD*%
%TO.C,*%
X50800000Y-106680000D03*
%TD*%
%TO.C,*%
X76200000Y-106680000D03*
%TD*%
%TO.C,*%
X127000000Y-106680000D03*
%TD*%
%TO.C,*%
X139700000Y-106680000D03*
%TD*%
%TO.C,*%
X99060000Y-106680000D03*
%TD*%
%TO.C,*%
X129540000Y-106680000D03*
%TD*%
%TO.C,*%
X83820000Y-106680000D03*
%TD*%
%TO.C,*%
X121920000Y-106680000D03*
%TD*%
%TO.C,*%
X104140000Y-106680000D03*
%TD*%
%TO.C,*%
X111760000Y-106680000D03*
%TD*%
%TO.C,*%
X109220000Y-106680000D03*
%TD*%
%TO.C,*%
X114300000Y-106680000D03*
%TD*%
%TO.C,*%
X116840000Y-106680000D03*
%TD*%
%TO.C,*%
X93980000Y-106680000D03*
%TD*%
%TO.C,*%
X58420000Y-106680000D03*
%TD*%
%TO.C,*%
X88900000Y-106680000D03*
%TD*%
%TO.C,*%
X73660000Y-106680000D03*
%TD*%
%TO.C,*%
X124460000Y-106680000D03*
%TD*%
%TO.C,*%
X91440000Y-106680000D03*
%TD*%
%TO.C,*%
X60960000Y-106680000D03*
%TD*%
%TO.C,*%
X81280000Y-106680000D03*
%TD*%
%TO.C,*%
X96520000Y-106680000D03*
%TD*%
%TO.C,*%
X55880000Y-106680000D03*
%TD*%
%TO.C,*%
X106680000Y-106680000D03*
%TD*%
%TO.C,*%
X78740000Y-106680000D03*
%TD*%
%TO.C,*%
X71120000Y-106680000D03*
%TD*%
%TO.C,*%
X48260000Y-106680000D03*
%TD*%
%TO.C,*%
X27940000Y-106680000D03*
%TD*%
%TO.C,*%
X137160000Y-104140000D03*
%TD*%
%TO.C,*%
X25400000Y-106680000D03*
%TD*%
%TO.C,*%
X86360000Y-106680000D03*
%TD*%
%TO.C,*%
X35560000Y-106680000D03*
%TD*%
%TO.C,*%
X33020000Y-106680000D03*
%TD*%
%TO.C,*%
X63500000Y-106680000D03*
%TD*%
%TO.C,*%
X53340000Y-106680000D03*
%TD*%
%TO.C,*%
X68580000Y-106680000D03*
%TD*%
%TO.C,*%
X66040000Y-106680000D03*
%TD*%
%TO.C,*%
X40640000Y-106680000D03*
%TD*%
%TO.C,*%
X119380000Y-104140000D03*
%TD*%
%TO.C,*%
X43180000Y-106680000D03*
%TD*%
%TO.C,*%
X149860000Y-104140000D03*
%TD*%
%TO.C,*%
X30480000Y-106680000D03*
%TD*%
%TO.C,*%
X45720000Y-106680000D03*
%TD*%
%TO.C,*%
X101600000Y-104140000D03*
%TD*%
%TO.C,*%
X38100000Y-106680000D03*
%TD*%
%TO.C,*%
X132080000Y-104140000D03*
%TD*%
%TO.C,*%
X147320000Y-104140000D03*
%TD*%
%TO.C,*%
X142240000Y-104140000D03*
%TD*%
%TO.C,*%
X127000000Y-104140000D03*
%TD*%
%TO.C,*%
X50800000Y-104140000D03*
%TD*%
%TO.C,*%
X111760000Y-104140000D03*
%TD*%
%TO.C,*%
X139700000Y-104140000D03*
%TD*%
%TO.C,*%
X129540000Y-104140000D03*
%TD*%
%TO.C,*%
X109220000Y-104140000D03*
%TD*%
%TO.C,*%
X83820000Y-104140000D03*
%TD*%
%TO.C,*%
X114300000Y-104140000D03*
%TD*%
%TO.C,*%
X121920000Y-104140000D03*
%TD*%
%TO.C,*%
X91440000Y-104140000D03*
%TD*%
%TO.C,*%
X96520000Y-104140000D03*
%TD*%
%TO.C,*%
X55880000Y-104140000D03*
%TD*%
%TO.C,*%
X116840000Y-104140000D03*
%TD*%
%TO.C,*%
X104140000Y-104140000D03*
%TD*%
%TO.C,*%
X99060000Y-104140000D03*
%TD*%
%TO.C,*%
X124460000Y-104140000D03*
%TD*%
%TO.C,*%
X144780000Y-104140000D03*
%TD*%
%TO.C,*%
X134620000Y-104140000D03*
%TD*%
%TO.C,*%
X93980000Y-104140000D03*
%TD*%
%TO.C,*%
X73660000Y-104140000D03*
%TD*%
%TO.C,*%
X58420000Y-104140000D03*
%TD*%
%TO.C,*%
X68580000Y-104140000D03*
%TD*%
%TO.C,*%
X81280000Y-104140000D03*
%TD*%
%TO.C,*%
X60960000Y-104140000D03*
%TD*%
%TO.C,*%
X76200000Y-104140000D03*
%TD*%
%TO.C,*%
X88900000Y-104140000D03*
%TD*%
%TO.C,*%
X86360000Y-104140000D03*
%TD*%
%TO.C,*%
X78740000Y-104140000D03*
%TD*%
%TO.C,*%
X106680000Y-104140000D03*
%TD*%
%TO.C,*%
X53340000Y-104140000D03*
%TD*%
%TO.C,*%
X40640000Y-104140000D03*
%TD*%
%TO.C,*%
X35560000Y-104140000D03*
%TD*%
%TO.C,*%
X25400000Y-104140000D03*
%TD*%
%TO.C,*%
X27940000Y-104140000D03*
%TD*%
%TO.C,*%
X119380000Y-101600000D03*
%TD*%
%TO.C,*%
X63500000Y-104140000D03*
%TD*%
%TO.C,*%
X66040000Y-104140000D03*
%TD*%
%TO.C,*%
X43180000Y-104140000D03*
%TD*%
%TO.C,*%
X45720000Y-104140000D03*
%TD*%
%TO.C,*%
X33020000Y-104140000D03*
%TD*%
%TO.C,*%
X38100000Y-104140000D03*
%TD*%
%TO.C,*%
X149860000Y-101600000D03*
%TD*%
%TO.C,*%
X30480000Y-104140000D03*
%TD*%
%TO.C,*%
X109220000Y-101600000D03*
%TD*%
%TO.C,*%
X129540000Y-101600000D03*
%TD*%
%TO.C,*%
X83820000Y-101600000D03*
%TD*%
%TO.C,*%
X71120000Y-104140000D03*
%TD*%
%TO.C,*%
X48260000Y-104140000D03*
%TD*%
%TO.C,*%
X132080000Y-101600000D03*
%TD*%
%TO.C,*%
X147320000Y-101600000D03*
%TD*%
%TO.C,*%
X144780000Y-101600000D03*
%TD*%
%TO.C,*%
X142240000Y-101600000D03*
%TD*%
%TO.C,*%
X134620000Y-101600000D03*
%TD*%
%TO.C,*%
X124460000Y-101600000D03*
%TD*%
%TO.C,*%
X50800000Y-101600000D03*
%TD*%
%TO.C,*%
X127000000Y-101600000D03*
%TD*%
%TO.C,*%
X111760000Y-101600000D03*
%TD*%
%TO.C,*%
X139700000Y-101600000D03*
%TD*%
%TO.C,*%
X114300000Y-101600000D03*
%TD*%
%TO.C,*%
X137160000Y-101600000D03*
%TD*%
%TO.C,*%
X101600000Y-101600000D03*
%TD*%
%TO.C,*%
X132080000Y-93980000D03*
%TD*%
%TO.C,*%
X142240000Y-93980000D03*
%TD*%
%TO.C,*%
X134620000Y-93980000D03*
%TD*%
%TO.C,*%
X149860000Y-93980000D03*
%TD*%
%TO.C,*%
X124460000Y-93980000D03*
%TD*%
%TO.C,*%
X119380000Y-93980000D03*
%TD*%
%TO.C,*%
X101600000Y-93980000D03*
%TD*%
%TO.C,*%
X147320000Y-93980000D03*
%TD*%
%TO.C,*%
X137160000Y-93980000D03*
%TD*%
%TO.C,*%
X144780000Y-93980000D03*
%TD*%
%TO.C,*%
X58420000Y-93980000D03*
%TD*%
%TO.C,*%
X93980000Y-93980000D03*
%TD*%
%TO.C,*%
X109220000Y-93980000D03*
%TD*%
%TO.C,*%
X76200000Y-93980000D03*
%TD*%
%TO.C,*%
X129540000Y-93980000D03*
%TD*%
%TO.C,*%
X83820000Y-93980000D03*
%TD*%
%TO.C,*%
X50800000Y-93980000D03*
%TD*%
%TO.C,*%
X88900000Y-93980000D03*
%TD*%
%TO.C,*%
X114300000Y-93980000D03*
%TD*%
%TO.C,*%
X104140000Y-93980000D03*
%TD*%
%TO.C,*%
X116840000Y-93980000D03*
%TD*%
%TO.C,*%
X127000000Y-93980000D03*
%TD*%
%TO.C,*%
X111760000Y-93980000D03*
%TD*%
%TO.C,*%
X99060000Y-93980000D03*
%TD*%
%TO.C,*%
X121920000Y-93980000D03*
%TD*%
%TO.C,*%
X139700000Y-93980000D03*
%TD*%
%TO.C,*%
X73660000Y-93980000D03*
%TD*%
%TO.C,*%
X86360000Y-93980000D03*
%TD*%
%TO.C,*%
X81280000Y-93980000D03*
%TD*%
%TO.C,*%
X96520000Y-93980000D03*
%TD*%
%TO.C,*%
X91440000Y-93980000D03*
%TD*%
%TO.C,*%
X60960000Y-93980000D03*
%TD*%
%TO.C,*%
X106680000Y-93980000D03*
%TD*%
%TO.C,*%
X78740000Y-93980000D03*
%TD*%
%TO.C,*%
X55880000Y-93980000D03*
%TD*%
%TO.C,*%
X43180000Y-93980000D03*
%TD*%
%TO.C,*%
X25400000Y-93980000D03*
%TD*%
%TO.C,*%
X30480000Y-93980000D03*
%TD*%
%TO.C,*%
X45720000Y-93980000D03*
%TD*%
%TO.C,*%
X66040000Y-93980000D03*
%TD*%
%TO.C,*%
X119380000Y-91440000D03*
%TD*%
%TO.C,*%
X149860000Y-91440000D03*
%TD*%
%TO.C,*%
X40640000Y-93980000D03*
%TD*%
%TO.C,*%
X53340000Y-93980000D03*
%TD*%
%TO.C,*%
X68580000Y-93980000D03*
%TD*%
%TO.C,*%
X71120000Y-93980000D03*
%TD*%
%TO.C,*%
X27940000Y-93980000D03*
%TD*%
%TO.C,*%
X101600000Y-91440000D03*
%TD*%
%TO.C,*%
X137160000Y-91440000D03*
%TD*%
%TO.C,*%
X132080000Y-91440000D03*
%TD*%
%TO.C,*%
X35560000Y-93980000D03*
%TD*%
%TO.C,*%
X147320000Y-91440000D03*
%TD*%
%TO.C,*%
X48260000Y-93980000D03*
%TD*%
%TO.C,*%
X33020000Y-93980000D03*
%TD*%
%TO.C,*%
X38100000Y-93980000D03*
%TD*%
%TO.C,*%
X63500000Y-93980000D03*
%TD*%
%TO.C,*%
X116840000Y-91440000D03*
%TD*%
%TO.C,*%
X142240000Y-91440000D03*
%TD*%
%TO.C,*%
X109220000Y-91440000D03*
%TD*%
%TO.C,*%
X88900000Y-91440000D03*
%TD*%
%TO.C,*%
X134620000Y-91440000D03*
%TD*%
%TO.C,*%
X124460000Y-91440000D03*
%TD*%
%TO.C,*%
X111760000Y-91440000D03*
%TD*%
%TO.C,*%
X129540000Y-91440000D03*
%TD*%
%TO.C,*%
X104140000Y-91440000D03*
%TD*%
%TO.C,*%
X99060000Y-91440000D03*
%TD*%
%TO.C,*%
X114300000Y-91440000D03*
%TD*%
%TO.C,*%
X121920000Y-91440000D03*
%TD*%
%TO.C,*%
X127000000Y-91440000D03*
%TD*%
%TO.C,*%
X139700000Y-91440000D03*
%TD*%
%TO.C,*%
X50800000Y-91440000D03*
%TD*%
%TO.C,*%
X93980000Y-91440000D03*
%TD*%
%TO.C,*%
X83820000Y-91440000D03*
%TD*%
%TO.C,*%
X144780000Y-91440000D03*
%TD*%
%TO.C,*%
X33020000Y-73660000D03*
%TD*%
%TO.C,*%
X38100000Y-73660000D03*
%TD*%
%TO.C,*%
X30480000Y-73660000D03*
%TD*%
%TO.C,*%
X45720000Y-73660000D03*
%TD*%
%TO.C,*%
X40640000Y-73660000D03*
%TD*%
%TO.C,*%
X25400000Y-73660000D03*
%TD*%
%TO.C,*%
X27940000Y-73660000D03*
%TD*%
%TO.C,*%
X63500000Y-73660000D03*
%TD*%
%TO.C,*%
X149860000Y-71120000D03*
%TD*%
%TO.C,*%
X60960000Y-73660000D03*
%TD*%
%TO.C,*%
X43180000Y-73660000D03*
%TD*%
%TO.C,*%
X106680000Y-73660000D03*
%TD*%
%TO.C,*%
X78740000Y-73660000D03*
%TD*%
%TO.C,*%
X48260000Y-73660000D03*
%TD*%
%TO.C,*%
X55880000Y-73660000D03*
%TD*%
%TO.C,*%
X71120000Y-73660000D03*
%TD*%
%TO.C,*%
X53340000Y-73660000D03*
%TD*%
%TO.C,*%
X35560000Y-73660000D03*
%TD*%
%TO.C,*%
X66040000Y-73660000D03*
%TD*%
%TO.C,*%
X119380000Y-71120000D03*
%TD*%
%TO.C,*%
X101600000Y-71120000D03*
%TD*%
%TO.C,*%
X137160000Y-71120000D03*
%TD*%
%TO.C,*%
X132080000Y-71120000D03*
%TD*%
%TO.C,*%
X147320000Y-71120000D03*
%TD*%
%TO.C,*%
X144780000Y-71120000D03*
%TD*%
%TO.C,*%
X142240000Y-71120000D03*
%TD*%
%TO.C,*%
X134620000Y-71120000D03*
%TD*%
%TO.C,*%
X124460000Y-71120000D03*
%TD*%
%TO.C,*%
X127000000Y-71120000D03*
%TD*%
%TO.C,*%
X111760000Y-71120000D03*
%TD*%
%TO.C,*%
X139700000Y-71120000D03*
%TD*%
%TO.C,*%
X109220000Y-71120000D03*
%TD*%
%TO.C,*%
X129540000Y-71120000D03*
%TD*%
%TO.C,*%
X114300000Y-71120000D03*
%TD*%
%TO.C,*%
X83820000Y-71120000D03*
%TD*%
%TO.C,*%
X50800000Y-71120000D03*
%TD*%
%TO.C,*%
X88900000Y-71120000D03*
%TD*%
%TO.C,*%
X121920000Y-71120000D03*
%TD*%
%TO.C,*%
X116840000Y-71120000D03*
%TD*%
%TO.C,*%
X104140000Y-71120000D03*
%TD*%
%TO.C,*%
X99060000Y-71120000D03*
%TD*%
%TO.C,*%
X93980000Y-71120000D03*
%TD*%
%TO.C,*%
X73660000Y-71120000D03*
%TD*%
%TO.C,*%
X76200000Y-71120000D03*
%TD*%
%TO.C,*%
X58420000Y-71120000D03*
%TD*%
%TO.C,*%
X68580000Y-71120000D03*
%TD*%
%TO.C,*%
X86360000Y-71120000D03*
%TD*%
%TO.C,*%
X81280000Y-71120000D03*
%TD*%
%TO.C,*%
X96520000Y-71120000D03*
%TD*%
%TO.C,*%
X91440000Y-71120000D03*
%TD*%
%TO.C,*%
X60960000Y-71120000D03*
%TD*%
%TO.C,*%
X106680000Y-71120000D03*
%TD*%
%TO.C,*%
X78740000Y-71120000D03*
%TD*%
%TO.C,*%
X55880000Y-71120000D03*
%TD*%
%TO.C,*%
X71120000Y-71120000D03*
%TD*%
%TO.C,*%
X53340000Y-71120000D03*
%TD*%
%TO.C,*%
X48260000Y-71120000D03*
%TD*%
%TO.C,*%
X43180000Y-71120000D03*
%TD*%
%TO.C,*%
X35560000Y-71120000D03*
%TD*%
%TO.C,*%
X33020000Y-71120000D03*
%TD*%
%TO.C,*%
X25400000Y-71120000D03*
%TD*%
%TO.C,*%
X38100000Y-71120000D03*
%TD*%
%TO.C,*%
X30480000Y-71120000D03*
%TD*%
%TO.C,*%
X63500000Y-71120000D03*
%TD*%
%TO.C,*%
X66040000Y-71120000D03*
%TD*%
%TO.C,*%
X45720000Y-71120000D03*
%TD*%
%TO.C,*%
X40640000Y-71120000D03*
%TD*%
%TO.C,*%
X27940000Y-71120000D03*
%TD*%
%TO.C,*%
X88900000Y-76200000D03*
%TD*%
%TO.C,*%
X121920000Y-76200000D03*
%TD*%
%TO.C,*%
X73660000Y-76200000D03*
%TD*%
%TO.C,*%
X104140000Y-76200000D03*
%TD*%
%TO.C,*%
X99060000Y-76200000D03*
%TD*%
%TO.C,*%
X116840000Y-76200000D03*
%TD*%
%TO.C,*%
X93980000Y-76200000D03*
%TD*%
%TO.C,*%
X43180000Y-76200000D03*
%TD*%
%TO.C,*%
X81280000Y-76200000D03*
%TD*%
%TO.C,*%
X58420000Y-76200000D03*
%TD*%
%TO.C,*%
X86360000Y-76200000D03*
%TD*%
%TO.C,*%
X96520000Y-76200000D03*
%TD*%
%TO.C,*%
X48260000Y-76200000D03*
%TD*%
%TO.C,*%
X60960000Y-76200000D03*
%TD*%
%TO.C,*%
X25400000Y-76200000D03*
%TD*%
%TO.C,*%
X53340000Y-76200000D03*
%TD*%
%TO.C,*%
X71120000Y-76200000D03*
%TD*%
%TO.C,*%
X55880000Y-76200000D03*
%TD*%
%TO.C,*%
X78740000Y-76200000D03*
%TD*%
%TO.C,*%
X106680000Y-76200000D03*
%TD*%
%TO.C,*%
X35560000Y-76200000D03*
%TD*%
%TO.C,*%
X38100000Y-76200000D03*
%TD*%
%TO.C,*%
X68580000Y-76200000D03*
%TD*%
%TO.C,*%
X91440000Y-76200000D03*
%TD*%
%TO.C,*%
X76200000Y-76200000D03*
%TD*%
%TO.C,*%
X33020000Y-76200000D03*
%TD*%
%TO.C,*%
X147320000Y-73660000D03*
%TD*%
%TO.C,*%
X144780000Y-73660000D03*
%TD*%
%TO.C,*%
X137160000Y-73660000D03*
%TD*%
%TO.C,*%
X132080000Y-73660000D03*
%TD*%
%TO.C,*%
X63500000Y-76200000D03*
%TD*%
%TO.C,*%
X66040000Y-76200000D03*
%TD*%
%TO.C,*%
X40640000Y-76200000D03*
%TD*%
%TO.C,*%
X134620000Y-73660000D03*
%TD*%
%TO.C,*%
X127000000Y-73660000D03*
%TD*%
%TO.C,*%
X45720000Y-76200000D03*
%TD*%
%TO.C,*%
X111760000Y-73660000D03*
%TD*%
%TO.C,*%
X149860000Y-73660000D03*
%TD*%
%TO.C,*%
X27940000Y-76200000D03*
%TD*%
%TO.C,*%
X142240000Y-73660000D03*
%TD*%
%TO.C,*%
X124460000Y-73660000D03*
%TD*%
%TO.C,*%
X119380000Y-73660000D03*
%TD*%
%TO.C,*%
X30480000Y-76200000D03*
%TD*%
%TO.C,*%
X101600000Y-73660000D03*
%TD*%
%TO.C,*%
X109220000Y-73660000D03*
%TD*%
%TO.C,*%
X116840000Y-73660000D03*
%TD*%
%TO.C,*%
X91440000Y-73660000D03*
%TD*%
%TO.C,*%
X73660000Y-73660000D03*
%TD*%
%TO.C,*%
X86360000Y-73660000D03*
%TD*%
%TO.C,*%
X58420000Y-73660000D03*
%TD*%
%TO.C,*%
X81280000Y-73660000D03*
%TD*%
%TO.C,*%
X96520000Y-73660000D03*
%TD*%
%TO.C,*%
X104140000Y-73660000D03*
%TD*%
%TO.C,*%
X76200000Y-73660000D03*
%TD*%
%TO.C,*%
X129540000Y-73660000D03*
%TD*%
%TO.C,*%
X121920000Y-73660000D03*
%TD*%
%TO.C,*%
X93980000Y-73660000D03*
%TD*%
%TO.C,*%
X68580000Y-73660000D03*
%TD*%
%TO.C,*%
X114300000Y-73660000D03*
%TD*%
%TO.C,*%
X88900000Y-73660000D03*
%TD*%
%TO.C,*%
X83820000Y-73660000D03*
%TD*%
%TO.C,*%
X139700000Y-73660000D03*
%TD*%
%TO.C,*%
X50800000Y-73660000D03*
%TD*%
%TO.C,*%
X99060000Y-73660000D03*
%TD*%
%TO.C,*%
X81280000Y-91440000D03*
%TD*%
%TO.C,*%
X43180000Y-91440000D03*
%TD*%
%TO.C,*%
X96520000Y-91440000D03*
%TD*%
%TO.C,*%
X106680000Y-91440000D03*
%TD*%
%TO.C,*%
X53340000Y-91440000D03*
%TD*%
%TO.C,*%
X71120000Y-91440000D03*
%TD*%
%TO.C,*%
X86360000Y-91440000D03*
%TD*%
%TO.C,*%
X33020000Y-91440000D03*
%TD*%
%TO.C,*%
X73660000Y-91440000D03*
%TD*%
%TO.C,*%
X76200000Y-91440000D03*
%TD*%
%TO.C,*%
X58420000Y-91440000D03*
%TD*%
%TO.C,*%
X91440000Y-91440000D03*
%TD*%
%TO.C,*%
X68580000Y-91440000D03*
%TD*%
%TO.C,*%
X60960000Y-91440000D03*
%TD*%
%TO.C,*%
X78740000Y-91440000D03*
%TD*%
%TO.C,*%
X48260000Y-91440000D03*
%TD*%
%TO.C,*%
X35560000Y-91440000D03*
%TD*%
%TO.C,*%
X25400000Y-91440000D03*
%TD*%
%TO.C,*%
X55880000Y-91440000D03*
%TD*%
%TO.C,*%
X101600000Y-88900000D03*
%TD*%
%TO.C,*%
X30480000Y-91440000D03*
%TD*%
%TO.C,*%
X119380000Y-88900000D03*
%TD*%
%TO.C,*%
X63500000Y-91440000D03*
%TD*%
%TO.C,*%
X137160000Y-88900000D03*
%TD*%
%TO.C,*%
X66040000Y-91440000D03*
%TD*%
%TO.C,*%
X144780000Y-88900000D03*
%TD*%
%TO.C,*%
X147320000Y-88900000D03*
%TD*%
%TO.C,*%
X142240000Y-88900000D03*
%TD*%
%TO.C,*%
X134620000Y-88900000D03*
%TD*%
%TO.C,*%
X38100000Y-91440000D03*
%TD*%
%TO.C,*%
X45720000Y-91440000D03*
%TD*%
%TO.C,*%
X149860000Y-88900000D03*
%TD*%
%TO.C,*%
X124460000Y-88900000D03*
%TD*%
%TO.C,*%
X27940000Y-91440000D03*
%TD*%
%TO.C,*%
X40640000Y-91440000D03*
%TD*%
%TO.C,*%
X132080000Y-88900000D03*
%TD*%
%TO.C,*%
X111760000Y-88900000D03*
%TD*%
%TO.C,*%
X139700000Y-88900000D03*
%TD*%
%TO.C,*%
X109220000Y-88900000D03*
%TD*%
%TO.C,*%
X99060000Y-88900000D03*
%TD*%
%TO.C,*%
X129540000Y-88900000D03*
%TD*%
%TO.C,*%
X83820000Y-88900000D03*
%TD*%
%TO.C,*%
X50800000Y-88900000D03*
%TD*%
%TO.C,*%
X58420000Y-88900000D03*
%TD*%
%TO.C,*%
X91440000Y-88900000D03*
%TD*%
%TO.C,*%
X86360000Y-88900000D03*
%TD*%
%TO.C,*%
X78740000Y-88900000D03*
%TD*%
%TO.C,*%
X81280000Y-88900000D03*
%TD*%
%TO.C,*%
X106680000Y-88900000D03*
%TD*%
%TO.C,*%
X116840000Y-88900000D03*
%TD*%
%TO.C,*%
X104140000Y-88900000D03*
%TD*%
%TO.C,*%
X88900000Y-88900000D03*
%TD*%
%TO.C,*%
X121920000Y-88900000D03*
%TD*%
%TO.C,*%
X127000000Y-88900000D03*
%TD*%
%TO.C,*%
X114300000Y-88900000D03*
%TD*%
%TO.C,*%
X73660000Y-88900000D03*
%TD*%
%TO.C,*%
X68580000Y-88900000D03*
%TD*%
%TO.C,*%
X60960000Y-88900000D03*
%TD*%
%TO.C,*%
X55880000Y-88900000D03*
%TD*%
%TO.C,*%
X93980000Y-88900000D03*
%TD*%
%TO.C,*%
X76200000Y-88900000D03*
%TD*%
%TO.C,*%
X96520000Y-88900000D03*
%TD*%
%TO.C,*%
X48260000Y-88900000D03*
%TD*%
%TO.C,*%
X66040000Y-88900000D03*
%TD*%
%TO.C,*%
X147320000Y-86360000D03*
%TD*%
%TO.C,*%
X25400000Y-88900000D03*
%TD*%
%TO.C,*%
X30480000Y-88900000D03*
%TD*%
%TO.C,*%
X63500000Y-88900000D03*
%TD*%
%TO.C,*%
X137160000Y-86360000D03*
%TD*%
%TO.C,*%
X38100000Y-88900000D03*
%TD*%
%TO.C,*%
X119380000Y-86360000D03*
%TD*%
%TO.C,*%
X45720000Y-88900000D03*
%TD*%
%TO.C,*%
X35560000Y-88900000D03*
%TD*%
%TO.C,*%
X40640000Y-88900000D03*
%TD*%
%TO.C,*%
X149860000Y-86360000D03*
%TD*%
%TO.C,*%
X53340000Y-88900000D03*
%TD*%
%TO.C,*%
X43180000Y-88900000D03*
%TD*%
%TO.C,*%
X101600000Y-86360000D03*
%TD*%
%TO.C,*%
X27940000Y-88900000D03*
%TD*%
%TO.C,*%
X71120000Y-88900000D03*
%TD*%
%TO.C,*%
X33020000Y-88900000D03*
%TD*%
%TO.C,*%
X132080000Y-86360000D03*
%TD*%
%TO.C,*%
X144780000Y-86360000D03*
%TD*%
%TO.C,*%
X142240000Y-86360000D03*
%TD*%
%TO.C,*%
X127000000Y-86360000D03*
%TD*%
%TO.C,*%
X139700000Y-86360000D03*
%TD*%
%TO.C,*%
X83820000Y-86360000D03*
%TD*%
%TO.C,*%
X104140000Y-86360000D03*
%TD*%
%TO.C,*%
X73660000Y-86360000D03*
%TD*%
%TO.C,*%
X58420000Y-86360000D03*
%TD*%
%TO.C,*%
X86360000Y-86360000D03*
%TD*%
%TO.C,*%
X68580000Y-86360000D03*
%TD*%
%TO.C,*%
X124460000Y-86360000D03*
%TD*%
%TO.C,*%
X111760000Y-86360000D03*
%TD*%
%TO.C,*%
X129540000Y-86360000D03*
%TD*%
%TO.C,*%
X109220000Y-86360000D03*
%TD*%
%TO.C,*%
X76200000Y-86360000D03*
%TD*%
%TO.C,*%
X88900000Y-86360000D03*
%TD*%
%TO.C,*%
X114300000Y-86360000D03*
%TD*%
%TO.C,*%
X50800000Y-86360000D03*
%TD*%
%TO.C,*%
X116840000Y-86360000D03*
%TD*%
%TO.C,*%
X134620000Y-86360000D03*
%TD*%
%TO.C,*%
X121920000Y-86360000D03*
%TD*%
%TO.C,*%
X81280000Y-86360000D03*
%TD*%
%TO.C,*%
X99060000Y-86360000D03*
%TD*%
%TO.C,*%
X93980000Y-86360000D03*
%TD*%
%TO.C,*%
X91440000Y-86360000D03*
%TD*%
%TO.C,*%
X60960000Y-86360000D03*
%TD*%
%TO.C,*%
X78740000Y-86360000D03*
%TD*%
%TO.C,*%
X106680000Y-86360000D03*
%TD*%
%TO.C,*%
X53340000Y-86360000D03*
%TD*%
%TO.C,*%
X43180000Y-86360000D03*
%TD*%
%TO.C,*%
X55880000Y-86360000D03*
%TD*%
%TO.C,*%
X48260000Y-86360000D03*
%TD*%
%TO.C,*%
X33020000Y-86360000D03*
%TD*%
%TO.C,*%
X35560000Y-86360000D03*
%TD*%
%TO.C,*%
X25400000Y-86360000D03*
%TD*%
%TO.C,*%
X30480000Y-86360000D03*
%TD*%
%TO.C,*%
X38100000Y-86360000D03*
%TD*%
%TO.C,*%
X149860000Y-83820000D03*
%TD*%
%TO.C,*%
X101600000Y-83820000D03*
%TD*%
%TO.C,*%
X137160000Y-83820000D03*
%TD*%
%TO.C,*%
X71120000Y-86360000D03*
%TD*%
%TO.C,*%
X96520000Y-86360000D03*
%TD*%
%TO.C,*%
X66040000Y-86360000D03*
%TD*%
%TO.C,*%
X27940000Y-86360000D03*
%TD*%
%TO.C,*%
X45720000Y-86360000D03*
%TD*%
%TO.C,*%
X40640000Y-86360000D03*
%TD*%
%TO.C,*%
X144780000Y-83820000D03*
%TD*%
%TO.C,*%
X139700000Y-83820000D03*
%TD*%
%TO.C,*%
X109220000Y-83820000D03*
%TD*%
%TO.C,*%
X129540000Y-83820000D03*
%TD*%
%TO.C,*%
X114300000Y-83820000D03*
%TD*%
%TO.C,*%
X50800000Y-83820000D03*
%TD*%
%TO.C,*%
X116840000Y-83820000D03*
%TD*%
%TO.C,*%
X88900000Y-83820000D03*
%TD*%
%TO.C,*%
X63500000Y-86360000D03*
%TD*%
%TO.C,*%
X119380000Y-83820000D03*
%TD*%
%TO.C,*%
X134620000Y-83820000D03*
%TD*%
%TO.C,*%
X124460000Y-83820000D03*
%TD*%
%TO.C,*%
X83820000Y-83820000D03*
%TD*%
%TO.C,*%
X127000000Y-83820000D03*
%TD*%
%TO.C,*%
X111760000Y-83820000D03*
%TD*%
%TO.C,*%
X132080000Y-83820000D03*
%TD*%
%TO.C,*%
X121920000Y-83820000D03*
%TD*%
%TO.C,*%
X147320000Y-83820000D03*
%TD*%
%TO.C,*%
X142240000Y-83820000D03*
%TD*%
%TO.C,*%
X76200000Y-83820000D03*
%TD*%
%TO.C,*%
X53340000Y-83820000D03*
%TD*%
%TO.C,*%
X48260000Y-83820000D03*
%TD*%
%TO.C,*%
X96520000Y-83820000D03*
%TD*%
%TO.C,*%
X99060000Y-83820000D03*
%TD*%
%TO.C,*%
X73660000Y-83820000D03*
%TD*%
%TO.C,*%
X60960000Y-83820000D03*
%TD*%
%TO.C,*%
X58420000Y-83820000D03*
%TD*%
%TO.C,*%
X106680000Y-83820000D03*
%TD*%
%TO.C,*%
X81280000Y-83820000D03*
%TD*%
%TO.C,*%
X55880000Y-83820000D03*
%TD*%
%TO.C,*%
X91440000Y-83820000D03*
%TD*%
%TO.C,*%
X71120000Y-83820000D03*
%TD*%
%TO.C,*%
X86360000Y-83820000D03*
%TD*%
%TO.C,*%
X43180000Y-83820000D03*
%TD*%
%TO.C,*%
X104140000Y-83820000D03*
%TD*%
%TO.C,*%
X78740000Y-83820000D03*
%TD*%
%TO.C,*%
X93980000Y-83820000D03*
%TD*%
%TO.C,*%
X68580000Y-83820000D03*
%TD*%
%TO.C,*%
X25400000Y-83820000D03*
%TD*%
%TO.C,*%
X40640000Y-83820000D03*
%TD*%
%TO.C,*%
X63500000Y-83820000D03*
%TD*%
%TO.C,*%
X132080000Y-81280000D03*
%TD*%
%TO.C,*%
X45720000Y-83820000D03*
%TD*%
%TO.C,*%
X27940000Y-83820000D03*
%TD*%
%TO.C,*%
X144780000Y-81280000D03*
%TD*%
%TO.C,*%
X137160000Y-81280000D03*
%TD*%
%TO.C,*%
X30480000Y-83820000D03*
%TD*%
%TO.C,*%
X66040000Y-83820000D03*
%TD*%
%TO.C,*%
X134620000Y-81280000D03*
%TD*%
%TO.C,*%
X147320000Y-81280000D03*
%TD*%
%TO.C,*%
X142240000Y-81280000D03*
%TD*%
%TO.C,*%
X119380000Y-81280000D03*
%TD*%
%TO.C,*%
X149860000Y-81280000D03*
%TD*%
%TO.C,*%
X101600000Y-81280000D03*
%TD*%
%TO.C,*%
X35560000Y-83820000D03*
%TD*%
%TO.C,*%
X33020000Y-83820000D03*
%TD*%
%TO.C,*%
X38100000Y-83820000D03*
%TD*%
%TO.C,*%
X50800000Y-81280000D03*
%TD*%
%TO.C,*%
X76200000Y-81280000D03*
%TD*%
%TO.C,*%
X127000000Y-81280000D03*
%TD*%
%TO.C,*%
X139700000Y-81280000D03*
%TD*%
%TO.C,*%
X99060000Y-81280000D03*
%TD*%
%TO.C,*%
X129540000Y-81280000D03*
%TD*%
%TO.C,*%
X83820000Y-81280000D03*
%TD*%
%TO.C,*%
X121920000Y-81280000D03*
%TD*%
%TO.C,*%
X104140000Y-81280000D03*
%TD*%
%TO.C,*%
X111760000Y-81280000D03*
%TD*%
%TO.C,*%
X109220000Y-81280000D03*
%TD*%
%TO.C,*%
X114300000Y-81280000D03*
%TD*%
%TO.C,*%
X116840000Y-81280000D03*
%TD*%
%TO.C,*%
X93980000Y-81280000D03*
%TD*%
%TO.C,*%
X58420000Y-81280000D03*
%TD*%
%TO.C,*%
X88900000Y-81280000D03*
%TD*%
%TO.C,*%
X73660000Y-81280000D03*
%TD*%
%TO.C,*%
X124460000Y-81280000D03*
%TD*%
%TO.C,*%
X91440000Y-81280000D03*
%TD*%
%TO.C,*%
X60960000Y-81280000D03*
%TD*%
%TO.C,*%
X81280000Y-81280000D03*
%TD*%
%TO.C,*%
X96520000Y-81280000D03*
%TD*%
%TO.C,*%
X55880000Y-81280000D03*
%TD*%
%TO.C,*%
X106680000Y-81280000D03*
%TD*%
%TO.C,*%
X78740000Y-81280000D03*
%TD*%
%TO.C,*%
X71120000Y-81280000D03*
%TD*%
%TO.C,*%
X48260000Y-81280000D03*
%TD*%
%TO.C,*%
X27940000Y-81280000D03*
%TD*%
%TO.C,*%
X137160000Y-78740000D03*
%TD*%
%TO.C,*%
X25400000Y-81280000D03*
%TD*%
%TO.C,*%
X86360000Y-81280000D03*
%TD*%
%TO.C,*%
X35560000Y-81280000D03*
%TD*%
%TO.C,*%
X33020000Y-81280000D03*
%TD*%
%TO.C,*%
X63500000Y-81280000D03*
%TD*%
%TO.C,*%
X53340000Y-81280000D03*
%TD*%
%TO.C,*%
X68580000Y-81280000D03*
%TD*%
%TO.C,*%
X66040000Y-81280000D03*
%TD*%
%TO.C,*%
X40640000Y-81280000D03*
%TD*%
%TO.C,*%
X119380000Y-78740000D03*
%TD*%
%TO.C,*%
X43180000Y-81280000D03*
%TD*%
%TO.C,*%
X149860000Y-78740000D03*
%TD*%
%TO.C,*%
X30480000Y-81280000D03*
%TD*%
%TO.C,*%
X45720000Y-81280000D03*
%TD*%
%TO.C,*%
X101600000Y-78740000D03*
%TD*%
%TO.C,*%
X38100000Y-81280000D03*
%TD*%
%TO.C,*%
X132080000Y-78740000D03*
%TD*%
%TO.C,*%
X147320000Y-78740000D03*
%TD*%
%TO.C,*%
X142240000Y-78740000D03*
%TD*%
%TO.C,*%
X127000000Y-78740000D03*
%TD*%
%TO.C,*%
X50800000Y-78740000D03*
%TD*%
%TO.C,*%
X111760000Y-78740000D03*
%TD*%
%TO.C,*%
X139700000Y-78740000D03*
%TD*%
%TO.C,*%
X129540000Y-78740000D03*
%TD*%
%TO.C,*%
X109220000Y-78740000D03*
%TD*%
%TO.C,*%
X83820000Y-78740000D03*
%TD*%
%TO.C,*%
X114300000Y-78740000D03*
%TD*%
%TO.C,*%
X121920000Y-78740000D03*
%TD*%
%TO.C,*%
X91440000Y-78740000D03*
%TD*%
%TO.C,*%
X96520000Y-78740000D03*
%TD*%
%TO.C,*%
X55880000Y-78740000D03*
%TD*%
%TO.C,*%
X116840000Y-78740000D03*
%TD*%
%TO.C,*%
X104140000Y-78740000D03*
%TD*%
%TO.C,*%
X99060000Y-78740000D03*
%TD*%
%TO.C,*%
X124460000Y-78740000D03*
%TD*%
%TO.C,*%
X144780000Y-78740000D03*
%TD*%
%TO.C,*%
X134620000Y-78740000D03*
%TD*%
%TO.C,*%
X93980000Y-78740000D03*
%TD*%
%TO.C,*%
X73660000Y-78740000D03*
%TD*%
%TO.C,*%
X58420000Y-78740000D03*
%TD*%
%TO.C,*%
X68580000Y-78740000D03*
%TD*%
%TO.C,*%
X81280000Y-78740000D03*
%TD*%
%TO.C,*%
X60960000Y-78740000D03*
%TD*%
%TO.C,*%
X76200000Y-78740000D03*
%TD*%
%TO.C,*%
X88900000Y-78740000D03*
%TD*%
%TO.C,*%
X86360000Y-78740000D03*
%TD*%
%TO.C,*%
X78740000Y-78740000D03*
%TD*%
%TO.C,*%
X106680000Y-78740000D03*
%TD*%
%TO.C,*%
X53340000Y-78740000D03*
%TD*%
%TO.C,*%
X40640000Y-78740000D03*
%TD*%
%TO.C,*%
X35560000Y-78740000D03*
%TD*%
%TO.C,*%
X25400000Y-78740000D03*
%TD*%
%TO.C,*%
X27940000Y-78740000D03*
%TD*%
%TO.C,*%
X119380000Y-76200000D03*
%TD*%
%TO.C,*%
X63500000Y-78740000D03*
%TD*%
%TO.C,*%
X66040000Y-78740000D03*
%TD*%
%TO.C,*%
X43180000Y-78740000D03*
%TD*%
%TO.C,*%
X45720000Y-78740000D03*
%TD*%
%TO.C,*%
X33020000Y-78740000D03*
%TD*%
%TO.C,*%
X38100000Y-78740000D03*
%TD*%
%TO.C,*%
X149860000Y-76200000D03*
%TD*%
%TO.C,*%
X30480000Y-78740000D03*
%TD*%
%TO.C,*%
X109220000Y-76200000D03*
%TD*%
%TO.C,*%
X129540000Y-76200000D03*
%TD*%
%TO.C,*%
X83820000Y-76200000D03*
%TD*%
%TO.C,*%
X71120000Y-78740000D03*
%TD*%
%TO.C,*%
X48260000Y-78740000D03*
%TD*%
%TO.C,*%
X132080000Y-76200000D03*
%TD*%
%TO.C,*%
X147320000Y-76200000D03*
%TD*%
%TO.C,*%
X144780000Y-76200000D03*
%TD*%
%TO.C,*%
X142240000Y-76200000D03*
%TD*%
%TO.C,*%
X134620000Y-76200000D03*
%TD*%
%TO.C,*%
X124460000Y-76200000D03*
%TD*%
%TO.C,*%
X50800000Y-76200000D03*
%TD*%
%TO.C,*%
X127000000Y-76200000D03*
%TD*%
%TO.C,*%
X111760000Y-76200000D03*
%TD*%
%TO.C,*%
X139700000Y-76200000D03*
%TD*%
%TO.C,*%
X114300000Y-76200000D03*
%TD*%
%TO.C,*%
X137160000Y-76200000D03*
%TD*%
%TO.C,*%
X101600000Y-76200000D03*
%TD*%
%TO.C,*%
X149860000Y-68580000D03*
%TD*%
%TO.C,*%
X119380000Y-68580000D03*
%TD*%
%TO.C,*%
X101600000Y-68580000D03*
%TD*%
%TO.C,*%
X137160000Y-68580000D03*
%TD*%
%TO.C,*%
X132080000Y-68580000D03*
%TD*%
%TO.C,*%
X147320000Y-68580000D03*
%TD*%
%TO.C,*%
X144780000Y-68580000D03*
%TD*%
%TO.C,*%
X142240000Y-68580000D03*
%TD*%
%TO.C,*%
X134620000Y-68580000D03*
%TD*%
%TO.C,*%
X124460000Y-68580000D03*
%TD*%
%TO.C,*%
X127000000Y-68580000D03*
%TD*%
%TO.C,*%
X111760000Y-68580000D03*
%TD*%
%TO.C,*%
X139700000Y-68580000D03*
%TD*%
%TO.C,*%
X109220000Y-68580000D03*
%TD*%
%TO.C,*%
X129540000Y-68580000D03*
%TD*%
%TO.C,*%
X114300000Y-68580000D03*
%TD*%
%TO.C,*%
X83820000Y-68580000D03*
%TD*%
%TO.C,*%
X50800000Y-68580000D03*
%TD*%
%TO.C,*%
X88900000Y-68580000D03*
%TD*%
%TO.C,*%
X121920000Y-68580000D03*
%TD*%
%TO.C,*%
X116840000Y-68580000D03*
%TD*%
%TO.C,*%
X104140000Y-68580000D03*
%TD*%
%TO.C,*%
X99060000Y-68580000D03*
%TD*%
%TO.C,*%
X93980000Y-68580000D03*
%TD*%
%TO.C,*%
X73660000Y-68580000D03*
%TD*%
%TO.C,*%
X76200000Y-68580000D03*
%TD*%
%TO.C,*%
X58420000Y-68580000D03*
%TD*%
%TO.C,*%
X68580000Y-68580000D03*
%TD*%
%TO.C,*%
X86360000Y-68580000D03*
%TD*%
%TO.C,*%
X81280000Y-68580000D03*
%TD*%
%TO.C,*%
X96520000Y-68580000D03*
%TD*%
%TO.C,*%
X91440000Y-68580000D03*
%TD*%
%TO.C,*%
X60960000Y-68580000D03*
%TD*%
%TO.C,*%
X106680000Y-68580000D03*
%TD*%
%TO.C,*%
X78740000Y-68580000D03*
%TD*%
%TO.C,*%
X55880000Y-68580000D03*
%TD*%
%TO.C,*%
X71120000Y-68580000D03*
%TD*%
%TO.C,*%
X53340000Y-68580000D03*
%TD*%
%TO.C,*%
X48260000Y-68580000D03*
%TD*%
%TO.C,*%
X43180000Y-68580000D03*
%TD*%
%TO.C,*%
X35560000Y-68580000D03*
%TD*%
%TO.C,*%
X33020000Y-68580000D03*
%TD*%
%TO.C,*%
X25400000Y-68580000D03*
%TD*%
%TO.C,*%
X38100000Y-68580000D03*
%TD*%
%TO.C,*%
X30480000Y-68580000D03*
%TD*%
%TO.C,*%
X63500000Y-68580000D03*
%TD*%
%TO.C,*%
X66040000Y-68580000D03*
%TD*%
%TO.C,*%
X45720000Y-68580000D03*
%TD*%
%TO.C,*%
X40640000Y-68580000D03*
%TD*%
%TO.C,*%
X27940000Y-68580000D03*
%TD*%
%TO.C,*%
X149860000Y-66040000D03*
%TD*%
%TO.C,*%
X119380000Y-66040000D03*
%TD*%
%TO.C,*%
X101600000Y-66040000D03*
%TD*%
%TO.C,*%
X137160000Y-66040000D03*
%TD*%
%TO.C,*%
X132080000Y-66040000D03*
%TD*%
%TO.C,*%
X147320000Y-66040000D03*
%TD*%
%TO.C,*%
X144780000Y-66040000D03*
%TD*%
%TO.C,*%
X142240000Y-66040000D03*
%TD*%
%TO.C,*%
X134620000Y-66040000D03*
%TD*%
%TO.C,*%
X124460000Y-66040000D03*
%TD*%
%TO.C,*%
X127000000Y-66040000D03*
%TD*%
%TO.C,*%
X111760000Y-66040000D03*
%TD*%
%TO.C,*%
X139700000Y-66040000D03*
%TD*%
%TO.C,*%
X109220000Y-66040000D03*
%TD*%
%TO.C,*%
X129540000Y-66040000D03*
%TD*%
%TO.C,*%
X114300000Y-66040000D03*
%TD*%
%TO.C,*%
X83820000Y-66040000D03*
%TD*%
%TO.C,*%
X50800000Y-66040000D03*
%TD*%
%TO.C,*%
X88900000Y-66040000D03*
%TD*%
%TO.C,*%
X121920000Y-66040000D03*
%TD*%
%TO.C,*%
X116840000Y-66040000D03*
%TD*%
%TO.C,*%
X104140000Y-66040000D03*
%TD*%
%TO.C,*%
X99060000Y-66040000D03*
%TD*%
%TO.C,*%
X93980000Y-66040000D03*
%TD*%
%TO.C,*%
X73660000Y-66040000D03*
%TD*%
%TO.C,*%
X76200000Y-66040000D03*
%TD*%
%TO.C,*%
X58420000Y-66040000D03*
%TD*%
%TO.C,*%
X68580000Y-66040000D03*
%TD*%
%TO.C,*%
X86360000Y-66040000D03*
%TD*%
%TO.C,*%
X81280000Y-66040000D03*
%TD*%
%TO.C,*%
X96520000Y-66040000D03*
%TD*%
%TO.C,*%
X91440000Y-66040000D03*
%TD*%
%TO.C,*%
X60960000Y-66040000D03*
%TD*%
%TO.C,*%
X106680000Y-66040000D03*
%TD*%
%TO.C,*%
X78740000Y-66040000D03*
%TD*%
%TO.C,*%
X55880000Y-66040000D03*
%TD*%
%TO.C,*%
X71120000Y-66040000D03*
%TD*%
%TO.C,*%
X53340000Y-66040000D03*
%TD*%
%TO.C,*%
X48260000Y-66040000D03*
%TD*%
%TO.C,*%
X43180000Y-66040000D03*
%TD*%
%TO.C,*%
X35560000Y-66040000D03*
%TD*%
%TO.C,*%
X33020000Y-66040000D03*
%TD*%
%TO.C,*%
X25400000Y-66040000D03*
%TD*%
%TO.C,*%
X38100000Y-66040000D03*
%TD*%
%TO.C,*%
X30480000Y-66040000D03*
%TD*%
%TO.C,*%
X63500000Y-66040000D03*
%TD*%
%TO.C,*%
X66040000Y-66040000D03*
%TD*%
%TO.C,*%
X45720000Y-66040000D03*
%TD*%
%TO.C,*%
X40640000Y-66040000D03*
%TD*%
%TO.C,*%
X27940000Y-66040000D03*
%TD*%
%TO.C,*%
X149860000Y-63500000D03*
%TD*%
%TO.C,*%
X119380000Y-63500000D03*
%TD*%
%TO.C,*%
X101600000Y-63500000D03*
%TD*%
%TO.C,*%
X137160000Y-63500000D03*
%TD*%
%TO.C,*%
X132080000Y-63500000D03*
%TD*%
%TO.C,*%
X147320000Y-63500000D03*
%TD*%
%TO.C,*%
X144780000Y-63500000D03*
%TD*%
%TO.C,*%
X142240000Y-63500000D03*
%TD*%
%TO.C,*%
X134620000Y-63500000D03*
%TD*%
%TO.C,*%
X124460000Y-63500000D03*
%TD*%
%TO.C,*%
X127000000Y-63500000D03*
%TD*%
%TO.C,*%
X111760000Y-63500000D03*
%TD*%
%TO.C,*%
X139700000Y-63500000D03*
%TD*%
%TO.C,*%
X109220000Y-63500000D03*
%TD*%
%TO.C,*%
X129540000Y-63500000D03*
%TD*%
%TO.C,*%
X114300000Y-63500000D03*
%TD*%
%TO.C,*%
X83820000Y-63500000D03*
%TD*%
%TO.C,*%
X50800000Y-63500000D03*
%TD*%
%TO.C,*%
X88900000Y-63500000D03*
%TD*%
%TO.C,*%
X121920000Y-63500000D03*
%TD*%
%TO.C,*%
X116840000Y-63500000D03*
%TD*%
%TO.C,*%
X104140000Y-63500000D03*
%TD*%
%TO.C,*%
X99060000Y-63500000D03*
%TD*%
%TO.C,*%
X93980000Y-63500000D03*
%TD*%
%TO.C,*%
X73660000Y-63500000D03*
%TD*%
%TO.C,*%
X76200000Y-63500000D03*
%TD*%
%TO.C,*%
X58420000Y-63500000D03*
%TD*%
%TO.C,*%
X68580000Y-63500000D03*
%TD*%
%TO.C,*%
X86360000Y-63500000D03*
%TD*%
%TO.C,*%
X81280000Y-63500000D03*
%TD*%
%TO.C,*%
X96520000Y-63500000D03*
%TD*%
%TO.C,*%
X91440000Y-63500000D03*
%TD*%
%TO.C,*%
X60960000Y-63500000D03*
%TD*%
%TO.C,*%
X106680000Y-63500000D03*
%TD*%
%TO.C,*%
X78740000Y-63500000D03*
%TD*%
%TO.C,*%
X55880000Y-63500000D03*
%TD*%
%TO.C,*%
X71120000Y-63500000D03*
%TD*%
%TO.C,*%
X53340000Y-63500000D03*
%TD*%
%TO.C,*%
X48260000Y-63500000D03*
%TD*%
%TO.C,*%
X43180000Y-63500000D03*
%TD*%
%TO.C,*%
X35560000Y-63500000D03*
%TD*%
%TO.C,*%
X33020000Y-63500000D03*
%TD*%
%TO.C,*%
X25400000Y-63500000D03*
%TD*%
%TO.C,*%
X38100000Y-63500000D03*
%TD*%
%TO.C,*%
X30480000Y-63500000D03*
%TD*%
%TO.C,*%
X63500000Y-63500000D03*
%TD*%
%TO.C,*%
X66040000Y-63500000D03*
%TD*%
%TO.C,*%
X45720000Y-63500000D03*
%TD*%
%TO.C,*%
X40640000Y-63500000D03*
%TD*%
%TO.C,*%
X27940000Y-63500000D03*
%TD*%
%TO.C,*%
X149860000Y-60960000D03*
%TD*%
%TO.C,*%
X119380000Y-60960000D03*
%TD*%
%TO.C,*%
X101600000Y-60960000D03*
%TD*%
%TO.C,*%
X137160000Y-60960000D03*
%TD*%
%TO.C,*%
X132080000Y-60960000D03*
%TD*%
%TO.C,*%
X147320000Y-60960000D03*
%TD*%
%TO.C,*%
X144780000Y-60960000D03*
%TD*%
%TO.C,*%
X142240000Y-60960000D03*
%TD*%
%TO.C,*%
X134620000Y-60960000D03*
%TD*%
%TO.C,*%
X124460000Y-60960000D03*
%TD*%
%TO.C,*%
X127000000Y-60960000D03*
%TD*%
%TO.C,*%
X111760000Y-60960000D03*
%TD*%
%TO.C,*%
X139700000Y-60960000D03*
%TD*%
%TO.C,*%
X109220000Y-60960000D03*
%TD*%
%TO.C,*%
X129540000Y-60960000D03*
%TD*%
%TO.C,*%
X114300000Y-60960000D03*
%TD*%
%TO.C,*%
X83820000Y-60960000D03*
%TD*%
%TO.C,*%
X50800000Y-60960000D03*
%TD*%
%TO.C,*%
X88900000Y-60960000D03*
%TD*%
%TO.C,*%
X121920000Y-60960000D03*
%TD*%
%TO.C,*%
X116840000Y-60960000D03*
%TD*%
%TO.C,*%
X104140000Y-60960000D03*
%TD*%
%TO.C,*%
X99060000Y-60960000D03*
%TD*%
%TO.C,*%
X93980000Y-60960000D03*
%TD*%
%TO.C,*%
X73660000Y-60960000D03*
%TD*%
%TO.C,*%
X76200000Y-60960000D03*
%TD*%
%TO.C,*%
X58420000Y-60960000D03*
%TD*%
%TO.C,*%
X68580000Y-60960000D03*
%TD*%
%TO.C,*%
X86360000Y-60960000D03*
%TD*%
%TO.C,*%
X81280000Y-60960000D03*
%TD*%
%TO.C,*%
X96520000Y-60960000D03*
%TD*%
%TO.C,*%
X91440000Y-60960000D03*
%TD*%
%TO.C,*%
X60960000Y-60960000D03*
%TD*%
%TO.C,*%
X106680000Y-60960000D03*
%TD*%
%TO.C,*%
X78740000Y-60960000D03*
%TD*%
%TO.C,*%
X55880000Y-60960000D03*
%TD*%
%TO.C,*%
X71120000Y-60960000D03*
%TD*%
%TO.C,*%
X53340000Y-60960000D03*
%TD*%
%TO.C,*%
X48260000Y-60960000D03*
%TD*%
%TO.C,*%
X43180000Y-60960000D03*
%TD*%
%TO.C,*%
X35560000Y-60960000D03*
%TD*%
%TO.C,*%
X33020000Y-60960000D03*
%TD*%
%TO.C,*%
X25400000Y-60960000D03*
%TD*%
%TO.C,*%
X38100000Y-60960000D03*
%TD*%
%TO.C,*%
X30480000Y-60960000D03*
%TD*%
%TO.C,*%
X63500000Y-60960000D03*
%TD*%
%TO.C,*%
X66040000Y-60960000D03*
%TD*%
%TO.C,*%
X45720000Y-60960000D03*
%TD*%
%TO.C,*%
X40640000Y-60960000D03*
%TD*%
%TO.C,*%
X27940000Y-60960000D03*
%TD*%
%TO.C,*%
X149860000Y-58420000D03*
%TD*%
%TO.C,*%
X119380000Y-58420000D03*
%TD*%
%TO.C,*%
X101600000Y-58420000D03*
%TD*%
%TO.C,*%
X137160000Y-58420000D03*
%TD*%
%TO.C,*%
X132080000Y-58420000D03*
%TD*%
%TO.C,*%
X147320000Y-58420000D03*
%TD*%
%TO.C,*%
X144780000Y-58420000D03*
%TD*%
%TO.C,*%
X142240000Y-58420000D03*
%TD*%
%TO.C,*%
X134620000Y-58420000D03*
%TD*%
%TO.C,*%
X124460000Y-58420000D03*
%TD*%
%TO.C,*%
X127000000Y-58420000D03*
%TD*%
%TO.C,*%
X111760000Y-58420000D03*
%TD*%
%TO.C,*%
X139700000Y-58420000D03*
%TD*%
%TO.C,*%
X109220000Y-58420000D03*
%TD*%
%TO.C,*%
X129540000Y-58420000D03*
%TD*%
%TO.C,*%
X114300000Y-58420000D03*
%TD*%
%TO.C,*%
X83820000Y-58420000D03*
%TD*%
%TO.C,*%
X50800000Y-58420000D03*
%TD*%
%TO.C,*%
X88900000Y-58420000D03*
%TD*%
%TO.C,*%
X121920000Y-58420000D03*
%TD*%
%TO.C,*%
X116840000Y-58420000D03*
%TD*%
%TO.C,*%
X104140000Y-58420000D03*
%TD*%
%TO.C,*%
X99060000Y-58420000D03*
%TD*%
%TO.C,*%
X93980000Y-58420000D03*
%TD*%
%TO.C,*%
X73660000Y-58420000D03*
%TD*%
%TO.C,*%
X76200000Y-58420000D03*
%TD*%
%TO.C,*%
X58420000Y-58420000D03*
%TD*%
%TO.C,*%
X68580000Y-58420000D03*
%TD*%
%TO.C,*%
X86360000Y-58420000D03*
%TD*%
%TO.C,*%
X81280000Y-58420000D03*
%TD*%
%TO.C,*%
X96520000Y-58420000D03*
%TD*%
%TO.C,*%
X91440000Y-58420000D03*
%TD*%
%TO.C,*%
X60960000Y-58420000D03*
%TD*%
%TO.C,*%
X106680000Y-58420000D03*
%TD*%
%TO.C,*%
X78740000Y-58420000D03*
%TD*%
%TO.C,*%
X55880000Y-58420000D03*
%TD*%
%TO.C,*%
X71120000Y-58420000D03*
%TD*%
%TO.C,*%
X53340000Y-58420000D03*
%TD*%
%TO.C,*%
X48260000Y-58420000D03*
%TD*%
%TO.C,*%
X43180000Y-58420000D03*
%TD*%
%TO.C,*%
X35560000Y-58420000D03*
%TD*%
%TO.C,*%
X33020000Y-58420000D03*
%TD*%
%TO.C,*%
X25400000Y-58420000D03*
%TD*%
%TO.C,*%
X38100000Y-58420000D03*
%TD*%
%TO.C,*%
X30480000Y-58420000D03*
%TD*%
%TO.C,*%
X63500000Y-58420000D03*
%TD*%
%TO.C,*%
X66040000Y-58420000D03*
%TD*%
%TO.C,*%
X45720000Y-58420000D03*
%TD*%
%TO.C,*%
X40640000Y-58420000D03*
%TD*%
%TO.C,*%
X27940000Y-58420000D03*
%TD*%
%TO.C,*%
X149860000Y-55880000D03*
%TD*%
%TO.C,*%
X119380000Y-55880000D03*
%TD*%
%TO.C,*%
X101600000Y-55880000D03*
%TD*%
%TO.C,*%
X137160000Y-55880000D03*
%TD*%
%TO.C,*%
X132080000Y-55880000D03*
%TD*%
%TO.C,*%
X147320000Y-55880000D03*
%TD*%
%TO.C,*%
X144780000Y-55880000D03*
%TD*%
%TO.C,*%
X142240000Y-55880000D03*
%TD*%
%TO.C,*%
X134620000Y-55880000D03*
%TD*%
%TO.C,*%
X124460000Y-55880000D03*
%TD*%
%TO.C,*%
X127000000Y-55880000D03*
%TD*%
%TO.C,*%
X111760000Y-55880000D03*
%TD*%
%TO.C,*%
X139700000Y-55880000D03*
%TD*%
%TO.C,*%
X109220000Y-55880000D03*
%TD*%
%TO.C,*%
X129540000Y-55880000D03*
%TD*%
%TO.C,*%
X114300000Y-55880000D03*
%TD*%
%TO.C,*%
X83820000Y-55880000D03*
%TD*%
%TO.C,*%
X50800000Y-55880000D03*
%TD*%
%TO.C,*%
X88900000Y-55880000D03*
%TD*%
%TO.C,*%
X121920000Y-55880000D03*
%TD*%
%TO.C,*%
X116840000Y-55880000D03*
%TD*%
%TO.C,*%
X104140000Y-55880000D03*
%TD*%
%TO.C,*%
X99060000Y-55880000D03*
%TD*%
%TO.C,*%
X93980000Y-55880000D03*
%TD*%
%TO.C,*%
X73660000Y-55880000D03*
%TD*%
%TO.C,*%
X76200000Y-55880000D03*
%TD*%
%TO.C,*%
X58420000Y-55880000D03*
%TD*%
%TO.C,*%
X68580000Y-55880000D03*
%TD*%
%TO.C,*%
X86360000Y-55880000D03*
%TD*%
%TO.C,*%
X81280000Y-55880000D03*
%TD*%
%TO.C,*%
X96520000Y-55880000D03*
%TD*%
%TO.C,*%
X91440000Y-55880000D03*
%TD*%
%TO.C,*%
X60960000Y-55880000D03*
%TD*%
%TO.C,*%
X106680000Y-55880000D03*
%TD*%
%TO.C,*%
X78740000Y-55880000D03*
%TD*%
%TO.C,*%
X55880000Y-55880000D03*
%TD*%
%TO.C,*%
X71120000Y-55880000D03*
%TD*%
%TO.C,*%
X53340000Y-55880000D03*
%TD*%
%TO.C,*%
X48260000Y-55880000D03*
%TD*%
%TO.C,*%
X43180000Y-55880000D03*
%TD*%
%TO.C,*%
X35560000Y-55880000D03*
%TD*%
%TO.C,*%
X33020000Y-55880000D03*
%TD*%
%TO.C,*%
X25400000Y-55880000D03*
%TD*%
%TO.C,*%
X38100000Y-55880000D03*
%TD*%
%TO.C,*%
X30480000Y-55880000D03*
%TD*%
%TO.C,*%
X63500000Y-55880000D03*
%TD*%
%TO.C,*%
X66040000Y-55880000D03*
%TD*%
%TO.C,*%
X45720000Y-55880000D03*
%TD*%
%TO.C,*%
X40640000Y-55880000D03*
%TD*%
%TO.C,*%
X27940000Y-55880000D03*
%TD*%
%TO.C,*%
X149860000Y-53340000D03*
%TD*%
%TO.C,*%
X119380000Y-53340000D03*
%TD*%
%TO.C,*%
X101600000Y-53340000D03*
%TD*%
%TO.C,*%
X137160000Y-53340000D03*
%TD*%
%TO.C,*%
X132080000Y-53340000D03*
%TD*%
%TO.C,*%
X147320000Y-53340000D03*
%TD*%
%TO.C,*%
X144780000Y-53340000D03*
%TD*%
%TO.C,*%
X142240000Y-53340000D03*
%TD*%
%TO.C,*%
X134620000Y-53340000D03*
%TD*%
%TO.C,*%
X124460000Y-53340000D03*
%TD*%
%TO.C,*%
X127000000Y-53340000D03*
%TD*%
%TO.C,*%
X111760000Y-53340000D03*
%TD*%
%TO.C,*%
X139700000Y-53340000D03*
%TD*%
%TO.C,*%
X109220000Y-53340000D03*
%TD*%
%TO.C,*%
X129540000Y-53340000D03*
%TD*%
%TO.C,*%
X114300000Y-53340000D03*
%TD*%
%TO.C,*%
X83820000Y-53340000D03*
%TD*%
%TO.C,*%
X50800000Y-53340000D03*
%TD*%
%TO.C,*%
X88900000Y-53340000D03*
%TD*%
%TO.C,*%
X121920000Y-53340000D03*
%TD*%
%TO.C,*%
X116840000Y-53340000D03*
%TD*%
%TO.C,*%
X104140000Y-53340000D03*
%TD*%
%TO.C,*%
X99060000Y-53340000D03*
%TD*%
%TO.C,*%
X93980000Y-53340000D03*
%TD*%
%TO.C,*%
X73660000Y-53340000D03*
%TD*%
%TO.C,*%
X76200000Y-53340000D03*
%TD*%
%TO.C,*%
X58420000Y-53340000D03*
%TD*%
%TO.C,*%
X68580000Y-53340000D03*
%TD*%
%TO.C,*%
X86360000Y-53340000D03*
%TD*%
%TO.C,*%
X81280000Y-53340000D03*
%TD*%
%TO.C,*%
X96520000Y-53340000D03*
%TD*%
%TO.C,*%
X91440000Y-53340000D03*
%TD*%
%TO.C,*%
X60960000Y-53340000D03*
%TD*%
%TO.C,*%
X106680000Y-53340000D03*
%TD*%
%TO.C,*%
X78740000Y-53340000D03*
%TD*%
%TO.C,*%
X55880000Y-53340000D03*
%TD*%
%TO.C,*%
X71120000Y-53340000D03*
%TD*%
%TO.C,*%
X53340000Y-53340000D03*
%TD*%
%TO.C,*%
X48260000Y-53340000D03*
%TD*%
%TO.C,*%
X43180000Y-53340000D03*
%TD*%
%TO.C,*%
X35560000Y-53340000D03*
%TD*%
%TO.C,*%
X33020000Y-53340000D03*
%TD*%
%TO.C,*%
X25400000Y-53340000D03*
%TD*%
%TO.C,*%
X38100000Y-53340000D03*
%TD*%
%TO.C,*%
X30480000Y-53340000D03*
%TD*%
%TO.C,*%
X63500000Y-53340000D03*
%TD*%
%TO.C,*%
X66040000Y-53340000D03*
%TD*%
%TO.C,*%
X45720000Y-53340000D03*
%TD*%
%TO.C,*%
X40640000Y-53340000D03*
%TD*%
%TO.C,*%
X27940000Y-53340000D03*
%TD*%
%TO.C,*%
X149860000Y-50800000D03*
%TD*%
%TO.C,*%
X119380000Y-50800000D03*
%TD*%
%TO.C,*%
X101600000Y-50800000D03*
%TD*%
%TO.C,*%
X137160000Y-50800000D03*
%TD*%
%TO.C,*%
X132080000Y-50800000D03*
%TD*%
%TO.C,*%
X147320000Y-50800000D03*
%TD*%
%TO.C,*%
X144780000Y-50800000D03*
%TD*%
%TO.C,*%
X142240000Y-50800000D03*
%TD*%
%TO.C,*%
X134620000Y-50800000D03*
%TD*%
%TO.C,*%
X124460000Y-50800000D03*
%TD*%
%TO.C,*%
X127000000Y-50800000D03*
%TD*%
%TO.C,*%
X111760000Y-50800000D03*
%TD*%
%TO.C,*%
X139700000Y-50800000D03*
%TD*%
%TO.C,*%
X109220000Y-50800000D03*
%TD*%
%TO.C,*%
X129540000Y-50800000D03*
%TD*%
%TO.C,*%
X114300000Y-50800000D03*
%TD*%
%TO.C,*%
X83820000Y-50800000D03*
%TD*%
%TO.C,*%
X50800000Y-50800000D03*
%TD*%
%TO.C,*%
X88900000Y-50800000D03*
%TD*%
%TO.C,*%
X121920000Y-50800000D03*
%TD*%
%TO.C,*%
X116840000Y-50800000D03*
%TD*%
%TO.C,*%
X104140000Y-50800000D03*
%TD*%
%TO.C,*%
X99060000Y-50800000D03*
%TD*%
%TO.C,*%
X93980000Y-50800000D03*
%TD*%
%TO.C,*%
X73660000Y-50800000D03*
%TD*%
%TO.C,*%
X76200000Y-50800000D03*
%TD*%
%TO.C,*%
X58420000Y-50800000D03*
%TD*%
%TO.C,*%
X68580000Y-50800000D03*
%TD*%
%TO.C,*%
X86360000Y-50800000D03*
%TD*%
%TO.C,*%
X81280000Y-50800000D03*
%TD*%
%TO.C,*%
X96520000Y-50800000D03*
%TD*%
%TO.C,*%
X91440000Y-50800000D03*
%TD*%
%TO.C,*%
X60960000Y-50800000D03*
%TD*%
%TO.C,*%
X106680000Y-50800000D03*
%TD*%
%TO.C,*%
X78740000Y-50800000D03*
%TD*%
%TO.C,*%
X55880000Y-50800000D03*
%TD*%
%TO.C,*%
X71120000Y-50800000D03*
%TD*%
%TO.C,*%
X53340000Y-50800000D03*
%TD*%
%TO.C,*%
X48260000Y-50800000D03*
%TD*%
%TO.C,*%
X43180000Y-50800000D03*
%TD*%
%TO.C,*%
X35560000Y-50800000D03*
%TD*%
%TO.C,*%
X33020000Y-50800000D03*
%TD*%
%TO.C,*%
X25400000Y-50800000D03*
%TD*%
%TO.C,*%
X38100000Y-50800000D03*
%TD*%
%TO.C,*%
X30480000Y-50800000D03*
%TD*%
%TO.C,*%
X63500000Y-50800000D03*
%TD*%
%TO.C,*%
X66040000Y-50800000D03*
%TD*%
%TO.C,*%
X45720000Y-50800000D03*
%TD*%
%TO.C,*%
X40640000Y-50800000D03*
%TD*%
%TO.C,*%
X27940000Y-50800000D03*
%TD*%
%TO.C,*%
X149860000Y-48260000D03*
%TD*%
%TO.C,*%
X119380000Y-48260000D03*
%TD*%
%TO.C,*%
X101600000Y-48260000D03*
%TD*%
%TO.C,*%
X137160000Y-48260000D03*
%TD*%
%TO.C,*%
X132080000Y-48260000D03*
%TD*%
%TO.C,*%
X147320000Y-48260000D03*
%TD*%
%TO.C,*%
X144780000Y-48260000D03*
%TD*%
%TO.C,*%
X142240000Y-48260000D03*
%TD*%
%TO.C,*%
X134620000Y-48260000D03*
%TD*%
%TO.C,*%
X124460000Y-48260000D03*
%TD*%
%TO.C,*%
X127000000Y-48260000D03*
%TD*%
%TO.C,*%
X111760000Y-48260000D03*
%TD*%
%TO.C,*%
X139700000Y-48260000D03*
%TD*%
%TO.C,*%
X109220000Y-48260000D03*
%TD*%
%TO.C,*%
X129540000Y-48260000D03*
%TD*%
%TO.C,*%
X114300000Y-48260000D03*
%TD*%
%TO.C,*%
X83820000Y-48260000D03*
%TD*%
%TO.C,*%
X50800000Y-48260000D03*
%TD*%
%TO.C,*%
X88900000Y-48260000D03*
%TD*%
%TO.C,*%
X121920000Y-48260000D03*
%TD*%
%TO.C,*%
X116840000Y-48260000D03*
%TD*%
%TO.C,*%
X104140000Y-48260000D03*
%TD*%
%TO.C,*%
X99060000Y-48260000D03*
%TD*%
%TO.C,*%
X93980000Y-48260000D03*
%TD*%
%TO.C,*%
X73660000Y-48260000D03*
%TD*%
%TO.C,*%
X76200000Y-48260000D03*
%TD*%
%TO.C,*%
X58420000Y-48260000D03*
%TD*%
%TO.C,*%
X68580000Y-48260000D03*
%TD*%
%TO.C,*%
X86360000Y-48260000D03*
%TD*%
%TO.C,*%
X81280000Y-48260000D03*
%TD*%
%TO.C,*%
X96520000Y-48260000D03*
%TD*%
%TO.C,*%
X91440000Y-48260000D03*
%TD*%
%TO.C,*%
X60960000Y-48260000D03*
%TD*%
%TO.C,*%
X106680000Y-48260000D03*
%TD*%
%TO.C,*%
X78740000Y-48260000D03*
%TD*%
%TO.C,*%
X55880000Y-48260000D03*
%TD*%
%TO.C,*%
X71120000Y-48260000D03*
%TD*%
%TO.C,*%
X53340000Y-48260000D03*
%TD*%
%TO.C,*%
X48260000Y-48260000D03*
%TD*%
%TO.C,*%
X43180000Y-48260000D03*
%TD*%
%TO.C,*%
X35560000Y-48260000D03*
%TD*%
%TO.C,*%
X33020000Y-48260000D03*
%TD*%
%TO.C,*%
X25400000Y-48260000D03*
%TD*%
%TO.C,*%
X38100000Y-48260000D03*
%TD*%
%TO.C,*%
X30480000Y-48260000D03*
%TD*%
%TO.C,*%
X63500000Y-48260000D03*
%TD*%
%TO.C,*%
X66040000Y-48260000D03*
%TD*%
%TO.C,*%
X45720000Y-48260000D03*
%TD*%
%TO.C,*%
X40640000Y-48260000D03*
%TD*%
%TO.C,*%
X27940000Y-48260000D03*
%TD*%
%TO.C,*%
X149860000Y-45720000D03*
%TD*%
%TO.C,*%
X144780000Y-45720000D03*
%TD*%
%TO.C,*%
X137160000Y-45720000D03*
%TD*%
%TO.C,*%
X134620000Y-45720000D03*
%TD*%
%TO.C,*%
X127000000Y-45720000D03*
%TD*%
%TO.C,*%
X139700000Y-45720000D03*
%TD*%
%TO.C,*%
X132080000Y-45720000D03*
%TD*%
%TO.C,*%
X147320000Y-45720000D03*
%TD*%
%TO.C,*%
X142240000Y-45720000D03*
%TD*%
%TO.C,*%
X129540000Y-45720000D03*
%TD*%
%TO.C,*%
X124460000Y-45720000D03*
%TD*%
%TO.C,*%
X119380000Y-45720000D03*
%TD*%
%TO.C,*%
X111760000Y-45720000D03*
%TD*%
%TO.C,*%
X109220000Y-45720000D03*
%TD*%
%TO.C,*%
X101600000Y-45720000D03*
%TD*%
%TO.C,*%
X114300000Y-45720000D03*
%TD*%
%TO.C,*%
X106680000Y-45720000D03*
%TD*%
%TO.C,*%
X121920000Y-45720000D03*
%TD*%
%TO.C,*%
X116840000Y-45720000D03*
%TD*%
%TO.C,*%
X104140000Y-45720000D03*
%TD*%
%TO.C,*%
X99060000Y-45720000D03*
%TD*%
%TO.C,*%
X93980000Y-45720000D03*
%TD*%
%TO.C,*%
X86360000Y-45720000D03*
%TD*%
%TO.C,*%
X83820000Y-45720000D03*
%TD*%
%TO.C,*%
X76200000Y-45720000D03*
%TD*%
%TO.C,*%
X88900000Y-45720000D03*
%TD*%
%TO.C,*%
X81280000Y-45720000D03*
%TD*%
%TO.C,*%
X96520000Y-45720000D03*
%TD*%
%TO.C,*%
X91440000Y-45720000D03*
%TD*%
%TO.C,*%
X78740000Y-45720000D03*
%TD*%
%TO.C,*%
X73660000Y-45720000D03*
%TD*%
%TO.C,*%
X68580000Y-45720000D03*
%TD*%
%TO.C,*%
X60960000Y-45720000D03*
%TD*%
%TO.C,*%
X58420000Y-45720000D03*
%TD*%
%TO.C,*%
X50800000Y-45720000D03*
%TD*%
%TO.C,*%
X63500000Y-45720000D03*
%TD*%
%TO.C,*%
X55880000Y-45720000D03*
%TD*%
%TO.C,*%
X71120000Y-45720000D03*
%TD*%
%TO.C,*%
X66040000Y-45720000D03*
%TD*%
%TO.C,*%
X53340000Y-45720000D03*
%TD*%
%TO.C,*%
X45720000Y-45720000D03*
%TD*%
%TO.C,*%
X48260000Y-45720000D03*
%TD*%
%TO.C,*%
X40640000Y-45720000D03*
%TD*%
%TO.C,*%
X43180000Y-45720000D03*
%TD*%
%TO.C,*%
X35560000Y-45720000D03*
%TD*%
%TO.C,*%
X38100000Y-45720000D03*
%TD*%
%TO.C,*%
X30480000Y-45720000D03*
%TD*%
%TO.C,*%
X33020000Y-45720000D03*
%TD*%
%TO.C,*%
X25400000Y-45720000D03*
%TD*%
%TO.C,*%
X27940000Y-45720000D03*
%TD*%
M02*
