%TF.GenerationSoftware,KiCad,Pcbnew,9.0.7*%
%TF.CreationDate,2026-01-29T21:22:27-07:00*%
%TF.ProjectId,Realsense Adapter,5265616c-7365-46e7-9365-204164617074,1.0-PROTO*%
%TF.SameCoordinates,Original*%
%TF.FileFunction,Soldermask,Bot*%
%TF.FilePolarity,Negative*%
%FSLAX46Y46*%
G04 Gerber Fmt 4.6, Leading zero omitted, Abs format (unit mm)*
G04 Created by KiCad (PCBNEW 9.0.7) date 2026-01-29 21:22:27*
%MOMM*%
%LPD*%
G01*
G04 APERTURE LIST*
%ADD10R,1.700000X1.700000*%
%ADD11C,1.700000*%
G04 APERTURE END LIST*
D10*
%TO.C,J2*%
X121920000Y-76200000D03*
D11*
X121920000Y-73660000D03*
X124460000Y-76200000D03*
X124460000Y-73660000D03*
X127000000Y-76200000D03*
X127000000Y-73660000D03*
X129540000Y-76200000D03*
X129540000Y-73660000D03*
X132080000Y-76200000D03*
X132080000Y-73660000D03*
X134620000Y-76200000D03*
X134620000Y-73660000D03*
X137160000Y-76200000D03*
X137160000Y-73660000D03*
X139700000Y-76200000D03*
X139700000Y-73660000D03*
X142240000Y-76200000D03*
X142240000Y-73660000D03*
X144780000Y-76200000D03*
X144780000Y-73660000D03*
X147320000Y-76200000D03*
X147320000Y-73660000D03*
X149860000Y-76200000D03*
X149860000Y-73660000D03*
X152400000Y-76200000D03*
X152400000Y-73660000D03*
X154940000Y-76200000D03*
X154940000Y-73660000D03*
X157480000Y-76200000D03*
X157480000Y-73660000D03*
X160020000Y-76200000D03*
X160020000Y-73660000D03*
X162560000Y-76200000D03*
X162560000Y-73660000D03*
X165100000Y-76200000D03*
X165100000Y-73660000D03*
X167640000Y-76200000D03*
X167640000Y-73660000D03*
%TD*%
D10*
%TO.C,J3*%
X131320000Y-123835900D03*
D11*
X133860000Y-123835900D03*
X136400000Y-123835900D03*
X138940000Y-123835900D03*
X141480000Y-123835900D03*
X144020000Y-123835900D03*
X146560000Y-123835900D03*
X149100000Y-123835900D03*
X151640000Y-123835900D03*
X154180000Y-123835900D03*
X156720000Y-123835900D03*
X159260000Y-123835900D03*
%TD*%
M02*
