%TF.GenerationSoftware,KiCad,Pcbnew,9.0.7*%
%TF.CreationDate,2026-01-29T21:22:27-07:00*%
%TF.ProjectId,Realsense Adapter,5265616c-7365-46e7-9365-204164617074,1.0-PROTO*%
%TF.SameCoordinates,Original*%
%TF.FileFunction,Paste,Top*%
%TF.FilePolarity,Positive*%
%FSLAX46Y46*%
G04 Gerber Fmt 4.6, Leading zero omitted, Abs format (unit mm)*
G04 Created by KiCad (PCBNEW 9.0.7) date 2026-01-29 21:22:27*
%MOMM*%
%LPD*%
G01*
G04 APERTURE LIST*
%ADD10C,0.010000*%
%ADD11R,0.400000X1.350000*%
%ADD12R,2.300000X1.900000*%
%ADD13R,1.900000X1.900000*%
%ADD14R,1.800000X1.900000*%
G04 APERTURE END LIST*
D10*
%TO.C,U1*%
X140780000Y-66355000D02*
X140620000Y-66355000D01*
X140620000Y-65725000D01*
X140780000Y-65725000D01*
X140780000Y-66355000D01*
G36*
X140780000Y-66355000D02*
G01*
X140620000Y-66355000D01*
X140620000Y-65725000D01*
X140780000Y-65725000D01*
X140780000Y-66355000D01*
G37*
X140780000Y-67825000D02*
X140620000Y-67825000D01*
X140620000Y-67195000D01*
X140780000Y-67195000D01*
X140780000Y-67825000D01*
G36*
X140780000Y-67825000D02*
G01*
X140620000Y-67825000D01*
X140620000Y-67195000D01*
X140780000Y-67195000D01*
X140780000Y-67825000D01*
G37*
X141300000Y-66160000D02*
X141120000Y-66160000D01*
X141120000Y-65725000D01*
X141300000Y-65725000D01*
X141300000Y-66160000D01*
G36*
X141300000Y-66160000D02*
G01*
X141120000Y-66160000D01*
X141120000Y-65725000D01*
X141300000Y-65725000D01*
X141300000Y-66160000D01*
G37*
X141300000Y-67825000D02*
X141120000Y-67825000D01*
X141120000Y-67390000D01*
X141300000Y-67390000D01*
X141300000Y-67825000D01*
G36*
X141300000Y-67825000D02*
G01*
X141120000Y-67825000D01*
X141120000Y-67390000D01*
X141300000Y-67390000D01*
X141300000Y-67825000D01*
G37*
X141650000Y-66160000D02*
X141470000Y-66160000D01*
X141470000Y-65725000D01*
X141650000Y-65725000D01*
X141650000Y-66160000D01*
G36*
X141650000Y-66160000D02*
G01*
X141470000Y-66160000D01*
X141470000Y-65725000D01*
X141650000Y-65725000D01*
X141650000Y-66160000D01*
G37*
X141650000Y-67825000D02*
X141470000Y-67825000D01*
X141470000Y-67390000D01*
X141650000Y-67390000D01*
X141650000Y-67825000D01*
G36*
X141650000Y-67825000D02*
G01*
X141470000Y-67825000D01*
X141470000Y-67390000D01*
X141650000Y-67390000D01*
X141650000Y-67825000D01*
G37*
X142000000Y-66160000D02*
X141820000Y-66160000D01*
X141820000Y-65725000D01*
X142000000Y-65725000D01*
X142000000Y-66160000D01*
G36*
X142000000Y-66160000D02*
G01*
X141820000Y-66160000D01*
X141820000Y-65725000D01*
X142000000Y-65725000D01*
X142000000Y-66160000D01*
G37*
X142000000Y-67825000D02*
X141820000Y-67825000D01*
X141820000Y-67390000D01*
X142000000Y-67390000D01*
X142000000Y-67825000D01*
G36*
X142000000Y-67825000D02*
G01*
X141820000Y-67825000D01*
X141820000Y-67390000D01*
X142000000Y-67390000D01*
X142000000Y-67825000D01*
G37*
X142350000Y-66160000D02*
X142170000Y-66160000D01*
X142170000Y-65725000D01*
X142350000Y-65725000D01*
X142350000Y-66160000D01*
G36*
X142350000Y-66160000D02*
G01*
X142170000Y-66160000D01*
X142170000Y-65725000D01*
X142350000Y-65725000D01*
X142350000Y-66160000D01*
G37*
X142350000Y-67825000D02*
X142170000Y-67825000D01*
X142170000Y-67390000D01*
X142350000Y-67390000D01*
X142350000Y-67825000D01*
G36*
X142350000Y-67825000D02*
G01*
X142170000Y-67825000D01*
X142170000Y-67390000D01*
X142350000Y-67390000D01*
X142350000Y-67825000D01*
G37*
X142700000Y-66160000D02*
X142520000Y-66160000D01*
X142520000Y-65725000D01*
X142700000Y-65725000D01*
X142700000Y-66160000D01*
G36*
X142700000Y-66160000D02*
G01*
X142520000Y-66160000D01*
X142520000Y-65725000D01*
X142700000Y-65725000D01*
X142700000Y-66160000D01*
G37*
X142700000Y-67825000D02*
X142520000Y-67825000D01*
X142520000Y-67390000D01*
X142700000Y-67390000D01*
X142700000Y-67825000D01*
G36*
X142700000Y-67825000D02*
G01*
X142520000Y-67825000D01*
X142520000Y-67390000D01*
X142700000Y-67390000D01*
X142700000Y-67825000D01*
G37*
X143050000Y-66160000D02*
X142870000Y-66160000D01*
X142870000Y-65725000D01*
X143050000Y-65725000D01*
X143050000Y-66160000D01*
G36*
X143050000Y-66160000D02*
G01*
X142870000Y-66160000D01*
X142870000Y-65725000D01*
X143050000Y-65725000D01*
X143050000Y-66160000D01*
G37*
X143050000Y-67825000D02*
X142870000Y-67825000D01*
X142870000Y-67390000D01*
X143050000Y-67390000D01*
X143050000Y-67825000D01*
G36*
X143050000Y-67825000D02*
G01*
X142870000Y-67825000D01*
X142870000Y-67390000D01*
X143050000Y-67390000D01*
X143050000Y-67825000D01*
G37*
X143400000Y-66160000D02*
X143220000Y-66160000D01*
X143220000Y-65725000D01*
X143400000Y-65725000D01*
X143400000Y-66160000D01*
G36*
X143400000Y-66160000D02*
G01*
X143220000Y-66160000D01*
X143220000Y-65725000D01*
X143400000Y-65725000D01*
X143400000Y-66160000D01*
G37*
X143400000Y-67825000D02*
X143220000Y-67825000D01*
X143220000Y-67390000D01*
X143400000Y-67390000D01*
X143400000Y-67825000D01*
G36*
X143400000Y-67825000D02*
G01*
X143220000Y-67825000D01*
X143220000Y-67390000D01*
X143400000Y-67390000D01*
X143400000Y-67825000D01*
G37*
X143750000Y-66160000D02*
X143570000Y-66160000D01*
X143570000Y-65725000D01*
X143750000Y-65725000D01*
X143750000Y-66160000D01*
G36*
X143750000Y-66160000D02*
G01*
X143570000Y-66160000D01*
X143570000Y-65725000D01*
X143750000Y-65725000D01*
X143750000Y-66160000D01*
G37*
X143750000Y-67825000D02*
X143570000Y-67825000D01*
X143570000Y-67390000D01*
X143750000Y-67390000D01*
X143750000Y-67825000D01*
G36*
X143750000Y-67825000D02*
G01*
X143570000Y-67825000D01*
X143570000Y-67390000D01*
X143750000Y-67390000D01*
X143750000Y-67825000D01*
G37*
X144100000Y-66160000D02*
X143920000Y-66160000D01*
X143920000Y-65725000D01*
X144100000Y-65725000D01*
X144100000Y-66160000D01*
G36*
X144100000Y-66160000D02*
G01*
X143920000Y-66160000D01*
X143920000Y-65725000D01*
X144100000Y-65725000D01*
X144100000Y-66160000D01*
G37*
X144100000Y-67825000D02*
X143920000Y-67825000D01*
X143920000Y-67390000D01*
X144100000Y-67390000D01*
X144100000Y-67825000D01*
G36*
X144100000Y-67825000D02*
G01*
X143920000Y-67825000D01*
X143920000Y-67390000D01*
X144100000Y-67390000D01*
X144100000Y-67825000D01*
G37*
X144450000Y-66160000D02*
X144270000Y-66160000D01*
X144270000Y-65725000D01*
X144450000Y-65725000D01*
X144450000Y-66160000D01*
G36*
X144450000Y-66160000D02*
G01*
X144270000Y-66160000D01*
X144270000Y-65725000D01*
X144450000Y-65725000D01*
X144450000Y-66160000D01*
G37*
X144450000Y-67825000D02*
X144270000Y-67825000D01*
X144270000Y-67390000D01*
X144450000Y-67390000D01*
X144450000Y-67825000D01*
G36*
X144450000Y-67825000D02*
G01*
X144270000Y-67825000D01*
X144270000Y-67390000D01*
X144450000Y-67390000D01*
X144450000Y-67825000D01*
G37*
X144800000Y-66160000D02*
X144620000Y-66160000D01*
X144620000Y-65725000D01*
X144800000Y-65725000D01*
X144800000Y-66160000D01*
G36*
X144800000Y-66160000D02*
G01*
X144620000Y-66160000D01*
X144620000Y-65725000D01*
X144800000Y-65725000D01*
X144800000Y-66160000D01*
G37*
X144800000Y-67825000D02*
X144620000Y-67825000D01*
X144620000Y-67390000D01*
X144800000Y-67390000D01*
X144800000Y-67825000D01*
G36*
X144800000Y-67825000D02*
G01*
X144620000Y-67825000D01*
X144620000Y-67390000D01*
X144800000Y-67390000D01*
X144800000Y-67825000D01*
G37*
X145150000Y-66160000D02*
X144970000Y-66160000D01*
X144970000Y-65725000D01*
X145150000Y-65725000D01*
X145150000Y-66160000D01*
G36*
X145150000Y-66160000D02*
G01*
X144970000Y-66160000D01*
X144970000Y-65725000D01*
X145150000Y-65725000D01*
X145150000Y-66160000D01*
G37*
X145150000Y-67825000D02*
X144970000Y-67825000D01*
X144970000Y-67390000D01*
X145150000Y-67390000D01*
X145150000Y-67825000D01*
G36*
X145150000Y-67825000D02*
G01*
X144970000Y-67825000D01*
X144970000Y-67390000D01*
X145150000Y-67390000D01*
X145150000Y-67825000D01*
G37*
X145500000Y-66160000D02*
X145320000Y-66160000D01*
X145320000Y-65725000D01*
X145500000Y-65725000D01*
X145500000Y-66160000D01*
G36*
X145500000Y-66160000D02*
G01*
X145320000Y-66160000D01*
X145320000Y-65725000D01*
X145500000Y-65725000D01*
X145500000Y-66160000D01*
G37*
X145500000Y-67825000D02*
X145320000Y-67825000D01*
X145320000Y-67390000D01*
X145500000Y-67390000D01*
X145500000Y-67825000D01*
G36*
X145500000Y-67825000D02*
G01*
X145320000Y-67825000D01*
X145320000Y-67390000D01*
X145500000Y-67390000D01*
X145500000Y-67825000D01*
G37*
X145850000Y-66160000D02*
X145670000Y-66160000D01*
X145670000Y-65725000D01*
X145850000Y-65725000D01*
X145850000Y-66160000D01*
G36*
X145850000Y-66160000D02*
G01*
X145670000Y-66160000D01*
X145670000Y-65725000D01*
X145850000Y-65725000D01*
X145850000Y-66160000D01*
G37*
X145850000Y-67825000D02*
X145670000Y-67825000D01*
X145670000Y-67390000D01*
X145850000Y-67390000D01*
X145850000Y-67825000D01*
G36*
X145850000Y-67825000D02*
G01*
X145670000Y-67825000D01*
X145670000Y-67390000D01*
X145850000Y-67390000D01*
X145850000Y-67825000D01*
G37*
X146200000Y-66160000D02*
X146020000Y-66160000D01*
X146020000Y-65725000D01*
X146200000Y-65725000D01*
X146200000Y-66160000D01*
G36*
X146200000Y-66160000D02*
G01*
X146020000Y-66160000D01*
X146020000Y-65725000D01*
X146200000Y-65725000D01*
X146200000Y-66160000D01*
G37*
X146200000Y-67825000D02*
X146020000Y-67825000D01*
X146020000Y-67390000D01*
X146200000Y-67390000D01*
X146200000Y-67825000D01*
G36*
X146200000Y-67825000D02*
G01*
X146020000Y-67825000D01*
X146020000Y-67390000D01*
X146200000Y-67390000D01*
X146200000Y-67825000D01*
G37*
X146550000Y-66160000D02*
X146370000Y-66160000D01*
X146370000Y-65725000D01*
X146550000Y-65725000D01*
X146550000Y-66160000D01*
G36*
X146550000Y-66160000D02*
G01*
X146370000Y-66160000D01*
X146370000Y-65725000D01*
X146550000Y-65725000D01*
X146550000Y-66160000D01*
G37*
X146550000Y-67825000D02*
X146370000Y-67825000D01*
X146370000Y-67390000D01*
X146550000Y-67390000D01*
X146550000Y-67825000D01*
G36*
X146550000Y-67825000D02*
G01*
X146370000Y-67825000D01*
X146370000Y-67390000D01*
X146550000Y-67390000D01*
X146550000Y-67825000D01*
G37*
X146900000Y-66160000D02*
X146720000Y-66160000D01*
X146720000Y-65725000D01*
X146900000Y-65725000D01*
X146900000Y-66160000D01*
G36*
X146900000Y-66160000D02*
G01*
X146720000Y-66160000D01*
X146720000Y-65725000D01*
X146900000Y-65725000D01*
X146900000Y-66160000D01*
G37*
X146900000Y-67825000D02*
X146720000Y-67825000D01*
X146720000Y-67390000D01*
X146900000Y-67390000D01*
X146900000Y-67825000D01*
G36*
X146900000Y-67825000D02*
G01*
X146720000Y-67825000D01*
X146720000Y-67390000D01*
X146900000Y-67390000D01*
X146900000Y-67825000D01*
G37*
X147400000Y-66355000D02*
X147240000Y-66355000D01*
X147240000Y-65725000D01*
X147400000Y-65725000D01*
X147400000Y-66355000D01*
G36*
X147400000Y-66355000D02*
G01*
X147240000Y-66355000D01*
X147240000Y-65725000D01*
X147400000Y-65725000D01*
X147400000Y-66355000D01*
G37*
X147400000Y-67825000D02*
X147240000Y-67825000D01*
X147240000Y-67195000D01*
X147400000Y-67195000D01*
X147400000Y-67825000D01*
G36*
X147400000Y-67825000D02*
G01*
X147240000Y-67825000D01*
X147240000Y-67195000D01*
X147400000Y-67195000D01*
X147400000Y-67825000D01*
G37*
%TD*%
D11*
%TO.C,J1*%
X141560000Y-135060900D03*
X142210000Y-135060900D03*
X142860000Y-135060900D03*
X143510000Y-135060900D03*
X144160000Y-135060900D03*
X148260000Y-135060900D03*
X148910000Y-135060900D03*
X149560000Y-135060900D03*
X150210000Y-135060900D03*
X150860000Y-135060900D03*
D12*
X139110000Y-137735900D03*
D13*
X141660000Y-137735900D03*
X144060000Y-137735900D03*
D12*
X146610000Y-137735900D03*
D14*
X149360000Y-137735900D03*
D12*
X151960000Y-137735900D03*
%TD*%
M02*
