M48
; DRILL file {KiCad 9.0.7} date 2026-01-29T21:22:24-0700
; FORMAT={-:-/ absolute / metric / decimal}
; #@! TF.CreationDate,2026-01-29T21:22:24-07:00
; #@! TF.GenerationSoftware,Kicad,Pcbnew,9.0.7
; #@! TF.FileFunction,Plated,1,2,PTH
FMAT,2
METRIC
; #@! TA.AperFunction,Plated,PTH,ViaDrill
T1C0.300
; #@! TA.AperFunction,Plated,PTH,ComponentDrill
T2C1.000
%
G90
G05
T1
X132.228Y-67.024
X135.11Y-69.9
X137.046Y-67.608
X137.795Y-67.165
X137.87Y-70.053
X138.643Y-66.398
X139.447Y-67.512
X142.085Y-63.971
X142.815Y-64.601
X143.744Y-65.281
X144.78Y-64.467
X144.885Y-65.197
X145.668Y-64.198
X147.81Y-66.841
X147.847Y-68.141
X148.568Y-69.83
X149.352Y-69.759
T2
X121.92Y-73.66
X121.92Y-76.2
X124.46Y-73.66
X124.46Y-76.2
X127.0Y-73.66
X127.0Y-76.2
X129.54Y-73.66
X129.54Y-76.2
X131.32Y-123.836
X132.08Y-73.66
X132.08Y-76.2
X133.86Y-123.836
X134.62Y-73.66
X134.62Y-76.2
X136.4Y-123.836
X137.16Y-73.66
X137.16Y-76.2
X138.94Y-123.836
X139.7Y-73.66
X139.7Y-76.2
X141.48Y-123.836
X142.24Y-73.66
X142.24Y-76.2
X144.02Y-123.836
X144.78Y-73.66
X144.78Y-76.2
X146.56Y-123.836
X147.32Y-73.66
X147.32Y-76.2
X149.1Y-123.836
X149.86Y-73.66
X149.86Y-76.2
X151.64Y-123.836
X152.4Y-73.66
X152.4Y-76.2
X154.18Y-123.836
X154.94Y-73.66
X154.94Y-76.2
X156.72Y-123.836
X157.48Y-73.66
X157.48Y-76.2
X159.26Y-123.836
X160.02Y-73.66
X160.02Y-76.2
X162.56Y-73.66
X162.56Y-76.2
X165.1Y-73.66
X165.1Y-76.2
X167.64Y-73.66
X167.64Y-76.2
M30
