%TF.GenerationSoftware,KiCad,Pcbnew,9.0.7*%
%TF.CreationDate,2026-01-29T21:22:27-07:00*%
%TF.ProjectId,Realsense Adapter,5265616c-7365-46e7-9365-204164617074,1.0-PROTO*%
%TF.SameCoordinates,Original*%
%TF.FileFunction,Copper,L2,Bot*%
%TF.FilePolarity,Positive*%
%FSLAX46Y46*%
G04 Gerber Fmt 4.6, Leading zero omitted, Abs format (unit mm)*
G04 Created by KiCad (PCBNEW 9.0.7) date 2026-01-29 21:22:27*
%MOMM*%
%LPD*%
G01*
G04 APERTURE LIST*
%TA.AperFunction,ComponentPad*%
%ADD10R,1.700000X1.700000*%
%TD*%
%TA.AperFunction,ComponentPad*%
%ADD11C,1.700000*%
%TD*%
%TA.AperFunction,ViaPad*%
%ADD12C,0.600000*%
%TD*%
%TA.AperFunction,Conductor*%
%ADD13C,0.200000*%
%TD*%
G04 APERTURE END LIST*
D10*
%TO.P,J2,1,Pin_1*%
%TO.N,/CONN_1_RESERVED*%
X121920000Y-76200000D03*
D11*
%TO.P,J2,2,Pin_2*%
%TO.N,/CONN_2_USB3_RX+*%
X121920000Y-73660000D03*
%TO.P,J2,3,Pin_3*%
%TO.N,/CONN_3_RESERVED*%
X124460000Y-76200000D03*
%TO.P,J2,4,Pin_4*%
%TO.N,/CONN_4_USB3_RX-*%
X124460000Y-73660000D03*
%TO.P,J2,5,Pin_5*%
%TO.N,/CONN_5_RESERVED*%
X127000000Y-76200000D03*
%TO.P,J2,6,Pin_6*%
%TO.N,/CONN_GND*%
X127000000Y-73660000D03*
%TO.P,J2,7,Pin_7*%
%TO.N,/CONN_7_RESERVED*%
X129540000Y-76200000D03*
%TO.P,J2,8,Pin_8*%
%TO.N,/CONN_8_USB3_TX+*%
X129540000Y-73660000D03*
%TO.P,J2,9,Pin_9*%
%TO.N,/CONN_9_RESERVED*%
X132080000Y-76200000D03*
%TO.P,J2,10,Pin_10*%
%TO.N,/CONN_10_USB3_TX-*%
X132080000Y-73660000D03*
%TO.P,J2,11,Pin_11*%
%TO.N,/CONN_11_RESERVED*%
X134620000Y-76200000D03*
%TO.P,J2,12,Pin_12*%
%TO.N,/CONN_GND*%
X134620000Y-73660000D03*
%TO.P,J2,13,Pin_13*%
%TO.N,/CONN_13_RESERVED*%
X137160000Y-76200000D03*
%TO.P,J2,14,Pin_14*%
%TO.N,/CONN_14_USB2+*%
X137160000Y-73660000D03*
%TO.P,J2,15,Pin_15*%
%TO.N,/CONN_15_RESERVED*%
X139700000Y-76200000D03*
%TO.P,J2,16,Pin_16*%
%TO.N,/CONN_16_USB2-*%
X139700000Y-73660000D03*
%TO.P,J2,17,Pin_17*%
%TO.N,/CONN_17_RESERVED*%
X142240000Y-76200000D03*
%TO.P,J2,18,Pin_18*%
%TO.N,/CONN_GND*%
X142240000Y-73660000D03*
%TO.P,J2,19,Pin_19*%
%TO.N,/CONN_19_RESERVED*%
X144780000Y-76200000D03*
%TO.P,J2,20,Pin_20*%
%TO.N,/CONN_20_RESERVED*%
X144780000Y-73660000D03*
%TO.P,J2,21,Pin_21*%
%TO.N,/CONN_21_RESERVED*%
X147320000Y-76200000D03*
%TO.P,J2,22,Pin_22*%
%TO.N,/CONN_22_RESERVED*%
X147320000Y-73660000D03*
%TO.P,J2,23,Pin_23*%
%TO.N,/CONN_23_RESERVED*%
X149860000Y-76200000D03*
%TO.P,J2,24,Pin_24*%
%TO.N,/CONN_GND*%
X149860000Y-73660000D03*
%TO.P,J2,25,Pin_25*%
X152400000Y-76200000D03*
%TO.P,J2,26,Pin_26*%
%TO.N,/CONN_26_RESERVED*%
X152400000Y-73660000D03*
%TO.P,J2,27,Pin_27*%
%TO.N,/CONN_27_RESERVED*%
X154940000Y-76200000D03*
%TO.P,J2,28,Pin_28*%
%TO.N,/CONN_28_RESERVED*%
X154940000Y-73660000D03*
%TO.P,J2,29,Pin_29*%
%TO.N,/CONN_29_RESERVED*%
X157480000Y-76200000D03*
%TO.P,J2,30,Pin_30*%
%TO.N,/CONN_GND*%
X157480000Y-73660000D03*
%TO.P,J2,31,Pin_31*%
X160020000Y-76200000D03*
%TO.P,J2,32,Pin_32*%
%TO.N,/CONN_32_RESERVED*%
X160020000Y-73660000D03*
%TO.P,J2,33,Pin_33*%
%TO.N,/CONN_33_RESERVED*%
X162560000Y-76200000D03*
%TO.P,J2,34,Pin_34*%
%TO.N,/CONN_34_RESERVED*%
X162560000Y-73660000D03*
%TO.P,J2,35,Pin_35*%
%TO.N,/CONN_VBUS*%
X165100000Y-76200000D03*
%TO.P,J2,36,Pin_36*%
X165100000Y-73660000D03*
%TO.P,J2,37,Pin_37*%
%TO.N,/CONN_GND*%
X167640000Y-76200000D03*
%TO.P,J2,38,Pin_38*%
X167640000Y-73660000D03*
%TD*%
D10*
%TO.P,J3,1,Pin_1*%
%TO.N,/USB_VBUS*%
X131320000Y-123835900D03*
D11*
%TO.P,J3,2,Pin_2*%
%TO.N,/USB_D-*%
X133860000Y-123835900D03*
%TO.P,J3,3,Pin_3*%
%TO.N,/USB_D+*%
X136400000Y-123835900D03*
%TO.P,J3,4,Pin_4*%
%TO.N,/USB_ID*%
X138940000Y-123835900D03*
%TO.P,J3,5,Pin_5*%
%TO.N,/USB_DRAIN*%
X141480000Y-123835900D03*
%TO.P,J3,6,Pin_6*%
%TO.N,/USB_SSTX-*%
X144020000Y-123835900D03*
%TO.P,J3,7,Pin_7*%
%TO.N,/USB_SSTX+*%
X146560000Y-123835900D03*
%TO.P,J3,8,Pin_8*%
%TO.N,/USB_DRAIN*%
X149100000Y-123835900D03*
%TO.P,J3,9,Pin_9*%
%TO.N,/USB_SSRX-*%
X151640000Y-123835900D03*
%TO.P,J3,10,Pin_10*%
%TO.N,/USB_SSRX+*%
X154180000Y-123835900D03*
%TO.P,J3,11,Pin_11*%
%TO.N,/USB_DRAIN*%
X156720000Y-123835900D03*
%TO.P,J3,12,Pin_12*%
%TO.N,unconnected-(J3-Pin_12-Pad12)*%
X159260000Y-123835900D03*
%TD*%
D12*
%TO.N,/CONN_1_RESERVED*%
X137794700Y-67165100D03*
%TO.N,/CONN_GND*%
X139447500Y-67511900D03*
X137046400Y-67608300D03*
X138643500Y-66398400D03*
%TO.N,/CONN_22_RESERVED*%
X144885100Y-65196900D03*
%TO.N,/CONN_33_RESERVED*%
X148568000Y-69829600D03*
%TO.N,/CONN_20_RESERVED*%
X144780200Y-64466600D03*
%TO.N,/CONN_VBUS*%
X147847400Y-68140700D03*
%TO.N,/CONN_32_RESERVED*%
X149352000Y-69758900D03*
%TO.N,/CONN_14_USB2+*%
X137870500Y-70052600D03*
X142815200Y-64600600D03*
%TO.N,/CONN_5_RESERVED*%
X135110300Y-69899800D03*
%TO.N,/CONN_26_RESERVED*%
X145668100Y-64197900D03*
%TO.N,/CONN_16_USB2-*%
X143744300Y-65281500D03*
%TO.N,/CONN_2_USB3_RX+*%
X132227600Y-67024000D03*
%TO.N,/CONN_34_RESERVED*%
X147810200Y-66840700D03*
%TO.N,/CONN_10_USB3_TX-*%
X142084800Y-63971200D03*
%TD*%
D13*
%TO.N,/USB_DRAIN*%
X142564100Y-124920000D02*
X148015900Y-124920000D01*
X155668300Y-124887600D02*
X150151700Y-124887600D01*
X156720000Y-123835900D02*
X155668300Y-124887600D01*
X141480000Y-123835900D02*
X142564100Y-124920000D01*
X150151700Y-124887600D02*
X149100000Y-123835900D01*
X148015900Y-124920000D02*
X149100000Y-123835900D01*
%TO.N,/CONN_1_RESERVED*%
X122971700Y-74096600D02*
X122971700Y-73612400D01*
X137254200Y-68110000D02*
X137794700Y-67569500D01*
X128474100Y-68110000D02*
X137254200Y-68110000D01*
X121920000Y-76200000D02*
X121920000Y-75148300D01*
X137794700Y-67569500D02*
X137794700Y-67163500D01*
X137794700Y-67163500D02*
X137794700Y-67165100D01*
X122971700Y-73612400D02*
X128474100Y-68110000D01*
X121920000Y-75148300D02*
X122971700Y-74096600D01*
%TO.N,/CONN_GND*%
X139447500Y-69325800D02*
X139447500Y-67511900D01*
X134620000Y-73660000D02*
X135113300Y-73660000D01*
X133564900Y-74715100D02*
X128055100Y-74715100D01*
X161089200Y-77269200D02*
X160020000Y-76200000D01*
X153670000Y-74930000D02*
X152400000Y-76200000D01*
X137842600Y-66398400D02*
X137046400Y-67194600D01*
X135113300Y-73660000D02*
X136466700Y-75013400D01*
X139001900Y-66040000D02*
X138643500Y-66398400D01*
X138643500Y-66398400D02*
X139001900Y-66040000D01*
X149860000Y-73660000D02*
X148808300Y-74711700D01*
X167640000Y-76200000D02*
X166570800Y-77269200D01*
X128055100Y-74715100D02*
X127000000Y-73660000D01*
X156210000Y-74930000D02*
X153670000Y-74930000D01*
X134620000Y-73660000D02*
X133564900Y-74715100D01*
X136466700Y-75013400D02*
X141938300Y-75013400D01*
X141938300Y-75013400D02*
X142240000Y-74711700D01*
X152400000Y-76200000D02*
X149860000Y-73660000D01*
X137046400Y-67194600D02*
X137046400Y-67608300D01*
X135113300Y-73660000D02*
X139447500Y-69325800D01*
X160020000Y-76200000D02*
X157480000Y-73660000D01*
X142240000Y-73660000D02*
X142240000Y-74711700D01*
X157480000Y-73660000D02*
X156210000Y-74930000D01*
X137046400Y-67608300D02*
X137046400Y-67194600D01*
X166570800Y-77269200D02*
X161089200Y-77269200D01*
X137046400Y-67194600D02*
X137046400Y-67608300D01*
X148808300Y-74711700D02*
X142240000Y-74711700D01*
X138643500Y-66398400D02*
X137842600Y-66398400D01*
%TO.N,/CONN_22_RESERVED*%
X147320000Y-73660000D02*
X144885100Y-71225100D01*
X144885100Y-71225100D02*
X144885100Y-65196900D01*
%TO.N,/CONN_33_RESERVED*%
X161290000Y-74930000D02*
X162560000Y-76200000D01*
X158750100Y-73411700D02*
X158750100Y-73892800D01*
X156054900Y-70716500D02*
X158750100Y-73411700D01*
X158750100Y-73892800D02*
X159787300Y-74930000D01*
X149454900Y-70716500D02*
X156054900Y-70716500D01*
X148568000Y-69829600D02*
X149454900Y-70716500D01*
X159787300Y-74930000D02*
X161290000Y-74930000D01*
%TO.N,/CONN_20_RESERVED*%
X144360200Y-73240200D02*
X144780000Y-73660000D01*
X144780200Y-64466600D02*
X144360200Y-64886600D01*
X144360200Y-64886600D02*
X144360200Y-73240200D01*
%TO.N,/CONN_VBUS*%
X159580700Y-68140700D02*
X147847400Y-68140700D01*
X165100000Y-73660000D02*
X159580700Y-68140700D01*
%TO.N,/CONN_32_RESERVED*%
X160020000Y-73660000D02*
X156118900Y-69758900D01*
X156118900Y-69758900D02*
X149352000Y-69758900D01*
%TO.N,/CONN_14_USB2+*%
X141644100Y-64600600D02*
X142815200Y-64600600D01*
X137870500Y-70052600D02*
X137870500Y-68374200D01*
X142815300Y-64600600D02*
X142815200Y-64600600D01*
X137870500Y-68374200D02*
X141644100Y-64600600D01*
X142815200Y-64600600D02*
X142815300Y-64600600D01*
%TO.N,/CONN_5_RESERVED*%
X129200200Y-69899800D02*
X125889300Y-73210700D01*
X125889300Y-73210700D02*
X125889300Y-75089300D01*
X135110300Y-69899800D02*
X129200200Y-69899800D01*
X125889300Y-75089300D02*
X127000000Y-76200000D01*
%TO.N,/CONN_26_RESERVED*%
X145668100Y-64197900D02*
X145668100Y-67639100D01*
X145668100Y-67639100D02*
X151689000Y-73660000D01*
X151689000Y-73660000D02*
X152400000Y-73660000D01*
%TO.N,/CONN_16_USB2-*%
X139700000Y-73660000D02*
X138648300Y-74711700D01*
X143744300Y-65570700D02*
X143744300Y-65281500D01*
X136107600Y-73207400D02*
X143744300Y-65570700D01*
X136647300Y-74711700D02*
X136107600Y-74172000D01*
X136107600Y-74172000D02*
X136107600Y-73207400D01*
X138648300Y-74711700D02*
X136647300Y-74711700D01*
%TO.N,/CONN_2_USB3_RX+*%
X128769400Y-66810600D02*
X121920000Y-73660000D01*
X132014200Y-66810600D02*
X128769400Y-66810600D01*
X132014200Y-66810600D02*
X132227600Y-67024000D01*
%TO.N,/CONN_34_RESERVED*%
X147337200Y-68422100D02*
X147337200Y-67313700D01*
X147970100Y-69055000D02*
X147337200Y-68422100D01*
X157955000Y-69055000D02*
X147970100Y-69055000D01*
X147337200Y-67313700D02*
X147810200Y-66840700D01*
X162560000Y-73660000D02*
X157955000Y-69055000D01*
%TO.N,/CONN_10_USB3_TX-*%
X132080000Y-73660000D02*
X132130700Y-73660000D01*
X142084800Y-63971200D02*
X142084800Y-63971300D01*
X142084800Y-63971300D02*
X142084800Y-63971200D01*
X132130700Y-73660000D02*
X141819500Y-63971200D01*
X141819500Y-63971200D02*
X142084800Y-63971200D01*
%TD*%
%TA.AperFunction,Conductor*%
%TO.N,/USB_DRAIN*%
G36*
X164283039Y-119399685D02*
G01*
X164328794Y-119452489D01*
X164340000Y-119504000D01*
X164340000Y-142116000D01*
X164320315Y-142183039D01*
X164267511Y-142228794D01*
X164216000Y-142240000D01*
X126364000Y-142240000D01*
X126296961Y-142220315D01*
X126251206Y-142167511D01*
X126240000Y-142116000D01*
X126240000Y-122938035D01*
X129969500Y-122938035D01*
X129969500Y-124733770D01*
X129969501Y-124733776D01*
X129975908Y-124793383D01*
X130026202Y-124928228D01*
X130026206Y-124928235D01*
X130112452Y-125043444D01*
X130112455Y-125043447D01*
X130227664Y-125129693D01*
X130227671Y-125129697D01*
X130362517Y-125179991D01*
X130362516Y-125179991D01*
X130369444Y-125180735D01*
X130422127Y-125186400D01*
X132217872Y-125186399D01*
X132277483Y-125179991D01*
X132412331Y-125129696D01*
X132527546Y-125043446D01*
X132613796Y-124928231D01*
X132662810Y-124796816D01*
X132704681Y-124740884D01*
X132770145Y-124716466D01*
X132838418Y-124731317D01*
X132866673Y-124752469D01*
X132980213Y-124866009D01*
X133152179Y-124990948D01*
X133152181Y-124990949D01*
X133152184Y-124990951D01*
X133341588Y-125087457D01*
X133543757Y-125153146D01*
X133753713Y-125186400D01*
X133753714Y-125186400D01*
X133966286Y-125186400D01*
X133966287Y-125186400D01*
X134176243Y-125153146D01*
X134378412Y-125087457D01*
X134567816Y-124990951D01*
X134654138Y-124928235D01*
X134739786Y-124866009D01*
X134739788Y-124866006D01*
X134739792Y-124866004D01*
X134890104Y-124715692D01*
X134890106Y-124715688D01*
X134890109Y-124715686D01*
X135015048Y-124543720D01*
X135015047Y-124543720D01*
X135015051Y-124543716D01*
X135019514Y-124534954D01*
X135067488Y-124484159D01*
X135135308Y-124467363D01*
X135201444Y-124489899D01*
X135240486Y-124534956D01*
X135244951Y-124543720D01*
X135369890Y-124715686D01*
X135520213Y-124866009D01*
X135692179Y-124990948D01*
X135692181Y-124990949D01*
X135692184Y-124990951D01*
X135881588Y-125087457D01*
X136083757Y-125153146D01*
X136293713Y-125186400D01*
X136293714Y-125186400D01*
X136506286Y-125186400D01*
X136506287Y-125186400D01*
X136716243Y-125153146D01*
X136918412Y-125087457D01*
X137107816Y-124990951D01*
X137194138Y-124928235D01*
X137279786Y-124866009D01*
X137279788Y-124866006D01*
X137279792Y-124866004D01*
X137430104Y-124715692D01*
X137430106Y-124715688D01*
X137430109Y-124715686D01*
X137555048Y-124543720D01*
X137555047Y-124543720D01*
X137555051Y-124543716D01*
X137559514Y-124534954D01*
X137607488Y-124484159D01*
X137675308Y-124467363D01*
X137741444Y-124489899D01*
X137780486Y-124534956D01*
X137784951Y-124543720D01*
X137909890Y-124715686D01*
X138060213Y-124866009D01*
X138232179Y-124990948D01*
X138232181Y-124990949D01*
X138232184Y-124990951D01*
X138421588Y-125087457D01*
X138623757Y-125153146D01*
X138833713Y-125186400D01*
X138833714Y-125186400D01*
X139046286Y-125186400D01*
X139046287Y-125186400D01*
X139256243Y-125153146D01*
X139458412Y-125087457D01*
X139647816Y-124990951D01*
X139734138Y-124928235D01*
X139819786Y-124866009D01*
X139819788Y-124866006D01*
X139819792Y-124866004D01*
X139970104Y-124715692D01*
X139970106Y-124715688D01*
X139970109Y-124715686D01*
X140055890Y-124597617D01*
X140095051Y-124543716D01*
X140099793Y-124534408D01*
X140147763Y-124483611D01*
X140215583Y-124466811D01*
X140281719Y-124489345D01*
X140320763Y-124534400D01*
X140325373Y-124543447D01*
X140364728Y-124597616D01*
X140997037Y-123965308D01*
X141014075Y-124028893D01*
X141079901Y-124142907D01*
X141172993Y-124235999D01*
X141287007Y-124301825D01*
X141350590Y-124318862D01*
X140718282Y-124951169D01*
X140718282Y-124951170D01*
X140772449Y-124990524D01*
X140961782Y-125086995D01*
X141163870Y-125152657D01*
X141373754Y-125185900D01*
X141586246Y-125185900D01*
X141796127Y-125152657D01*
X141796130Y-125152657D01*
X141998217Y-125086995D01*
X142187554Y-124990522D01*
X142241716Y-124951170D01*
X142241717Y-124951170D01*
X141609408Y-124318862D01*
X141672993Y-124301825D01*
X141787007Y-124235999D01*
X141880099Y-124142907D01*
X141945925Y-124028893D01*
X141962962Y-123965308D01*
X142595270Y-124597617D01*
X142595270Y-124597616D01*
X142634622Y-124543455D01*
X142639232Y-124534407D01*
X142687205Y-124483609D01*
X142755025Y-124466812D01*
X142821161Y-124489347D01*
X142860204Y-124534404D01*
X142864949Y-124543717D01*
X142989890Y-124715686D01*
X143140213Y-124866009D01*
X143312179Y-124990948D01*
X143312181Y-124990949D01*
X143312184Y-124990951D01*
X143501588Y-125087457D01*
X143703757Y-125153146D01*
X143913713Y-125186400D01*
X143913714Y-125186400D01*
X144126286Y-125186400D01*
X144126287Y-125186400D01*
X144336243Y-125153146D01*
X144538412Y-125087457D01*
X144727816Y-124990951D01*
X144814138Y-124928235D01*
X144899786Y-124866009D01*
X144899788Y-124866006D01*
X144899792Y-124866004D01*
X145050104Y-124715692D01*
X145050106Y-124715688D01*
X145050109Y-124715686D01*
X145175048Y-124543720D01*
X145175047Y-124543720D01*
X145175051Y-124543716D01*
X145179514Y-124534954D01*
X145227488Y-124484159D01*
X145295308Y-124467363D01*
X145361444Y-124489899D01*
X145400486Y-124534956D01*
X145404951Y-124543720D01*
X145529890Y-124715686D01*
X145680213Y-124866009D01*
X145852179Y-124990948D01*
X145852181Y-124990949D01*
X145852184Y-124990951D01*
X146041588Y-125087457D01*
X146243757Y-125153146D01*
X146453713Y-125186400D01*
X146453714Y-125186400D01*
X146666286Y-125186400D01*
X146666287Y-125186400D01*
X146876243Y-125153146D01*
X147078412Y-125087457D01*
X147267816Y-124990951D01*
X147354138Y-124928235D01*
X147439786Y-124866009D01*
X147439788Y-124866006D01*
X147439792Y-124866004D01*
X147590104Y-124715692D01*
X147590106Y-124715688D01*
X147590109Y-124715686D01*
X147675890Y-124597617D01*
X147715051Y-124543716D01*
X147719793Y-124534408D01*
X147767763Y-124483611D01*
X147835583Y-124466811D01*
X147901719Y-124489345D01*
X147940763Y-124534400D01*
X147945373Y-124543447D01*
X147984728Y-124597616D01*
X148617037Y-123965308D01*
X148634075Y-124028893D01*
X148699901Y-124142907D01*
X148792993Y-124235999D01*
X148907007Y-124301825D01*
X148970590Y-124318862D01*
X148338282Y-124951169D01*
X148338282Y-124951170D01*
X148392449Y-124990524D01*
X148581782Y-125086995D01*
X148783870Y-125152657D01*
X148993754Y-125185900D01*
X149206246Y-125185900D01*
X149416127Y-125152657D01*
X149416130Y-125152657D01*
X149618217Y-125086995D01*
X149807554Y-124990522D01*
X149861716Y-124951170D01*
X149861717Y-124951170D01*
X149229408Y-124318862D01*
X149292993Y-124301825D01*
X149407007Y-124235999D01*
X149500099Y-124142907D01*
X149565925Y-124028893D01*
X149582962Y-123965308D01*
X150215270Y-124597617D01*
X150215270Y-124597616D01*
X150254622Y-124543455D01*
X150259232Y-124534407D01*
X150307205Y-124483609D01*
X150375025Y-124466812D01*
X150441161Y-124489347D01*
X150480204Y-124534404D01*
X150484949Y-124543717D01*
X150609890Y-124715686D01*
X150760213Y-124866009D01*
X150932179Y-124990948D01*
X150932181Y-124990949D01*
X150932184Y-124990951D01*
X151121588Y-125087457D01*
X151323757Y-125153146D01*
X151533713Y-125186400D01*
X151533714Y-125186400D01*
X151746286Y-125186400D01*
X151746287Y-125186400D01*
X151956243Y-125153146D01*
X152158412Y-125087457D01*
X152347816Y-124990951D01*
X152434138Y-124928235D01*
X152519786Y-124866009D01*
X152519788Y-124866006D01*
X152519792Y-124866004D01*
X152670104Y-124715692D01*
X152670106Y-124715688D01*
X152670109Y-124715686D01*
X152795048Y-124543720D01*
X152795047Y-124543720D01*
X152795051Y-124543716D01*
X152799514Y-124534954D01*
X152847488Y-124484159D01*
X152915308Y-124467363D01*
X152981444Y-124489899D01*
X153020486Y-124534956D01*
X153024951Y-124543720D01*
X153149890Y-124715686D01*
X153300213Y-124866009D01*
X153472179Y-124990948D01*
X153472181Y-124990949D01*
X153472184Y-124990951D01*
X153661588Y-125087457D01*
X153863757Y-125153146D01*
X154073713Y-125186400D01*
X154073714Y-125186400D01*
X154286286Y-125186400D01*
X154286287Y-125186400D01*
X154496243Y-125153146D01*
X154698412Y-125087457D01*
X154887816Y-124990951D01*
X154974138Y-124928235D01*
X155059786Y-124866009D01*
X155059788Y-124866006D01*
X155059792Y-124866004D01*
X155210104Y-124715692D01*
X155210106Y-124715688D01*
X155210109Y-124715686D01*
X155295890Y-124597617D01*
X155335051Y-124543716D01*
X155339793Y-124534408D01*
X155387763Y-124483611D01*
X155455583Y-124466811D01*
X155521719Y-124489345D01*
X155560763Y-124534400D01*
X155565373Y-124543447D01*
X155604728Y-124597616D01*
X156237037Y-123965308D01*
X156254075Y-124028893D01*
X156319901Y-124142907D01*
X156412993Y-124235999D01*
X156527007Y-124301825D01*
X156590590Y-124318862D01*
X155958282Y-124951169D01*
X155958282Y-124951170D01*
X156012449Y-124990524D01*
X156201782Y-125086995D01*
X156403870Y-125152657D01*
X156613754Y-125185900D01*
X156826246Y-125185900D01*
X157036127Y-125152657D01*
X157036130Y-125152657D01*
X157238217Y-125086995D01*
X157427554Y-124990522D01*
X157481716Y-124951170D01*
X157481717Y-124951170D01*
X156849408Y-124318862D01*
X156912993Y-124301825D01*
X157027007Y-124235999D01*
X157120099Y-124142907D01*
X157185925Y-124028893D01*
X157202962Y-123965308D01*
X157835270Y-124597617D01*
X157835270Y-124597616D01*
X157874622Y-124543455D01*
X157879232Y-124534407D01*
X157927205Y-124483609D01*
X157995025Y-124466812D01*
X158061161Y-124489347D01*
X158100204Y-124534404D01*
X158104949Y-124543717D01*
X158229890Y-124715686D01*
X158380213Y-124866009D01*
X158552179Y-124990948D01*
X158552181Y-124990949D01*
X158552184Y-124990951D01*
X158741588Y-125087457D01*
X158943757Y-125153146D01*
X159153713Y-125186400D01*
X159153714Y-125186400D01*
X159366286Y-125186400D01*
X159366287Y-125186400D01*
X159576243Y-125153146D01*
X159778412Y-125087457D01*
X159967816Y-124990951D01*
X160054138Y-124928235D01*
X160139786Y-124866009D01*
X160139788Y-124866006D01*
X160139792Y-124866004D01*
X160290104Y-124715692D01*
X160290106Y-124715688D01*
X160290109Y-124715686D01*
X160415048Y-124543720D01*
X160415047Y-124543720D01*
X160415051Y-124543716D01*
X160511557Y-124354312D01*
X160577246Y-124152143D01*
X160610500Y-123942187D01*
X160610500Y-123729613D01*
X160577246Y-123519657D01*
X160511557Y-123317488D01*
X160415051Y-123128084D01*
X160415049Y-123128081D01*
X160415048Y-123128079D01*
X160290109Y-122956113D01*
X160139786Y-122805790D01*
X159967820Y-122680851D01*
X159778414Y-122584344D01*
X159778413Y-122584343D01*
X159778412Y-122584343D01*
X159576243Y-122518654D01*
X159576241Y-122518653D01*
X159576240Y-122518653D01*
X159414957Y-122493108D01*
X159366287Y-122485400D01*
X159153713Y-122485400D01*
X159105042Y-122493108D01*
X158943760Y-122518653D01*
X158741585Y-122584344D01*
X158552179Y-122680851D01*
X158380213Y-122805790D01*
X158229890Y-122956113D01*
X158104949Y-123128082D01*
X158100202Y-123137399D01*
X158052227Y-123188193D01*
X157984405Y-123204987D01*
X157918271Y-123182448D01*
X157879234Y-123137395D01*
X157874626Y-123128352D01*
X157835270Y-123074182D01*
X157835269Y-123074182D01*
X157202962Y-123706490D01*
X157185925Y-123642907D01*
X157120099Y-123528893D01*
X157027007Y-123435801D01*
X156912993Y-123369975D01*
X156849409Y-123352937D01*
X157481716Y-122720628D01*
X157427550Y-122681275D01*
X157238217Y-122584804D01*
X157036129Y-122519142D01*
X156826246Y-122485900D01*
X156613754Y-122485900D01*
X156403872Y-122519142D01*
X156403869Y-122519142D01*
X156201782Y-122584804D01*
X156012439Y-122681280D01*
X155958282Y-122720627D01*
X155958282Y-122720628D01*
X156590591Y-123352937D01*
X156527007Y-123369975D01*
X156412993Y-123435801D01*
X156319901Y-123528893D01*
X156254075Y-123642907D01*
X156237037Y-123706491D01*
X155604728Y-123074182D01*
X155604727Y-123074182D01*
X155565380Y-123128340D01*
X155565376Y-123128346D01*
X155560760Y-123137405D01*
X155512781Y-123188197D01*
X155444959Y-123204987D01*
X155378826Y-123182443D01*
X155339794Y-123137393D01*
X155335051Y-123128084D01*
X155335049Y-123128081D01*
X155335048Y-123128079D01*
X155210109Y-122956113D01*
X155059786Y-122805790D01*
X154887820Y-122680851D01*
X154698414Y-122584344D01*
X154698413Y-122584343D01*
X154698412Y-122584343D01*
X154496243Y-122518654D01*
X154496241Y-122518653D01*
X154496240Y-122518653D01*
X154334957Y-122493108D01*
X154286287Y-122485400D01*
X154073713Y-122485400D01*
X154025042Y-122493108D01*
X153863760Y-122518653D01*
X153661585Y-122584344D01*
X153472179Y-122680851D01*
X153300213Y-122805790D01*
X153149890Y-122956113D01*
X153024949Y-123128082D01*
X153020484Y-123136846D01*
X152972509Y-123187642D01*
X152904688Y-123204436D01*
X152838553Y-123181898D01*
X152799516Y-123136846D01*
X152795050Y-123128082D01*
X152670109Y-122956113D01*
X152519786Y-122805790D01*
X152347820Y-122680851D01*
X152158414Y-122584344D01*
X152158413Y-122584343D01*
X152158412Y-122584343D01*
X151956243Y-122518654D01*
X151956241Y-122518653D01*
X151956240Y-122518653D01*
X151794957Y-122493108D01*
X151746287Y-122485400D01*
X151533713Y-122485400D01*
X151485042Y-122493108D01*
X151323760Y-122518653D01*
X151121585Y-122584344D01*
X150932179Y-122680851D01*
X150760213Y-122805790D01*
X150609890Y-122956113D01*
X150484949Y-123128082D01*
X150480202Y-123137399D01*
X150432227Y-123188193D01*
X150364405Y-123204987D01*
X150298271Y-123182448D01*
X150259234Y-123137395D01*
X150254626Y-123128352D01*
X150215270Y-123074182D01*
X150215269Y-123074182D01*
X149582962Y-123706490D01*
X149565925Y-123642907D01*
X149500099Y-123528893D01*
X149407007Y-123435801D01*
X149292993Y-123369975D01*
X149229409Y-123352937D01*
X149861716Y-122720628D01*
X149807550Y-122681275D01*
X149618217Y-122584804D01*
X149416129Y-122519142D01*
X149206246Y-122485900D01*
X148993754Y-122485900D01*
X148783872Y-122519142D01*
X148783869Y-122519142D01*
X148581782Y-122584804D01*
X148392439Y-122681280D01*
X148338282Y-122720627D01*
X148338282Y-122720628D01*
X148970591Y-123352937D01*
X148907007Y-123369975D01*
X148792993Y-123435801D01*
X148699901Y-123528893D01*
X148634075Y-123642907D01*
X148617037Y-123706491D01*
X147984728Y-123074182D01*
X147984727Y-123074182D01*
X147945380Y-123128340D01*
X147945376Y-123128346D01*
X147940760Y-123137405D01*
X147892781Y-123188197D01*
X147824959Y-123204987D01*
X147758826Y-123182443D01*
X147719794Y-123137393D01*
X147715051Y-123128084D01*
X147715049Y-123128081D01*
X147715048Y-123128079D01*
X147590109Y-122956113D01*
X147439786Y-122805790D01*
X147267820Y-122680851D01*
X147078414Y-122584344D01*
X147078413Y-122584343D01*
X147078412Y-122584343D01*
X146876243Y-122518654D01*
X146876241Y-122518653D01*
X146876240Y-122518653D01*
X146714957Y-122493108D01*
X146666287Y-122485400D01*
X146453713Y-122485400D01*
X146405042Y-122493108D01*
X146243760Y-122518653D01*
X146041585Y-122584344D01*
X145852179Y-122680851D01*
X145680213Y-122805790D01*
X145529890Y-122956113D01*
X145404949Y-123128082D01*
X145400484Y-123136846D01*
X145352509Y-123187642D01*
X145284688Y-123204436D01*
X145218553Y-123181898D01*
X145179516Y-123136846D01*
X145175050Y-123128082D01*
X145050109Y-122956113D01*
X144899786Y-122805790D01*
X144727820Y-122680851D01*
X144538414Y-122584344D01*
X144538413Y-122584343D01*
X144538412Y-122584343D01*
X144336243Y-122518654D01*
X144336241Y-122518653D01*
X144336240Y-122518653D01*
X144174957Y-122493108D01*
X144126287Y-122485400D01*
X143913713Y-122485400D01*
X143865042Y-122493108D01*
X143703760Y-122518653D01*
X143501585Y-122584344D01*
X143312179Y-122680851D01*
X143140213Y-122805790D01*
X142989890Y-122956113D01*
X142864949Y-123128082D01*
X142860202Y-123137399D01*
X142812227Y-123188193D01*
X142744405Y-123204987D01*
X142678271Y-123182448D01*
X142639234Y-123137395D01*
X142634626Y-123128352D01*
X142595270Y-123074182D01*
X142595269Y-123074182D01*
X141962962Y-123706490D01*
X141945925Y-123642907D01*
X141880099Y-123528893D01*
X141787007Y-123435801D01*
X141672993Y-123369975D01*
X141609409Y-123352937D01*
X142241716Y-122720628D01*
X142187550Y-122681275D01*
X141998217Y-122584804D01*
X141796129Y-122519142D01*
X141586246Y-122485900D01*
X141373754Y-122485900D01*
X141163872Y-122519142D01*
X141163869Y-122519142D01*
X140961782Y-122584804D01*
X140772439Y-122681280D01*
X140718282Y-122720627D01*
X140718282Y-122720628D01*
X141350591Y-123352937D01*
X141287007Y-123369975D01*
X141172993Y-123435801D01*
X141079901Y-123528893D01*
X141014075Y-123642907D01*
X140997037Y-123706491D01*
X140364728Y-123074182D01*
X140364727Y-123074182D01*
X140325380Y-123128340D01*
X140325376Y-123128346D01*
X140320760Y-123137405D01*
X140272781Y-123188197D01*
X140204959Y-123204987D01*
X140138826Y-123182443D01*
X140099794Y-123137393D01*
X140095051Y-123128084D01*
X140095049Y-123128081D01*
X140095048Y-123128079D01*
X139970109Y-122956113D01*
X139819786Y-122805790D01*
X139647820Y-122680851D01*
X139458414Y-122584344D01*
X139458413Y-122584343D01*
X139458412Y-122584343D01*
X139256243Y-122518654D01*
X139256241Y-122518653D01*
X139256240Y-122518653D01*
X139094957Y-122493108D01*
X139046287Y-122485400D01*
X138833713Y-122485400D01*
X138785042Y-122493108D01*
X138623760Y-122518653D01*
X138421585Y-122584344D01*
X138232179Y-122680851D01*
X138060213Y-122805790D01*
X137909890Y-122956113D01*
X137784949Y-123128082D01*
X137780484Y-123136846D01*
X137732509Y-123187642D01*
X137664688Y-123204436D01*
X137598553Y-123181898D01*
X137559516Y-123136846D01*
X137555050Y-123128082D01*
X137430109Y-122956113D01*
X137279786Y-122805790D01*
X137107820Y-122680851D01*
X136918414Y-122584344D01*
X136918413Y-122584343D01*
X136918412Y-122584343D01*
X136716243Y-122518654D01*
X136716241Y-122518653D01*
X136716240Y-122518653D01*
X136554957Y-122493108D01*
X136506287Y-122485400D01*
X136293713Y-122485400D01*
X136245042Y-122493108D01*
X136083760Y-122518653D01*
X135881585Y-122584344D01*
X135692179Y-122680851D01*
X135520213Y-122805790D01*
X135369890Y-122956113D01*
X135244949Y-123128082D01*
X135240484Y-123136846D01*
X135192509Y-123187642D01*
X135124688Y-123204436D01*
X135058553Y-123181898D01*
X135019516Y-123136846D01*
X135015050Y-123128082D01*
X134890109Y-122956113D01*
X134739786Y-122805790D01*
X134567820Y-122680851D01*
X134378414Y-122584344D01*
X134378413Y-122584343D01*
X134378412Y-122584343D01*
X134176243Y-122518654D01*
X134176241Y-122518653D01*
X134176240Y-122518653D01*
X134014957Y-122493108D01*
X133966287Y-122485400D01*
X133753713Y-122485400D01*
X133705042Y-122493108D01*
X133543760Y-122518653D01*
X133341585Y-122584344D01*
X133152179Y-122680851D01*
X132980215Y-122805789D01*
X132866673Y-122919331D01*
X132805350Y-122952815D01*
X132735658Y-122947831D01*
X132679725Y-122905959D01*
X132662810Y-122874982D01*
X132613797Y-122743571D01*
X132613793Y-122743564D01*
X132527547Y-122628355D01*
X132527544Y-122628352D01*
X132412335Y-122542106D01*
X132412328Y-122542102D01*
X132277482Y-122491808D01*
X132277483Y-122491808D01*
X132217883Y-122485401D01*
X132217881Y-122485400D01*
X132217873Y-122485400D01*
X132217864Y-122485400D01*
X130422129Y-122485400D01*
X130422123Y-122485401D01*
X130362516Y-122491808D01*
X130227671Y-122542102D01*
X130227664Y-122542106D01*
X130112455Y-122628352D01*
X130112452Y-122628355D01*
X130026206Y-122743564D01*
X130026202Y-122743571D01*
X129975908Y-122878417D01*
X129969501Y-122938016D01*
X129969500Y-122938035D01*
X126240000Y-122938035D01*
X126240000Y-119504000D01*
X126259685Y-119436961D01*
X126312489Y-119391206D01*
X126364000Y-119380000D01*
X164216000Y-119380000D01*
X164283039Y-119399685D01*
G37*
%TD.AperFunction*%
%TD*%
%TA.AperFunction,Conductor*%
%TO.N,/CONN_GND*%
G36*
X141209141Y-63519685D02*
G01*
X141254896Y-63572489D01*
X141264840Y-63641647D01*
X141235815Y-63705203D01*
X141229783Y-63711681D01*
X138432795Y-66508668D01*
X138371472Y-66542153D01*
X138301780Y-66537169D01*
X138276224Y-66524089D01*
X138173890Y-66455712D01*
X138173872Y-66455702D01*
X138028201Y-66395364D01*
X138028189Y-66395361D01*
X137873545Y-66364600D01*
X137873542Y-66364600D01*
X137715858Y-66364600D01*
X137715855Y-66364600D01*
X137561210Y-66395361D01*
X137561198Y-66395364D01*
X137415527Y-66455702D01*
X137415514Y-66455709D01*
X137284411Y-66543310D01*
X137284407Y-66543313D01*
X137172913Y-66654807D01*
X137172910Y-66654811D01*
X137085309Y-66785914D01*
X137085302Y-66785927D01*
X137024964Y-66931598D01*
X137024961Y-66931610D01*
X136994200Y-67086253D01*
X136994200Y-67243946D01*
X137017545Y-67361309D01*
X137011318Y-67430900D01*
X136968455Y-67486078D01*
X136902565Y-67509322D01*
X136895928Y-67509500D01*
X133078533Y-67509500D01*
X133011494Y-67489815D01*
X132965739Y-67437011D01*
X132955795Y-67367853D01*
X132963972Y-67338047D01*
X132997337Y-67257497D01*
X133028100Y-67102842D01*
X133028100Y-66945158D01*
X133028100Y-66945155D01*
X133028099Y-66945153D01*
X133005826Y-66833180D01*
X132997337Y-66790503D01*
X132985470Y-66761853D01*
X132936997Y-66644827D01*
X132936990Y-66644814D01*
X132849389Y-66513711D01*
X132849386Y-66513707D01*
X132737892Y-66402213D01*
X132737888Y-66402210D01*
X132606785Y-66314609D01*
X132606772Y-66314602D01*
X132461101Y-66254264D01*
X132461089Y-66254261D01*
X132306445Y-66223500D01*
X132306442Y-66223500D01*
X132159595Y-66223500D01*
X132152447Y-66223294D01*
X132139769Y-66222561D01*
X132093257Y-66210099D01*
X131935143Y-66210099D01*
X131935139Y-66210100D01*
X128848457Y-66210100D01*
X128690342Y-66210100D01*
X128690341Y-66210100D01*
X128671312Y-66215198D01*
X128671313Y-66215199D01*
X128537614Y-66251023D01*
X128537609Y-66251026D01*
X128400690Y-66330075D01*
X128400682Y-66330081D01*
X128288878Y-66441886D01*
X122404522Y-72326241D01*
X122343199Y-72359726D01*
X122278523Y-72356491D01*
X122236245Y-72342754D01*
X122066038Y-72315796D01*
X122026287Y-72309500D01*
X121813713Y-72309500D01*
X121773962Y-72315796D01*
X121603760Y-72342753D01*
X121603757Y-72342754D01*
X121451219Y-72392317D01*
X121401585Y-72408444D01*
X121212179Y-72504951D01*
X121040213Y-72629890D01*
X120889890Y-72780213D01*
X120764951Y-72952179D01*
X120668444Y-73141585D01*
X120602753Y-73343760D01*
X120569500Y-73553713D01*
X120569500Y-73766286D01*
X120602735Y-73976127D01*
X120602754Y-73976243D01*
X120661559Y-74157226D01*
X120668444Y-74178414D01*
X120764951Y-74367820D01*
X120889890Y-74539786D01*
X121003430Y-74653326D01*
X121036915Y-74714649D01*
X121031931Y-74784341D01*
X120990059Y-74840274D01*
X120959083Y-74857189D01*
X120827669Y-74906203D01*
X120827664Y-74906206D01*
X120712455Y-74992452D01*
X120712452Y-74992455D01*
X120626206Y-75107664D01*
X120626202Y-75107671D01*
X120575908Y-75242517D01*
X120569501Y-75302116D01*
X120569500Y-75302135D01*
X120569500Y-77097870D01*
X120569501Y-77097876D01*
X120575908Y-77157483D01*
X120626202Y-77292328D01*
X120626206Y-77292335D01*
X120712452Y-77407544D01*
X120712455Y-77407547D01*
X120827664Y-77493793D01*
X120827671Y-77493797D01*
X120962517Y-77544091D01*
X120962516Y-77544091D01*
X120969444Y-77544835D01*
X121022127Y-77550500D01*
X122817872Y-77550499D01*
X122877483Y-77544091D01*
X123012331Y-77493796D01*
X123127546Y-77407546D01*
X123213796Y-77292331D01*
X123262810Y-77160916D01*
X123304681Y-77104984D01*
X123370145Y-77080566D01*
X123438418Y-77095417D01*
X123466673Y-77116569D01*
X123580213Y-77230109D01*
X123752179Y-77355048D01*
X123752181Y-77355049D01*
X123752184Y-77355051D01*
X123941588Y-77451557D01*
X124143757Y-77517246D01*
X124353713Y-77550500D01*
X124353714Y-77550500D01*
X124566286Y-77550500D01*
X124566287Y-77550500D01*
X124776243Y-77517246D01*
X124978412Y-77451557D01*
X125167816Y-77355051D01*
X125254138Y-77292335D01*
X125339786Y-77230109D01*
X125339788Y-77230106D01*
X125339792Y-77230104D01*
X125490104Y-77079792D01*
X125490106Y-77079788D01*
X125490109Y-77079786D01*
X125615048Y-76907820D01*
X125615047Y-76907820D01*
X125615051Y-76907816D01*
X125619514Y-76899054D01*
X125667488Y-76848259D01*
X125735308Y-76831463D01*
X125801444Y-76853999D01*
X125840486Y-76899056D01*
X125844951Y-76907820D01*
X125969890Y-77079786D01*
X126120213Y-77230109D01*
X126292179Y-77355048D01*
X126292181Y-77355049D01*
X126292184Y-77355051D01*
X126481588Y-77451557D01*
X126683757Y-77517246D01*
X126893713Y-77550500D01*
X126893714Y-77550500D01*
X127106286Y-77550500D01*
X127106287Y-77550500D01*
X127316243Y-77517246D01*
X127518412Y-77451557D01*
X127707816Y-77355051D01*
X127794138Y-77292335D01*
X127879786Y-77230109D01*
X127879788Y-77230106D01*
X127879792Y-77230104D01*
X128030104Y-77079792D01*
X128030106Y-77079788D01*
X128030109Y-77079786D01*
X128155048Y-76907820D01*
X128155047Y-76907820D01*
X128155051Y-76907816D01*
X128159514Y-76899054D01*
X128207488Y-76848259D01*
X128275308Y-76831463D01*
X128341444Y-76853999D01*
X128380486Y-76899056D01*
X128384951Y-76907820D01*
X128509890Y-77079786D01*
X128660213Y-77230109D01*
X128832179Y-77355048D01*
X128832181Y-77355049D01*
X128832184Y-77355051D01*
X129021588Y-77451557D01*
X129223757Y-77517246D01*
X129433713Y-77550500D01*
X129433714Y-77550500D01*
X129646286Y-77550500D01*
X129646287Y-77550500D01*
X129856243Y-77517246D01*
X130058412Y-77451557D01*
X130247816Y-77355051D01*
X130334138Y-77292335D01*
X130419786Y-77230109D01*
X130419788Y-77230106D01*
X130419792Y-77230104D01*
X130570104Y-77079792D01*
X130570106Y-77079788D01*
X130570109Y-77079786D01*
X130695048Y-76907820D01*
X130695047Y-76907820D01*
X130695051Y-76907816D01*
X130699514Y-76899054D01*
X130747488Y-76848259D01*
X130815308Y-76831463D01*
X130881444Y-76853999D01*
X130920486Y-76899056D01*
X130924951Y-76907820D01*
X131049890Y-77079786D01*
X131200213Y-77230109D01*
X131372179Y-77355048D01*
X131372181Y-77355049D01*
X131372184Y-77355051D01*
X131561588Y-77451557D01*
X131763757Y-77517246D01*
X131973713Y-77550500D01*
X131973714Y-77550500D01*
X132186286Y-77550500D01*
X132186287Y-77550500D01*
X132396243Y-77517246D01*
X132598412Y-77451557D01*
X132787816Y-77355051D01*
X132874138Y-77292335D01*
X132959786Y-77230109D01*
X132959788Y-77230106D01*
X132959792Y-77230104D01*
X133110104Y-77079792D01*
X133110106Y-77079788D01*
X133110109Y-77079786D01*
X133235048Y-76907820D01*
X133235047Y-76907820D01*
X133235051Y-76907816D01*
X133239514Y-76899054D01*
X133287488Y-76848259D01*
X133355308Y-76831463D01*
X133421444Y-76853999D01*
X133460486Y-76899056D01*
X133464951Y-76907820D01*
X133589890Y-77079786D01*
X133740213Y-77230109D01*
X133912179Y-77355048D01*
X133912181Y-77355049D01*
X133912184Y-77355051D01*
X134101588Y-77451557D01*
X134303757Y-77517246D01*
X134513713Y-77550500D01*
X134513714Y-77550500D01*
X134726286Y-77550500D01*
X134726287Y-77550500D01*
X134936243Y-77517246D01*
X135138412Y-77451557D01*
X135327816Y-77355051D01*
X135414138Y-77292335D01*
X135499786Y-77230109D01*
X135499788Y-77230106D01*
X135499792Y-77230104D01*
X135650104Y-77079792D01*
X135650106Y-77079788D01*
X135650109Y-77079786D01*
X135775048Y-76907820D01*
X135775047Y-76907820D01*
X135775051Y-76907816D01*
X135779514Y-76899054D01*
X135827488Y-76848259D01*
X135895308Y-76831463D01*
X135961444Y-76853999D01*
X136000486Y-76899056D01*
X136004951Y-76907820D01*
X136129890Y-77079786D01*
X136280213Y-77230109D01*
X136452179Y-77355048D01*
X136452181Y-77355049D01*
X136452184Y-77355051D01*
X136641588Y-77451557D01*
X136843757Y-77517246D01*
X137053713Y-77550500D01*
X137053714Y-77550500D01*
X137266286Y-77550500D01*
X137266287Y-77550500D01*
X137476243Y-77517246D01*
X137678412Y-77451557D01*
X137867816Y-77355051D01*
X137954138Y-77292335D01*
X138039786Y-77230109D01*
X138039788Y-77230106D01*
X138039792Y-77230104D01*
X138190104Y-77079792D01*
X138190106Y-77079788D01*
X138190109Y-77079786D01*
X138315048Y-76907820D01*
X138315047Y-76907820D01*
X138315051Y-76907816D01*
X138319514Y-76899054D01*
X138367488Y-76848259D01*
X138435308Y-76831463D01*
X138501444Y-76853999D01*
X138540486Y-76899056D01*
X138544951Y-76907820D01*
X138669890Y-77079786D01*
X138820213Y-77230109D01*
X138992179Y-77355048D01*
X138992181Y-77355049D01*
X138992184Y-77355051D01*
X139181588Y-77451557D01*
X139383757Y-77517246D01*
X139593713Y-77550500D01*
X139593714Y-77550500D01*
X139806286Y-77550500D01*
X139806287Y-77550500D01*
X140016243Y-77517246D01*
X140218412Y-77451557D01*
X140407816Y-77355051D01*
X140494138Y-77292335D01*
X140579786Y-77230109D01*
X140579788Y-77230106D01*
X140579792Y-77230104D01*
X140730104Y-77079792D01*
X140730106Y-77079788D01*
X140730109Y-77079786D01*
X140855048Y-76907820D01*
X140855047Y-76907820D01*
X140855051Y-76907816D01*
X140859514Y-76899054D01*
X140907488Y-76848259D01*
X140975308Y-76831463D01*
X141041444Y-76853999D01*
X141080486Y-76899056D01*
X141084951Y-76907820D01*
X141209890Y-77079786D01*
X141360213Y-77230109D01*
X141532179Y-77355048D01*
X141532181Y-77355049D01*
X141532184Y-77355051D01*
X141721588Y-77451557D01*
X141923757Y-77517246D01*
X142133713Y-77550500D01*
X142133714Y-77550500D01*
X142346286Y-77550500D01*
X142346287Y-77550500D01*
X142556243Y-77517246D01*
X142758412Y-77451557D01*
X142947816Y-77355051D01*
X143034138Y-77292335D01*
X143119786Y-77230109D01*
X143119788Y-77230106D01*
X143119792Y-77230104D01*
X143270104Y-77079792D01*
X143270106Y-77079788D01*
X143270109Y-77079786D01*
X143395048Y-76907820D01*
X143395047Y-76907820D01*
X143395051Y-76907816D01*
X143399514Y-76899054D01*
X143447488Y-76848259D01*
X143515308Y-76831463D01*
X143581444Y-76853999D01*
X143620486Y-76899056D01*
X143624951Y-76907820D01*
X143749890Y-77079786D01*
X143900213Y-77230109D01*
X144072179Y-77355048D01*
X144072181Y-77355049D01*
X144072184Y-77355051D01*
X144261588Y-77451557D01*
X144463757Y-77517246D01*
X144673713Y-77550500D01*
X144673714Y-77550500D01*
X144886286Y-77550500D01*
X144886287Y-77550500D01*
X145096243Y-77517246D01*
X145298412Y-77451557D01*
X145487816Y-77355051D01*
X145574138Y-77292335D01*
X145659786Y-77230109D01*
X145659788Y-77230106D01*
X145659792Y-77230104D01*
X145810104Y-77079792D01*
X145810106Y-77079788D01*
X145810109Y-77079786D01*
X145935048Y-76907820D01*
X145935047Y-76907820D01*
X145935051Y-76907816D01*
X145939514Y-76899054D01*
X145987488Y-76848259D01*
X146055308Y-76831463D01*
X146121444Y-76853999D01*
X146160486Y-76899056D01*
X146164951Y-76907820D01*
X146289890Y-77079786D01*
X146440213Y-77230109D01*
X146612179Y-77355048D01*
X146612181Y-77355049D01*
X146612184Y-77355051D01*
X146801588Y-77451557D01*
X147003757Y-77517246D01*
X147213713Y-77550500D01*
X147213714Y-77550500D01*
X147426286Y-77550500D01*
X147426287Y-77550500D01*
X147636243Y-77517246D01*
X147838412Y-77451557D01*
X148027816Y-77355051D01*
X148114138Y-77292335D01*
X148199786Y-77230109D01*
X148199788Y-77230106D01*
X148199792Y-77230104D01*
X148350104Y-77079792D01*
X148350106Y-77079788D01*
X148350109Y-77079786D01*
X148475048Y-76907820D01*
X148475047Y-76907820D01*
X148475051Y-76907816D01*
X148479514Y-76899054D01*
X148527488Y-76848259D01*
X148595308Y-76831463D01*
X148661444Y-76853999D01*
X148700486Y-76899056D01*
X148704951Y-76907820D01*
X148829890Y-77079786D01*
X148980213Y-77230109D01*
X149152179Y-77355048D01*
X149152181Y-77355049D01*
X149152184Y-77355051D01*
X149341588Y-77451557D01*
X149543757Y-77517246D01*
X149753713Y-77550500D01*
X149753714Y-77550500D01*
X149966286Y-77550500D01*
X149966287Y-77550500D01*
X150176243Y-77517246D01*
X150378412Y-77451557D01*
X150567816Y-77355051D01*
X150654138Y-77292335D01*
X150739786Y-77230109D01*
X150739788Y-77230106D01*
X150739792Y-77230104D01*
X150890104Y-77079792D01*
X150890106Y-77079788D01*
X150890109Y-77079786D01*
X150975890Y-76961717D01*
X151015051Y-76907816D01*
X151019793Y-76898508D01*
X151067763Y-76847711D01*
X151135583Y-76830911D01*
X151201719Y-76853445D01*
X151240763Y-76898500D01*
X151245373Y-76907547D01*
X151284728Y-76961716D01*
X151917037Y-76329408D01*
X151934075Y-76392993D01*
X151999901Y-76507007D01*
X152092993Y-76600099D01*
X152207007Y-76665925D01*
X152270590Y-76682962D01*
X151638282Y-77315269D01*
X151638282Y-77315270D01*
X151692449Y-77354624D01*
X151881782Y-77451095D01*
X152083870Y-77516757D01*
X152293754Y-77550000D01*
X152506246Y-77550000D01*
X152716127Y-77516757D01*
X152716130Y-77516757D01*
X152918217Y-77451095D01*
X153107554Y-77354622D01*
X153161716Y-77315270D01*
X153161717Y-77315270D01*
X152529408Y-76682962D01*
X152592993Y-76665925D01*
X152707007Y-76600099D01*
X152800099Y-76507007D01*
X152865925Y-76392993D01*
X152882962Y-76329409D01*
X153515270Y-76961717D01*
X153515270Y-76961716D01*
X153554622Y-76907555D01*
X153559232Y-76898507D01*
X153607205Y-76847709D01*
X153675025Y-76830912D01*
X153741161Y-76853447D01*
X153780204Y-76898504D01*
X153784949Y-76907817D01*
X153909890Y-77079786D01*
X154060213Y-77230109D01*
X154232179Y-77355048D01*
X154232181Y-77355049D01*
X154232184Y-77355051D01*
X154421588Y-77451557D01*
X154623757Y-77517246D01*
X154833713Y-77550500D01*
X154833714Y-77550500D01*
X155046286Y-77550500D01*
X155046287Y-77550500D01*
X155256243Y-77517246D01*
X155458412Y-77451557D01*
X155647816Y-77355051D01*
X155734138Y-77292335D01*
X155819786Y-77230109D01*
X155819788Y-77230106D01*
X155819792Y-77230104D01*
X155970104Y-77079792D01*
X155970106Y-77079788D01*
X155970109Y-77079786D01*
X156095048Y-76907820D01*
X156095047Y-76907820D01*
X156095051Y-76907816D01*
X156099514Y-76899054D01*
X156147488Y-76848259D01*
X156215308Y-76831463D01*
X156281444Y-76853999D01*
X156320486Y-76899056D01*
X156324951Y-76907820D01*
X156449890Y-77079786D01*
X156600213Y-77230109D01*
X156772179Y-77355048D01*
X156772181Y-77355049D01*
X156772184Y-77355051D01*
X156961588Y-77451557D01*
X157163757Y-77517246D01*
X157373713Y-77550500D01*
X157373714Y-77550500D01*
X157586286Y-77550500D01*
X157586287Y-77550500D01*
X157796243Y-77517246D01*
X157998412Y-77451557D01*
X158187816Y-77355051D01*
X158274138Y-77292335D01*
X158359786Y-77230109D01*
X158359788Y-77230106D01*
X158359792Y-77230104D01*
X158510104Y-77079792D01*
X158510106Y-77079788D01*
X158510109Y-77079786D01*
X158595890Y-76961717D01*
X158635051Y-76907816D01*
X158639793Y-76898508D01*
X158687763Y-76847711D01*
X158755583Y-76830911D01*
X158821719Y-76853445D01*
X158860763Y-76898500D01*
X158865373Y-76907547D01*
X158904728Y-76961716D01*
X159537037Y-76329408D01*
X159554075Y-76392993D01*
X159619901Y-76507007D01*
X159712993Y-76600099D01*
X159827007Y-76665925D01*
X159890590Y-76682962D01*
X159258282Y-77315269D01*
X159258282Y-77315270D01*
X159312449Y-77354624D01*
X159501782Y-77451095D01*
X159703870Y-77516757D01*
X159913754Y-77550000D01*
X160126246Y-77550000D01*
X160336127Y-77516757D01*
X160336130Y-77516757D01*
X160538217Y-77451095D01*
X160727554Y-77354622D01*
X160781716Y-77315270D01*
X160781717Y-77315270D01*
X160149408Y-76682962D01*
X160212993Y-76665925D01*
X160327007Y-76600099D01*
X160420099Y-76507007D01*
X160485925Y-76392993D01*
X160502962Y-76329408D01*
X161135270Y-76961717D01*
X161135270Y-76961716D01*
X161174622Y-76907555D01*
X161179232Y-76898507D01*
X161227205Y-76847709D01*
X161295025Y-76830912D01*
X161361161Y-76853447D01*
X161400204Y-76898504D01*
X161404949Y-76907817D01*
X161529890Y-77079786D01*
X161680213Y-77230109D01*
X161852179Y-77355048D01*
X161852181Y-77355049D01*
X161852184Y-77355051D01*
X162041588Y-77451557D01*
X162243757Y-77517246D01*
X162453713Y-77550500D01*
X162453714Y-77550500D01*
X162666286Y-77550500D01*
X162666287Y-77550500D01*
X162876243Y-77517246D01*
X163078412Y-77451557D01*
X163267816Y-77355051D01*
X163354138Y-77292335D01*
X163439786Y-77230109D01*
X163439788Y-77230106D01*
X163439792Y-77230104D01*
X163590104Y-77079792D01*
X163590106Y-77079788D01*
X163590109Y-77079786D01*
X163715048Y-76907820D01*
X163715047Y-76907820D01*
X163715051Y-76907816D01*
X163719514Y-76899054D01*
X163767488Y-76848259D01*
X163835308Y-76831463D01*
X163901444Y-76853999D01*
X163940486Y-76899056D01*
X163944951Y-76907820D01*
X164069890Y-77079786D01*
X164220213Y-77230109D01*
X164392179Y-77355048D01*
X164392181Y-77355049D01*
X164392184Y-77355051D01*
X164581588Y-77451557D01*
X164783757Y-77517246D01*
X164993713Y-77550500D01*
X164993714Y-77550500D01*
X165206286Y-77550500D01*
X165206287Y-77550500D01*
X165416243Y-77517246D01*
X165618412Y-77451557D01*
X165807816Y-77355051D01*
X165894138Y-77292335D01*
X165979786Y-77230109D01*
X165979788Y-77230106D01*
X165979792Y-77230104D01*
X166130104Y-77079792D01*
X166130106Y-77079788D01*
X166130109Y-77079786D01*
X166215890Y-76961717D01*
X166255051Y-76907816D01*
X166259793Y-76898508D01*
X166307763Y-76847711D01*
X166375583Y-76830911D01*
X166441719Y-76853445D01*
X166480763Y-76898500D01*
X166485373Y-76907547D01*
X166524728Y-76961716D01*
X167157037Y-76329408D01*
X167174075Y-76392993D01*
X167239901Y-76507007D01*
X167332993Y-76600099D01*
X167447007Y-76665925D01*
X167510590Y-76682962D01*
X166878282Y-77315269D01*
X166878282Y-77315270D01*
X166932449Y-77354624D01*
X167121782Y-77451095D01*
X167323870Y-77516757D01*
X167533754Y-77550000D01*
X167746246Y-77550000D01*
X167956127Y-77516757D01*
X167956130Y-77516757D01*
X168158217Y-77451095D01*
X168347554Y-77354622D01*
X168401716Y-77315270D01*
X168401717Y-77315270D01*
X167769408Y-76682962D01*
X167832993Y-76665925D01*
X167947007Y-76600099D01*
X168040099Y-76507007D01*
X168105925Y-76392993D01*
X168122962Y-76329409D01*
X168755270Y-76961717D01*
X168755270Y-76961716D01*
X168794622Y-76907554D01*
X168891095Y-76718217D01*
X168956757Y-76516130D01*
X168956757Y-76516127D01*
X168990000Y-76306246D01*
X168990000Y-76093753D01*
X168956757Y-75883872D01*
X168956757Y-75883869D01*
X168891095Y-75681782D01*
X168794624Y-75492449D01*
X168755270Y-75438282D01*
X168755269Y-75438282D01*
X168122962Y-76070590D01*
X168105925Y-76007007D01*
X168040099Y-75892993D01*
X167947007Y-75799901D01*
X167832993Y-75734075D01*
X167769409Y-75717037D01*
X168401716Y-75084728D01*
X168347550Y-75045375D01*
X168337954Y-75040486D01*
X168287157Y-74992512D01*
X168270361Y-74924692D01*
X168292897Y-74858556D01*
X168337954Y-74819514D01*
X168347554Y-74814622D01*
X168401716Y-74775270D01*
X168401717Y-74775270D01*
X167769408Y-74142962D01*
X167832993Y-74125925D01*
X167947007Y-74060099D01*
X168040099Y-73967007D01*
X168105925Y-73852993D01*
X168122962Y-73789409D01*
X168755270Y-74421717D01*
X168755270Y-74421716D01*
X168794622Y-74367554D01*
X168891095Y-74178217D01*
X168956757Y-73976130D01*
X168956757Y-73976127D01*
X168990000Y-73766246D01*
X168990000Y-73553753D01*
X168956757Y-73343872D01*
X168956757Y-73343869D01*
X168891095Y-73141782D01*
X168794624Y-72952449D01*
X168755270Y-72898282D01*
X168755269Y-72898282D01*
X168122962Y-73530590D01*
X168105925Y-73467007D01*
X168040099Y-73352993D01*
X167947007Y-73259901D01*
X167832993Y-73194075D01*
X167769409Y-73177037D01*
X168401716Y-72544728D01*
X168347550Y-72505375D01*
X168158217Y-72408904D01*
X167956129Y-72343242D01*
X167746246Y-72310000D01*
X167533754Y-72310000D01*
X167323872Y-72343242D01*
X167323869Y-72343242D01*
X167121782Y-72408904D01*
X166932439Y-72505380D01*
X166878282Y-72544727D01*
X166878282Y-72544728D01*
X167510591Y-73177037D01*
X167447007Y-73194075D01*
X167332993Y-73259901D01*
X167239901Y-73352993D01*
X167174075Y-73467007D01*
X167157037Y-73530591D01*
X166524728Y-72898282D01*
X166524727Y-72898282D01*
X166485380Y-72952440D01*
X166485376Y-72952446D01*
X166480760Y-72961505D01*
X166432781Y-73012297D01*
X166364959Y-73029087D01*
X166298826Y-73006543D01*
X166259794Y-72961493D01*
X166255051Y-72952184D01*
X166255049Y-72952181D01*
X166255048Y-72952179D01*
X166130109Y-72780213D01*
X165979786Y-72629890D01*
X165807820Y-72504951D01*
X165618414Y-72408444D01*
X165618413Y-72408443D01*
X165618412Y-72408443D01*
X165416243Y-72342754D01*
X165416241Y-72342753D01*
X165416240Y-72342753D01*
X165246038Y-72315796D01*
X165206287Y-72309500D01*
X164993713Y-72309500D01*
X164965006Y-72314046D01*
X164783757Y-72342753D01*
X164741473Y-72356492D01*
X164671632Y-72358486D01*
X164615476Y-72326241D01*
X160068290Y-67779055D01*
X160068288Y-67779052D01*
X159949417Y-67660181D01*
X159949409Y-67660175D01*
X159845987Y-67600465D01*
X159845984Y-67600464D01*
X159812487Y-67581124D01*
X159812486Y-67581123D01*
X159812485Y-67581123D01*
X159659757Y-67540199D01*
X159501643Y-67540199D01*
X159494047Y-67540199D01*
X159494031Y-67540200D01*
X148537550Y-67540200D01*
X148470511Y-67520515D01*
X148424756Y-67467711D01*
X148414812Y-67398553D01*
X148434448Y-67347309D01*
X148519590Y-67219885D01*
X148519590Y-67219884D01*
X148519594Y-67219879D01*
X148579937Y-67074197D01*
X148610700Y-66919542D01*
X148610700Y-66761858D01*
X148610700Y-66761855D01*
X148610699Y-66761853D01*
X148579937Y-66607203D01*
X148572767Y-66589893D01*
X148519597Y-66461527D01*
X148519590Y-66461514D01*
X148431989Y-66330411D01*
X148431986Y-66330407D01*
X148320492Y-66218913D01*
X148320488Y-66218910D01*
X148189385Y-66131309D01*
X148189372Y-66131302D01*
X148043701Y-66070964D01*
X148043689Y-66070961D01*
X147889045Y-66040200D01*
X147889042Y-66040200D01*
X147731358Y-66040200D01*
X147731355Y-66040200D01*
X147576710Y-66070961D01*
X147576698Y-66070964D01*
X147431027Y-66131302D01*
X147431014Y-66131309D01*
X147299911Y-66218910D01*
X147299907Y-66218913D01*
X147188413Y-66330407D01*
X147188410Y-66330411D01*
X147100809Y-66461514D01*
X147100802Y-66461527D01*
X147040464Y-66607198D01*
X147040461Y-66607208D01*
X147009562Y-66762548D01*
X147000798Y-66779301D01*
X146996781Y-66797775D01*
X146978035Y-66822818D01*
X146977177Y-66824459D01*
X146975632Y-66826031D01*
X146968490Y-66833174D01*
X146968487Y-66833175D01*
X146968486Y-66833177D01*
X146968484Y-66833180D01*
X146856681Y-66944982D01*
X146856675Y-66944990D01*
X146819187Y-67009923D01*
X146819187Y-67009924D01*
X146777623Y-67081915D01*
X146736699Y-67234643D01*
X146736699Y-67234645D01*
X146736699Y-67402746D01*
X146736700Y-67402759D01*
X146736700Y-67559103D01*
X146717015Y-67626142D01*
X146664211Y-67671897D01*
X146595053Y-67681841D01*
X146531497Y-67652816D01*
X146525019Y-67646784D01*
X146304919Y-67426684D01*
X146271434Y-67365361D01*
X146268600Y-67339003D01*
X146268600Y-64777665D01*
X146288285Y-64710626D01*
X146289498Y-64708774D01*
X146377490Y-64577085D01*
X146377490Y-64577084D01*
X146377494Y-64577079D01*
X146437837Y-64431397D01*
X146468600Y-64276742D01*
X146468600Y-64119058D01*
X146468600Y-64119055D01*
X146468599Y-64119053D01*
X146462307Y-64087421D01*
X146437837Y-63964403D01*
X146434484Y-63956307D01*
X146377497Y-63818727D01*
X146377490Y-63818714D01*
X146293417Y-63692891D01*
X146272539Y-63626214D01*
X146291023Y-63558834D01*
X146343002Y-63512143D01*
X146396519Y-63500000D01*
X170056000Y-63500000D01*
X170123039Y-63519685D01*
X170168794Y-63572489D01*
X170180000Y-63624000D01*
X170180000Y-81156000D01*
X170160315Y-81223039D01*
X170107511Y-81268794D01*
X170056000Y-81280000D01*
X119504000Y-81280000D01*
X119436961Y-81260315D01*
X119391206Y-81207511D01*
X119380000Y-81156000D01*
X119380000Y-63624000D01*
X119399685Y-63556961D01*
X119452489Y-63511206D01*
X119504000Y-63500000D01*
X141142102Y-63500000D01*
X141209141Y-63519685D01*
G37*
%TD.AperFunction*%
%TA.AperFunction,Conductor*%
G36*
X150975270Y-74421717D02*
G01*
X150975270Y-74421716D01*
X151014622Y-74367555D01*
X151019232Y-74358507D01*
X151067205Y-74307709D01*
X151135025Y-74290912D01*
X151201161Y-74313447D01*
X151240204Y-74358504D01*
X151244949Y-74367817D01*
X151369890Y-74539786D01*
X151520213Y-74690109D01*
X151692179Y-74815048D01*
X151692181Y-74815049D01*
X151692184Y-74815051D01*
X151701493Y-74819794D01*
X151752290Y-74867766D01*
X151769087Y-74935587D01*
X151746552Y-75001722D01*
X151701505Y-75040760D01*
X151692446Y-75045376D01*
X151692440Y-75045380D01*
X151638282Y-75084727D01*
X151638282Y-75084728D01*
X152270591Y-75717037D01*
X152207007Y-75734075D01*
X152092993Y-75799901D01*
X151999901Y-75892993D01*
X151934075Y-76007007D01*
X151917037Y-76070591D01*
X151284728Y-75438282D01*
X151284727Y-75438282D01*
X151245380Y-75492440D01*
X151245376Y-75492446D01*
X151240760Y-75501505D01*
X151192781Y-75552297D01*
X151124959Y-75569087D01*
X151058826Y-75546543D01*
X151019794Y-75501493D01*
X151015051Y-75492184D01*
X151015049Y-75492181D01*
X151015048Y-75492179D01*
X150890109Y-75320213D01*
X150739786Y-75169890D01*
X150567817Y-75044949D01*
X150558504Y-75040204D01*
X150507707Y-74992230D01*
X150490912Y-74924409D01*
X150513449Y-74858274D01*
X150558507Y-74819232D01*
X150567555Y-74814622D01*
X150621716Y-74775270D01*
X150621717Y-74775270D01*
X149989408Y-74142962D01*
X150052993Y-74125925D01*
X150167007Y-74060099D01*
X150260099Y-73967007D01*
X150325925Y-73852993D01*
X150342962Y-73789408D01*
X150975270Y-74421717D01*
G37*
%TD.AperFunction*%
%TA.AperFunction,Conductor*%
G36*
X158127636Y-73954082D02*
G01*
X158133613Y-73963436D01*
X158139611Y-73967976D01*
X158149165Y-73987776D01*
X158156363Y-73999041D01*
X158158289Y-74004291D01*
X158190523Y-74124585D01*
X158217885Y-74171977D01*
X158223225Y-74181226D01*
X158269579Y-74261514D01*
X158269581Y-74261517D01*
X158388449Y-74380385D01*
X158388455Y-74380390D01*
X159302439Y-75294374D01*
X159302449Y-75294385D01*
X159306779Y-75298715D01*
X159306780Y-75298716D01*
X159418584Y-75410520D01*
X159500850Y-75458016D01*
X159555515Y-75489577D01*
X159676229Y-75521922D01*
X159681839Y-75524024D01*
X159698732Y-75536709D01*
X159726015Y-75552461D01*
X159890591Y-75717037D01*
X159827007Y-75734075D01*
X159712993Y-75799901D01*
X159619901Y-75892993D01*
X159554075Y-76007007D01*
X159537037Y-76070591D01*
X158904728Y-75438282D01*
X158904727Y-75438282D01*
X158865380Y-75492440D01*
X158865376Y-75492446D01*
X158860760Y-75501505D01*
X158812781Y-75552297D01*
X158744959Y-75569087D01*
X158678826Y-75546543D01*
X158639794Y-75501493D01*
X158635051Y-75492184D01*
X158635049Y-75492181D01*
X158635048Y-75492179D01*
X158510109Y-75320213D01*
X158359786Y-75169890D01*
X158187817Y-75044949D01*
X158178504Y-75040204D01*
X158127707Y-74992230D01*
X158110912Y-74924409D01*
X158133449Y-74858274D01*
X158178507Y-74819232D01*
X158187555Y-74814622D01*
X158241716Y-74775270D01*
X158241717Y-74775270D01*
X157609408Y-74142962D01*
X157672993Y-74125925D01*
X157787007Y-74060099D01*
X157880099Y-73967007D01*
X157945925Y-73852993D01*
X157962962Y-73789408D01*
X158127636Y-73954082D01*
G37*
%TD.AperFunction*%
%TA.AperFunction,Conductor*%
G36*
X167174075Y-73852993D02*
G01*
X167239901Y-73967007D01*
X167332993Y-74060099D01*
X167447007Y-74125925D01*
X167510591Y-74142962D01*
X166909971Y-74743581D01*
X166988711Y-74860895D01*
X166989920Y-74864729D01*
X166992844Y-74867491D01*
X167000343Y-74897778D01*
X167009727Y-74927529D01*
X167008671Y-74931408D01*
X167009638Y-74935312D01*
X166999573Y-74964844D01*
X166991383Y-74994947D01*
X166988397Y-74997640D01*
X166987100Y-75001447D01*
X166942051Y-75040483D01*
X166932440Y-75045380D01*
X166878282Y-75084727D01*
X166878282Y-75084728D01*
X167510591Y-75717037D01*
X167447007Y-75734075D01*
X167332993Y-75799901D01*
X167239901Y-75892993D01*
X167174075Y-76007007D01*
X167157037Y-76070591D01*
X166524728Y-75438282D01*
X166524727Y-75438282D01*
X166485380Y-75492440D01*
X166485376Y-75492446D01*
X166480760Y-75501505D01*
X166432781Y-75552297D01*
X166364959Y-75569087D01*
X166298826Y-75546543D01*
X166259794Y-75501493D01*
X166255051Y-75492184D01*
X166255049Y-75492181D01*
X166255048Y-75492179D01*
X166130109Y-75320213D01*
X165979786Y-75169890D01*
X165807820Y-75044951D01*
X165799600Y-75040763D01*
X165799054Y-75040485D01*
X165748259Y-74992512D01*
X165731463Y-74924692D01*
X165753999Y-74858556D01*
X165799054Y-74819515D01*
X165807816Y-74815051D01*
X165928801Y-74727151D01*
X165979786Y-74690109D01*
X165979788Y-74690106D01*
X165979792Y-74690104D01*
X166130104Y-74539792D01*
X166130106Y-74539788D01*
X166130109Y-74539786D01*
X166215890Y-74421717D01*
X166255051Y-74367816D01*
X166259793Y-74358508D01*
X166307763Y-74307711D01*
X166375583Y-74290911D01*
X166441719Y-74313445D01*
X166480763Y-74358500D01*
X166485373Y-74367547D01*
X166524728Y-74421716D01*
X167157037Y-73789408D01*
X167174075Y-73852993D01*
G37*
%TD.AperFunction*%
%TA.AperFunction,Conductor*%
G36*
X153741444Y-74313999D02*
G01*
X153780486Y-74359056D01*
X153784951Y-74367820D01*
X153909890Y-74539786D01*
X154060213Y-74690109D01*
X154232182Y-74815050D01*
X154240946Y-74819516D01*
X154291742Y-74867491D01*
X154308536Y-74935312D01*
X154285998Y-75001447D01*
X154240946Y-75040484D01*
X154232182Y-75044949D01*
X154060213Y-75169890D01*
X153909890Y-75320213D01*
X153784949Y-75492182D01*
X153780202Y-75501499D01*
X153732227Y-75552293D01*
X153664405Y-75569087D01*
X153598271Y-75546548D01*
X153559234Y-75501495D01*
X153554626Y-75492452D01*
X153515270Y-75438282D01*
X153515269Y-75438282D01*
X152882962Y-76070590D01*
X152865925Y-76007007D01*
X152800099Y-75892993D01*
X152707007Y-75799901D01*
X152592993Y-75734075D01*
X152529409Y-75717037D01*
X153161716Y-75084728D01*
X153107547Y-75045373D01*
X153107547Y-75045372D01*
X153098500Y-75040763D01*
X153047706Y-74992788D01*
X153030912Y-74924966D01*
X153053451Y-74858832D01*
X153098508Y-74819793D01*
X153107816Y-74815051D01*
X153228801Y-74727151D01*
X153279786Y-74690109D01*
X153279788Y-74690106D01*
X153279792Y-74690104D01*
X153430104Y-74539792D01*
X153430106Y-74539788D01*
X153430109Y-74539786D01*
X153539086Y-74389789D01*
X153555051Y-74367816D01*
X153559514Y-74359054D01*
X153607488Y-74308259D01*
X153675308Y-74291463D01*
X153741444Y-74313999D01*
G37*
%TD.AperFunction*%
%TA.AperFunction,Conductor*%
G36*
X128115270Y-74421717D02*
G01*
X128115270Y-74421716D01*
X128154622Y-74367555D01*
X128159232Y-74358507D01*
X128207205Y-74307709D01*
X128275025Y-74290912D01*
X128341161Y-74313447D01*
X128380204Y-74358504D01*
X128384949Y-74367817D01*
X128509890Y-74539786D01*
X128660213Y-74690109D01*
X128832182Y-74815050D01*
X128840946Y-74819516D01*
X128891742Y-74867491D01*
X128908536Y-74935312D01*
X128885998Y-75001447D01*
X128840946Y-75040484D01*
X128832182Y-75044949D01*
X128660213Y-75169890D01*
X128509890Y-75320213D01*
X128384949Y-75492182D01*
X128380484Y-75500946D01*
X128332509Y-75551742D01*
X128264688Y-75568536D01*
X128198553Y-75545998D01*
X128159516Y-75500946D01*
X128155050Y-75492182D01*
X128030109Y-75320213D01*
X127879786Y-75169890D01*
X127707817Y-75044949D01*
X127698504Y-75040204D01*
X127647707Y-74992230D01*
X127630912Y-74924409D01*
X127653449Y-74858274D01*
X127698507Y-74819232D01*
X127707555Y-74814622D01*
X127761716Y-74775270D01*
X127761717Y-74775270D01*
X127129409Y-74142962D01*
X127192993Y-74125925D01*
X127307007Y-74060099D01*
X127400099Y-73967007D01*
X127465925Y-73852993D01*
X127482962Y-73789408D01*
X128115270Y-74421717D01*
G37*
%TD.AperFunction*%
%TA.AperFunction,Conductor*%
G36*
X130881444Y-74313999D02*
G01*
X130920486Y-74359056D01*
X130924951Y-74367820D01*
X131049890Y-74539786D01*
X131200213Y-74690109D01*
X131372182Y-74815050D01*
X131380946Y-74819516D01*
X131431742Y-74867491D01*
X131448536Y-74935312D01*
X131425998Y-75001447D01*
X131380946Y-75040484D01*
X131372182Y-75044949D01*
X131200213Y-75169890D01*
X131049890Y-75320213D01*
X130924949Y-75492182D01*
X130920484Y-75500946D01*
X130872509Y-75551742D01*
X130804688Y-75568536D01*
X130738553Y-75545998D01*
X130699516Y-75500946D01*
X130695050Y-75492182D01*
X130570109Y-75320213D01*
X130419786Y-75169890D01*
X130247820Y-75044951D01*
X130239600Y-75040763D01*
X130239054Y-75040485D01*
X130188259Y-74992512D01*
X130171463Y-74924692D01*
X130193999Y-74858556D01*
X130239054Y-74819515D01*
X130247816Y-74815051D01*
X130368801Y-74727151D01*
X130419786Y-74690109D01*
X130419788Y-74690106D01*
X130419792Y-74690104D01*
X130570104Y-74539792D01*
X130570106Y-74539788D01*
X130570109Y-74539786D01*
X130679086Y-74389789D01*
X130695051Y-74367816D01*
X130699514Y-74359054D01*
X130747488Y-74308259D01*
X130815308Y-74291463D01*
X130881444Y-74313999D01*
G37*
%TD.AperFunction*%
%TA.AperFunction,Conductor*%
G36*
X134154075Y-73852993D02*
G01*
X134219901Y-73967007D01*
X134312993Y-74060099D01*
X134427007Y-74125925D01*
X134490590Y-74142962D01*
X133858282Y-74775269D01*
X133858282Y-74775270D01*
X133912452Y-74814626D01*
X133912451Y-74814626D01*
X133921495Y-74819234D01*
X133972292Y-74867208D01*
X133989087Y-74935029D01*
X133966550Y-75001164D01*
X133921499Y-75040202D01*
X133912182Y-75044949D01*
X133740213Y-75169890D01*
X133589890Y-75320213D01*
X133464949Y-75492182D01*
X133460484Y-75500946D01*
X133412509Y-75551742D01*
X133344688Y-75568536D01*
X133278553Y-75545998D01*
X133239516Y-75500946D01*
X133235050Y-75492182D01*
X133110109Y-75320213D01*
X132959786Y-75169890D01*
X132787820Y-75044951D01*
X132779600Y-75040763D01*
X132779054Y-75040485D01*
X132728259Y-74992512D01*
X132711463Y-74924692D01*
X132733999Y-74858556D01*
X132779054Y-74819515D01*
X132787816Y-74815051D01*
X132908801Y-74727151D01*
X132959786Y-74690109D01*
X132959788Y-74690106D01*
X132959792Y-74690104D01*
X133110104Y-74539792D01*
X133110106Y-74539788D01*
X133110109Y-74539786D01*
X133195890Y-74421717D01*
X133235051Y-74367816D01*
X133239793Y-74358508D01*
X133287763Y-74307711D01*
X133355583Y-74290911D01*
X133421719Y-74313445D01*
X133460763Y-74358500D01*
X133465373Y-74367547D01*
X133504728Y-74421716D01*
X134137037Y-73789408D01*
X134154075Y-73852993D01*
G37*
%TD.AperFunction*%
%TA.AperFunction,Conductor*%
G36*
X135470780Y-74157226D02*
G01*
X135504265Y-74218549D01*
X135507099Y-74244907D01*
X135507099Y-74251054D01*
X135507098Y-74251054D01*
X135548024Y-74403789D01*
X135548025Y-74403790D01*
X135567279Y-74437138D01*
X135567280Y-74437139D01*
X135627077Y-74540712D01*
X135627081Y-74540717D01*
X135745949Y-74659585D01*
X135745955Y-74659590D01*
X136166778Y-75080413D01*
X136166780Y-75080416D01*
X136171091Y-75084727D01*
X136180557Y-75094194D01*
X136194873Y-75120415D01*
X136214037Y-75155512D01*
X136214036Y-75155514D01*
X136214039Y-75155519D01*
X136211579Y-75189881D01*
X136209053Y-75225204D01*
X136209050Y-75225208D01*
X136209050Y-75225210D01*
X136209043Y-75225218D01*
X136180553Y-75269550D01*
X136129890Y-75320213D01*
X136004949Y-75492182D01*
X136000484Y-75500946D01*
X135952509Y-75551742D01*
X135884688Y-75568536D01*
X135818553Y-75545998D01*
X135779516Y-75500946D01*
X135775050Y-75492182D01*
X135650109Y-75320213D01*
X135499786Y-75169890D01*
X135327817Y-75044949D01*
X135318504Y-75040204D01*
X135267707Y-74992230D01*
X135250912Y-74924409D01*
X135273449Y-74858274D01*
X135318507Y-74819232D01*
X135327555Y-74814622D01*
X135381716Y-74775270D01*
X135381717Y-74775270D01*
X134749408Y-74142962D01*
X134812993Y-74125925D01*
X134927007Y-74060099D01*
X135020099Y-73967007D01*
X135085925Y-73852993D01*
X135102962Y-73789408D01*
X135470780Y-74157226D01*
G37*
%TD.AperFunction*%
%TA.AperFunction,Conductor*%
G36*
X141774075Y-73852993D02*
G01*
X141839901Y-73967007D01*
X141932993Y-74060099D01*
X142047007Y-74125925D01*
X142110590Y-74142962D01*
X141478282Y-74775269D01*
X141478282Y-74775270D01*
X141532452Y-74814626D01*
X141532451Y-74814626D01*
X141541495Y-74819234D01*
X141592292Y-74867208D01*
X141609087Y-74935029D01*
X141586550Y-75001164D01*
X141541499Y-75040202D01*
X141532182Y-75044949D01*
X141360213Y-75169890D01*
X141209890Y-75320213D01*
X141084949Y-75492182D01*
X141080484Y-75500946D01*
X141032509Y-75551742D01*
X140964688Y-75568536D01*
X140898553Y-75545998D01*
X140859516Y-75500946D01*
X140855050Y-75492182D01*
X140730109Y-75320213D01*
X140579786Y-75169890D01*
X140407820Y-75044951D01*
X140399600Y-75040763D01*
X140399054Y-75040485D01*
X140348259Y-74992512D01*
X140331463Y-74924692D01*
X140353999Y-74858556D01*
X140399054Y-74819515D01*
X140407816Y-74815051D01*
X140528801Y-74727151D01*
X140579786Y-74690109D01*
X140579788Y-74690106D01*
X140579792Y-74690104D01*
X140730104Y-74539792D01*
X140730106Y-74539788D01*
X140730109Y-74539786D01*
X140815890Y-74421717D01*
X140855051Y-74367816D01*
X140859793Y-74358508D01*
X140907763Y-74307711D01*
X140975583Y-74290911D01*
X141041719Y-74313445D01*
X141080763Y-74358500D01*
X141085373Y-74367547D01*
X141124728Y-74421716D01*
X141757037Y-73789408D01*
X141774075Y-73852993D01*
G37*
%TD.AperFunction*%
%TA.AperFunction,Conductor*%
G36*
X143355270Y-74421717D02*
G01*
X143355270Y-74421716D01*
X143394622Y-74367555D01*
X143399232Y-74358507D01*
X143447205Y-74307709D01*
X143515025Y-74290912D01*
X143581161Y-74313447D01*
X143620204Y-74358504D01*
X143624949Y-74367817D01*
X143749890Y-74539786D01*
X143900213Y-74690109D01*
X144072182Y-74815050D01*
X144080946Y-74819516D01*
X144131742Y-74867491D01*
X144148536Y-74935312D01*
X144125998Y-75001447D01*
X144080946Y-75040484D01*
X144072182Y-75044949D01*
X143900213Y-75169890D01*
X143749890Y-75320213D01*
X143624949Y-75492182D01*
X143620484Y-75500946D01*
X143572509Y-75551742D01*
X143504688Y-75568536D01*
X143438553Y-75545998D01*
X143399516Y-75500946D01*
X143395050Y-75492182D01*
X143270109Y-75320213D01*
X143119786Y-75169890D01*
X142947817Y-75044949D01*
X142938504Y-75040204D01*
X142887707Y-74992230D01*
X142870912Y-74924409D01*
X142893449Y-74858274D01*
X142938507Y-74819232D01*
X142947555Y-74814622D01*
X143001716Y-74775270D01*
X143001717Y-74775270D01*
X142369408Y-74142962D01*
X142432993Y-74125925D01*
X142547007Y-74060099D01*
X142640099Y-73967007D01*
X142705925Y-73852993D01*
X142722962Y-73789408D01*
X143355270Y-74421717D01*
G37*
%TD.AperFunction*%
%TA.AperFunction,Conductor*%
G36*
X146121444Y-74313999D02*
G01*
X146160486Y-74359056D01*
X146164951Y-74367820D01*
X146289890Y-74539786D01*
X146440213Y-74690109D01*
X146612182Y-74815050D01*
X146620946Y-74819516D01*
X146671742Y-74867491D01*
X146688536Y-74935312D01*
X146665998Y-75001447D01*
X146620946Y-75040484D01*
X146612182Y-75044949D01*
X146440213Y-75169890D01*
X146289890Y-75320213D01*
X146164949Y-75492182D01*
X146160484Y-75500946D01*
X146112509Y-75551742D01*
X146044688Y-75568536D01*
X145978553Y-75545998D01*
X145939516Y-75500946D01*
X145935050Y-75492182D01*
X145810109Y-75320213D01*
X145659786Y-75169890D01*
X145487820Y-75044951D01*
X145479600Y-75040763D01*
X145479054Y-75040485D01*
X145428259Y-74992512D01*
X145411463Y-74924692D01*
X145433999Y-74858556D01*
X145479054Y-74819515D01*
X145487816Y-74815051D01*
X145608801Y-74727151D01*
X145659786Y-74690109D01*
X145659788Y-74690106D01*
X145659792Y-74690104D01*
X145810104Y-74539792D01*
X145810106Y-74539788D01*
X145810109Y-74539786D01*
X145919086Y-74389789D01*
X145935051Y-74367816D01*
X145939514Y-74359054D01*
X145987488Y-74308259D01*
X146055308Y-74291463D01*
X146121444Y-74313999D01*
G37*
%TD.AperFunction*%
%TA.AperFunction,Conductor*%
G36*
X149394075Y-73852993D02*
G01*
X149459901Y-73967007D01*
X149552993Y-74060099D01*
X149667007Y-74125925D01*
X149730590Y-74142962D01*
X149098282Y-74775269D01*
X149098282Y-74775270D01*
X149152452Y-74814626D01*
X149152451Y-74814626D01*
X149161495Y-74819234D01*
X149212292Y-74867208D01*
X149229087Y-74935029D01*
X149206550Y-75001164D01*
X149161499Y-75040202D01*
X149152182Y-75044949D01*
X148980213Y-75169890D01*
X148829890Y-75320213D01*
X148704949Y-75492182D01*
X148700484Y-75500946D01*
X148652509Y-75551742D01*
X148584688Y-75568536D01*
X148518553Y-75545998D01*
X148479516Y-75500946D01*
X148475050Y-75492182D01*
X148350109Y-75320213D01*
X148199786Y-75169890D01*
X148027820Y-75044951D01*
X148019600Y-75040763D01*
X148019054Y-75040485D01*
X147968259Y-74992512D01*
X147951463Y-74924692D01*
X147973999Y-74858556D01*
X148019054Y-74819515D01*
X148027816Y-74815051D01*
X148148801Y-74727151D01*
X148199786Y-74690109D01*
X148199788Y-74690106D01*
X148199792Y-74690104D01*
X148350104Y-74539792D01*
X148350106Y-74539788D01*
X148350109Y-74539786D01*
X148435890Y-74421717D01*
X148475051Y-74367816D01*
X148479793Y-74358508D01*
X148527763Y-74307711D01*
X148595583Y-74290911D01*
X148661719Y-74313445D01*
X148700763Y-74358500D01*
X148705373Y-74367547D01*
X148744728Y-74421716D01*
X149377037Y-73789408D01*
X149394075Y-73852993D01*
G37*
%TD.AperFunction*%
%TA.AperFunction,Conductor*%
G36*
X157014075Y-73852993D02*
G01*
X157079901Y-73967007D01*
X157172993Y-74060099D01*
X157287007Y-74125925D01*
X157350590Y-74142962D01*
X156718282Y-74775269D01*
X156718282Y-74775270D01*
X156772452Y-74814626D01*
X156772451Y-74814626D01*
X156781495Y-74819234D01*
X156832292Y-74867208D01*
X156849087Y-74935029D01*
X156826550Y-75001164D01*
X156781499Y-75040202D01*
X156772182Y-75044949D01*
X156600213Y-75169890D01*
X156449890Y-75320213D01*
X156324949Y-75492182D01*
X156320484Y-75500946D01*
X156272509Y-75551742D01*
X156204688Y-75568536D01*
X156138553Y-75545998D01*
X156099516Y-75500946D01*
X156095050Y-75492182D01*
X155970109Y-75320213D01*
X155819786Y-75169890D01*
X155647820Y-75044951D01*
X155639600Y-75040763D01*
X155639054Y-75040485D01*
X155588259Y-74992512D01*
X155571463Y-74924692D01*
X155593999Y-74858556D01*
X155639054Y-74819515D01*
X155647816Y-74815051D01*
X155768801Y-74727151D01*
X155819786Y-74690109D01*
X155819788Y-74690106D01*
X155819792Y-74690104D01*
X155970104Y-74539792D01*
X155970106Y-74539788D01*
X155970109Y-74539786D01*
X156055890Y-74421717D01*
X156095051Y-74367816D01*
X156099793Y-74358508D01*
X156147763Y-74307711D01*
X156215583Y-74290911D01*
X156281719Y-74313445D01*
X156320763Y-74358500D01*
X156325373Y-74367547D01*
X156364728Y-74421716D01*
X156997036Y-73789407D01*
X157014075Y-73852993D01*
G37*
%TD.AperFunction*%
%TA.AperFunction,Conductor*%
G36*
X143679034Y-66587714D02*
G01*
X143734967Y-66629586D01*
X143759384Y-66695050D01*
X143759700Y-66703896D01*
X143759700Y-72726423D01*
X143740015Y-72793462D01*
X143736018Y-72799308D01*
X143624949Y-72952182D01*
X143620202Y-72961499D01*
X143572227Y-73012293D01*
X143504405Y-73029087D01*
X143438271Y-73006548D01*
X143399234Y-72961495D01*
X143394626Y-72952452D01*
X143355270Y-72898282D01*
X143355269Y-72898282D01*
X142722962Y-73530590D01*
X142705925Y-73467007D01*
X142640099Y-73352993D01*
X142547007Y-73259901D01*
X142432993Y-73194075D01*
X142369409Y-73177037D01*
X143001716Y-72544728D01*
X142947550Y-72505375D01*
X142758217Y-72408904D01*
X142556129Y-72343242D01*
X142346246Y-72310000D01*
X142133754Y-72310000D01*
X141923872Y-72343242D01*
X141923869Y-72343242D01*
X141721782Y-72408904D01*
X141532439Y-72505380D01*
X141478282Y-72544727D01*
X141478282Y-72544728D01*
X142110591Y-73177037D01*
X142047007Y-73194075D01*
X141932993Y-73259901D01*
X141839901Y-73352993D01*
X141774075Y-73467007D01*
X141757037Y-73530591D01*
X141124728Y-72898282D01*
X141124727Y-72898282D01*
X141085380Y-72952440D01*
X141085376Y-72952446D01*
X141080760Y-72961505D01*
X141032781Y-73012297D01*
X140964959Y-73029087D01*
X140898826Y-73006543D01*
X140859794Y-72961493D01*
X140855051Y-72952184D01*
X140855049Y-72952181D01*
X140855048Y-72952179D01*
X140730109Y-72780213D01*
X140579786Y-72629890D01*
X140407820Y-72504951D01*
X140218414Y-72408444D01*
X140218413Y-72408443D01*
X140218412Y-72408443D01*
X140016243Y-72342754D01*
X140016241Y-72342753D01*
X140016240Y-72342753D01*
X139846038Y-72315796D01*
X139806287Y-72309500D01*
X139593713Y-72309500D01*
X139553962Y-72315796D01*
X139383760Y-72342753D01*
X139383757Y-72342754D01*
X139231219Y-72392317D01*
X139181585Y-72408444D01*
X138992179Y-72504951D01*
X138820213Y-72629890D01*
X138669890Y-72780213D01*
X138544949Y-72952182D01*
X138540484Y-72960946D01*
X138492509Y-73011742D01*
X138424688Y-73028536D01*
X138358553Y-73005998D01*
X138319516Y-72960946D01*
X138315050Y-72952182D01*
X138190109Y-72780213D01*
X138039790Y-72629894D01*
X138039785Y-72629890D01*
X137864494Y-72502534D01*
X137821828Y-72447204D01*
X137815849Y-72377591D01*
X137848455Y-72315796D01*
X137849627Y-72314606D01*
X143548021Y-66616213D01*
X143609342Y-66582730D01*
X143679034Y-66587714D01*
G37*
%TD.AperFunction*%
%TA.AperFunction,Conductor*%
G36*
X145690803Y-68511484D02*
G01*
X145697281Y-68517516D01*
X149385134Y-72205369D01*
X149418619Y-72266692D01*
X149413635Y-72336384D01*
X149371763Y-72392317D01*
X149344903Y-72407612D01*
X149341783Y-72408903D01*
X149152439Y-72505380D01*
X149098282Y-72544727D01*
X149098282Y-72544728D01*
X149730591Y-73177037D01*
X149667007Y-73194075D01*
X149552993Y-73259901D01*
X149459901Y-73352993D01*
X149394075Y-73467007D01*
X149377037Y-73530591D01*
X148744728Y-72898282D01*
X148744727Y-72898282D01*
X148705380Y-72952440D01*
X148705376Y-72952446D01*
X148700760Y-72961505D01*
X148652781Y-73012297D01*
X148584959Y-73029087D01*
X148518826Y-73006543D01*
X148479794Y-72961493D01*
X148475051Y-72952184D01*
X148475049Y-72952181D01*
X148475048Y-72952179D01*
X148350109Y-72780213D01*
X148199786Y-72629890D01*
X148027820Y-72504951D01*
X147838414Y-72408444D01*
X147838413Y-72408443D01*
X147838412Y-72408443D01*
X147636243Y-72342754D01*
X147636241Y-72342753D01*
X147636240Y-72342753D01*
X147466038Y-72315796D01*
X147426287Y-72309500D01*
X147213713Y-72309500D01*
X147185006Y-72314046D01*
X147003757Y-72342753D01*
X146961473Y-72356492D01*
X146891632Y-72358486D01*
X146835476Y-72326241D01*
X145521919Y-71012683D01*
X145488434Y-70951360D01*
X145485600Y-70925002D01*
X145485600Y-68605197D01*
X145505285Y-68538158D01*
X145558089Y-68492403D01*
X145627247Y-68482459D01*
X145690803Y-68511484D01*
G37*
%TD.AperFunction*%
%TA.AperFunction,Conductor*%
G36*
X155821842Y-71336685D02*
G01*
X155842484Y-71353319D01*
X156798931Y-72309766D01*
X156832416Y-72371089D01*
X156827432Y-72440781D01*
X156785560Y-72496714D01*
X156776036Y-72503177D01*
X156772441Y-72505379D01*
X156718282Y-72544727D01*
X156718282Y-72544728D01*
X157350591Y-73177037D01*
X157287007Y-73194075D01*
X157172993Y-73259901D01*
X157079901Y-73352993D01*
X157014075Y-73467007D01*
X156997037Y-73530591D01*
X156364728Y-72898282D01*
X156364727Y-72898282D01*
X156325380Y-72952440D01*
X156325376Y-72952446D01*
X156320760Y-72961505D01*
X156272781Y-73012297D01*
X156204959Y-73029087D01*
X156138826Y-73006543D01*
X156099794Y-72961493D01*
X156095051Y-72952184D01*
X156095049Y-72952181D01*
X156095048Y-72952179D01*
X155970109Y-72780213D01*
X155819786Y-72629890D01*
X155647820Y-72504951D01*
X155458414Y-72408444D01*
X155458413Y-72408443D01*
X155458412Y-72408443D01*
X155256243Y-72342754D01*
X155256241Y-72342753D01*
X155256240Y-72342753D01*
X155086038Y-72315796D01*
X155046287Y-72309500D01*
X154833713Y-72309500D01*
X154793962Y-72315796D01*
X154623760Y-72342753D01*
X154623757Y-72342754D01*
X154471219Y-72392317D01*
X154421585Y-72408444D01*
X154232179Y-72504951D01*
X154060213Y-72629890D01*
X153909890Y-72780213D01*
X153784949Y-72952182D01*
X153780484Y-72960946D01*
X153732509Y-73011742D01*
X153664688Y-73028536D01*
X153598553Y-73005998D01*
X153559516Y-72960946D01*
X153555050Y-72952182D01*
X153430109Y-72780213D01*
X153279786Y-72629890D01*
X153107820Y-72504951D01*
X152918414Y-72408444D01*
X152918413Y-72408443D01*
X152918412Y-72408443D01*
X152716243Y-72342754D01*
X152716241Y-72342753D01*
X152716240Y-72342753D01*
X152546038Y-72315796D01*
X152506287Y-72309500D01*
X152293713Y-72309500D01*
X152253962Y-72315796D01*
X152083760Y-72342753D01*
X152083757Y-72342754D01*
X151931219Y-72392317D01*
X151881585Y-72408444D01*
X151692184Y-72504948D01*
X151598892Y-72572729D01*
X151533085Y-72596208D01*
X151465031Y-72580382D01*
X151438326Y-72560091D01*
X150406916Y-71528681D01*
X150373431Y-71467358D01*
X150378415Y-71397666D01*
X150420287Y-71341733D01*
X150485751Y-71317316D01*
X150494597Y-71317000D01*
X155754803Y-71317000D01*
X155821842Y-71336685D01*
G37*
%TD.AperFunction*%
%TA.AperFunction,Conductor*%
G36*
X134208842Y-70519985D02*
G01*
X134254597Y-70572789D01*
X134264541Y-70641947D01*
X134235516Y-70705503D01*
X134229484Y-70711981D01*
X132602789Y-72338674D01*
X132541466Y-72372159D01*
X132476791Y-72368924D01*
X132396246Y-72342754D01*
X132226038Y-72315796D01*
X132186287Y-72309500D01*
X131973713Y-72309500D01*
X131933962Y-72315796D01*
X131763760Y-72342753D01*
X131763757Y-72342754D01*
X131611219Y-72392317D01*
X131561585Y-72408444D01*
X131372179Y-72504951D01*
X131200213Y-72629890D01*
X131049890Y-72780213D01*
X130924949Y-72952182D01*
X130920484Y-72960946D01*
X130872509Y-73011742D01*
X130804688Y-73028536D01*
X130738553Y-73005998D01*
X130699516Y-72960946D01*
X130695050Y-72952182D01*
X130570109Y-72780213D01*
X130419786Y-72629890D01*
X130247820Y-72504951D01*
X130058414Y-72408444D01*
X130058413Y-72408443D01*
X130058412Y-72408443D01*
X129856243Y-72342754D01*
X129856241Y-72342753D01*
X129856240Y-72342753D01*
X129686038Y-72315796D01*
X129646287Y-72309500D01*
X129433713Y-72309500D01*
X129393962Y-72315796D01*
X129223760Y-72342753D01*
X129223757Y-72342754D01*
X129071219Y-72392317D01*
X129021585Y-72408444D01*
X128832179Y-72504951D01*
X128660213Y-72629890D01*
X128509890Y-72780213D01*
X128384949Y-72952182D01*
X128380202Y-72961499D01*
X128332227Y-73012293D01*
X128264405Y-73029087D01*
X128198271Y-73006548D01*
X128159234Y-72961495D01*
X128154626Y-72952452D01*
X128115270Y-72898282D01*
X128115269Y-72898282D01*
X127482962Y-73530590D01*
X127465925Y-73467007D01*
X127400099Y-73352993D01*
X127307007Y-73259901D01*
X127192993Y-73194075D01*
X127129407Y-73177036D01*
X127761716Y-72544728D01*
X127707549Y-72505374D01*
X127684932Y-72493850D01*
X127634137Y-72445874D01*
X127617343Y-72378053D01*
X127639882Y-72311919D01*
X127653535Y-72295700D01*
X129412617Y-70536619D01*
X129473940Y-70503134D01*
X129500298Y-70500300D01*
X134141803Y-70500300D01*
X134208842Y-70519985D01*
G37*
%TD.AperFunction*%
%TA.AperFunction,Conductor*%
G36*
X136976339Y-69727641D02*
G01*
X137010158Y-69729454D01*
X137011091Y-69730126D01*
X137012239Y-69730209D01*
X137039338Y-69750496D01*
X137066830Y-69770320D01*
X137067251Y-69771392D01*
X137068172Y-69772081D01*
X137080005Y-69803806D01*
X137092411Y-69835338D01*
X137092329Y-69836850D01*
X137092589Y-69837545D01*
X137090522Y-69870582D01*
X137070000Y-69973753D01*
X137070000Y-70131446D01*
X137100761Y-70286089D01*
X137100764Y-70286101D01*
X137161102Y-70431772D01*
X137161109Y-70431785D01*
X137248710Y-70562888D01*
X137248713Y-70562892D01*
X137360207Y-70674386D01*
X137360215Y-70674392D01*
X137493043Y-70763145D01*
X137537849Y-70816757D01*
X137546556Y-70886082D01*
X137516402Y-70949109D01*
X137511834Y-70953928D01*
X135742075Y-72723688D01*
X135742068Y-72723695D01*
X135738886Y-72726878D01*
X135738884Y-72726880D01*
X135627080Y-72838684D01*
X135601575Y-72882861D01*
X135595695Y-72893043D01*
X135595694Y-72893046D01*
X135548022Y-72975615D01*
X135548021Y-72975618D01*
X135516388Y-73093671D01*
X135484295Y-73149257D01*
X135102962Y-73530590D01*
X135085925Y-73467007D01*
X135020099Y-73352993D01*
X134927007Y-73259901D01*
X134812993Y-73194075D01*
X134749408Y-73177037D01*
X135381716Y-72544728D01*
X135327550Y-72505375D01*
X135138217Y-72408904D01*
X134936129Y-72343242D01*
X134726246Y-72310000D01*
X134629295Y-72310000D01*
X134562256Y-72290315D01*
X134516501Y-72237511D01*
X134506557Y-72168353D01*
X134535582Y-72104797D01*
X134541596Y-72098337D01*
X136881225Y-69758708D01*
X136910941Y-69742483D01*
X136940388Y-69725715D01*
X136941536Y-69725776D01*
X136942547Y-69725225D01*
X136976339Y-69727641D01*
G37*
%TD.AperFunction*%
%TA.AperFunction,Conductor*%
G36*
X142302473Y-65220785D02*
G01*
X142304325Y-65221998D01*
X142436014Y-65309990D01*
X142436027Y-65309997D01*
X142581698Y-65370335D01*
X142581703Y-65370337D01*
X142680691Y-65390027D01*
X142736353Y-65401099D01*
X142736356Y-65401100D01*
X142765301Y-65401100D01*
X142832340Y-65420785D01*
X142878095Y-65473589D01*
X142888039Y-65542747D01*
X142859014Y-65606303D01*
X142852982Y-65612781D01*
X138771828Y-69693934D01*
X138753336Y-69704030D01*
X138737663Y-69718110D01*
X138723286Y-69720439D01*
X138710505Y-69727419D01*
X138689489Y-69725916D01*
X138668693Y-69729286D01*
X138655340Y-69723473D01*
X138640813Y-69722435D01*
X138623945Y-69709807D01*
X138604630Y-69701400D01*
X138588034Y-69682924D01*
X138584880Y-69680563D01*
X138581045Y-69675143D01*
X138491898Y-69541724D01*
X138471020Y-69475047D01*
X138471000Y-69472834D01*
X138471000Y-68674297D01*
X138490685Y-68607258D01*
X138507319Y-68586616D01*
X141856516Y-65237419D01*
X141917839Y-65203934D01*
X141944197Y-65201100D01*
X142235434Y-65201100D01*
X142302473Y-65220785D01*
G37*
%TD.AperFunction*%
%TD*%
M02*
