%TF.GenerationSoftware,KiCad,Pcbnew,9.0.7*%
%TF.CreationDate,2026-01-29T21:22:27-07:00*%
%TF.ProjectId,Realsense Adapter,5265616c-7365-46e7-9365-204164617074,1.0-PROTO*%
%TF.SameCoordinates,Original*%
%TF.FileFunction,Soldermask,Top*%
%TF.FilePolarity,Negative*%
%FSLAX46Y46*%
G04 Gerber Fmt 4.6, Leading zero omitted, Abs format (unit mm)*
G04 Created by KiCad (PCBNEW 9.0.7) date 2026-01-29 21:22:27*
%MOMM*%
%LPD*%
G01*
G04 APERTURE LIST*
%ADD10C,0.010000*%
%ADD11R,1.700000X1.700000*%
%ADD12C,1.700000*%
%ADD13R,0.400000X1.350000*%
%ADD14R,2.300000X1.900000*%
%ADD15R,1.900000X1.900000*%
%ADD16R,1.800000X1.900000*%
G04 APERTURE END LIST*
D10*
%TO.C,U1*%
X140800000Y-66355000D02*
X140600000Y-66355000D01*
X140600000Y-65725000D01*
X140800000Y-65725000D01*
X140800000Y-66355000D01*
G36*
X140800000Y-66355000D02*
G01*
X140600000Y-66355000D01*
X140600000Y-65725000D01*
X140800000Y-65725000D01*
X140800000Y-66355000D01*
G37*
X140800000Y-67825000D02*
X140600000Y-67825000D01*
X140600000Y-67195000D01*
X140800000Y-67195000D01*
X140800000Y-67825000D01*
G36*
X140800000Y-67825000D02*
G01*
X140600000Y-67825000D01*
X140600000Y-67195000D01*
X140800000Y-67195000D01*
X140800000Y-67825000D01*
G37*
X141320000Y-66160000D02*
X141100000Y-66160000D01*
X141100000Y-65725000D01*
X141320000Y-65725000D01*
X141320000Y-66160000D01*
G36*
X141320000Y-66160000D02*
G01*
X141100000Y-66160000D01*
X141100000Y-65725000D01*
X141320000Y-65725000D01*
X141320000Y-66160000D01*
G37*
X141320000Y-67825000D02*
X141100000Y-67825000D01*
X141100000Y-67390000D01*
X141320000Y-67390000D01*
X141320000Y-67825000D01*
G36*
X141320000Y-67825000D02*
G01*
X141100000Y-67825000D01*
X141100000Y-67390000D01*
X141320000Y-67390000D01*
X141320000Y-67825000D01*
G37*
X141670000Y-66160000D02*
X141450000Y-66160000D01*
X141450000Y-65725000D01*
X141670000Y-65725000D01*
X141670000Y-66160000D01*
G36*
X141670000Y-66160000D02*
G01*
X141450000Y-66160000D01*
X141450000Y-65725000D01*
X141670000Y-65725000D01*
X141670000Y-66160000D01*
G37*
X141670000Y-67825000D02*
X141450000Y-67825000D01*
X141450000Y-67390000D01*
X141670000Y-67390000D01*
X141670000Y-67825000D01*
G36*
X141670000Y-67825000D02*
G01*
X141450000Y-67825000D01*
X141450000Y-67390000D01*
X141670000Y-67390000D01*
X141670000Y-67825000D01*
G37*
X142020000Y-66160000D02*
X141800000Y-66160000D01*
X141800000Y-65725000D01*
X142020000Y-65725000D01*
X142020000Y-66160000D01*
G36*
X142020000Y-66160000D02*
G01*
X141800000Y-66160000D01*
X141800000Y-65725000D01*
X142020000Y-65725000D01*
X142020000Y-66160000D01*
G37*
X142020000Y-67825000D02*
X141800000Y-67825000D01*
X141800000Y-67390000D01*
X142020000Y-67390000D01*
X142020000Y-67825000D01*
G36*
X142020000Y-67825000D02*
G01*
X141800000Y-67825000D01*
X141800000Y-67390000D01*
X142020000Y-67390000D01*
X142020000Y-67825000D01*
G37*
X142370000Y-66160000D02*
X142150000Y-66160000D01*
X142150000Y-65725000D01*
X142370000Y-65725000D01*
X142370000Y-66160000D01*
G36*
X142370000Y-66160000D02*
G01*
X142150000Y-66160000D01*
X142150000Y-65725000D01*
X142370000Y-65725000D01*
X142370000Y-66160000D01*
G37*
X142370000Y-67825000D02*
X142150000Y-67825000D01*
X142150000Y-67390000D01*
X142370000Y-67390000D01*
X142370000Y-67825000D01*
G36*
X142370000Y-67825000D02*
G01*
X142150000Y-67825000D01*
X142150000Y-67390000D01*
X142370000Y-67390000D01*
X142370000Y-67825000D01*
G37*
X142720000Y-66160000D02*
X142500000Y-66160000D01*
X142500000Y-65725000D01*
X142720000Y-65725000D01*
X142720000Y-66160000D01*
G36*
X142720000Y-66160000D02*
G01*
X142500000Y-66160000D01*
X142500000Y-65725000D01*
X142720000Y-65725000D01*
X142720000Y-66160000D01*
G37*
X142720000Y-67825000D02*
X142500000Y-67825000D01*
X142500000Y-67390000D01*
X142720000Y-67390000D01*
X142720000Y-67825000D01*
G36*
X142720000Y-67825000D02*
G01*
X142500000Y-67825000D01*
X142500000Y-67390000D01*
X142720000Y-67390000D01*
X142720000Y-67825000D01*
G37*
X143070000Y-66160000D02*
X142850000Y-66160000D01*
X142850000Y-65725000D01*
X143070000Y-65725000D01*
X143070000Y-66160000D01*
G36*
X143070000Y-66160000D02*
G01*
X142850000Y-66160000D01*
X142850000Y-65725000D01*
X143070000Y-65725000D01*
X143070000Y-66160000D01*
G37*
X143070000Y-67825000D02*
X142850000Y-67825000D01*
X142850000Y-67390000D01*
X143070000Y-67390000D01*
X143070000Y-67825000D01*
G36*
X143070000Y-67825000D02*
G01*
X142850000Y-67825000D01*
X142850000Y-67390000D01*
X143070000Y-67390000D01*
X143070000Y-67825000D01*
G37*
X143420000Y-66160000D02*
X143200000Y-66160000D01*
X143200000Y-65725000D01*
X143420000Y-65725000D01*
X143420000Y-66160000D01*
G36*
X143420000Y-66160000D02*
G01*
X143200000Y-66160000D01*
X143200000Y-65725000D01*
X143420000Y-65725000D01*
X143420000Y-66160000D01*
G37*
X143420000Y-67825000D02*
X143200000Y-67825000D01*
X143200000Y-67390000D01*
X143420000Y-67390000D01*
X143420000Y-67825000D01*
G36*
X143420000Y-67825000D02*
G01*
X143200000Y-67825000D01*
X143200000Y-67390000D01*
X143420000Y-67390000D01*
X143420000Y-67825000D01*
G37*
X143770000Y-66160000D02*
X143550000Y-66160000D01*
X143550000Y-65725000D01*
X143770000Y-65725000D01*
X143770000Y-66160000D01*
G36*
X143770000Y-66160000D02*
G01*
X143550000Y-66160000D01*
X143550000Y-65725000D01*
X143770000Y-65725000D01*
X143770000Y-66160000D01*
G37*
X143770000Y-67825000D02*
X143550000Y-67825000D01*
X143550000Y-67390000D01*
X143770000Y-67390000D01*
X143770000Y-67825000D01*
G36*
X143770000Y-67825000D02*
G01*
X143550000Y-67825000D01*
X143550000Y-67390000D01*
X143770000Y-67390000D01*
X143770000Y-67825000D01*
G37*
X144120000Y-66160000D02*
X143900000Y-66160000D01*
X143900000Y-65725000D01*
X144120000Y-65725000D01*
X144120000Y-66160000D01*
G36*
X144120000Y-66160000D02*
G01*
X143900000Y-66160000D01*
X143900000Y-65725000D01*
X144120000Y-65725000D01*
X144120000Y-66160000D01*
G37*
X144120000Y-67825000D02*
X143900000Y-67825000D01*
X143900000Y-67390000D01*
X144120000Y-67390000D01*
X144120000Y-67825000D01*
G36*
X144120000Y-67825000D02*
G01*
X143900000Y-67825000D01*
X143900000Y-67390000D01*
X144120000Y-67390000D01*
X144120000Y-67825000D01*
G37*
X144470000Y-66160000D02*
X144250000Y-66160000D01*
X144250000Y-65725000D01*
X144470000Y-65725000D01*
X144470000Y-66160000D01*
G36*
X144470000Y-66160000D02*
G01*
X144250000Y-66160000D01*
X144250000Y-65725000D01*
X144470000Y-65725000D01*
X144470000Y-66160000D01*
G37*
X144470000Y-67825000D02*
X144250000Y-67825000D01*
X144250000Y-67390000D01*
X144470000Y-67390000D01*
X144470000Y-67825000D01*
G36*
X144470000Y-67825000D02*
G01*
X144250000Y-67825000D01*
X144250000Y-67390000D01*
X144470000Y-67390000D01*
X144470000Y-67825000D01*
G37*
X144820000Y-66160000D02*
X144600000Y-66160000D01*
X144600000Y-65725000D01*
X144820000Y-65725000D01*
X144820000Y-66160000D01*
G36*
X144820000Y-66160000D02*
G01*
X144600000Y-66160000D01*
X144600000Y-65725000D01*
X144820000Y-65725000D01*
X144820000Y-66160000D01*
G37*
X144820000Y-67825000D02*
X144600000Y-67825000D01*
X144600000Y-67390000D01*
X144820000Y-67390000D01*
X144820000Y-67825000D01*
G36*
X144820000Y-67825000D02*
G01*
X144600000Y-67825000D01*
X144600000Y-67390000D01*
X144820000Y-67390000D01*
X144820000Y-67825000D01*
G37*
X145170000Y-66160000D02*
X144950000Y-66160000D01*
X144950000Y-65725000D01*
X145170000Y-65725000D01*
X145170000Y-66160000D01*
G36*
X145170000Y-66160000D02*
G01*
X144950000Y-66160000D01*
X144950000Y-65725000D01*
X145170000Y-65725000D01*
X145170000Y-66160000D01*
G37*
X145170000Y-67825000D02*
X144950000Y-67825000D01*
X144950000Y-67390000D01*
X145170000Y-67390000D01*
X145170000Y-67825000D01*
G36*
X145170000Y-67825000D02*
G01*
X144950000Y-67825000D01*
X144950000Y-67390000D01*
X145170000Y-67390000D01*
X145170000Y-67825000D01*
G37*
X145520000Y-66160000D02*
X145300000Y-66160000D01*
X145300000Y-65725000D01*
X145520000Y-65725000D01*
X145520000Y-66160000D01*
G36*
X145520000Y-66160000D02*
G01*
X145300000Y-66160000D01*
X145300000Y-65725000D01*
X145520000Y-65725000D01*
X145520000Y-66160000D01*
G37*
X145520000Y-67825000D02*
X145300000Y-67825000D01*
X145300000Y-67390000D01*
X145520000Y-67390000D01*
X145520000Y-67825000D01*
G36*
X145520000Y-67825000D02*
G01*
X145300000Y-67825000D01*
X145300000Y-67390000D01*
X145520000Y-67390000D01*
X145520000Y-67825000D01*
G37*
X145870000Y-66160000D02*
X145650000Y-66160000D01*
X145650000Y-65725000D01*
X145870000Y-65725000D01*
X145870000Y-66160000D01*
G36*
X145870000Y-66160000D02*
G01*
X145650000Y-66160000D01*
X145650000Y-65725000D01*
X145870000Y-65725000D01*
X145870000Y-66160000D01*
G37*
X145870000Y-67825000D02*
X145650000Y-67825000D01*
X145650000Y-67390000D01*
X145870000Y-67390000D01*
X145870000Y-67825000D01*
G36*
X145870000Y-67825000D02*
G01*
X145650000Y-67825000D01*
X145650000Y-67390000D01*
X145870000Y-67390000D01*
X145870000Y-67825000D01*
G37*
X146220000Y-66160000D02*
X146000000Y-66160000D01*
X146000000Y-65725000D01*
X146220000Y-65725000D01*
X146220000Y-66160000D01*
G36*
X146220000Y-66160000D02*
G01*
X146000000Y-66160000D01*
X146000000Y-65725000D01*
X146220000Y-65725000D01*
X146220000Y-66160000D01*
G37*
X146220000Y-67825000D02*
X146000000Y-67825000D01*
X146000000Y-67390000D01*
X146220000Y-67390000D01*
X146220000Y-67825000D01*
G36*
X146220000Y-67825000D02*
G01*
X146000000Y-67825000D01*
X146000000Y-67390000D01*
X146220000Y-67390000D01*
X146220000Y-67825000D01*
G37*
X146570000Y-66160000D02*
X146350000Y-66160000D01*
X146350000Y-65725000D01*
X146570000Y-65725000D01*
X146570000Y-66160000D01*
G36*
X146570000Y-66160000D02*
G01*
X146350000Y-66160000D01*
X146350000Y-65725000D01*
X146570000Y-65725000D01*
X146570000Y-66160000D01*
G37*
X146570000Y-67825000D02*
X146350000Y-67825000D01*
X146350000Y-67390000D01*
X146570000Y-67390000D01*
X146570000Y-67825000D01*
G36*
X146570000Y-67825000D02*
G01*
X146350000Y-67825000D01*
X146350000Y-67390000D01*
X146570000Y-67390000D01*
X146570000Y-67825000D01*
G37*
X146920000Y-66160000D02*
X146700000Y-66160000D01*
X146700000Y-65725000D01*
X146920000Y-65725000D01*
X146920000Y-66160000D01*
G36*
X146920000Y-66160000D02*
G01*
X146700000Y-66160000D01*
X146700000Y-65725000D01*
X146920000Y-65725000D01*
X146920000Y-66160000D01*
G37*
X146920000Y-67825000D02*
X146700000Y-67825000D01*
X146700000Y-67390000D01*
X146920000Y-67390000D01*
X146920000Y-67825000D01*
G36*
X146920000Y-67825000D02*
G01*
X146700000Y-67825000D01*
X146700000Y-67390000D01*
X146920000Y-67390000D01*
X146920000Y-67825000D01*
G37*
X147420000Y-66355000D02*
X147220000Y-66355000D01*
X147220000Y-65725000D01*
X147420000Y-65725000D01*
X147420000Y-66355000D01*
G36*
X147420000Y-66355000D02*
G01*
X147220000Y-66355000D01*
X147220000Y-65725000D01*
X147420000Y-65725000D01*
X147420000Y-66355000D01*
G37*
X147420000Y-67825000D02*
X147220000Y-67825000D01*
X147220000Y-67195000D01*
X147420000Y-67195000D01*
X147420000Y-67825000D01*
G36*
X147420000Y-67825000D02*
G01*
X147220000Y-67825000D01*
X147220000Y-67195000D01*
X147420000Y-67195000D01*
X147420000Y-67825000D01*
G37*
%TD*%
D11*
%TO.C,J2*%
X121920000Y-76200000D03*
D12*
X121920000Y-73660000D03*
X124460000Y-76200000D03*
X124460000Y-73660000D03*
X127000000Y-76200000D03*
X127000000Y-73660000D03*
X129540000Y-76200000D03*
X129540000Y-73660000D03*
X132080000Y-76200000D03*
X132080000Y-73660000D03*
X134620000Y-76200000D03*
X134620000Y-73660000D03*
X137160000Y-76200000D03*
X137160000Y-73660000D03*
X139700000Y-76200000D03*
X139700000Y-73660000D03*
X142240000Y-76200000D03*
X142240000Y-73660000D03*
X144780000Y-76200000D03*
X144780000Y-73660000D03*
X147320000Y-76200000D03*
X147320000Y-73660000D03*
X149860000Y-76200000D03*
X149860000Y-73660000D03*
X152400000Y-76200000D03*
X152400000Y-73660000D03*
X154940000Y-76200000D03*
X154940000Y-73660000D03*
X157480000Y-76200000D03*
X157480000Y-73660000D03*
X160020000Y-76200000D03*
X160020000Y-73660000D03*
X162560000Y-76200000D03*
X162560000Y-73660000D03*
X165100000Y-76200000D03*
X165100000Y-73660000D03*
X167640000Y-76200000D03*
X167640000Y-73660000D03*
%TD*%
D11*
%TO.C,J3*%
X131320000Y-123835900D03*
D12*
X133860000Y-123835900D03*
X136400000Y-123835900D03*
X138940000Y-123835900D03*
X141480000Y-123835900D03*
X144020000Y-123835900D03*
X146560000Y-123835900D03*
X149100000Y-123835900D03*
X151640000Y-123835900D03*
X154180000Y-123835900D03*
X156720000Y-123835900D03*
X159260000Y-123835900D03*
%TD*%
D13*
%TO.C,J1*%
X141560000Y-135060900D03*
X142210000Y-135060900D03*
X142860000Y-135060900D03*
X143510000Y-135060900D03*
X144160000Y-135060900D03*
X148260000Y-135060900D03*
X148910000Y-135060900D03*
X149560000Y-135060900D03*
X150210000Y-135060900D03*
X150860000Y-135060900D03*
D14*
X139110000Y-137735900D03*
D15*
X141660000Y-137735900D03*
X144060000Y-137735900D03*
D14*
X146610000Y-137735900D03*
D16*
X149360000Y-137735900D03*
D14*
X151960000Y-137735900D03*
%TD*%
M02*
