%TF.GenerationSoftware,KiCad,Pcbnew,9.0.7*%
%TF.CreationDate,2026-01-29T21:22:27-07:00*%
%TF.ProjectId,Realsense Adapter,5265616c-7365-46e7-9365-204164617074,1.0-PROTO*%
%TF.SameCoordinates,Original*%
%TF.FileFunction,Copper,L1,Top*%
%TF.FilePolarity,Positive*%
%FSLAX46Y46*%
G04 Gerber Fmt 4.6, Leading zero omitted, Abs format (unit mm)*
G04 Created by KiCad (PCBNEW 9.0.7) date 2026-01-29 21:22:27*
%MOMM*%
%LPD*%
G01*
G04 APERTURE LIST*
%TA.AperFunction,SMDPad,CuDef*%
%ADD10R,0.220000X0.745000*%
%TD*%
%TA.AperFunction,SMDPad,CuDef*%
%ADD11R,0.200000X0.630000*%
%TD*%
%TA.AperFunction,ComponentPad*%
%ADD12R,1.700000X1.700000*%
%TD*%
%TA.AperFunction,ComponentPad*%
%ADD13C,1.700000*%
%TD*%
%TA.AperFunction,SMDPad,CuDef*%
%ADD14R,0.400000X1.350000*%
%TD*%
%TA.AperFunction,SMDPad,CuDef*%
%ADD15R,2.300000X1.900000*%
%TD*%
%TA.AperFunction,SMDPad,CuDef*%
%ADD16R,1.900000X1.900000*%
%TD*%
%TA.AperFunction,SMDPad,CuDef*%
%ADD17R,1.800000X1.900000*%
%TD*%
%TA.AperFunction,ViaPad*%
%ADD18C,0.600000*%
%TD*%
%TA.AperFunction,Conductor*%
%ADD19C,0.200000*%
%TD*%
G04 APERTURE END LIST*
D10*
%TO.P,U1,1,Reserved*%
%TO.N,/CONN_1_RESERVED*%
X141210000Y-67452500D03*
%TO.P,U1,2,USB3_RX+*%
%TO.N,/CONN_2_USB3_RX+*%
X141210000Y-66097500D03*
%TO.P,U1,3,Reserved*%
%TO.N,/CONN_3_RESERVED*%
X141560000Y-67452500D03*
%TO.P,U1,4,USB3_RX-*%
%TO.N,/CONN_4_USB3_RX-*%
X141560000Y-66097500D03*
%TO.P,U1,5,Reserved*%
%TO.N,/CONN_5_RESERVED*%
X141910000Y-67452500D03*
%TO.P,U1,6,Ground*%
%TO.N,/CONN_GND*%
X141910000Y-66097500D03*
%TO.P,U1,7,Reserved*%
%TO.N,/CONN_7_RESERVED*%
X142260000Y-67452500D03*
%TO.P,U1,8,USB3_TX+*%
%TO.N,/CONN_8_USB3_TX+*%
X142260000Y-66097500D03*
%TO.P,U1,9,Reserved*%
%TO.N,/CONN_9_RESERVED*%
X142610000Y-67452500D03*
%TO.P,U1,10,USB3_TX-*%
%TO.N,/CONN_10_USB3_TX-*%
X142610000Y-66097500D03*
%TO.P,U1,11,Reserved*%
%TO.N,/CONN_11_RESERVED*%
X142960000Y-67452500D03*
%TO.P,U1,12,Ground*%
%TO.N,/CONN_GND*%
X142960000Y-66097500D03*
%TO.P,U1,13,Reserved*%
%TO.N,/CONN_13_RESERVED*%
X143310000Y-67452500D03*
%TO.P,U1,14,USB2+*%
%TO.N,/CONN_14_USB2+*%
X143310000Y-66097500D03*
%TO.P,U1,15,Reserved*%
%TO.N,/CONN_15_RESERVED*%
X143660000Y-67452500D03*
%TO.P,U1,16,USB2-*%
%TO.N,/CONN_16_USB2-*%
X143660000Y-66097500D03*
%TO.P,U1,17,Reserved*%
%TO.N,/CONN_17_RESERVED*%
X144010000Y-67452500D03*
%TO.P,U1,18,Ground*%
%TO.N,/CONN_GND*%
X144010000Y-66097500D03*
%TO.P,U1,19,Reserved*%
%TO.N,/CONN_19_RESERVED*%
X144360000Y-67452500D03*
%TO.P,U1,20,Reserved*%
%TO.N,/CONN_20_RESERVED*%
X144360000Y-66097500D03*
%TO.P,U1,21,Reserved*%
%TO.N,/CONN_21_RESERVED*%
X144710000Y-67452500D03*
%TO.P,U1,22,Reserved*%
%TO.N,/CONN_22_RESERVED*%
X144710000Y-66097500D03*
%TO.P,U1,23,Reserved*%
%TO.N,/CONN_23_RESERVED*%
X145060000Y-67452500D03*
%TO.P,U1,24,Ground*%
%TO.N,/CONN_GND*%
X145060000Y-66097500D03*
%TO.P,U1,25,Ground*%
X145410000Y-67452500D03*
%TO.P,U1,26,Reserved*%
%TO.N,/CONN_26_RESERVED*%
X145410000Y-66097500D03*
%TO.P,U1,27,Reserved*%
%TO.N,/CONN_27_RESERVED*%
X145760000Y-67452500D03*
%TO.P,U1,28,Reserved*%
%TO.N,/CONN_28_RESERVED*%
X145760000Y-66097500D03*
%TO.P,U1,29,Reserved*%
%TO.N,/CONN_29_RESERVED*%
X146110000Y-67452500D03*
%TO.P,U1,30,Ground*%
%TO.N,/CONN_GND*%
X146110000Y-66097500D03*
%TO.P,U1,31,Ground*%
X146460000Y-67452500D03*
%TO.P,U1,32,Reserved*%
%TO.N,/CONN_32_RESERVED*%
X146460000Y-66097500D03*
%TO.P,U1,33,Reserved*%
%TO.N,/CONN_33_RESERVED*%
X146810000Y-67452500D03*
%TO.P,U1,34,Reserved*%
%TO.N,/CONN_34_RESERVED*%
X146810000Y-66097500D03*
D11*
%TO.P,U1,S1,Ground*%
%TO.N,/CONN_GND*%
X140700000Y-66040000D03*
%TO.P,U1,S2,VBUS_(Power)\u002C_VDD_5V*%
%TO.N,/CONN_VBUS*%
X147320000Y-66040000D03*
%TO.P,U1,S3,Ground*%
%TO.N,/CONN_GND*%
X140700000Y-67510000D03*
%TO.P,U1,S4,VBUS_(Power)\u002C_VDD_5V*%
%TO.N,/CONN_VBUS*%
X147320000Y-67510000D03*
%TD*%
D12*
%TO.P,J2,1,Pin_1*%
%TO.N,/CONN_1_RESERVED*%
X121920000Y-76200000D03*
D13*
%TO.P,J2,2,Pin_2*%
%TO.N,/CONN_2_USB3_RX+*%
X121920000Y-73660000D03*
%TO.P,J2,3,Pin_3*%
%TO.N,/CONN_3_RESERVED*%
X124460000Y-76200000D03*
%TO.P,J2,4,Pin_4*%
%TO.N,/CONN_4_USB3_RX-*%
X124460000Y-73660000D03*
%TO.P,J2,5,Pin_5*%
%TO.N,/CONN_5_RESERVED*%
X127000000Y-76200000D03*
%TO.P,J2,6,Pin_6*%
%TO.N,/CONN_GND*%
X127000000Y-73660000D03*
%TO.P,J2,7,Pin_7*%
%TO.N,/CONN_7_RESERVED*%
X129540000Y-76200000D03*
%TO.P,J2,8,Pin_8*%
%TO.N,/CONN_8_USB3_TX+*%
X129540000Y-73660000D03*
%TO.P,J2,9,Pin_9*%
%TO.N,/CONN_9_RESERVED*%
X132080000Y-76200000D03*
%TO.P,J2,10,Pin_10*%
%TO.N,/CONN_10_USB3_TX-*%
X132080000Y-73660000D03*
%TO.P,J2,11,Pin_11*%
%TO.N,/CONN_11_RESERVED*%
X134620000Y-76200000D03*
%TO.P,J2,12,Pin_12*%
%TO.N,/CONN_GND*%
X134620000Y-73660000D03*
%TO.P,J2,13,Pin_13*%
%TO.N,/CONN_13_RESERVED*%
X137160000Y-76200000D03*
%TO.P,J2,14,Pin_14*%
%TO.N,/CONN_14_USB2+*%
X137160000Y-73660000D03*
%TO.P,J2,15,Pin_15*%
%TO.N,/CONN_15_RESERVED*%
X139700000Y-76200000D03*
%TO.P,J2,16,Pin_16*%
%TO.N,/CONN_16_USB2-*%
X139700000Y-73660000D03*
%TO.P,J2,17,Pin_17*%
%TO.N,/CONN_17_RESERVED*%
X142240000Y-76200000D03*
%TO.P,J2,18,Pin_18*%
%TO.N,/CONN_GND*%
X142240000Y-73660000D03*
%TO.P,J2,19,Pin_19*%
%TO.N,/CONN_19_RESERVED*%
X144780000Y-76200000D03*
%TO.P,J2,20,Pin_20*%
%TO.N,/CONN_20_RESERVED*%
X144780000Y-73660000D03*
%TO.P,J2,21,Pin_21*%
%TO.N,/CONN_21_RESERVED*%
X147320000Y-76200000D03*
%TO.P,J2,22,Pin_22*%
%TO.N,/CONN_22_RESERVED*%
X147320000Y-73660000D03*
%TO.P,J2,23,Pin_23*%
%TO.N,/CONN_23_RESERVED*%
X149860000Y-76200000D03*
%TO.P,J2,24,Pin_24*%
%TO.N,/CONN_GND*%
X149860000Y-73660000D03*
%TO.P,J2,25,Pin_25*%
X152400000Y-76200000D03*
%TO.P,J2,26,Pin_26*%
%TO.N,/CONN_26_RESERVED*%
X152400000Y-73660000D03*
%TO.P,J2,27,Pin_27*%
%TO.N,/CONN_27_RESERVED*%
X154940000Y-76200000D03*
%TO.P,J2,28,Pin_28*%
%TO.N,/CONN_28_RESERVED*%
X154940000Y-73660000D03*
%TO.P,J2,29,Pin_29*%
%TO.N,/CONN_29_RESERVED*%
X157480000Y-76200000D03*
%TO.P,J2,30,Pin_30*%
%TO.N,/CONN_GND*%
X157480000Y-73660000D03*
%TO.P,J2,31,Pin_31*%
X160020000Y-76200000D03*
%TO.P,J2,32,Pin_32*%
%TO.N,/CONN_32_RESERVED*%
X160020000Y-73660000D03*
%TO.P,J2,33,Pin_33*%
%TO.N,/CONN_33_RESERVED*%
X162560000Y-76200000D03*
%TO.P,J2,34,Pin_34*%
%TO.N,/CONN_34_RESERVED*%
X162560000Y-73660000D03*
%TO.P,J2,35,Pin_35*%
%TO.N,/CONN_VBUS*%
X165100000Y-76200000D03*
%TO.P,J2,36,Pin_36*%
X165100000Y-73660000D03*
%TO.P,J2,37,Pin_37*%
%TO.N,/CONN_GND*%
X167640000Y-76200000D03*
%TO.P,J2,38,Pin_38*%
X167640000Y-73660000D03*
%TD*%
D12*
%TO.P,J3,1,Pin_1*%
%TO.N,/USB_VBUS*%
X131320000Y-123835900D03*
D13*
%TO.P,J3,2,Pin_2*%
%TO.N,/USB_D-*%
X133860000Y-123835900D03*
%TO.P,J3,3,Pin_3*%
%TO.N,/USB_D+*%
X136400000Y-123835900D03*
%TO.P,J3,4,Pin_4*%
%TO.N,/USB_ID*%
X138940000Y-123835900D03*
%TO.P,J3,5,Pin_5*%
%TO.N,/USB_DRAIN*%
X141480000Y-123835900D03*
%TO.P,J3,6,Pin_6*%
%TO.N,/USB_SSTX-*%
X144020000Y-123835900D03*
%TO.P,J3,7,Pin_7*%
%TO.N,/USB_SSTX+*%
X146560000Y-123835900D03*
%TO.P,J3,8,Pin_8*%
%TO.N,/USB_DRAIN*%
X149100000Y-123835900D03*
%TO.P,J3,9,Pin_9*%
%TO.N,/USB_SSRX-*%
X151640000Y-123835900D03*
%TO.P,J3,10,Pin_10*%
%TO.N,/USB_SSRX+*%
X154180000Y-123835900D03*
%TO.P,J3,11,Pin_11*%
%TO.N,/USB_DRAIN*%
X156720000Y-123835900D03*
%TO.P,J3,12,Pin_12*%
%TO.N,unconnected-(J3-Pin_12-Pad12)*%
X159260000Y-123835900D03*
%TD*%
D14*
%TO.P,J1,1,VBUS*%
%TO.N,/USB_VBUS*%
X141560000Y-135060900D03*
%TO.P,J1,2,D-*%
%TO.N,/USB_D-*%
X142210000Y-135060900D03*
%TO.P,J1,3,D+*%
%TO.N,/USB_D+*%
X142860000Y-135060900D03*
%TO.P,J1,4,ID*%
%TO.N,/USB_ID*%
X143510000Y-135060900D03*
%TO.P,J1,5,GND*%
%TO.N,/USB_DRAIN*%
X144160000Y-135060900D03*
%TO.P,J1,6,SSTX-*%
%TO.N,/USB_SSTX-*%
X148260000Y-135060900D03*
%TO.P,J1,7,SSTX+*%
%TO.N,/USB_SSTX+*%
X148910000Y-135060900D03*
%TO.P,J1,8,DRAIN*%
%TO.N,/USB_DRAIN*%
X149560000Y-135060900D03*
%TO.P,J1,9,SSRX-*%
%TO.N,/USB_SSRX-*%
X150210000Y-135060900D03*
%TO.P,J1,10,SSRX+*%
%TO.N,/USB_SSRX+*%
X150860000Y-135060900D03*
D15*
%TO.P,J1,11,SHIELD*%
%TO.N,/USB_DRAIN*%
X139110000Y-137735900D03*
D16*
X141660000Y-137735900D03*
X144060000Y-137735900D03*
D15*
X146610000Y-137735900D03*
D17*
X149360000Y-137735900D03*
D15*
X151960000Y-137735900D03*
%TD*%
D18*
%TO.N,/CONN_1_RESERVED*%
X137794700Y-67165100D03*
%TO.N,/CONN_GND*%
X139447500Y-67511900D03*
X137046400Y-67608300D03*
X138643500Y-66398400D03*
%TO.N,/CONN_22_RESERVED*%
X144885100Y-65196900D03*
%TO.N,/CONN_33_RESERVED*%
X148568000Y-69829600D03*
%TO.N,/CONN_20_RESERVED*%
X144780200Y-64466600D03*
%TO.N,/CONN_VBUS*%
X147847400Y-68140700D03*
%TO.N,/CONN_32_RESERVED*%
X149352000Y-69758900D03*
%TO.N,/CONN_14_USB2+*%
X137870500Y-70052600D03*
X142815200Y-64600600D03*
%TO.N,/CONN_5_RESERVED*%
X135110300Y-69899800D03*
%TO.N,/CONN_26_RESERVED*%
X145668100Y-64197900D03*
%TO.N,/CONN_16_USB2-*%
X143744300Y-65281500D03*
%TO.N,/CONN_2_USB3_RX+*%
X132227600Y-67024000D03*
%TO.N,/CONN_34_RESERVED*%
X147810200Y-66840700D03*
%TO.N,/CONN_10_USB3_TX-*%
X142084800Y-63971200D03*
%TD*%
D19*
%TO.N,/USB_SSTX+*%
X148910000Y-126185900D02*
X146560000Y-123835900D01*
X148910000Y-135060900D02*
X148910000Y-126185900D01*
%TO.N,/USB_D+*%
X142860000Y-135060900D02*
X142860000Y-130295900D01*
X142860000Y-130295900D02*
X136400000Y-123835900D01*
%TO.N,/CONN_28_RESERVED*%
X147805600Y-64821300D02*
X146462000Y-64821300D01*
X154940000Y-73660000D02*
X154940000Y-71955700D01*
X154940000Y-71955700D02*
X147805600Y-64821300D01*
X145760000Y-66097500D02*
X145760000Y-65523300D01*
X146462000Y-64821300D02*
X145760000Y-65523300D01*
%TO.N,/USB_D-*%
X142210000Y-135060900D02*
X142210000Y-132185900D01*
X142210000Y-132185900D02*
X133860000Y-123835900D01*
%TO.N,/USB_SSRX-*%
X150210000Y-135060900D02*
X150210000Y-125265900D01*
X150210000Y-125265900D02*
X151640000Y-123835900D01*
%TO.N,/USB_SSRX+*%
X150860000Y-134184200D02*
X154180000Y-130864200D01*
X154180000Y-130864200D02*
X154180000Y-123835900D01*
X150860000Y-135060900D02*
X150860000Y-134184200D01*
%TO.N,/USB_VBUS*%
X141560000Y-135060900D02*
X141560000Y-134184200D01*
X131320000Y-123835900D02*
X131320000Y-124887600D01*
X141560000Y-134184200D02*
X132263400Y-124887600D01*
X132263400Y-124887600D02*
X131320000Y-124887600D01*
%TO.N,/USB_SSTX-*%
X148260000Y-128075900D02*
X148260000Y-135060900D01*
X144020000Y-123835900D02*
X148260000Y-128075900D01*
%TO.N,/USB_ID*%
X143510000Y-128405900D02*
X138940000Y-123835900D01*
X143510000Y-135060900D02*
X143510000Y-128405900D01*
%TO.N,/USB_DRAIN*%
X139110000Y-137735900D02*
X141660000Y-137735900D01*
X148537600Y-137160000D02*
X147961700Y-137735900D01*
X144160000Y-136484200D02*
X144060000Y-136584200D01*
X146610000Y-137735900D02*
X146610000Y-136584200D01*
X149560000Y-136384200D02*
X149360000Y-136584200D01*
X144060000Y-137735900D02*
X144060000Y-136584200D01*
X141660000Y-137735900D02*
X144060000Y-137735900D01*
X149360000Y-137160000D02*
X149360000Y-136584200D01*
X149360000Y-137160000D02*
X148537600Y-137160000D01*
X149560000Y-124295900D02*
X149560000Y-135060900D01*
X149560000Y-136384200D02*
X151760000Y-136384200D01*
X146610000Y-137735900D02*
X147961700Y-137735900D01*
X149100000Y-123835900D02*
X149560000Y-124295900D01*
X146510000Y-136484200D02*
X146610000Y-136584200D01*
X149560000Y-135060900D02*
X149560000Y-136384200D01*
X144160000Y-136484200D02*
X146510000Y-136484200D01*
X149360000Y-137735900D02*
X149360000Y-137160000D01*
X151760000Y-136384200D02*
X151960000Y-136584200D01*
X144160000Y-135060900D02*
X144160000Y-136484200D01*
X151960000Y-137735900D02*
X151960000Y-136584200D01*
%TO.N,/CONN_9_RESERVED*%
X141387500Y-69550900D02*
X137215500Y-69550900D01*
X142610000Y-67452500D02*
X142610000Y-68026700D01*
X142610000Y-68026700D02*
X142610000Y-68328400D01*
X133243800Y-75036200D02*
X132080000Y-76200000D01*
X133243800Y-73522600D02*
X133243800Y-75036200D01*
X142610000Y-68328400D02*
X141387500Y-69550900D01*
X137215500Y-69550900D02*
X133243800Y-73522600D01*
%TO.N,/CONN_1_RESERVED*%
X140912100Y-66993300D02*
X141210000Y-67291200D01*
X137794700Y-67165100D02*
X137831400Y-67201800D01*
X137794700Y-67163500D02*
X137794700Y-67165100D01*
X138976200Y-67201800D02*
X139184700Y-66993300D01*
X139184700Y-66993300D02*
X140912100Y-66993300D01*
X137794700Y-67165100D02*
X137794700Y-67163500D01*
X141210000Y-67291200D02*
X141210000Y-67452500D01*
X137831400Y-67201800D02*
X138976200Y-67201800D01*
%TO.N,/CONN_29_RESERVED*%
X150047800Y-71933900D02*
X151213400Y-73099500D01*
X151213400Y-73099500D02*
X151213400Y-73997500D01*
X146110000Y-67452500D02*
X146110000Y-68087700D01*
X149956200Y-71933900D02*
X150047800Y-71933900D01*
X152145900Y-74930000D02*
X156210000Y-74930000D01*
X151213400Y-73997500D02*
X152145900Y-74930000D01*
X146110000Y-68087700D02*
X149956200Y-71933900D01*
X156210000Y-74930000D02*
X157480000Y-76200000D01*
%TO.N,/CONN_GND*%
X145060000Y-66670200D02*
X145058500Y-66671700D01*
X142960000Y-66670200D02*
X142960000Y-66671700D01*
X137134000Y-67695900D02*
X139263500Y-67695900D01*
X139001900Y-66040000D02*
X138643500Y-66398400D01*
X144010000Y-66670200D02*
X144010000Y-66671700D01*
X138643500Y-66398400D02*
X139001900Y-66040000D01*
X146253400Y-66671700D02*
X146110000Y-66671700D01*
X145410000Y-66878300D02*
X145203400Y-66671700D01*
X145410000Y-67452500D02*
X145410000Y-66878300D01*
X146110000Y-66670200D02*
X146110000Y-66671700D01*
X141910000Y-66671700D02*
X142958500Y-66671700D01*
X145060000Y-66097500D02*
X145060000Y-66670000D01*
X141910000Y-66097500D02*
X141910000Y-66671700D01*
X144011500Y-66671700D02*
X144010000Y-66670200D01*
X167640000Y-76200000D02*
X167640000Y-73660000D01*
X142958500Y-66671700D02*
X142960000Y-66670200D01*
X145060000Y-66670000D02*
X145060000Y-66670200D01*
X137046400Y-67608300D02*
X137134000Y-67695900D01*
X145058500Y-66671700D02*
X144011500Y-66671700D01*
X146110000Y-66670000D02*
X146110000Y-66670200D01*
X146460000Y-66878300D02*
X146253400Y-66671700D01*
X139263500Y-67695900D02*
X139447500Y-67511900D01*
X142960000Y-66097500D02*
X142960000Y-66670200D01*
X144010000Y-66097500D02*
X144010000Y-66670200D01*
X145901900Y-66878300D02*
X145410000Y-66878300D01*
X146110000Y-66670200D02*
X145901900Y-66878300D01*
X146460000Y-67452500D02*
X146460000Y-66878300D01*
X140700000Y-66040000D02*
X139001900Y-66040000D01*
X146110000Y-66097500D02*
X146110000Y-66670000D01*
X145410000Y-69210000D02*
X145410000Y-67452500D01*
X145203400Y-66671700D02*
X145060000Y-66671700D01*
X145060000Y-66670200D02*
X145060000Y-66671700D01*
X139449400Y-67510000D02*
X139447500Y-67511900D01*
X142960000Y-66671700D02*
X144010000Y-66671700D01*
X140700000Y-67510000D02*
X139449400Y-67510000D01*
X139001900Y-66040000D02*
X138643500Y-66398400D01*
X149860000Y-73660000D02*
X145410000Y-69210000D01*
%TO.N,/CONN_11_RESERVED*%
X135890000Y-74930000D02*
X134620000Y-76200000D01*
X142960000Y-68435600D02*
X138430100Y-72965500D01*
X138430100Y-72965500D02*
X138430100Y-73892600D01*
X138430100Y-73892600D02*
X137392700Y-74930000D01*
X137392700Y-74930000D02*
X135890000Y-74930000D01*
X142960000Y-67452500D02*
X142960000Y-68435600D01*
%TO.N,/CONN_22_RESERVED*%
X144710000Y-65372000D02*
X144710000Y-66097500D01*
X144885100Y-65196900D02*
X144710000Y-65372000D01*
%TO.N,/CONN_8_USB3_TX+*%
X125730000Y-76450600D02*
X124928900Y-77251700D01*
X142260000Y-66097500D02*
X142260000Y-65523300D01*
X128270000Y-74930000D02*
X126732600Y-74930000D01*
X141917000Y-65180300D02*
X142260000Y-65523300D01*
X124014900Y-77251700D02*
X123375800Y-76612600D01*
X125730000Y-75932600D02*
X125730000Y-76450600D01*
X131452500Y-65180300D02*
X141917000Y-65180300D01*
X123375800Y-76612600D02*
X123375800Y-73257000D01*
X123375800Y-73257000D02*
X131452500Y-65180300D01*
X129540000Y-73660000D02*
X128270000Y-74930000D01*
X124928900Y-77251700D02*
X124014900Y-77251700D01*
X126732600Y-74930000D02*
X125730000Y-75932600D01*
%TO.N,/CONN_23_RESERVED*%
X146261700Y-71099000D02*
X145060000Y-69897300D01*
X146261700Y-74116400D02*
X146261700Y-71099000D01*
X145060000Y-69897300D02*
X145060000Y-67452500D01*
X147157200Y-75011900D02*
X146261700Y-74116400D01*
X149860000Y-76200000D02*
X148671900Y-75011900D01*
X148671900Y-75011900D02*
X147157200Y-75011900D01*
%TO.N,/CONN_33_RESERVED*%
X146810000Y-68071600D02*
X148568000Y-69829600D01*
X146810000Y-67452500D02*
X146810000Y-68071600D01*
%TO.N,/CONN_19_RESERVED*%
X144360000Y-70175800D02*
X144360000Y-67452500D01*
X143724500Y-70811300D02*
X144360000Y-70175800D01*
X144780000Y-76200000D02*
X143724500Y-75144500D01*
X143724500Y-75144500D02*
X143724500Y-70811300D01*
%TO.N,/CONN_20_RESERVED*%
X144780200Y-64466600D02*
X144360000Y-64886800D01*
X144360000Y-64886800D02*
X144360000Y-66097500D01*
%TO.N,/CONN_VBUS*%
X147733400Y-68026700D02*
X147320000Y-68026700D01*
X147308500Y-67498500D02*
X147320000Y-67510000D01*
X165100000Y-73660000D02*
X165100000Y-76200000D01*
X147308500Y-66568200D02*
X147308500Y-67498500D01*
X147847400Y-68140700D02*
X147733400Y-68026700D01*
X147320000Y-66040000D02*
X147320000Y-66556700D01*
X147320000Y-66556700D02*
X147308500Y-66568200D01*
X147320000Y-67510000D02*
X147320000Y-68026700D01*
%TO.N,/CONN_27_RESERVED*%
X145760000Y-67452500D02*
X145760000Y-68026700D01*
X150911700Y-76218800D02*
X151957500Y-77264600D01*
X145760000Y-68026700D02*
X145760100Y-68026700D01*
X145760100Y-68026700D02*
X145760100Y-68164700D01*
X150911700Y-73224400D02*
X150911700Y-76218800D01*
X149831000Y-72235600D02*
X149922900Y-72235600D01*
X153875400Y-77264600D02*
X154940000Y-76200000D01*
X145760100Y-68164700D02*
X149831000Y-72235600D01*
X149922900Y-72235600D02*
X150911700Y-73224400D01*
X151957500Y-77264600D02*
X153875400Y-77264600D01*
%TO.N,/CONN_32_RESERVED*%
X149352000Y-69758900D02*
X149352000Y-66866400D01*
X146460000Y-65385400D02*
X146460000Y-66097500D01*
X149352000Y-66866400D02*
X147670700Y-65185100D01*
X146660300Y-65185100D02*
X146460000Y-65385400D01*
X147670700Y-65185100D02*
X146660300Y-65185100D01*
%TO.N,/CONN_15_RESERVED*%
X141165500Y-74734500D02*
X141165500Y-72517100D01*
X143660000Y-70022600D02*
X143660000Y-67452500D01*
X139700000Y-76200000D02*
X141165500Y-74734500D01*
X141165500Y-72517100D02*
X143660000Y-70022600D01*
%TO.N,/CONN_14_USB2+*%
X142815300Y-65156500D02*
X142815300Y-64600600D01*
X143310000Y-65651200D02*
X142815300Y-65156500D01*
X142815300Y-64600600D02*
X142815200Y-64600600D01*
X137160000Y-73660000D02*
X137870500Y-72949500D01*
X142815300Y-64600600D02*
X142815200Y-64600600D01*
X142815200Y-64600600D02*
X142815300Y-64600600D01*
X143310000Y-66097500D02*
X143310000Y-65651200D01*
X137870500Y-72949500D02*
X137870500Y-70052600D01*
%TO.N,/CONN_17_RESERVED*%
X142240000Y-76200000D02*
X143422800Y-75017200D01*
X144010000Y-70099200D02*
X144010000Y-67452500D01*
X143422800Y-70686400D02*
X144010000Y-70099200D01*
X143422800Y-75017200D02*
X143422800Y-70686400D01*
%TO.N,/CONN_21_RESERVED*%
X144710000Y-71988600D02*
X144710000Y-67452500D01*
X147320000Y-76200000D02*
X145854100Y-74734100D01*
X145854100Y-74734100D02*
X145854100Y-73132700D01*
X145854100Y-73132700D02*
X144710000Y-71988600D01*
%TO.N,/CONN_5_RESERVED*%
X141108100Y-68947500D02*
X136062600Y-68947500D01*
X136062600Y-68947500D02*
X135110300Y-69899800D01*
X141910000Y-68145600D02*
X141108100Y-68947500D01*
X141910000Y-67452500D02*
X141910000Y-68145600D01*
%TO.N,/CONN_26_RESERVED*%
X145668100Y-64197900D02*
X145410000Y-64456000D01*
X145410000Y-64456000D02*
X145410000Y-66097500D01*
%TO.N,/CONN_7_RESERVED*%
X142260000Y-68225800D02*
X141236600Y-69249200D01*
X130810100Y-74929900D02*
X129540000Y-76200000D01*
X132077500Y-72156200D02*
X130810100Y-73423600D01*
X136904700Y-69249200D02*
X133997700Y-72156200D01*
X141236600Y-69249200D02*
X136904700Y-69249200D01*
X133997700Y-72156200D02*
X132077500Y-72156200D01*
X130810100Y-73423600D02*
X130810100Y-74929900D01*
X142260000Y-67452500D02*
X142260000Y-68225800D01*
%TO.N,/CONN_16_USB2-*%
X143660000Y-65365800D02*
X143744300Y-65281500D01*
X143660000Y-66097500D02*
X143660000Y-65523300D01*
X143660000Y-65523300D02*
X143660000Y-65365800D01*
%TO.N,/CONN_13_RESERVED*%
X137160000Y-76200000D02*
X138648300Y-74711700D01*
X138648300Y-74711700D02*
X140233100Y-74711700D01*
X140775900Y-74168900D02*
X140775900Y-72480100D01*
X143310000Y-69946000D02*
X143310000Y-67452500D01*
X140775900Y-72480100D02*
X143310000Y-69946000D01*
X140233100Y-74711700D02*
X140775900Y-74168900D01*
%TO.N,/CONN_3_RESERVED*%
X141476700Y-68110000D02*
X141560000Y-68026700D01*
X125730100Y-73422400D02*
X131042500Y-68110000D01*
X131042500Y-68110000D02*
X141476700Y-68110000D01*
X124460000Y-76200000D02*
X125730100Y-74929900D01*
X125730100Y-74929900D02*
X125730100Y-73422400D01*
X141560000Y-67452500D02*
X141560000Y-68026700D01*
%TO.N,/CONN_4_USB3_RX-*%
X132596700Y-65523300D02*
X141560000Y-65523300D01*
X141560000Y-66097500D02*
X141560000Y-65523300D01*
X124460000Y-73660000D02*
X132596700Y-65523300D01*
%TO.N,/CONN_2_USB3_RX+*%
X132589800Y-66661800D02*
X132227600Y-67024000D01*
X138240800Y-66900100D02*
X138002500Y-66661800D01*
X139079700Y-66671700D02*
X138851300Y-66900100D01*
X138002500Y-66661800D02*
X132589800Y-66661800D01*
X141210000Y-66671700D02*
X139079700Y-66671700D01*
X138851300Y-66900100D02*
X138240800Y-66900100D01*
X141210000Y-66097500D02*
X141210000Y-66671700D01*
%TO.N,/CONN_34_RESERVED*%
X147810200Y-66840700D02*
X147810200Y-65824500D01*
X146810000Y-66097500D02*
X146810000Y-65523300D01*
X147810200Y-65824500D02*
X147509000Y-65523300D01*
X147509000Y-65523300D02*
X146810000Y-65523300D01*
%TO.N,/CONN_10_USB3_TX-*%
X142084800Y-63971200D02*
X142084800Y-63971300D01*
X142084800Y-64852600D02*
X142610000Y-65377800D01*
X142084800Y-63971200D02*
X142084800Y-64852600D01*
X142084800Y-63971300D02*
X142084800Y-63971200D01*
X142610000Y-65377800D02*
X142610000Y-66097500D01*
%TD*%
%TA.AperFunction,Conductor*%
%TO.N,/USB_DRAIN*%
G36*
X149576854Y-125176653D02*
G01*
X149607683Y-125239353D01*
X149609499Y-125260499D01*
X149609499Y-125354946D01*
X149609500Y-125354959D01*
X149609500Y-125737272D01*
X149589815Y-125804311D01*
X149537011Y-125850066D01*
X149467853Y-125860010D01*
X149404297Y-125830985D01*
X149396493Y-125822703D01*
X149396266Y-125822931D01*
X149390521Y-125817186D01*
X149390520Y-125817184D01*
X149278716Y-125705380D01*
X149278715Y-125705379D01*
X149274385Y-125701049D01*
X149274374Y-125701039D01*
X148970916Y-125397581D01*
X148937431Y-125336258D01*
X148942415Y-125266566D01*
X148984287Y-125210633D01*
X149049751Y-125186216D01*
X149058597Y-125185900D01*
X149206246Y-125185900D01*
X149416126Y-125152658D01*
X149447180Y-125142568D01*
X149517021Y-125140573D01*
X149576854Y-125176653D01*
G37*
%TD.AperFunction*%
%TA.AperFunction,Conductor*%
G36*
X164283039Y-119399685D02*
G01*
X164328794Y-119452489D01*
X164340000Y-119504000D01*
X164340000Y-142116000D01*
X164320315Y-142183039D01*
X164267511Y-142228794D01*
X164216000Y-142240000D01*
X126364000Y-142240000D01*
X126296961Y-142220315D01*
X126251206Y-142167511D01*
X126240000Y-142116000D01*
X126240000Y-138733744D01*
X137460000Y-138733744D01*
X137466401Y-138793272D01*
X137466403Y-138793279D01*
X137516645Y-138927986D01*
X137516649Y-138927993D01*
X137602809Y-139043087D01*
X137602812Y-139043090D01*
X137717906Y-139129250D01*
X137717913Y-139129254D01*
X137852620Y-139179496D01*
X137852627Y-139179498D01*
X137912155Y-139185899D01*
X137912172Y-139185900D01*
X138860000Y-139185900D01*
X139360000Y-139185900D01*
X140307828Y-139185900D01*
X140307844Y-139185899D01*
X140367371Y-139179498D01*
X140441666Y-139151788D01*
X140511358Y-139146804D01*
X140528334Y-139151788D01*
X140602628Y-139179498D01*
X140602627Y-139179498D01*
X140662155Y-139185899D01*
X140662172Y-139185900D01*
X141410000Y-139185900D01*
X141910000Y-139185900D01*
X142657828Y-139185900D01*
X142657844Y-139185899D01*
X142717372Y-139179498D01*
X142717376Y-139179497D01*
X142816666Y-139142464D01*
X142886358Y-139137480D01*
X142903334Y-139142464D01*
X143002623Y-139179497D01*
X143002627Y-139179498D01*
X143062155Y-139185899D01*
X143062172Y-139185900D01*
X143810000Y-139185900D01*
X144310000Y-139185900D01*
X145057828Y-139185900D01*
X145057844Y-139185899D01*
X145117371Y-139179498D01*
X145191666Y-139151788D01*
X145261358Y-139146804D01*
X145278334Y-139151788D01*
X145352628Y-139179498D01*
X145352627Y-139179498D01*
X145412155Y-139185899D01*
X145412172Y-139185900D01*
X146360000Y-139185900D01*
X146860000Y-139185900D01*
X147807828Y-139185900D01*
X147807844Y-139185899D01*
X147867372Y-139179498D01*
X147867376Y-139179497D01*
X148002090Y-139129251D01*
X148035688Y-139104100D01*
X148101152Y-139079682D01*
X148169425Y-139094533D01*
X148184312Y-139104100D01*
X148217909Y-139129251D01*
X148352623Y-139179497D01*
X148352627Y-139179498D01*
X148412155Y-139185899D01*
X148412172Y-139185900D01*
X149110000Y-139185900D01*
X149610000Y-139185900D01*
X150307828Y-139185900D01*
X150307844Y-139185899D01*
X150367372Y-139179498D01*
X150367383Y-139179495D01*
X150491666Y-139133140D01*
X150561357Y-139128155D01*
X150578334Y-139133140D01*
X150702616Y-139179495D01*
X150702627Y-139179498D01*
X150762155Y-139185899D01*
X150762172Y-139185900D01*
X151710000Y-139185900D01*
X152210000Y-139185900D01*
X153157828Y-139185900D01*
X153157844Y-139185899D01*
X153217372Y-139179498D01*
X153217379Y-139179496D01*
X153352086Y-139129254D01*
X153352093Y-139129250D01*
X153467187Y-139043090D01*
X153467190Y-139043087D01*
X153553350Y-138927993D01*
X153553354Y-138927986D01*
X153603596Y-138793279D01*
X153603598Y-138793272D01*
X153609999Y-138733744D01*
X153610000Y-138733727D01*
X153610000Y-137985900D01*
X152210000Y-137985900D01*
X152210000Y-139185900D01*
X151710000Y-139185900D01*
X151710000Y-137985900D01*
X149610000Y-137985900D01*
X149610000Y-139185900D01*
X149110000Y-139185900D01*
X149110000Y-137985900D01*
X146860000Y-137985900D01*
X146860000Y-139185900D01*
X146360000Y-139185900D01*
X146360000Y-137985900D01*
X144310000Y-137985900D01*
X144310000Y-139185900D01*
X143810000Y-139185900D01*
X143810000Y-137985900D01*
X141910000Y-137985900D01*
X141910000Y-139185900D01*
X141410000Y-139185900D01*
X141410000Y-137985900D01*
X139360000Y-137985900D01*
X139360000Y-139185900D01*
X138860000Y-139185900D01*
X138860000Y-137985900D01*
X137460000Y-137985900D01*
X137460000Y-138733744D01*
X126240000Y-138733744D01*
X126240000Y-136738055D01*
X137460000Y-136738055D01*
X137460000Y-137485900D01*
X138860000Y-137485900D01*
X138860000Y-136285900D01*
X137912155Y-136285900D01*
X137852627Y-136292301D01*
X137852620Y-136292303D01*
X137717913Y-136342545D01*
X137717906Y-136342549D01*
X137602812Y-136428709D01*
X137602809Y-136428712D01*
X137516649Y-136543806D01*
X137516645Y-136543813D01*
X137466403Y-136678520D01*
X137466401Y-136678527D01*
X137460000Y-136738055D01*
X126240000Y-136738055D01*
X126240000Y-122938035D01*
X129969500Y-122938035D01*
X129969500Y-124733770D01*
X129969501Y-124733776D01*
X129975908Y-124793383D01*
X130026202Y-124928228D01*
X130026206Y-124928235D01*
X130112452Y-125043444D01*
X130112455Y-125043447D01*
X130227664Y-125129693D01*
X130227671Y-125129697D01*
X130272618Y-125146461D01*
X130362517Y-125179991D01*
X130422127Y-125186400D01*
X130727521Y-125186399D01*
X130794560Y-125206083D01*
X130834906Y-125248395D01*
X130839477Y-125256312D01*
X130839479Y-125256315D01*
X130839480Y-125256316D01*
X130951284Y-125368120D01*
X130951286Y-125368121D01*
X130951290Y-125368124D01*
X131002312Y-125397581D01*
X131088216Y-125447177D01*
X131240943Y-125488100D01*
X131963303Y-125488100D01*
X132030342Y-125507785D01*
X132050984Y-125524419D01*
X140823181Y-134296617D01*
X140856666Y-134357940D01*
X140859500Y-134384298D01*
X140859500Y-135783770D01*
X140859501Y-135783776D01*
X140865908Y-135843383D01*
X140916202Y-135978228D01*
X140916206Y-135978235D01*
X140998069Y-136087589D01*
X141022487Y-136153053D01*
X141007636Y-136221326D01*
X140958231Y-136270732D01*
X140898803Y-136285900D01*
X140662155Y-136285900D01*
X140602627Y-136292301D01*
X140602617Y-136292303D01*
X140528332Y-136320010D01*
X140458641Y-136324994D01*
X140441668Y-136320010D01*
X140367382Y-136292303D01*
X140367372Y-136292301D01*
X140307844Y-136285900D01*
X139360000Y-136285900D01*
X139360000Y-137485900D01*
X143810000Y-137485900D01*
X143810000Y-136318877D01*
X143829685Y-136251838D01*
X143882489Y-136206083D01*
X143890668Y-136202695D01*
X143952326Y-136179698D01*
X143952326Y-136179697D01*
X143952331Y-136179696D01*
X144067546Y-136093446D01*
X144136735Y-136001021D01*
X144161306Y-135982627D01*
X144184489Y-135962540D01*
X144189009Y-135961890D01*
X144192667Y-135959152D01*
X144223275Y-135956963D01*
X144253647Y-135952596D01*
X144257802Y-135954493D01*
X144262359Y-135954168D01*
X144289291Y-135968874D01*
X144317203Y-135981621D01*
X144319672Y-135985463D01*
X144323682Y-135987653D01*
X144338386Y-136014583D01*
X144354977Y-136040399D01*
X144355868Y-136046601D01*
X144357166Y-136048977D01*
X144360000Y-136075334D01*
X144360000Y-136264538D01*
X144340315Y-136331577D01*
X144323681Y-136352219D01*
X144310000Y-136365900D01*
X144310000Y-137485900D01*
X146360000Y-137485900D01*
X146360000Y-136285900D01*
X145412155Y-136285900D01*
X145352627Y-136292301D01*
X145352617Y-136292303D01*
X145278332Y-136320010D01*
X145208641Y-136324994D01*
X145191668Y-136320010D01*
X145117382Y-136292303D01*
X145117372Y-136292301D01*
X145057844Y-136285900D01*
X144820573Y-136285900D01*
X144753534Y-136266215D01*
X144707779Y-136213411D01*
X144697835Y-136144253D01*
X144721306Y-136087589D01*
X144803353Y-135977988D01*
X144803354Y-135977986D01*
X144853596Y-135843279D01*
X144853598Y-135843272D01*
X144859999Y-135783744D01*
X144860000Y-135783727D01*
X144860000Y-135260900D01*
X144334500Y-135260900D01*
X144325814Y-135258349D01*
X144316854Y-135259638D01*
X144292815Y-135248659D01*
X144267461Y-135241215D01*
X144261533Y-135234373D01*
X144253298Y-135230613D01*
X144239009Y-135208379D01*
X144221706Y-135188411D01*
X144219418Y-135177897D01*
X144215523Y-135171836D01*
X144210500Y-135136901D01*
X144210499Y-134984901D01*
X144230183Y-134917861D01*
X144282987Y-134872106D01*
X144334499Y-134860900D01*
X144860000Y-134860900D01*
X144860000Y-134338072D01*
X144859999Y-134338055D01*
X144853598Y-134278527D01*
X144853596Y-134278520D01*
X144803354Y-134143813D01*
X144803350Y-134143806D01*
X144717190Y-134028712D01*
X144717187Y-134028709D01*
X144602093Y-133942549D01*
X144602086Y-133942545D01*
X144467379Y-133892303D01*
X144467372Y-133892301D01*
X144407844Y-133885900D01*
X144360000Y-133885900D01*
X144360000Y-134046464D01*
X144351357Y-134075896D01*
X144344843Y-134105871D01*
X144341604Y-134109110D01*
X144340315Y-134113503D01*
X144317138Y-134133585D01*
X144295447Y-134155285D01*
X144290971Y-134156259D01*
X144287511Y-134159258D01*
X144257152Y-134163623D01*
X144227177Y-134170150D01*
X144222885Y-134168550D01*
X144218353Y-134169202D01*
X144190450Y-134156459D01*
X144161708Y-134145745D01*
X144157265Y-134141304D01*
X144154797Y-134140177D01*
X144136747Y-134120793D01*
X144135247Y-134118790D01*
X144110818Y-134053330D01*
X144110500Y-134044461D01*
X144110500Y-128494959D01*
X144110501Y-128494946D01*
X144110501Y-128326845D01*
X144110501Y-128326843D01*
X144069577Y-128174115D01*
X144040639Y-128123995D01*
X143990520Y-128037184D01*
X143878716Y-127925380D01*
X143878715Y-127925379D01*
X143874385Y-127921049D01*
X143874374Y-127921039D01*
X141350916Y-125397581D01*
X141317431Y-125336258D01*
X141322415Y-125266566D01*
X141364287Y-125210633D01*
X141429751Y-125186216D01*
X141438597Y-125185900D01*
X141586246Y-125185900D01*
X141796127Y-125152657D01*
X141796130Y-125152657D01*
X141998217Y-125086995D01*
X142187554Y-124990522D01*
X142241716Y-124951170D01*
X142241717Y-124951170D01*
X141609408Y-124318862D01*
X141672993Y-124301825D01*
X141787007Y-124235999D01*
X141880099Y-124142907D01*
X141945925Y-124028893D01*
X141962962Y-123965308D01*
X142595270Y-124597617D01*
X142595270Y-124597616D01*
X142634622Y-124543455D01*
X142639232Y-124534407D01*
X142687205Y-124483609D01*
X142755025Y-124466812D01*
X142821161Y-124489347D01*
X142860204Y-124534404D01*
X142864949Y-124543717D01*
X142989890Y-124715686D01*
X143140213Y-124866009D01*
X143312179Y-124990948D01*
X143312181Y-124990949D01*
X143312184Y-124990951D01*
X143501588Y-125087457D01*
X143703757Y-125153146D01*
X143913713Y-125186400D01*
X143913714Y-125186400D01*
X144126286Y-125186400D01*
X144126287Y-125186400D01*
X144336243Y-125153146D01*
X144378523Y-125139407D01*
X144448362Y-125137411D01*
X144504522Y-125169657D01*
X147623181Y-128288316D01*
X147656666Y-128349639D01*
X147659500Y-128375997D01*
X147659500Y-134044461D01*
X147639815Y-134111500D01*
X147634767Y-134118772D01*
X147616204Y-134143568D01*
X147616202Y-134143571D01*
X147565908Y-134278417D01*
X147559501Y-134338016D01*
X147559500Y-134338035D01*
X147559500Y-135783770D01*
X147559501Y-135783776D01*
X147565908Y-135843383D01*
X147616202Y-135978228D01*
X147616206Y-135978235D01*
X147698069Y-136087589D01*
X147722487Y-136153053D01*
X147707636Y-136221326D01*
X147658231Y-136270732D01*
X147598803Y-136285900D01*
X146860000Y-136285900D01*
X146860000Y-137485900D01*
X149110000Y-137485900D01*
X149110000Y-136352930D01*
X149129685Y-136285891D01*
X149182489Y-136240136D01*
X149210116Y-136232557D01*
X149209932Y-136231776D01*
X149217479Y-136229992D01*
X149217481Y-136229991D01*
X149217483Y-136229991D01*
X149352331Y-136179696D01*
X149467546Y-136093446D01*
X149467548Y-136093442D01*
X149472314Y-136088677D01*
X149473615Y-136087966D01*
X149474357Y-136086680D01*
X149504173Y-136071278D01*
X149533635Y-136055189D01*
X149535115Y-136055294D01*
X149536434Y-136054614D01*
X149569846Y-136057777D01*
X149603327Y-136060170D01*
X149604992Y-136061104D01*
X149605993Y-136061199D01*
X149610756Y-136064338D01*
X149636572Y-136078822D01*
X149648541Y-136088219D01*
X149652454Y-136093446D01*
X149711480Y-136137633D01*
X149712573Y-136138491D01*
X149732058Y-136165807D01*
X149752182Y-136192689D01*
X149752503Y-136194469D01*
X149753147Y-136195372D01*
X149753323Y-136199016D01*
X149760000Y-136236023D01*
X149760000Y-136241900D01*
X149756052Y-136255343D01*
X149756528Y-136265160D01*
X149749681Y-136277040D01*
X149740315Y-136308939D01*
X149722306Y-136324543D01*
X149721642Y-136325697D01*
X149719991Y-136326549D01*
X149687511Y-136354694D01*
X149636000Y-136365900D01*
X149610000Y-136365900D01*
X149610000Y-137485900D01*
X151710000Y-137485900D01*
X152210000Y-137485900D01*
X153610000Y-137485900D01*
X153610000Y-136738072D01*
X153609999Y-136738055D01*
X153603598Y-136678527D01*
X153603596Y-136678520D01*
X153553354Y-136543813D01*
X153553350Y-136543806D01*
X153467190Y-136428712D01*
X153467187Y-136428709D01*
X153352093Y-136342549D01*
X153352086Y-136342545D01*
X153217379Y-136292303D01*
X153217372Y-136292301D01*
X153157844Y-136285900D01*
X152210000Y-136285900D01*
X152210000Y-137485900D01*
X151710000Y-137485900D01*
X151710000Y-136285900D01*
X151521197Y-136285900D01*
X151454158Y-136266215D01*
X151408403Y-136213411D01*
X151398459Y-136144253D01*
X151421931Y-136087589D01*
X151503793Y-135978235D01*
X151503792Y-135978235D01*
X151503796Y-135978231D01*
X151554091Y-135843383D01*
X151560500Y-135783773D01*
X151560499Y-134384295D01*
X151580184Y-134317257D01*
X151596813Y-134296620D01*
X154548713Y-131344721D01*
X154548716Y-131344720D01*
X154660520Y-131232916D01*
X154710639Y-131146104D01*
X154739577Y-131095985D01*
X154780501Y-130943257D01*
X154780501Y-130785143D01*
X154780501Y-130777548D01*
X154780500Y-130777530D01*
X154780500Y-125121618D01*
X154800185Y-125054579D01*
X154848207Y-125011133D01*
X154887815Y-124990952D01*
X154887815Y-124990951D01*
X154887816Y-124990951D01*
X154979193Y-124924561D01*
X155059786Y-124866009D01*
X155059788Y-124866006D01*
X155059792Y-124866004D01*
X155210104Y-124715692D01*
X155210106Y-124715688D01*
X155210109Y-124715686D01*
X155295890Y-124597617D01*
X155335051Y-124543716D01*
X155339793Y-124534408D01*
X155387763Y-124483611D01*
X155455583Y-124466811D01*
X155521719Y-124489345D01*
X155560763Y-124534400D01*
X155565373Y-124543447D01*
X155604728Y-124597616D01*
X156237037Y-123965308D01*
X156254075Y-124028893D01*
X156319901Y-124142907D01*
X156412993Y-124235999D01*
X156527007Y-124301825D01*
X156590590Y-124318862D01*
X155958282Y-124951169D01*
X155958282Y-124951170D01*
X156012449Y-124990524D01*
X156201782Y-125086995D01*
X156403870Y-125152657D01*
X156613754Y-125185900D01*
X156826246Y-125185900D01*
X157036127Y-125152657D01*
X157036130Y-125152657D01*
X157238217Y-125086995D01*
X157427554Y-124990522D01*
X157481716Y-124951170D01*
X157481717Y-124951170D01*
X156849408Y-124318862D01*
X156912993Y-124301825D01*
X157027007Y-124235999D01*
X157120099Y-124142907D01*
X157185925Y-124028893D01*
X157202962Y-123965308D01*
X157835270Y-124597617D01*
X157835270Y-124597616D01*
X157874622Y-124543455D01*
X157879232Y-124534407D01*
X157927205Y-124483609D01*
X157995025Y-124466812D01*
X158061161Y-124489347D01*
X158100204Y-124534404D01*
X158104949Y-124543717D01*
X158229890Y-124715686D01*
X158380213Y-124866009D01*
X158552179Y-124990948D01*
X158552181Y-124990949D01*
X158552184Y-124990951D01*
X158741588Y-125087457D01*
X158943757Y-125153146D01*
X159153713Y-125186400D01*
X159153714Y-125186400D01*
X159366286Y-125186400D01*
X159366287Y-125186400D01*
X159576243Y-125153146D01*
X159778412Y-125087457D01*
X159967816Y-124990951D01*
X160054138Y-124928235D01*
X160139786Y-124866009D01*
X160139788Y-124866006D01*
X160139792Y-124866004D01*
X160290104Y-124715692D01*
X160290106Y-124715688D01*
X160290109Y-124715686D01*
X160415048Y-124543720D01*
X160415047Y-124543720D01*
X160415051Y-124543716D01*
X160511557Y-124354312D01*
X160577246Y-124152143D01*
X160610500Y-123942187D01*
X160610500Y-123729613D01*
X160577246Y-123519657D01*
X160511557Y-123317488D01*
X160415051Y-123128084D01*
X160415049Y-123128081D01*
X160415048Y-123128079D01*
X160290109Y-122956113D01*
X160139786Y-122805790D01*
X159967820Y-122680851D01*
X159778414Y-122584344D01*
X159778413Y-122584343D01*
X159778412Y-122584343D01*
X159576243Y-122518654D01*
X159576241Y-122518653D01*
X159576240Y-122518653D01*
X159414957Y-122493108D01*
X159366287Y-122485400D01*
X159153713Y-122485400D01*
X159105042Y-122493108D01*
X158943760Y-122518653D01*
X158741585Y-122584344D01*
X158552179Y-122680851D01*
X158380213Y-122805790D01*
X158229890Y-122956113D01*
X158104949Y-123128082D01*
X158100202Y-123137399D01*
X158052227Y-123188193D01*
X157984405Y-123204987D01*
X157918271Y-123182448D01*
X157879234Y-123137395D01*
X157874626Y-123128352D01*
X157835270Y-123074182D01*
X157835269Y-123074182D01*
X157202962Y-123706490D01*
X157185925Y-123642907D01*
X157120099Y-123528893D01*
X157027007Y-123435801D01*
X156912993Y-123369975D01*
X156849409Y-123352937D01*
X157481716Y-122720628D01*
X157427550Y-122681275D01*
X157238217Y-122584804D01*
X157036129Y-122519142D01*
X156826246Y-122485900D01*
X156613754Y-122485900D01*
X156403872Y-122519142D01*
X156403869Y-122519142D01*
X156201782Y-122584804D01*
X156012439Y-122681280D01*
X155958282Y-122720627D01*
X155958282Y-122720628D01*
X156590591Y-123352937D01*
X156527007Y-123369975D01*
X156412993Y-123435801D01*
X156319901Y-123528893D01*
X156254075Y-123642907D01*
X156237037Y-123706491D01*
X155604728Y-123074182D01*
X155604727Y-123074182D01*
X155565380Y-123128340D01*
X155565376Y-123128346D01*
X155560760Y-123137405D01*
X155512781Y-123188197D01*
X155444959Y-123204987D01*
X155378826Y-123182443D01*
X155339794Y-123137393D01*
X155335051Y-123128084D01*
X155335049Y-123128081D01*
X155335048Y-123128079D01*
X155210109Y-122956113D01*
X155059786Y-122805790D01*
X154887820Y-122680851D01*
X154698414Y-122584344D01*
X154698413Y-122584343D01*
X154698412Y-122584343D01*
X154496243Y-122518654D01*
X154496241Y-122518653D01*
X154496240Y-122518653D01*
X154334957Y-122493108D01*
X154286287Y-122485400D01*
X154073713Y-122485400D01*
X154025042Y-122493108D01*
X153863760Y-122518653D01*
X153661585Y-122584344D01*
X153472179Y-122680851D01*
X153300213Y-122805790D01*
X153149890Y-122956113D01*
X153024949Y-123128082D01*
X153020484Y-123136846D01*
X152972509Y-123187642D01*
X152904688Y-123204436D01*
X152838553Y-123181898D01*
X152799516Y-123136846D01*
X152795050Y-123128082D01*
X152670109Y-122956113D01*
X152519786Y-122805790D01*
X152347820Y-122680851D01*
X152158414Y-122584344D01*
X152158413Y-122584343D01*
X152158412Y-122584343D01*
X151956243Y-122518654D01*
X151956241Y-122518653D01*
X151956240Y-122518653D01*
X151794957Y-122493108D01*
X151746287Y-122485400D01*
X151533713Y-122485400D01*
X151485042Y-122493108D01*
X151323760Y-122518653D01*
X151121585Y-122584344D01*
X150932179Y-122680851D01*
X150760213Y-122805790D01*
X150609890Y-122956113D01*
X150484949Y-123128082D01*
X150480202Y-123137399D01*
X150432227Y-123188193D01*
X150364405Y-123204987D01*
X150298271Y-123182448D01*
X150259234Y-123137395D01*
X150254626Y-123128352D01*
X150215270Y-123074182D01*
X150215269Y-123074182D01*
X149582962Y-123706489D01*
X149565925Y-123642907D01*
X149500099Y-123528893D01*
X149407007Y-123435801D01*
X149292993Y-123369975D01*
X149229409Y-123352937D01*
X149861716Y-122720628D01*
X149807550Y-122681275D01*
X149618217Y-122584804D01*
X149416129Y-122519142D01*
X149206246Y-122485900D01*
X148993754Y-122485900D01*
X148783872Y-122519142D01*
X148783869Y-122519142D01*
X148581782Y-122584804D01*
X148392439Y-122681280D01*
X148338282Y-122720627D01*
X148338282Y-122720628D01*
X148970591Y-123352937D01*
X148907007Y-123369975D01*
X148792993Y-123435801D01*
X148699901Y-123528893D01*
X148634075Y-123642907D01*
X148617037Y-123706491D01*
X147984728Y-123074182D01*
X147984727Y-123074182D01*
X147945380Y-123128340D01*
X147945376Y-123128346D01*
X147940760Y-123137405D01*
X147892781Y-123188197D01*
X147824959Y-123204987D01*
X147758826Y-123182443D01*
X147719794Y-123137393D01*
X147715051Y-123128084D01*
X147715049Y-123128081D01*
X147715048Y-123128079D01*
X147590109Y-122956113D01*
X147439786Y-122805790D01*
X147267820Y-122680851D01*
X147078414Y-122584344D01*
X147078413Y-122584343D01*
X147078412Y-122584343D01*
X146876243Y-122518654D01*
X146876241Y-122518653D01*
X146876240Y-122518653D01*
X146714957Y-122493108D01*
X146666287Y-122485400D01*
X146453713Y-122485400D01*
X146405042Y-122493108D01*
X146243760Y-122518653D01*
X146041585Y-122584344D01*
X145852179Y-122680851D01*
X145680213Y-122805790D01*
X145529890Y-122956113D01*
X145404949Y-123128082D01*
X145400484Y-123136846D01*
X145352509Y-123187642D01*
X145284688Y-123204436D01*
X145218553Y-123181898D01*
X145179516Y-123136846D01*
X145175050Y-123128082D01*
X145050109Y-122956113D01*
X144899786Y-122805790D01*
X144727820Y-122680851D01*
X144538414Y-122584344D01*
X144538413Y-122584343D01*
X144538412Y-122584343D01*
X144336243Y-122518654D01*
X144336241Y-122518653D01*
X144336240Y-122518653D01*
X144174957Y-122493108D01*
X144126287Y-122485400D01*
X143913713Y-122485400D01*
X143865042Y-122493108D01*
X143703760Y-122518653D01*
X143501585Y-122584344D01*
X143312179Y-122680851D01*
X143140213Y-122805790D01*
X142989890Y-122956113D01*
X142864949Y-123128082D01*
X142860202Y-123137399D01*
X142812227Y-123188193D01*
X142744405Y-123204987D01*
X142678271Y-123182448D01*
X142639234Y-123137395D01*
X142634626Y-123128352D01*
X142595270Y-123074182D01*
X142595269Y-123074182D01*
X141962962Y-123706490D01*
X141945925Y-123642907D01*
X141880099Y-123528893D01*
X141787007Y-123435801D01*
X141672993Y-123369975D01*
X141609409Y-123352937D01*
X142241716Y-122720628D01*
X142187550Y-122681275D01*
X141998217Y-122584804D01*
X141796129Y-122519142D01*
X141586246Y-122485900D01*
X141373754Y-122485900D01*
X141163872Y-122519142D01*
X141163869Y-122519142D01*
X140961782Y-122584804D01*
X140772439Y-122681280D01*
X140718282Y-122720627D01*
X140718282Y-122720628D01*
X141350591Y-123352937D01*
X141287007Y-123369975D01*
X141172993Y-123435801D01*
X141079901Y-123528893D01*
X141014075Y-123642907D01*
X140997037Y-123706491D01*
X140364728Y-123074182D01*
X140364727Y-123074182D01*
X140325380Y-123128340D01*
X140325376Y-123128346D01*
X140320760Y-123137405D01*
X140272781Y-123188197D01*
X140204959Y-123204987D01*
X140138826Y-123182443D01*
X140099794Y-123137393D01*
X140095051Y-123128084D01*
X140095049Y-123128081D01*
X140095048Y-123128079D01*
X139970109Y-122956113D01*
X139819786Y-122805790D01*
X139647820Y-122680851D01*
X139458414Y-122584344D01*
X139458413Y-122584343D01*
X139458412Y-122584343D01*
X139256243Y-122518654D01*
X139256241Y-122518653D01*
X139256240Y-122518653D01*
X139094957Y-122493108D01*
X139046287Y-122485400D01*
X138833713Y-122485400D01*
X138785042Y-122493108D01*
X138623760Y-122518653D01*
X138421585Y-122584344D01*
X138232179Y-122680851D01*
X138060213Y-122805790D01*
X137909890Y-122956113D01*
X137784949Y-123128082D01*
X137780484Y-123136846D01*
X137732509Y-123187642D01*
X137664688Y-123204436D01*
X137598553Y-123181898D01*
X137559516Y-123136846D01*
X137555050Y-123128082D01*
X137430109Y-122956113D01*
X137279786Y-122805790D01*
X137107820Y-122680851D01*
X136918414Y-122584344D01*
X136918413Y-122584343D01*
X136918412Y-122584343D01*
X136716243Y-122518654D01*
X136716241Y-122518653D01*
X136716240Y-122518653D01*
X136554957Y-122493108D01*
X136506287Y-122485400D01*
X136293713Y-122485400D01*
X136245042Y-122493108D01*
X136083760Y-122518653D01*
X135881585Y-122584344D01*
X135692179Y-122680851D01*
X135520213Y-122805790D01*
X135369890Y-122956113D01*
X135244949Y-123128082D01*
X135240484Y-123136846D01*
X135192509Y-123187642D01*
X135124688Y-123204436D01*
X135058553Y-123181898D01*
X135019516Y-123136846D01*
X135015050Y-123128082D01*
X134890109Y-122956113D01*
X134739786Y-122805790D01*
X134567820Y-122680851D01*
X134378414Y-122584344D01*
X134378413Y-122584343D01*
X134378412Y-122584343D01*
X134176243Y-122518654D01*
X134176241Y-122518653D01*
X134176240Y-122518653D01*
X134014957Y-122493108D01*
X133966287Y-122485400D01*
X133753713Y-122485400D01*
X133705042Y-122493108D01*
X133543760Y-122518653D01*
X133341585Y-122584344D01*
X133152179Y-122680851D01*
X132980215Y-122805789D01*
X132866673Y-122919331D01*
X132805350Y-122952815D01*
X132735658Y-122947831D01*
X132679725Y-122905959D01*
X132662810Y-122874982D01*
X132613797Y-122743571D01*
X132613793Y-122743564D01*
X132527547Y-122628355D01*
X132527544Y-122628352D01*
X132412335Y-122542106D01*
X132412328Y-122542102D01*
X132277482Y-122491808D01*
X132277483Y-122491808D01*
X132217883Y-122485401D01*
X132217881Y-122485400D01*
X132217873Y-122485400D01*
X132217864Y-122485400D01*
X130422129Y-122485400D01*
X130422123Y-122485401D01*
X130362516Y-122491808D01*
X130227671Y-122542102D01*
X130227664Y-122542106D01*
X130112455Y-122628352D01*
X130112452Y-122628355D01*
X130026206Y-122743564D01*
X130026202Y-122743571D01*
X129975908Y-122878417D01*
X129969501Y-122938016D01*
X129969500Y-122938035D01*
X126240000Y-122938035D01*
X126240000Y-119504000D01*
X126259685Y-119436961D01*
X126312489Y-119391206D01*
X126364000Y-119380000D01*
X164216000Y-119380000D01*
X164283039Y-119399685D01*
G37*
%TD.AperFunction*%
%TD*%
%TA.AperFunction,Conductor*%
%TO.N,/CONN_GND*%
G36*
X141294982Y-63519685D02*
G01*
X141340737Y-63572489D01*
X141350681Y-63641647D01*
X141342505Y-63671450D01*
X141315063Y-63737703D01*
X141315062Y-63737706D01*
X141315062Y-63737707D01*
X141315061Y-63737710D01*
X141284300Y-63892353D01*
X141284300Y-64050046D01*
X141315061Y-64204689D01*
X141315064Y-64204701D01*
X141375402Y-64350372D01*
X141375409Y-64350385D01*
X141399814Y-64386909D01*
X141420692Y-64453586D01*
X141402208Y-64520967D01*
X141350229Y-64567657D01*
X141296712Y-64579800D01*
X131539170Y-64579800D01*
X131539154Y-64579799D01*
X131531558Y-64579799D01*
X131373443Y-64579799D01*
X131297079Y-64600261D01*
X131220714Y-64620723D01*
X131220709Y-64620726D01*
X131083790Y-64699775D01*
X131083782Y-64699781D01*
X123064411Y-72719152D01*
X123003088Y-72752637D01*
X122933396Y-72747653D01*
X122889049Y-72719153D01*
X122879498Y-72709602D01*
X122799792Y-72629896D01*
X122799788Y-72629893D01*
X122799784Y-72629889D01*
X122627820Y-72504951D01*
X122438414Y-72408444D01*
X122438413Y-72408443D01*
X122438412Y-72408443D01*
X122236243Y-72342754D01*
X122236241Y-72342753D01*
X122236240Y-72342753D01*
X122074957Y-72317208D01*
X122026287Y-72309500D01*
X121813713Y-72309500D01*
X121765042Y-72317208D01*
X121603760Y-72342753D01*
X121401585Y-72408444D01*
X121212179Y-72504951D01*
X121040213Y-72629890D01*
X120889890Y-72780213D01*
X120764951Y-72952179D01*
X120668444Y-73141585D01*
X120602753Y-73343760D01*
X120569500Y-73553713D01*
X120569500Y-73766286D01*
X120602753Y-73976239D01*
X120668444Y-74178414D01*
X120764951Y-74367820D01*
X120889890Y-74539786D01*
X121003430Y-74653326D01*
X121036915Y-74714649D01*
X121031931Y-74784341D01*
X120990059Y-74840274D01*
X120959083Y-74857189D01*
X120827669Y-74906203D01*
X120827664Y-74906206D01*
X120712455Y-74992452D01*
X120712452Y-74992455D01*
X120626206Y-75107664D01*
X120626202Y-75107671D01*
X120575908Y-75242517D01*
X120569501Y-75302116D01*
X120569500Y-75302135D01*
X120569500Y-77097870D01*
X120569501Y-77097876D01*
X120575908Y-77157483D01*
X120626202Y-77292328D01*
X120626206Y-77292335D01*
X120712452Y-77407544D01*
X120712455Y-77407547D01*
X120827664Y-77493793D01*
X120827671Y-77493797D01*
X120962517Y-77544091D01*
X120962516Y-77544091D01*
X120969444Y-77544835D01*
X121022127Y-77550500D01*
X122817872Y-77550499D01*
X122877483Y-77544091D01*
X123012331Y-77493796D01*
X123127546Y-77407546D01*
X123127548Y-77407542D01*
X123133817Y-77401275D01*
X123135635Y-77403093D01*
X123180729Y-77369318D01*
X123250420Y-77364316D01*
X123311751Y-77397786D01*
X123530039Y-77616074D01*
X123530049Y-77616085D01*
X123534379Y-77620415D01*
X123534380Y-77620416D01*
X123646184Y-77732220D01*
X123732995Y-77782339D01*
X123732997Y-77782341D01*
X123771051Y-77804311D01*
X123783115Y-77811277D01*
X123935843Y-77852201D01*
X123935846Y-77852201D01*
X124101553Y-77852201D01*
X124101569Y-77852200D01*
X124842231Y-77852200D01*
X124842247Y-77852201D01*
X124849843Y-77852201D01*
X125007954Y-77852201D01*
X125007957Y-77852201D01*
X125160685Y-77811277D01*
X125210804Y-77782339D01*
X125297616Y-77732220D01*
X125409420Y-77620416D01*
X125409420Y-77620414D01*
X125419628Y-77610207D01*
X125419630Y-77610204D01*
X125872289Y-77157544D01*
X125933610Y-77124061D01*
X126003302Y-77129045D01*
X126047649Y-77157545D01*
X126120208Y-77230104D01*
X126120211Y-77230106D01*
X126120215Y-77230110D01*
X126292179Y-77355048D01*
X126292181Y-77355049D01*
X126292184Y-77355051D01*
X126481588Y-77451557D01*
X126683757Y-77517246D01*
X126893713Y-77550500D01*
X126893714Y-77550500D01*
X127106286Y-77550500D01*
X127106287Y-77550500D01*
X127316243Y-77517246D01*
X127518412Y-77451557D01*
X127707816Y-77355051D01*
X127794138Y-77292335D01*
X127879786Y-77230109D01*
X127879788Y-77230106D01*
X127879792Y-77230104D01*
X128030104Y-77079792D01*
X128030106Y-77079788D01*
X128030109Y-77079786D01*
X128155048Y-76907820D01*
X128155047Y-76907820D01*
X128155051Y-76907816D01*
X128159514Y-76899054D01*
X128207488Y-76848259D01*
X128275308Y-76831463D01*
X128341444Y-76853999D01*
X128380486Y-76899056D01*
X128384951Y-76907820D01*
X128509890Y-77079786D01*
X128660213Y-77230109D01*
X128832179Y-77355048D01*
X128832181Y-77355049D01*
X128832184Y-77355051D01*
X129021588Y-77451557D01*
X129223757Y-77517246D01*
X129433713Y-77550500D01*
X129433714Y-77550500D01*
X129646286Y-77550500D01*
X129646287Y-77550500D01*
X129856243Y-77517246D01*
X130058412Y-77451557D01*
X130247816Y-77355051D01*
X130334138Y-77292335D01*
X130419786Y-77230109D01*
X130419788Y-77230106D01*
X130419792Y-77230104D01*
X130570104Y-77079792D01*
X130570106Y-77079788D01*
X130570109Y-77079786D01*
X130695048Y-76907820D01*
X130695047Y-76907820D01*
X130695051Y-76907816D01*
X130699514Y-76899054D01*
X130747488Y-76848259D01*
X130815308Y-76831463D01*
X130881444Y-76853999D01*
X130920486Y-76899056D01*
X130924951Y-76907820D01*
X131049890Y-77079786D01*
X131200213Y-77230109D01*
X131372179Y-77355048D01*
X131372181Y-77355049D01*
X131372184Y-77355051D01*
X131561588Y-77451557D01*
X131763757Y-77517246D01*
X131973713Y-77550500D01*
X131973714Y-77550500D01*
X132186286Y-77550500D01*
X132186287Y-77550500D01*
X132396243Y-77517246D01*
X132598412Y-77451557D01*
X132787816Y-77355051D01*
X132874138Y-77292335D01*
X132959786Y-77230109D01*
X132959788Y-77230106D01*
X132959792Y-77230104D01*
X133110104Y-77079792D01*
X133110106Y-77079788D01*
X133110109Y-77079786D01*
X133235048Y-76907820D01*
X133235047Y-76907820D01*
X133235051Y-76907816D01*
X133239514Y-76899054D01*
X133287488Y-76848259D01*
X133355308Y-76831463D01*
X133421444Y-76853999D01*
X133460486Y-76899056D01*
X133464951Y-76907820D01*
X133589890Y-77079786D01*
X133740213Y-77230109D01*
X133912179Y-77355048D01*
X133912181Y-77355049D01*
X133912184Y-77355051D01*
X134101588Y-77451557D01*
X134303757Y-77517246D01*
X134513713Y-77550500D01*
X134513714Y-77550500D01*
X134726286Y-77550500D01*
X134726287Y-77550500D01*
X134936243Y-77517246D01*
X135138412Y-77451557D01*
X135327816Y-77355051D01*
X135414138Y-77292335D01*
X135499786Y-77230109D01*
X135499788Y-77230106D01*
X135499792Y-77230104D01*
X135650104Y-77079792D01*
X135650106Y-77079788D01*
X135650109Y-77079786D01*
X135775048Y-76907820D01*
X135775047Y-76907820D01*
X135775051Y-76907816D01*
X135779514Y-76899054D01*
X135827488Y-76848259D01*
X135895308Y-76831463D01*
X135961444Y-76853999D01*
X136000486Y-76899056D01*
X136004951Y-76907820D01*
X136129890Y-77079786D01*
X136280213Y-77230109D01*
X136452179Y-77355048D01*
X136452181Y-77355049D01*
X136452184Y-77355051D01*
X136641588Y-77451557D01*
X136843757Y-77517246D01*
X137053713Y-77550500D01*
X137053714Y-77550500D01*
X137266286Y-77550500D01*
X137266287Y-77550500D01*
X137476243Y-77517246D01*
X137678412Y-77451557D01*
X137867816Y-77355051D01*
X137954138Y-77292335D01*
X138039786Y-77230109D01*
X138039788Y-77230106D01*
X138039792Y-77230104D01*
X138190104Y-77079792D01*
X138190106Y-77079788D01*
X138190109Y-77079786D01*
X138315048Y-76907820D01*
X138315047Y-76907820D01*
X138315051Y-76907816D01*
X138319514Y-76899054D01*
X138367488Y-76848259D01*
X138435308Y-76831463D01*
X138501444Y-76853999D01*
X138540486Y-76899056D01*
X138544951Y-76907820D01*
X138669890Y-77079786D01*
X138820213Y-77230109D01*
X138992179Y-77355048D01*
X138992181Y-77355049D01*
X138992184Y-77355051D01*
X139181588Y-77451557D01*
X139383757Y-77517246D01*
X139593713Y-77550500D01*
X139593714Y-77550500D01*
X139806286Y-77550500D01*
X139806287Y-77550500D01*
X140016243Y-77517246D01*
X140218412Y-77451557D01*
X140407816Y-77355051D01*
X140494138Y-77292335D01*
X140579786Y-77230109D01*
X140579788Y-77230106D01*
X140579792Y-77230104D01*
X140730104Y-77079792D01*
X140730106Y-77079788D01*
X140730109Y-77079786D01*
X140855048Y-76907820D01*
X140855047Y-76907820D01*
X140855051Y-76907816D01*
X140859514Y-76899054D01*
X140907488Y-76848259D01*
X140975308Y-76831463D01*
X141041444Y-76853999D01*
X141080486Y-76899056D01*
X141084951Y-76907820D01*
X141209890Y-77079786D01*
X141360213Y-77230109D01*
X141532179Y-77355048D01*
X141532181Y-77355049D01*
X141532184Y-77355051D01*
X141721588Y-77451557D01*
X141923757Y-77517246D01*
X142133713Y-77550500D01*
X142133714Y-77550500D01*
X142346286Y-77550500D01*
X142346287Y-77550500D01*
X142556243Y-77517246D01*
X142758412Y-77451557D01*
X142947816Y-77355051D01*
X143034138Y-77292335D01*
X143119786Y-77230109D01*
X143119788Y-77230106D01*
X143119792Y-77230104D01*
X143270104Y-77079792D01*
X143270106Y-77079788D01*
X143270109Y-77079786D01*
X143395048Y-76907820D01*
X143395047Y-76907820D01*
X143395051Y-76907816D01*
X143399514Y-76899054D01*
X143447488Y-76848259D01*
X143515308Y-76831463D01*
X143581444Y-76853999D01*
X143620486Y-76899056D01*
X143624951Y-76907820D01*
X143749890Y-77079786D01*
X143900213Y-77230109D01*
X144072179Y-77355048D01*
X144072181Y-77355049D01*
X144072184Y-77355051D01*
X144261588Y-77451557D01*
X144463757Y-77517246D01*
X144673713Y-77550500D01*
X144673714Y-77550500D01*
X144886286Y-77550500D01*
X144886287Y-77550500D01*
X145096243Y-77517246D01*
X145298412Y-77451557D01*
X145487816Y-77355051D01*
X145574138Y-77292335D01*
X145659786Y-77230109D01*
X145659788Y-77230106D01*
X145659792Y-77230104D01*
X145810104Y-77079792D01*
X145810106Y-77079788D01*
X145810109Y-77079786D01*
X145935048Y-76907820D01*
X145935047Y-76907820D01*
X145935051Y-76907816D01*
X145939514Y-76899054D01*
X145987488Y-76848259D01*
X146055308Y-76831463D01*
X146121444Y-76853999D01*
X146160486Y-76899056D01*
X146164951Y-76907820D01*
X146289890Y-77079786D01*
X146440213Y-77230109D01*
X146612179Y-77355048D01*
X146612181Y-77355049D01*
X146612184Y-77355051D01*
X146801588Y-77451557D01*
X147003757Y-77517246D01*
X147213713Y-77550500D01*
X147213714Y-77550500D01*
X147426286Y-77550500D01*
X147426287Y-77550500D01*
X147636243Y-77517246D01*
X147838412Y-77451557D01*
X148027816Y-77355051D01*
X148114138Y-77292335D01*
X148199786Y-77230109D01*
X148199788Y-77230106D01*
X148199792Y-77230104D01*
X148350104Y-77079792D01*
X148350106Y-77079788D01*
X148350109Y-77079786D01*
X148475048Y-76907820D01*
X148475047Y-76907820D01*
X148475051Y-76907816D01*
X148479514Y-76899054D01*
X148527488Y-76848259D01*
X148595308Y-76831463D01*
X148661444Y-76853999D01*
X148700486Y-76899056D01*
X148704951Y-76907820D01*
X148829890Y-77079786D01*
X148980213Y-77230109D01*
X149152179Y-77355048D01*
X149152181Y-77355049D01*
X149152184Y-77355051D01*
X149341588Y-77451557D01*
X149543757Y-77517246D01*
X149753713Y-77550500D01*
X149753714Y-77550500D01*
X149966286Y-77550500D01*
X149966287Y-77550500D01*
X150176243Y-77517246D01*
X150378412Y-77451557D01*
X150567816Y-77355051D01*
X150654138Y-77292335D01*
X150739786Y-77230109D01*
X150739788Y-77230106D01*
X150739792Y-77230104D01*
X150819099Y-77150797D01*
X150880422Y-77117312D01*
X150950114Y-77122296D01*
X150994461Y-77150797D01*
X151588784Y-77745120D01*
X151588786Y-77745121D01*
X151588790Y-77745124D01*
X151703372Y-77811277D01*
X151725716Y-77824177D01*
X151878443Y-77865101D01*
X151878445Y-77865101D01*
X152044154Y-77865101D01*
X152044170Y-77865100D01*
X153788731Y-77865100D01*
X153788747Y-77865101D01*
X153796343Y-77865101D01*
X153954454Y-77865101D01*
X153954457Y-77865101D01*
X154107185Y-77824177D01*
X154157304Y-77795239D01*
X154244116Y-77745120D01*
X154355920Y-77633316D01*
X154355920Y-77633314D01*
X154366128Y-77623107D01*
X154366130Y-77623104D01*
X154455478Y-77533755D01*
X154516799Y-77500272D01*
X154581473Y-77503506D01*
X154623757Y-77517246D01*
X154833713Y-77550500D01*
X154833714Y-77550500D01*
X155046286Y-77550500D01*
X155046287Y-77550500D01*
X155256243Y-77517246D01*
X155458412Y-77451557D01*
X155647816Y-77355051D01*
X155734138Y-77292335D01*
X155819786Y-77230109D01*
X155819788Y-77230106D01*
X155819792Y-77230104D01*
X155970104Y-77079792D01*
X155970106Y-77079788D01*
X155970109Y-77079786D01*
X156095048Y-76907820D01*
X156095047Y-76907820D01*
X156095051Y-76907816D01*
X156099514Y-76899054D01*
X156147488Y-76848259D01*
X156215308Y-76831463D01*
X156281444Y-76853999D01*
X156320486Y-76899056D01*
X156324951Y-76907820D01*
X156449890Y-77079786D01*
X156600213Y-77230109D01*
X156772179Y-77355048D01*
X156772181Y-77355049D01*
X156772184Y-77355051D01*
X156961588Y-77451557D01*
X157163757Y-77517246D01*
X157373713Y-77550500D01*
X157373714Y-77550500D01*
X157586286Y-77550500D01*
X157586287Y-77550500D01*
X157796243Y-77517246D01*
X157998412Y-77451557D01*
X158187816Y-77355051D01*
X158274138Y-77292335D01*
X158359786Y-77230109D01*
X158359788Y-77230106D01*
X158359792Y-77230104D01*
X158510104Y-77079792D01*
X158510106Y-77079788D01*
X158510109Y-77079786D01*
X158595890Y-76961717D01*
X158635051Y-76907816D01*
X158639793Y-76898508D01*
X158687763Y-76847711D01*
X158755583Y-76830911D01*
X158821719Y-76853445D01*
X158860763Y-76898500D01*
X158865373Y-76907547D01*
X158904728Y-76961716D01*
X159537037Y-76329408D01*
X159554075Y-76392993D01*
X159619901Y-76507007D01*
X159712993Y-76600099D01*
X159827007Y-76665925D01*
X159890590Y-76682962D01*
X159258282Y-77315269D01*
X159258282Y-77315270D01*
X159312449Y-77354624D01*
X159501782Y-77451095D01*
X159703870Y-77516757D01*
X159913754Y-77550000D01*
X160126246Y-77550000D01*
X160336127Y-77516757D01*
X160336130Y-77516757D01*
X160538217Y-77451095D01*
X160727554Y-77354622D01*
X160781716Y-77315270D01*
X160781717Y-77315270D01*
X160149408Y-76682962D01*
X160212993Y-76665925D01*
X160327007Y-76600099D01*
X160420099Y-76507007D01*
X160485925Y-76392993D01*
X160502962Y-76329408D01*
X161135270Y-76961717D01*
X161135270Y-76961716D01*
X161174622Y-76907555D01*
X161179232Y-76898507D01*
X161227205Y-76847709D01*
X161295025Y-76830912D01*
X161361161Y-76853447D01*
X161400204Y-76898504D01*
X161404949Y-76907817D01*
X161529890Y-77079786D01*
X161680213Y-77230109D01*
X161852179Y-77355048D01*
X161852181Y-77355049D01*
X161852184Y-77355051D01*
X162041588Y-77451557D01*
X162243757Y-77517246D01*
X162453713Y-77550500D01*
X162453714Y-77550500D01*
X162666286Y-77550500D01*
X162666287Y-77550500D01*
X162876243Y-77517246D01*
X163078412Y-77451557D01*
X163267816Y-77355051D01*
X163354138Y-77292335D01*
X163439786Y-77230109D01*
X163439788Y-77230106D01*
X163439792Y-77230104D01*
X163590104Y-77079792D01*
X163590106Y-77079788D01*
X163590109Y-77079786D01*
X163715048Y-76907820D01*
X163715047Y-76907820D01*
X163715051Y-76907816D01*
X163719514Y-76899054D01*
X163767488Y-76848259D01*
X163835308Y-76831463D01*
X163901444Y-76853999D01*
X163940486Y-76899056D01*
X163944951Y-76907820D01*
X164069890Y-77079786D01*
X164220213Y-77230109D01*
X164392179Y-77355048D01*
X164392181Y-77355049D01*
X164392184Y-77355051D01*
X164581588Y-77451557D01*
X164783757Y-77517246D01*
X164993713Y-77550500D01*
X164993714Y-77550500D01*
X165206286Y-77550500D01*
X165206287Y-77550500D01*
X165416243Y-77517246D01*
X165618412Y-77451557D01*
X165807816Y-77355051D01*
X165894138Y-77292335D01*
X165979786Y-77230109D01*
X165979788Y-77230106D01*
X165979792Y-77230104D01*
X166130104Y-77079792D01*
X166130106Y-77079788D01*
X166130109Y-77079786D01*
X166215890Y-76961717D01*
X166255051Y-76907816D01*
X166259793Y-76898508D01*
X166307763Y-76847711D01*
X166375583Y-76830911D01*
X166441719Y-76853445D01*
X166480763Y-76898500D01*
X166485373Y-76907547D01*
X166524728Y-76961716D01*
X167157037Y-76329408D01*
X167174075Y-76392993D01*
X167239901Y-76507007D01*
X167332993Y-76600099D01*
X167447007Y-76665925D01*
X167510590Y-76682962D01*
X166878282Y-77315269D01*
X166878282Y-77315270D01*
X166932449Y-77354624D01*
X167121782Y-77451095D01*
X167323870Y-77516757D01*
X167533754Y-77550000D01*
X167746246Y-77550000D01*
X167956127Y-77516757D01*
X167956130Y-77516757D01*
X168158217Y-77451095D01*
X168347554Y-77354622D01*
X168401716Y-77315270D01*
X168401717Y-77315270D01*
X167769408Y-76682962D01*
X167832993Y-76665925D01*
X167947007Y-76600099D01*
X168040099Y-76507007D01*
X168105925Y-76392993D01*
X168122962Y-76329409D01*
X168755270Y-76961717D01*
X168755270Y-76961716D01*
X168794622Y-76907554D01*
X168891095Y-76718217D01*
X168956757Y-76516130D01*
X168956757Y-76516127D01*
X168990000Y-76306246D01*
X168990000Y-76093753D01*
X168956757Y-75883872D01*
X168956757Y-75883869D01*
X168891095Y-75681782D01*
X168794624Y-75492449D01*
X168755270Y-75438282D01*
X168755269Y-75438282D01*
X168122962Y-76070590D01*
X168105925Y-76007007D01*
X168040099Y-75892993D01*
X167947007Y-75799901D01*
X167832993Y-75734075D01*
X167769409Y-75717037D01*
X168401716Y-75084728D01*
X168347550Y-75045375D01*
X168337954Y-75040486D01*
X168287157Y-74992512D01*
X168270361Y-74924692D01*
X168292897Y-74858556D01*
X168337954Y-74819514D01*
X168347554Y-74814622D01*
X168401716Y-74775270D01*
X168401717Y-74775270D01*
X167769408Y-74142962D01*
X167832993Y-74125925D01*
X167947007Y-74060099D01*
X168040099Y-73967007D01*
X168105925Y-73852993D01*
X168122962Y-73789409D01*
X168755270Y-74421717D01*
X168755270Y-74421716D01*
X168794622Y-74367554D01*
X168891095Y-74178217D01*
X168956757Y-73976130D01*
X168956757Y-73976127D01*
X168990000Y-73766246D01*
X168990000Y-73553753D01*
X168956757Y-73343872D01*
X168956757Y-73343869D01*
X168891095Y-73141782D01*
X168794624Y-72952449D01*
X168755270Y-72898282D01*
X168755269Y-72898282D01*
X168122962Y-73530590D01*
X168105925Y-73467007D01*
X168040099Y-73352993D01*
X167947007Y-73259901D01*
X167832993Y-73194075D01*
X167769409Y-73177037D01*
X168401716Y-72544728D01*
X168347550Y-72505375D01*
X168158217Y-72408904D01*
X167956129Y-72343242D01*
X167746246Y-72310000D01*
X167533754Y-72310000D01*
X167323872Y-72343242D01*
X167323869Y-72343242D01*
X167121782Y-72408904D01*
X166932439Y-72505380D01*
X166878282Y-72544727D01*
X166878282Y-72544728D01*
X167510591Y-73177037D01*
X167447007Y-73194075D01*
X167332993Y-73259901D01*
X167239901Y-73352993D01*
X167174075Y-73467007D01*
X167157037Y-73530591D01*
X166524728Y-72898282D01*
X166524727Y-72898282D01*
X166485380Y-72952440D01*
X166485376Y-72952446D01*
X166480760Y-72961505D01*
X166432781Y-73012297D01*
X166364959Y-73029087D01*
X166298826Y-73006543D01*
X166259794Y-72961493D01*
X166255051Y-72952184D01*
X166255049Y-72952181D01*
X166255048Y-72952179D01*
X166130109Y-72780213D01*
X165979786Y-72629890D01*
X165807820Y-72504951D01*
X165618414Y-72408444D01*
X165618413Y-72408443D01*
X165618412Y-72408443D01*
X165416243Y-72342754D01*
X165416241Y-72342753D01*
X165416240Y-72342753D01*
X165254957Y-72317208D01*
X165206287Y-72309500D01*
X164993713Y-72309500D01*
X164945042Y-72317208D01*
X164783760Y-72342753D01*
X164581585Y-72408444D01*
X164392179Y-72504951D01*
X164220213Y-72629890D01*
X164069890Y-72780213D01*
X163944949Y-72952182D01*
X163940484Y-72960946D01*
X163892509Y-73011742D01*
X163824688Y-73028536D01*
X163758553Y-73005998D01*
X163719516Y-72960946D01*
X163715050Y-72952182D01*
X163590109Y-72780213D01*
X163439786Y-72629890D01*
X163267820Y-72504951D01*
X163078414Y-72408444D01*
X163078413Y-72408443D01*
X163078412Y-72408443D01*
X162876243Y-72342754D01*
X162876241Y-72342753D01*
X162876240Y-72342753D01*
X162714957Y-72317208D01*
X162666287Y-72309500D01*
X162453713Y-72309500D01*
X162405042Y-72317208D01*
X162243760Y-72342753D01*
X162041585Y-72408444D01*
X161852179Y-72504951D01*
X161680213Y-72629890D01*
X161529890Y-72780213D01*
X161404949Y-72952182D01*
X161400484Y-72960946D01*
X161352509Y-73011742D01*
X161284688Y-73028536D01*
X161218553Y-73005998D01*
X161179516Y-72960946D01*
X161175050Y-72952182D01*
X161050109Y-72780213D01*
X160899786Y-72629890D01*
X160727820Y-72504951D01*
X160538414Y-72408444D01*
X160538413Y-72408443D01*
X160538412Y-72408443D01*
X160336243Y-72342754D01*
X160336241Y-72342753D01*
X160336240Y-72342753D01*
X160174957Y-72317208D01*
X160126287Y-72309500D01*
X159913713Y-72309500D01*
X159865042Y-72317208D01*
X159703760Y-72342753D01*
X159501585Y-72408444D01*
X159312179Y-72504951D01*
X159140213Y-72629890D01*
X158989890Y-72780213D01*
X158864949Y-72952182D01*
X158860202Y-72961499D01*
X158812227Y-73012293D01*
X158744405Y-73029087D01*
X158678271Y-73006548D01*
X158639234Y-72961495D01*
X158634626Y-72952452D01*
X158595270Y-72898282D01*
X158595269Y-72898282D01*
X157962962Y-73530590D01*
X157945925Y-73467007D01*
X157880099Y-73352993D01*
X157787007Y-73259901D01*
X157672993Y-73194075D01*
X157609409Y-73177037D01*
X158241716Y-72544728D01*
X158187550Y-72505375D01*
X157998217Y-72408904D01*
X157796129Y-72343242D01*
X157586246Y-72310000D01*
X157373754Y-72310000D01*
X157163872Y-72343242D01*
X157163869Y-72343242D01*
X156961782Y-72408904D01*
X156772439Y-72505380D01*
X156718282Y-72544727D01*
X156718282Y-72544728D01*
X157350591Y-73177037D01*
X157287007Y-73194075D01*
X157172993Y-73259901D01*
X157079901Y-73352993D01*
X157014075Y-73467007D01*
X156997037Y-73530591D01*
X156364728Y-72898282D01*
X156364727Y-72898282D01*
X156325380Y-72952440D01*
X156325376Y-72952446D01*
X156320760Y-72961505D01*
X156272781Y-73012297D01*
X156204959Y-73029087D01*
X156138826Y-73006543D01*
X156099794Y-72961493D01*
X156095051Y-72952184D01*
X156095049Y-72952181D01*
X156095048Y-72952179D01*
X155970109Y-72780213D01*
X155819786Y-72629890D01*
X155647815Y-72504948D01*
X155647814Y-72504947D01*
X155608205Y-72484765D01*
X155557409Y-72436791D01*
X155540500Y-72374281D01*
X155540500Y-71876644D01*
X155540499Y-71876640D01*
X155537028Y-71863684D01*
X155534659Y-71854842D01*
X155499577Y-71723915D01*
X155461853Y-71658576D01*
X155461853Y-71658575D01*
X155420522Y-71586987D01*
X155420521Y-71586986D01*
X155420520Y-71586984D01*
X155308716Y-71475180D01*
X155308715Y-71475179D01*
X155304385Y-71470849D01*
X155304374Y-71470839D01*
X148293190Y-64459655D01*
X148293188Y-64459652D01*
X148174317Y-64340781D01*
X148174316Y-64340780D01*
X148079953Y-64286300D01*
X148037385Y-64261723D01*
X147884657Y-64220799D01*
X147726543Y-64220799D01*
X147718947Y-64220799D01*
X147718931Y-64220800D01*
X146590602Y-64220800D01*
X146523563Y-64201115D01*
X146477808Y-64148311D01*
X146468985Y-64120991D01*
X146440703Y-63978811D01*
X146437837Y-63964403D01*
X146434484Y-63956307D01*
X146377497Y-63818727D01*
X146377490Y-63818714D01*
X146293417Y-63692891D01*
X146272539Y-63626214D01*
X146291023Y-63558834D01*
X146343002Y-63512143D01*
X146396519Y-63500000D01*
X170056000Y-63500000D01*
X170123039Y-63519685D01*
X170168794Y-63572489D01*
X170180000Y-63624000D01*
X170180000Y-81156000D01*
X170160315Y-81223039D01*
X170107511Y-81268794D01*
X170056000Y-81280000D01*
X119504000Y-81280000D01*
X119436961Y-81260315D01*
X119391206Y-81207511D01*
X119380000Y-81156000D01*
X119380000Y-63624000D01*
X119399685Y-63556961D01*
X119452489Y-63511206D01*
X119504000Y-63500000D01*
X141227943Y-63500000D01*
X141294982Y-63519685D01*
G37*
%TD.AperFunction*%
%TA.AperFunction,Conductor*%
G36*
X158595270Y-74421717D02*
G01*
X158595270Y-74421716D01*
X158634622Y-74367555D01*
X158639232Y-74358507D01*
X158687205Y-74307709D01*
X158755025Y-74290912D01*
X158821161Y-74313447D01*
X158860204Y-74358504D01*
X158864949Y-74367817D01*
X158989890Y-74539786D01*
X159140213Y-74690109D01*
X159312179Y-74815048D01*
X159312181Y-74815049D01*
X159312184Y-74815051D01*
X159321493Y-74819794D01*
X159372290Y-74867766D01*
X159389087Y-74935587D01*
X159366552Y-75001722D01*
X159321505Y-75040760D01*
X159312446Y-75045376D01*
X159312440Y-75045380D01*
X159258282Y-75084727D01*
X159258282Y-75084728D01*
X159890591Y-75717037D01*
X159827007Y-75734075D01*
X159712993Y-75799901D01*
X159619901Y-75892993D01*
X159554075Y-76007007D01*
X159537037Y-76070591D01*
X158904728Y-75438282D01*
X158904727Y-75438282D01*
X158865380Y-75492440D01*
X158865376Y-75492446D01*
X158860760Y-75501505D01*
X158812781Y-75552297D01*
X158744959Y-75569087D01*
X158678826Y-75546543D01*
X158639794Y-75501493D01*
X158635051Y-75492184D01*
X158635049Y-75492181D01*
X158635048Y-75492179D01*
X158510109Y-75320213D01*
X158359786Y-75169890D01*
X158187817Y-75044949D01*
X158178504Y-75040204D01*
X158127707Y-74992230D01*
X158110912Y-74924409D01*
X158133449Y-74858274D01*
X158178507Y-74819232D01*
X158187555Y-74814622D01*
X158241716Y-74775270D01*
X158241717Y-74775270D01*
X157609408Y-74142962D01*
X157672993Y-74125925D01*
X157787007Y-74060099D01*
X157880099Y-73967007D01*
X157945925Y-73852993D01*
X157962962Y-73789408D01*
X158595270Y-74421717D01*
G37*
%TD.AperFunction*%
%TA.AperFunction,Conductor*%
G36*
X167174075Y-73852993D02*
G01*
X167239901Y-73967007D01*
X167332993Y-74060099D01*
X167447007Y-74125925D01*
X167510591Y-74142962D01*
X166909971Y-74743581D01*
X166988711Y-74860895D01*
X166989920Y-74864729D01*
X166992844Y-74867491D01*
X167000343Y-74897778D01*
X167009727Y-74927529D01*
X167008671Y-74931408D01*
X167009638Y-74935312D01*
X166999573Y-74964844D01*
X166991383Y-74994947D01*
X166988397Y-74997640D01*
X166987100Y-75001447D01*
X166942051Y-75040483D01*
X166932440Y-75045380D01*
X166878282Y-75084727D01*
X166878282Y-75084728D01*
X167510591Y-75717037D01*
X167447007Y-75734075D01*
X167332993Y-75799901D01*
X167239901Y-75892993D01*
X167174075Y-76007007D01*
X167157037Y-76070591D01*
X166524728Y-75438282D01*
X166524727Y-75438282D01*
X166485380Y-75492440D01*
X166485376Y-75492446D01*
X166480760Y-75501505D01*
X166432781Y-75552297D01*
X166364959Y-75569087D01*
X166298826Y-75546543D01*
X166259794Y-75501493D01*
X166255051Y-75492184D01*
X166255049Y-75492181D01*
X166255048Y-75492179D01*
X166130109Y-75320213D01*
X165979786Y-75169890D01*
X165807820Y-75044951D01*
X165807205Y-75044637D01*
X165799054Y-75040484D01*
X165748259Y-74992512D01*
X165731463Y-74924692D01*
X165753999Y-74858556D01*
X165799054Y-74819515D01*
X165807816Y-74815051D01*
X165906187Y-74743581D01*
X165979786Y-74690109D01*
X165979788Y-74690106D01*
X165979792Y-74690104D01*
X166130104Y-74539792D01*
X166130106Y-74539788D01*
X166130109Y-74539786D01*
X166215890Y-74421717D01*
X166255051Y-74367816D01*
X166259793Y-74358508D01*
X166307763Y-74307711D01*
X166375583Y-74290911D01*
X166441719Y-74313445D01*
X166480763Y-74358500D01*
X166485373Y-74367547D01*
X166524728Y-74421716D01*
X167157037Y-73789408D01*
X167174075Y-73852993D01*
G37*
%TD.AperFunction*%
%TA.AperFunction,Conductor*%
G36*
X161361444Y-74313999D02*
G01*
X161400486Y-74359056D01*
X161404951Y-74367820D01*
X161529890Y-74539786D01*
X161680213Y-74690109D01*
X161852182Y-74815050D01*
X161860946Y-74819516D01*
X161911742Y-74867491D01*
X161928536Y-74935312D01*
X161905998Y-75001447D01*
X161860946Y-75040484D01*
X161852182Y-75044949D01*
X161680213Y-75169890D01*
X161529890Y-75320213D01*
X161404949Y-75492182D01*
X161400202Y-75501499D01*
X161352227Y-75552293D01*
X161284405Y-75569087D01*
X161218271Y-75546548D01*
X161179234Y-75501495D01*
X161174626Y-75492452D01*
X161135270Y-75438282D01*
X161135269Y-75438282D01*
X160502962Y-76070590D01*
X160485925Y-76007007D01*
X160420099Y-75892993D01*
X160327007Y-75799901D01*
X160212993Y-75734075D01*
X160149409Y-75717037D01*
X160781716Y-75084728D01*
X160727547Y-75045373D01*
X160727547Y-75045372D01*
X160718500Y-75040763D01*
X160667706Y-74992788D01*
X160650912Y-74924966D01*
X160673451Y-74858832D01*
X160718508Y-74819793D01*
X160727816Y-74815051D01*
X160826187Y-74743581D01*
X160899786Y-74690109D01*
X160899788Y-74690106D01*
X160899792Y-74690104D01*
X161050104Y-74539792D01*
X161050106Y-74539788D01*
X161050109Y-74539786D01*
X161175048Y-74367820D01*
X161175047Y-74367820D01*
X161175051Y-74367816D01*
X161179514Y-74359054D01*
X161227488Y-74308259D01*
X161295308Y-74291463D01*
X161361444Y-74313999D01*
G37*
%TD.AperFunction*%
%TA.AperFunction,Conductor*%
G36*
X145865703Y-69119984D02*
G01*
X145872181Y-69126016D01*
X149107179Y-72361014D01*
X149140664Y-72422337D01*
X149135680Y-72492029D01*
X149098523Y-72541662D01*
X149098282Y-72544728D01*
X149730591Y-73177037D01*
X149667007Y-73194075D01*
X149552993Y-73259901D01*
X149459901Y-73352993D01*
X149394075Y-73467007D01*
X149377037Y-73530591D01*
X148744728Y-72898282D01*
X148744727Y-72898282D01*
X148705380Y-72952440D01*
X148705376Y-72952446D01*
X148700760Y-72961505D01*
X148652781Y-73012297D01*
X148584959Y-73029087D01*
X148518826Y-73006543D01*
X148479794Y-72961493D01*
X148475051Y-72952184D01*
X148475049Y-72952181D01*
X148475048Y-72952179D01*
X148350109Y-72780213D01*
X148199786Y-72629890D01*
X148027820Y-72504951D01*
X147838414Y-72408444D01*
X147838413Y-72408443D01*
X147838412Y-72408443D01*
X147636243Y-72342754D01*
X147636241Y-72342753D01*
X147636240Y-72342753D01*
X147474957Y-72317208D01*
X147426287Y-72309500D01*
X147213713Y-72309500D01*
X147155941Y-72318650D01*
X147005598Y-72342462D01*
X146936304Y-72333507D01*
X146882852Y-72288511D01*
X146862213Y-72221759D01*
X146862200Y-72219989D01*
X146862200Y-71019945D01*
X146862200Y-71019943D01*
X146821277Y-70867216D01*
X146821273Y-70867209D01*
X146742224Y-70730290D01*
X146742221Y-70730286D01*
X146742220Y-70730284D01*
X146630416Y-70618480D01*
X146630415Y-70618479D01*
X146626085Y-70614149D01*
X146626074Y-70614139D01*
X145696819Y-69684884D01*
X145663334Y-69623561D01*
X145660500Y-69597203D01*
X145660500Y-69213697D01*
X145680185Y-69146658D01*
X145732989Y-69100903D01*
X145802147Y-69090959D01*
X145865703Y-69119984D01*
G37*
%TD.AperFunction*%
%TA.AperFunction,Conductor*%
G36*
X135218042Y-68730185D02*
G01*
X135263797Y-68782989D01*
X135273741Y-68852147D01*
X135244716Y-68915703D01*
X135238703Y-68922160D01*
X135131765Y-69029100D01*
X135095639Y-69065226D01*
X135034316Y-69098710D01*
X135032150Y-69099161D01*
X134876808Y-69130061D01*
X134876798Y-69130064D01*
X134731127Y-69190402D01*
X134731114Y-69190409D01*
X134600011Y-69278010D01*
X134600007Y-69278013D01*
X134488513Y-69389507D01*
X134488510Y-69389511D01*
X134400909Y-69520614D01*
X134400902Y-69520627D01*
X134340564Y-69666298D01*
X134340561Y-69666310D01*
X134309800Y-69820953D01*
X134309800Y-69978646D01*
X134340561Y-70133289D01*
X134340564Y-70133301D01*
X134400902Y-70278972D01*
X134400909Y-70278985D01*
X134488510Y-70410088D01*
X134488513Y-70410092D01*
X134603861Y-70525440D01*
X134637346Y-70586763D01*
X134632362Y-70656455D01*
X134603861Y-70700802D01*
X133785284Y-71519381D01*
X133723961Y-71552866D01*
X133697603Y-71555700D01*
X132156557Y-71555700D01*
X131998442Y-71555700D01*
X131845715Y-71596623D01*
X131845714Y-71596623D01*
X131845712Y-71596624D01*
X131845709Y-71596625D01*
X131805427Y-71619883D01*
X131805425Y-71619884D01*
X131708790Y-71675675D01*
X131708782Y-71675681D01*
X131596978Y-71787486D01*
X130674861Y-72709602D01*
X130613538Y-72743087D01*
X130543846Y-72738103D01*
X130499499Y-72709603D01*
X130499498Y-72709602D01*
X130419792Y-72629896D01*
X130419788Y-72629893D01*
X130419784Y-72629889D01*
X130247820Y-72504951D01*
X130058414Y-72408444D01*
X130058413Y-72408443D01*
X130058412Y-72408443D01*
X129856243Y-72342754D01*
X129856241Y-72342753D01*
X129856240Y-72342753D01*
X129694957Y-72317208D01*
X129646287Y-72309500D01*
X129433713Y-72309500D01*
X129385042Y-72317208D01*
X129223760Y-72342753D01*
X129021585Y-72408444D01*
X128832179Y-72504951D01*
X128660213Y-72629890D01*
X128509890Y-72780213D01*
X128384949Y-72952182D01*
X128380202Y-72961499D01*
X128332227Y-73012293D01*
X128264405Y-73029087D01*
X128198271Y-73006548D01*
X128159234Y-72961495D01*
X128154626Y-72952452D01*
X128115270Y-72898282D01*
X128115269Y-72898282D01*
X127482962Y-73530589D01*
X127465925Y-73467007D01*
X127400099Y-73352993D01*
X127307007Y-73259901D01*
X127192993Y-73194075D01*
X127129407Y-73177036D01*
X127761716Y-72544728D01*
X127703612Y-72502514D01*
X127704838Y-72500826D01*
X127663829Y-72455477D01*
X127652423Y-72386544D01*
X127680095Y-72322388D01*
X127687805Y-72313929D01*
X131254916Y-68746819D01*
X131316239Y-68713334D01*
X131342597Y-68710500D01*
X135151003Y-68710500D01*
X135218042Y-68730185D01*
G37*
%TD.AperFunction*%
%TA.AperFunction,Conductor*%
G36*
X137189334Y-70528814D02*
G01*
X137245267Y-70570686D01*
X137269684Y-70636150D01*
X137270000Y-70644996D01*
X137270000Y-72185500D01*
X137250315Y-72252539D01*
X137197511Y-72298294D01*
X137146000Y-72309500D01*
X137053713Y-72309500D01*
X137005042Y-72317208D01*
X136843760Y-72342753D01*
X136641585Y-72408444D01*
X136452179Y-72504951D01*
X136280213Y-72629890D01*
X136129890Y-72780213D01*
X136004949Y-72952182D01*
X136000202Y-72961499D01*
X135952227Y-73012293D01*
X135884405Y-73029087D01*
X135818271Y-73006548D01*
X135779234Y-72961495D01*
X135774626Y-72952452D01*
X135735270Y-72898282D01*
X135735269Y-72898282D01*
X135102962Y-73530589D01*
X135085925Y-73467007D01*
X135020099Y-73352993D01*
X134927007Y-73259901D01*
X134812993Y-73194075D01*
X134749407Y-73177036D01*
X135381716Y-72544728D01*
X135327537Y-72505366D01*
X135326924Y-72504990D01*
X135326740Y-72504786D01*
X135323612Y-72502514D01*
X135324089Y-72501856D01*
X135280054Y-72453173D01*
X135268639Y-72384242D01*
X135296303Y-72320083D01*
X135304027Y-72311606D01*
X137058319Y-70557314D01*
X137119642Y-70523830D01*
X137189334Y-70528814D01*
G37*
%TD.AperFunction*%
%TD*%
M02*
