%TF.GenerationSoftware,KiCad,Pcbnew,9.0.7*%
%TF.CreationDate,2026-01-29T21:22:27-07:00*%
%TF.ProjectId,Realsense Adapter,5265616c-7365-46e7-9365-204164617074,1.0-PROTO*%
%TF.SameCoordinates,Original*%
%TF.FileFunction,Legend,Bot*%
%TF.FilePolarity,Positive*%
%FSLAX46Y46*%
G04 Gerber Fmt 4.6, Leading zero omitted, Abs format (unit mm)*
G04 Created by KiCad (PCBNEW 9.0.7) date 2026-01-29 21:22:27*
%MOMM*%
%LPD*%
G01*
G04 APERTURE LIST*
%ADD10C,0.300000*%
%ADD11C,0.000000*%
G04 APERTURE END LIST*
D10*
X146101427Y-100849757D02*
X146244285Y-100778328D01*
X146244285Y-100778328D02*
X146458570Y-100778328D01*
X146458570Y-100778328D02*
X146672856Y-100849757D01*
X146672856Y-100849757D02*
X146815713Y-100992614D01*
X146815713Y-100992614D02*
X146887142Y-101135471D01*
X146887142Y-101135471D02*
X146958570Y-101421185D01*
X146958570Y-101421185D02*
X146958570Y-101635471D01*
X146958570Y-101635471D02*
X146887142Y-101921185D01*
X146887142Y-101921185D02*
X146815713Y-102064042D01*
X146815713Y-102064042D02*
X146672856Y-102206900D01*
X146672856Y-102206900D02*
X146458570Y-102278328D01*
X146458570Y-102278328D02*
X146315713Y-102278328D01*
X146315713Y-102278328D02*
X146101427Y-102206900D01*
X146101427Y-102206900D02*
X146029999Y-102135471D01*
X146029999Y-102135471D02*
X146029999Y-101635471D01*
X146029999Y-101635471D02*
X146315713Y-101635471D01*
X145172856Y-100778328D02*
X145172856Y-101135471D01*
X145529999Y-100992614D02*
X145172856Y-101135471D01*
X145172856Y-101135471D02*
X144815713Y-100992614D01*
X145387142Y-101421185D02*
X145172856Y-101135471D01*
X145172856Y-101135471D02*
X144958570Y-101421185D01*
X144029999Y-100778328D02*
X144029999Y-101135471D01*
X144387142Y-100992614D02*
X144029999Y-101135471D01*
X144029999Y-101135471D02*
X143672856Y-100992614D01*
X144244285Y-101421185D02*
X144029999Y-101135471D01*
X144029999Y-101135471D02*
X143815713Y-101421185D01*
X142887142Y-100778328D02*
X142887142Y-101135471D01*
X143244285Y-100992614D02*
X142887142Y-101135471D01*
X142887142Y-101135471D02*
X142529999Y-100992614D01*
X143101428Y-101421185D02*
X142887142Y-101135471D01*
X142887142Y-101135471D02*
X142672856Y-101421185D01*
D11*
%TO.C,G\u002A\u002A\u002A*%
G36*
X149395962Y-108438461D02*
G01*
X149395962Y-109049038D01*
X149164506Y-109049038D01*
X149057326Y-109048258D01*
X148986268Y-109044318D01*
X148942611Y-109034850D01*
X148915551Y-109017490D01*
X148894283Y-108989872D01*
X148874832Y-108951241D01*
X148851609Y-108860437D01*
X148839247Y-108732828D01*
X148837466Y-108564749D01*
X148845991Y-108352531D01*
X148863969Y-108040835D01*
X148962114Y-107934360D01*
X148991689Y-107902568D01*
X149037508Y-107859604D01*
X149080759Y-107837408D01*
X149138581Y-107829122D01*
X149228111Y-107827884D01*
X149395962Y-107827884D01*
X149395962Y-108438461D01*
G37*
G36*
X149390282Y-110022940D02*
G01*
X149396814Y-110642708D01*
X149188928Y-110631797D01*
X149183612Y-110631515D01*
X149077582Y-110623787D01*
X149006983Y-110612136D01*
X148958935Y-110593312D01*
X148920557Y-110564062D01*
X148876957Y-110515403D01*
X148845201Y-110457423D01*
X148824971Y-110383095D01*
X148814872Y-110284387D01*
X148813511Y-110153263D01*
X148819493Y-109981691D01*
X148826187Y-109858171D01*
X148839848Y-109704494D01*
X148861163Y-109590109D01*
X148894202Y-109509226D01*
X148943035Y-109456057D01*
X149011733Y-109424812D01*
X149104365Y-109409704D01*
X149225001Y-109404943D01*
X149383751Y-109403172D01*
X149390282Y-110022940D01*
G37*
G36*
X153602787Y-103211922D02*
G01*
X153609755Y-103237546D01*
X153624842Y-103306888D01*
X153644356Y-103405326D01*
X153666311Y-103521858D01*
X153688725Y-103645481D01*
X153709612Y-103765193D01*
X153726988Y-103869992D01*
X153738869Y-103948875D01*
X153743270Y-103990840D01*
X153741282Y-104012329D01*
X153725559Y-104031876D01*
X153684240Y-104040423D01*
X153605727Y-104042307D01*
X153468185Y-104042307D01*
X153483149Y-103938509D01*
X153486204Y-103916624D01*
X153497342Y-103831237D01*
X153510854Y-103722188D01*
X153524468Y-103607654D01*
X153539843Y-103481663D01*
X153559486Y-103343369D01*
X153576611Y-103251880D01*
X153591087Y-103207847D01*
X153602787Y-103211922D01*
G37*
G36*
X154109616Y-108461933D02*
G01*
X154109616Y-109097884D01*
X153888203Y-109097884D01*
X153791329Y-109098442D01*
X153713844Y-109096503D01*
X153657080Y-109086279D01*
X153617835Y-109061980D01*
X153592906Y-109017815D01*
X153579091Y-108947994D01*
X153573188Y-108846727D01*
X153571995Y-108708224D01*
X153572308Y-108526694D01*
X153572390Y-108404320D01*
X153573118Y-108260638D01*
X153575159Y-108153821D01*
X153579173Y-108076736D01*
X153585819Y-108022252D01*
X153595757Y-107983237D01*
X153609647Y-107952557D01*
X153628149Y-107923082D01*
X153630909Y-107918983D01*
X153658892Y-107880565D01*
X153687398Y-107856808D01*
X153728502Y-107843667D01*
X153794279Y-107837092D01*
X153896803Y-107833039D01*
X154109616Y-107825982D01*
X154109616Y-108461933D01*
G37*
G36*
X146837560Y-107867005D02*
G01*
X146927358Y-107915536D01*
X147002501Y-107978764D01*
X147001635Y-109203853D01*
X147001469Y-109413874D01*
X147001029Y-109666819D01*
X147000012Y-109877892D01*
X146998054Y-110051148D01*
X146994789Y-110190644D01*
X146989850Y-110300437D01*
X146982873Y-110384582D01*
X146973490Y-110447137D01*
X146961337Y-110492158D01*
X146946046Y-110523702D01*
X146927254Y-110545824D01*
X146904592Y-110562582D01*
X146877697Y-110578032D01*
X146775402Y-110610876D01*
X146674339Y-110598291D01*
X146585430Y-110540724D01*
X146514039Y-110469334D01*
X146514039Y-109259662D01*
X146514051Y-109201499D01*
X146514545Y-108909210D01*
X146515814Y-108662516D01*
X146517920Y-108458668D01*
X146520927Y-108294919D01*
X146524897Y-108168521D01*
X146529894Y-108076725D01*
X146535979Y-108016785D01*
X146543217Y-107985951D01*
X146571912Y-107940014D01*
X146646554Y-107881679D01*
X146739531Y-107856531D01*
X146837560Y-107867005D01*
G37*
G36*
X141067693Y-102597351D02*
G01*
X141067840Y-102670514D01*
X141068830Y-102837607D01*
X141070653Y-103037732D01*
X141073186Y-103260644D01*
X141076309Y-103496095D01*
X141079900Y-103733840D01*
X141083839Y-103963631D01*
X141099984Y-104845443D01*
X140967829Y-104855244D01*
X140934997Y-104857400D01*
X140791051Y-104857812D01*
X140690390Y-104840431D01*
X140634183Y-104805430D01*
X140632202Y-104801103D01*
X140625304Y-104755733D01*
X140619296Y-104668685D01*
X140614179Y-104545615D01*
X140609948Y-104392182D01*
X140606604Y-104214041D01*
X140604144Y-104016852D01*
X140602567Y-103806269D01*
X140601870Y-103587952D01*
X140602053Y-103367557D01*
X140603113Y-103150741D01*
X140605048Y-102943162D01*
X140607858Y-102750476D01*
X140611541Y-102578342D01*
X140616094Y-102432416D01*
X140621516Y-102318355D01*
X140627805Y-102241818D01*
X140634960Y-102208460D01*
X140637967Y-102204627D01*
X140701350Y-102151618D01*
X140792172Y-102122057D01*
X140919549Y-102112884D01*
X141067693Y-102112884D01*
X141067693Y-102597351D01*
G37*
G36*
X151567314Y-107868203D02*
G01*
X151655600Y-107908568D01*
X151715431Y-107973070D01*
X151715856Y-107973961D01*
X151722260Y-108014053D01*
X151727749Y-108101634D01*
X151732298Y-108235433D01*
X151735882Y-108414180D01*
X151738473Y-108636602D01*
X151740047Y-108901431D01*
X151740578Y-109207395D01*
X151740568Y-109362898D01*
X151740347Y-109620877D01*
X151739532Y-109836395D01*
X151737735Y-110013624D01*
X151734566Y-110156734D01*
X151729637Y-110269899D01*
X151722558Y-110357289D01*
X151712941Y-110423077D01*
X151700397Y-110471435D01*
X151684536Y-110506534D01*
X151664971Y-110532546D01*
X151641311Y-110553643D01*
X151613167Y-110573997D01*
X151580871Y-110592500D01*
X151484219Y-110613692D01*
X151384731Y-110595844D01*
X151299084Y-110540724D01*
X151227693Y-110469334D01*
X151227693Y-109256175D01*
X151227716Y-109025815D01*
X151228028Y-108775122D01*
X151229037Y-108566060D01*
X151231151Y-108394601D01*
X151234777Y-108256715D01*
X151240323Y-108148374D01*
X151248198Y-108065549D01*
X151258810Y-108004211D01*
X151272567Y-107960331D01*
X151289877Y-107929880D01*
X151311148Y-107908829D01*
X151336788Y-107893149D01*
X151367206Y-107878811D01*
X151370260Y-107877447D01*
X151466793Y-107856366D01*
X151567314Y-107868203D01*
G37*
G36*
X140322455Y-91126600D02*
G01*
X140344650Y-91144366D01*
X140370408Y-91167945D01*
X140391898Y-91194994D01*
X140409507Y-91229637D01*
X140423622Y-91276001D01*
X140434628Y-91338210D01*
X140442914Y-91420388D01*
X140448864Y-91526662D01*
X140452865Y-91661157D01*
X140455305Y-91827997D01*
X140456569Y-92031308D01*
X140457044Y-92275215D01*
X140457116Y-92563843D01*
X140457116Y-93786947D01*
X140389953Y-93850149D01*
X140378458Y-93860407D01*
X140305249Y-93913558D01*
X140225097Y-93958350D01*
X140217929Y-93961528D01*
X140198925Y-93968539D01*
X140175019Y-93974723D01*
X140143283Y-93980132D01*
X140100786Y-93984818D01*
X140044598Y-93988834D01*
X139971791Y-93992233D01*
X139879434Y-93995065D01*
X139764598Y-93997385D01*
X139624353Y-93999243D01*
X139455769Y-94000694D01*
X139255917Y-94001788D01*
X139021868Y-94002578D01*
X138750690Y-94003117D01*
X138439456Y-94003457D01*
X138085235Y-94003651D01*
X137685097Y-94003750D01*
X137554740Y-94003750D01*
X137130124Y-94003426D01*
X136743244Y-94002609D01*
X136395332Y-94001309D01*
X136087625Y-93999540D01*
X135821355Y-93997311D01*
X135597758Y-93994637D01*
X135418069Y-93991527D01*
X135283521Y-93987994D01*
X135195348Y-93984049D01*
X135154786Y-93979704D01*
X135126524Y-93969368D01*
X135049485Y-93925993D01*
X134977719Y-93868761D01*
X134888655Y-93782263D01*
X134888655Y-92576087D01*
X134889040Y-92343123D01*
X134890287Y-92106783D01*
X134892319Y-91892617D01*
X134895055Y-91705070D01*
X134898415Y-91548587D01*
X134902319Y-91427613D01*
X134906688Y-91346594D01*
X134911442Y-91309975D01*
X134920241Y-91290962D01*
X134959641Y-91228207D01*
X135011664Y-91161847D01*
X135089099Y-91073653D01*
X137672122Y-91073653D01*
X140255144Y-91073653D01*
X140322455Y-91126600D01*
G37*
G36*
X163836355Y-111503557D02*
G01*
X163668322Y-111591239D01*
X163663678Y-111593671D01*
X163580149Y-111638873D01*
X163459712Y-111705970D01*
X163307158Y-111792218D01*
X163127277Y-111894875D01*
X162924860Y-112011196D01*
X162704696Y-112138440D01*
X162471576Y-112273863D01*
X162230289Y-112414721D01*
X162198012Y-112433454D01*
X162047637Y-112517958D01*
X161876455Y-112610738D01*
X161703159Y-112701780D01*
X161546443Y-112781070D01*
X161541685Y-112783416D01*
X161439410Y-112834925D01*
X161330763Y-112891829D01*
X161211840Y-112956386D01*
X161078735Y-113030856D01*
X160927542Y-113117499D01*
X160754355Y-113218572D01*
X160555269Y-113336337D01*
X160326378Y-113473050D01*
X160063776Y-113630973D01*
X159763558Y-113812364D01*
X159685346Y-113859478D01*
X159517652Y-113959390D01*
X159341559Y-114063118D01*
X159173740Y-114160866D01*
X159030866Y-114242839D01*
X158937752Y-114296000D01*
X158781255Y-114386226D01*
X158593710Y-114495082D01*
X158381346Y-114618903D01*
X158150391Y-114754024D01*
X157907075Y-114896781D01*
X157657627Y-115043507D01*
X157408275Y-115190539D01*
X157165247Y-115334212D01*
X156934774Y-115470860D01*
X156723082Y-115596818D01*
X156536402Y-115708422D01*
X156380962Y-115802007D01*
X156187357Y-115918652D01*
X155868222Y-116108884D01*
X155523150Y-116312180D01*
X155146444Y-116531889D01*
X154732405Y-116771363D01*
X154703887Y-116787801D01*
X154538036Y-116883453D01*
X154350201Y-116991868D01*
X154144974Y-117110388D01*
X153926947Y-117236357D01*
X153700711Y-117367118D01*
X153470857Y-117500016D01*
X153241978Y-117632393D01*
X153018666Y-117761593D01*
X152805510Y-117884959D01*
X152607104Y-117999836D01*
X152428039Y-118103567D01*
X152272907Y-118193495D01*
X152146298Y-118266964D01*
X152052805Y-118321317D01*
X151997020Y-118353899D01*
X151932738Y-118391475D01*
X151831087Y-118450607D01*
X151699365Y-118527056D01*
X151543769Y-118617232D01*
X151370491Y-118717545D01*
X151185728Y-118824404D01*
X150995674Y-118934220D01*
X150854338Y-119015860D01*
X150665830Y-119124774D01*
X150445490Y-119252100D01*
X150198748Y-119394701D01*
X149931032Y-119549437D01*
X149647773Y-119713171D01*
X149354399Y-119882764D01*
X149056340Y-120055078D01*
X148759026Y-120226975D01*
X148467885Y-120395316D01*
X148404699Y-120431851D01*
X148128279Y-120591643D01*
X147857051Y-120748372D01*
X147595139Y-120899660D01*
X147346661Y-121043131D01*
X147115739Y-121176406D01*
X146906494Y-121297108D01*
X146723045Y-121402859D01*
X146569514Y-121491280D01*
X146450021Y-121559995D01*
X146368687Y-121606626D01*
X146350019Y-121617293D01*
X146201070Y-121701392D01*
X146084605Y-121762123D01*
X145991723Y-121800351D01*
X145913526Y-121816938D01*
X145841113Y-121812748D01*
X145765584Y-121788644D01*
X145678039Y-121745491D01*
X145569579Y-121684150D01*
X145221428Y-121483684D01*
X144037589Y-120800416D01*
X142885673Y-120132978D01*
X141756805Y-119476187D01*
X140642111Y-118824861D01*
X139532716Y-118173818D01*
X138419747Y-117517875D01*
X137294328Y-116851851D01*
X137185375Y-116787305D01*
X137035254Y-116698473D01*
X136855687Y-116592295D01*
X136653169Y-116472606D01*
X136434194Y-116343244D01*
X136205255Y-116208045D01*
X135972847Y-116070848D01*
X135743462Y-115935489D01*
X135587383Y-115843333D01*
X135187270Y-115606483D01*
X134770807Y-115359159D01*
X134342869Y-115104292D01*
X133908330Y-114844813D01*
X133472065Y-114583652D01*
X133038947Y-114323741D01*
X132613851Y-114068011D01*
X132201653Y-113819392D01*
X131807225Y-113580814D01*
X131435443Y-113355210D01*
X131091180Y-113145510D01*
X130779312Y-112954644D01*
X130504712Y-112785544D01*
X130484868Y-112773289D01*
X130332026Y-112679535D01*
X130148894Y-112568065D01*
X129945704Y-112445051D01*
X129732688Y-112316660D01*
X129520081Y-112189063D01*
X129318114Y-112068430D01*
X129137020Y-111960930D01*
X129041361Y-111903999D01*
X128889083Y-111812370D01*
X128733349Y-111717729D01*
X128596148Y-111633393D01*
X128502965Y-111575156D01*
X128420085Y-111520740D01*
X128366397Y-111479821D01*
X128334855Y-111446017D01*
X128318411Y-111412944D01*
X128310017Y-111374218D01*
X128309613Y-111367342D01*
X128308679Y-111316951D01*
X128307796Y-111220037D01*
X128306967Y-111078242D01*
X128306191Y-110893206D01*
X128305470Y-110666569D01*
X128304805Y-110399972D01*
X128304197Y-110095055D01*
X128303647Y-109753459D01*
X128303157Y-109376824D01*
X128302728Y-108966791D01*
X128302360Y-108525001D01*
X128302065Y-108068971D01*
X129163019Y-108068971D01*
X129163033Y-108523687D01*
X129163146Y-108947535D01*
X129163357Y-109338881D01*
X129163667Y-109696091D01*
X129164075Y-110017530D01*
X129164581Y-110301564D01*
X129165186Y-110546558D01*
X129165890Y-110750879D01*
X129166691Y-110912891D01*
X129167591Y-111030960D01*
X129168590Y-111103451D01*
X129169687Y-111128732D01*
X129179236Y-111135513D01*
X129225258Y-111164032D01*
X129301782Y-111209625D01*
X129401119Y-111267730D01*
X129515578Y-111333790D01*
X129586645Y-111374565D01*
X129724236Y-111453549D01*
X129886810Y-111546910D01*
X130063848Y-111648606D01*
X130244829Y-111752594D01*
X130419231Y-111852831D01*
X130486847Y-111891682D01*
X130691190Y-112008939D01*
X130914191Y-112136717D01*
X131140606Y-112266288D01*
X131355188Y-112388927D01*
X131542693Y-112495905D01*
X131668790Y-112567885D01*
X131813315Y-112650691D01*
X131941873Y-112724681D01*
X132047839Y-112786029D01*
X132124584Y-112830909D01*
X132165481Y-112855493D01*
X132190163Y-112870590D01*
X132258245Y-112910864D01*
X132354074Y-112966676D01*
X132468628Y-113032780D01*
X132592885Y-113103934D01*
X132645794Y-113134140D01*
X132791746Y-113217695D01*
X132938996Y-113302272D01*
X133072956Y-113379483D01*
X133179039Y-113440942D01*
X133237119Y-113474619D01*
X133364439Y-113547839D01*
X133490245Y-113619525D01*
X133594231Y-113678078D01*
X133599414Y-113680973D01*
X133672658Y-113722381D01*
X133779930Y-113783619D01*
X133913775Y-113860403D01*
X134066737Y-113948450D01*
X134231362Y-114043476D01*
X134400193Y-114141196D01*
X134417013Y-114150944D01*
X134585776Y-114248645D01*
X134749586Y-114343296D01*
X134900987Y-114430601D01*
X135032520Y-114506264D01*
X135136729Y-114565989D01*
X135206155Y-114605480D01*
X135297664Y-114657355D01*
X135425846Y-114730434D01*
X135579731Y-114818449D01*
X135750885Y-114916561D01*
X135930875Y-115019931D01*
X136111267Y-115123718D01*
X136283627Y-115223084D01*
X136439520Y-115313189D01*
X136472823Y-115332440D01*
X136581172Y-115394857D01*
X136717814Y-115473357D01*
X136872663Y-115562153D01*
X137035632Y-115655460D01*
X137196635Y-115747493D01*
X137264932Y-115786517D01*
X137425137Y-115878206D01*
X137581271Y-115967751D01*
X137723742Y-116049642D01*
X137842958Y-116118369D01*
X137929328Y-116168420D01*
X138007696Y-116213820D01*
X138121838Y-116279590D01*
X138262272Y-116360279D01*
X138420837Y-116451200D01*
X138589372Y-116547671D01*
X138759712Y-116645006D01*
X138914770Y-116733589D01*
X139094403Y-116836352D01*
X139269180Y-116936473D01*
X139429707Y-117028566D01*
X139566588Y-117107244D01*
X139670427Y-117167120D01*
X139726748Y-117199678D01*
X139860480Y-117276905D01*
X139995560Y-117354775D01*
X140140197Y-117438011D01*
X140302603Y-117531337D01*
X140490987Y-117639474D01*
X140713558Y-117767144D01*
X140819477Y-117827966D01*
X140937112Y-117895679D01*
X141040889Y-117955575D01*
X141116539Y-117999430D01*
X141130392Y-118007483D01*
X141223342Y-118061127D01*
X141333859Y-118124452D01*
X141440934Y-118185411D01*
X141458734Y-118195513D01*
X141569256Y-118258609D01*
X141680428Y-118322581D01*
X141770646Y-118375006D01*
X141817795Y-118402504D01*
X141904489Y-118452774D01*
X142023868Y-118521777D01*
X142177141Y-118610210D01*
X142365519Y-118718771D01*
X142590212Y-118848155D01*
X142852432Y-118999061D01*
X143153387Y-119172186D01*
X143494288Y-119368226D01*
X143876347Y-119587879D01*
X144043385Y-119683939D01*
X144249813Y-119802742D01*
X144453766Y-119920209D01*
X144647266Y-120031743D01*
X144822338Y-120132744D01*
X144971005Y-120218617D01*
X145085289Y-120284761D01*
X145185503Y-120342758D01*
X145329167Y-120425594D01*
X145465883Y-120504102D01*
X145583893Y-120571536D01*
X145671443Y-120621149D01*
X145708197Y-120641951D01*
X145801561Y-120695975D01*
X145880210Y-120743063D01*
X145930119Y-120774881D01*
X145969995Y-120799729D01*
X146005895Y-120804278D01*
X146049024Y-120779819D01*
X146074060Y-120763482D01*
X146139851Y-120723280D01*
X146228375Y-120670945D01*
X146327656Y-120613622D01*
X146389202Y-120578424D01*
X146508238Y-120510109D01*
X146648400Y-120429466D01*
X146797023Y-120343785D01*
X146941443Y-120260353D01*
X147053112Y-120195823D01*
X147181257Y-120121916D01*
X147294997Y-120056467D01*
X147385046Y-120004819D01*
X147442116Y-119972315D01*
X147475376Y-119953422D01*
X147561304Y-119904111D01*
X147665333Y-119843988D01*
X147771828Y-119782072D01*
X147831984Y-119747044D01*
X147932685Y-119688670D01*
X148019028Y-119638928D01*
X148077116Y-119605841D01*
X148112778Y-119585642D01*
X148191322Y-119540746D01*
X148289694Y-119484221D01*
X148394616Y-119423687D01*
X148440572Y-119397144D01*
X148541904Y-119338703D01*
X148674074Y-119262544D01*
X148830102Y-119172686D01*
X149003009Y-119073149D01*
X149185814Y-118967951D01*
X149371539Y-118861113D01*
X149409949Y-118839021D01*
X149628477Y-118713286D01*
X149866272Y-118576403D01*
X150111010Y-118435469D01*
X150350369Y-118297582D01*
X150572025Y-118169840D01*
X150763655Y-118059340D01*
X150806375Y-118034701D01*
X150975775Y-117937078D01*
X151137542Y-117843975D01*
X151284743Y-117759374D01*
X151410444Y-117687258D01*
X151507712Y-117631607D01*
X151569616Y-117596406D01*
X151623610Y-117565702D01*
X151723081Y-117508633D01*
X151845913Y-117437793D01*
X151981475Y-117359315D01*
X152119135Y-117279334D01*
X152220427Y-117220503D01*
X152363178Y-117137995D01*
X152498540Y-117060177D01*
X152614923Y-116993709D01*
X152700736Y-116945248D01*
X152728318Y-116929782D01*
X152827757Y-116873186D01*
X152917739Y-116820829D01*
X152981601Y-116782375D01*
X153027817Y-116754306D01*
X153115952Y-116702899D01*
X153205962Y-116652277D01*
X153255887Y-116624413D01*
X153348216Y-116572073D01*
X153464815Y-116505418D01*
X153595743Y-116430134D01*
X153731058Y-116351910D01*
X153803926Y-116309698D01*
X153957832Y-116220674D01*
X154135675Y-116117933D01*
X154325749Y-116008232D01*
X154516349Y-115898330D01*
X154695770Y-115794983D01*
X154885192Y-115685940D01*
X155115271Y-115553470D01*
X155310893Y-115440801D01*
X155476641Y-115345287D01*
X155617102Y-115264277D01*
X155736860Y-115195126D01*
X155840500Y-115135184D01*
X155932607Y-115081805D01*
X156017766Y-115032339D01*
X156100561Y-114984139D01*
X156185578Y-114934556D01*
X156200141Y-114926061D01*
X156330394Y-114850413D01*
X156462587Y-114774138D01*
X156582032Y-114705686D01*
X156674039Y-114653510D01*
X156685996Y-114646776D01*
X156763730Y-114602610D01*
X156877798Y-114537394D01*
X157023346Y-114453919D01*
X157195522Y-114354977D01*
X157389472Y-114243362D01*
X157600344Y-114121865D01*
X157823285Y-113993278D01*
X158053442Y-113860395D01*
X158285962Y-113726007D01*
X158526529Y-113586944D01*
X158793422Y-113432807D01*
X159025898Y-113298722D01*
X159222394Y-113185588D01*
X159381350Y-113094304D01*
X159501201Y-113025770D01*
X159580385Y-112980886D01*
X159633322Y-112951011D01*
X159779744Y-112867450D01*
X159965461Y-112760454D01*
X160188629Y-112631087D01*
X160447405Y-112480414D01*
X160515687Y-112440706D01*
X160634974Y-112371627D01*
X160775293Y-112290602D01*
X160924435Y-112204677D01*
X161070193Y-112120899D01*
X161085904Y-112111882D01*
X161238718Y-112024174D01*
X161418069Y-111921238D01*
X161609807Y-111811197D01*
X161799783Y-111702169D01*
X161973847Y-111602277D01*
X162029410Y-111570372D01*
X162188827Y-111478655D01*
X162345567Y-111388242D01*
X162489701Y-111304871D01*
X162611299Y-111234283D01*
X162700433Y-111182220D01*
X162926347Y-111049486D01*
X162926331Y-101275271D01*
X162926315Y-91501057D01*
X162700417Y-91368045D01*
X162568311Y-91290241D01*
X162259741Y-91108366D01*
X161964289Y-90934025D01*
X161684853Y-90768939D01*
X161424335Y-90614828D01*
X161185634Y-90473412D01*
X160971651Y-90346413D01*
X160785286Y-90235550D01*
X160629437Y-90142544D01*
X160507007Y-90069115D01*
X160420894Y-90016985D01*
X160374000Y-89987873D01*
X160343947Y-89968653D01*
X160247726Y-89910178D01*
X160165944Y-89864922D01*
X160107336Y-89837510D01*
X160080639Y-89832567D01*
X160080246Y-89841501D01*
X160079473Y-89894447D01*
X160078567Y-89993431D01*
X160077535Y-90136691D01*
X160076383Y-90322466D01*
X160075120Y-90548995D01*
X160073752Y-90814516D01*
X160072288Y-91117267D01*
X160070733Y-91455488D01*
X160069096Y-91827417D01*
X160067384Y-92231292D01*
X160065604Y-92665353D01*
X160063763Y-93127838D01*
X160061869Y-93616985D01*
X160059928Y-94131033D01*
X160057949Y-94668221D01*
X160055939Y-95226787D01*
X160053904Y-95804971D01*
X160051852Y-96401010D01*
X160050864Y-96694445D01*
X160049791Y-97013143D01*
X160047727Y-97639609D01*
X160045669Y-98278646D01*
X160045200Y-98425185D01*
X160043076Y-99078048D01*
X160040912Y-99724851D01*
X160038717Y-100363455D01*
X160036500Y-100991721D01*
X160034270Y-101607509D01*
X160033345Y-101856442D01*
X160033300Y-101868653D01*
X160032037Y-102208680D01*
X160029809Y-102793095D01*
X160027595Y-103358614D01*
X160025405Y-103903099D01*
X160023247Y-104424409D01*
X160021131Y-104920406D01*
X160019066Y-105388950D01*
X160017061Y-105827901D01*
X160015125Y-106235122D01*
X160013267Y-106608471D01*
X160011496Y-106945810D01*
X160009822Y-107245000D01*
X160008253Y-107503902D01*
X160006798Y-107720375D01*
X160005467Y-107892281D01*
X160004269Y-108017481D01*
X159989747Y-109318327D01*
X158974363Y-109896410D01*
X158667710Y-110070995D01*
X158499906Y-110166530D01*
X158306927Y-110276394D01*
X158127596Y-110378480D01*
X157959472Y-110474170D01*
X157800112Y-110564848D01*
X157647074Y-110651899D01*
X157497918Y-110736707D01*
X157350201Y-110820656D01*
X157201481Y-110905129D01*
X157049316Y-110991511D01*
X156891266Y-111081186D01*
X156724887Y-111175537D01*
X156547738Y-111275950D01*
X156357377Y-111383807D01*
X156151363Y-111500493D01*
X155927254Y-111627392D01*
X155682607Y-111765888D01*
X155414981Y-111917364D01*
X155121935Y-112083206D01*
X154801026Y-112264796D01*
X154449812Y-112463520D01*
X154065852Y-112680760D01*
X153646705Y-112917902D01*
X153189927Y-113176328D01*
X152693078Y-113457424D01*
X152551511Y-113537518D01*
X152256385Y-113704499D01*
X151930767Y-113888743D01*
X151582506Y-114085807D01*
X151219451Y-114291248D01*
X150849453Y-114500626D01*
X150480361Y-114709498D01*
X150120025Y-114913422D01*
X149776295Y-115107956D01*
X149457020Y-115288658D01*
X149167253Y-115452660D01*
X148864009Y-115624283D01*
X148559027Y-115796884D01*
X148257836Y-115967333D01*
X147965968Y-116132501D01*
X147688955Y-116289256D01*
X147432326Y-116434470D01*
X147201613Y-116565012D01*
X147002347Y-116677753D01*
X146840059Y-116769562D01*
X146770447Y-116808891D01*
X146587143Y-116911981D01*
X146418388Y-117006214D01*
X146268832Y-117089039D01*
X146143124Y-117157901D01*
X146045914Y-117210250D01*
X145981850Y-117243531D01*
X145955583Y-117255192D01*
X145930581Y-117245833D01*
X145871264Y-117215742D01*
X145788114Y-117169834D01*
X145690621Y-117113195D01*
X145662969Y-117096812D01*
X145557534Y-117034806D01*
X145423427Y-116956419D01*
X145270836Y-116867586D01*
X145109952Y-116774244D01*
X144950962Y-116682327D01*
X144891371Y-116647932D01*
X144734141Y-116557064D01*
X144581132Y-116468483D01*
X144441870Y-116387713D01*
X144325881Y-116320277D01*
X144242693Y-116271697D01*
X144063313Y-116166753D01*
X143837521Y-116035151D01*
X143573560Y-115881712D01*
X143273576Y-115707680D01*
X142939714Y-115514301D01*
X142574121Y-115302820D01*
X142178943Y-115074482D01*
X142032714Y-114989919D01*
X141840283Y-114878393D01*
X141641010Y-114762686D01*
X141451285Y-114652316D01*
X141287501Y-114556800D01*
X141152414Y-114477940D01*
X140999133Y-114388576D01*
X140852832Y-114303394D01*
X140725238Y-114229221D01*
X140628078Y-114172884D01*
X140582047Y-114146233D01*
X140473802Y-114083480D01*
X140338018Y-114004689D01*
X140184027Y-113915279D01*
X140021160Y-113820667D01*
X139858751Y-113726270D01*
X139779455Y-113680179D01*
X139606892Y-113579946D01*
X139433525Y-113479327D01*
X139270110Y-113384561D01*
X139127401Y-113301887D01*
X139016155Y-113237543D01*
X138992260Y-113223733D01*
X138882085Y-113159932D01*
X138740436Y-113077766D01*
X138575710Y-112982111D01*
X138396302Y-112877844D01*
X138210607Y-112769841D01*
X138027020Y-112662980D01*
X137981933Y-112636724D01*
X137778121Y-112518047D01*
X137609034Y-112419614D01*
X137468427Y-112337803D01*
X137350053Y-112268991D01*
X137247669Y-112209554D01*
X137155030Y-112155870D01*
X137065890Y-112104316D01*
X136974006Y-112051270D01*
X136873130Y-111993107D01*
X136757020Y-111926206D01*
X136695162Y-111890548D01*
X136439241Y-111742655D01*
X136158513Y-111579928D01*
X135866614Y-111410289D01*
X135577180Y-111241659D01*
X135303847Y-111081961D01*
X135246427Y-111048374D01*
X135102849Y-110964505D01*
X134959615Y-110880978D01*
X134830656Y-110805913D01*
X134729905Y-110747431D01*
X134511699Y-110621030D01*
X134294628Y-110495177D01*
X134097174Y-110380584D01*
X133923871Y-110279887D01*
X133779256Y-110195720D01*
X133667865Y-110130720D01*
X133594231Y-110087521D01*
X133577823Y-110077868D01*
X133504163Y-110034809D01*
X133399487Y-109973870D01*
X133373009Y-109958490D01*
X137679791Y-109958490D01*
X137681635Y-110129908D01*
X137694347Y-110338860D01*
X137700960Y-110425544D01*
X137711142Y-110535674D01*
X137722250Y-110613045D01*
X137736438Y-110667641D01*
X137755859Y-110709448D01*
X137782665Y-110748449D01*
X137795887Y-110765142D01*
X137851358Y-110825819D01*
X137900425Y-110867664D01*
X137929675Y-110880758D01*
X138010594Y-110899070D01*
X138119093Y-110911770D01*
X138241900Y-110918302D01*
X138365744Y-110918113D01*
X138477352Y-110910649D01*
X138563454Y-110895354D01*
X138581690Y-110889911D01*
X138691836Y-110838449D01*
X138773267Y-110760287D01*
X138828418Y-110650846D01*
X138859722Y-110505550D01*
X138869616Y-110319822D01*
X138869616Y-110074807D01*
X140066347Y-110074807D01*
X140066508Y-110386201D01*
X140067519Y-110514377D01*
X140071367Y-110612771D01*
X140079187Y-110680974D01*
X140092114Y-110728599D01*
X140111284Y-110765257D01*
X140176157Y-110841698D01*
X140295463Y-110925888D01*
X140436717Y-110977042D01*
X140520749Y-110993383D01*
X140592065Y-110999503D01*
X140657185Y-110991484D01*
X140737981Y-110968720D01*
X140870412Y-110918420D01*
X140984536Y-110849063D01*
X141070423Y-110758096D01*
X141138910Y-110636538D01*
X141144383Y-110624187D01*
X141154263Y-110598708D01*
X141162560Y-110569394D01*
X141169414Y-110532154D01*
X141174965Y-110482895D01*
X141179353Y-110417525D01*
X141182718Y-110331953D01*
X141185200Y-110222086D01*
X141186940Y-110083833D01*
X141188077Y-109913102D01*
X141188751Y-109705800D01*
X141189103Y-109457836D01*
X141189272Y-109165118D01*
X141189808Y-107803602D01*
X141101612Y-107705979D01*
X141014587Y-107629243D01*
X140889583Y-107571581D01*
X140865570Y-107564871D01*
X140831475Y-107559230D01*
X142410623Y-107559230D01*
X142411543Y-107803602D01*
X142416899Y-109226105D01*
X142423174Y-110892980D01*
X142570715Y-110900119D01*
X142638448Y-110901473D01*
X142703662Y-110898045D01*
X142735570Y-110889942D01*
X142737220Y-110880776D01*
X142740064Y-110828512D01*
X142742729Y-110733675D01*
X142745174Y-110600291D01*
X142747357Y-110432385D01*
X142749236Y-110233984D01*
X142750770Y-110009112D01*
X142751917Y-109761795D01*
X142752636Y-109496059D01*
X142752885Y-109215929D01*
X142752885Y-107559230D01*
X143876347Y-107559230D01*
X143876347Y-107693557D01*
X143876347Y-107827884D01*
X144108366Y-107827884D01*
X144340385Y-107827884D01*
X144340385Y-109215929D01*
X144340385Y-109342115D01*
X144340385Y-110856345D01*
X144490593Y-110856345D01*
X144640802Y-110856345D01*
X144627703Y-109342115D01*
X144614604Y-107827884D01*
X144831629Y-107827884D01*
X145048655Y-107827884D01*
X145048655Y-107764981D01*
X146172116Y-107764981D01*
X146172116Y-109177549D01*
X146172174Y-109364343D01*
X146172575Y-109644422D01*
X146173427Y-109881375D01*
X146174815Y-110078797D01*
X146176822Y-110240286D01*
X146179533Y-110369440D01*
X146183031Y-110469855D01*
X146187400Y-110545128D01*
X146192723Y-110598856D01*
X146199086Y-110634637D01*
X146206570Y-110656068D01*
X146258470Y-110732013D01*
X146355268Y-110824119D01*
X146465193Y-110889302D01*
X146495027Y-110900640D01*
X146643127Y-110933882D01*
X146804117Y-110939917D01*
X146959860Y-110919236D01*
X147092221Y-110872329D01*
X147095104Y-110870805D01*
X147186185Y-110805279D01*
X147266504Y-110718306D01*
X147318447Y-110628842D01*
X147320884Y-110619158D01*
X147327106Y-110558881D01*
X147332381Y-110450061D01*
X147336706Y-110292914D01*
X147340077Y-110087656D01*
X147342489Y-109834505D01*
X147343939Y-109533676D01*
X147344424Y-109185386D01*
X147344424Y-108453111D01*
X148565578Y-108453111D01*
X148565580Y-108483207D01*
X148565852Y-108664483D01*
X148566922Y-108804383D01*
X148569287Y-108909431D01*
X148573446Y-108986150D01*
X148579894Y-109041066D01*
X148589129Y-109080701D01*
X148601649Y-109111580D01*
X148617951Y-109140226D01*
X148626115Y-109153964D01*
X148650658Y-109210866D01*
X148646030Y-109240801D01*
X148644251Y-109241979D01*
X148621037Y-109262649D01*
X148602815Y-109293475D01*
X148589000Y-109339981D01*
X148579009Y-109407695D01*
X148572256Y-109502142D01*
X148568156Y-109628848D01*
X148566125Y-109793341D01*
X148565578Y-110001145D01*
X148565865Y-110176287D01*
X148567491Y-110349443D01*
X148571367Y-110484290D01*
X148578399Y-110586607D01*
X148589491Y-110662175D01*
X148605548Y-110716774D01*
X148627474Y-110756185D01*
X148656173Y-110786187D01*
X148692550Y-110812560D01*
X148704324Y-110818935D01*
X148745943Y-110831613D01*
X148812236Y-110841654D01*
X148909246Y-110849622D01*
X149043015Y-110856077D01*
X149219586Y-110861583D01*
X149233723Y-110861945D01*
X149378659Y-110864848D01*
X149505241Y-110865964D01*
X149605854Y-110865334D01*
X149672880Y-110862999D01*
X149698703Y-110859001D01*
X149699399Y-110852573D01*
X149701038Y-110804888D01*
X149702840Y-110714304D01*
X149704761Y-110584881D01*
X149706756Y-110420677D01*
X149708783Y-110225751D01*
X149710797Y-110004161D01*
X149712755Y-109759967D01*
X149714614Y-109497227D01*
X149716329Y-109219999D01*
X149724705Y-107764254D01*
X150885770Y-107764254D01*
X150885770Y-109164546D01*
X150885779Y-109237667D01*
X150886070Y-109535948D01*
X150886827Y-109789738D01*
X150888132Y-110002593D01*
X150890064Y-110178071D01*
X150892706Y-110319730D01*
X150896137Y-110431128D01*
X150900438Y-110515822D01*
X150905690Y-110577369D01*
X150911974Y-110619327D01*
X150919370Y-110645255D01*
X150956710Y-110707977D01*
X151035733Y-110791731D01*
X151132548Y-110862395D01*
X151230212Y-110905770D01*
X151319887Y-110925756D01*
X151495193Y-110941291D01*
X151657643Y-110925621D01*
X151794393Y-110879348D01*
X151828268Y-110856345D01*
X153271586Y-110856345D01*
X153393904Y-110856345D01*
X153516222Y-110856345D01*
X153531907Y-110654855D01*
X153536425Y-110576669D01*
X153540911Y-110453128D01*
X153544481Y-110303776D01*
X153546852Y-110140813D01*
X153547739Y-109976443D01*
X153547813Y-109876011D01*
X153549108Y-109715290D01*
X153553923Y-109594685D01*
X153564645Y-109508437D01*
X153583664Y-109450786D01*
X153613366Y-109415973D01*
X153656139Y-109398238D01*
X153714370Y-109391820D01*
X153790448Y-109390961D01*
X153876636Y-109392721D01*
X153968659Y-109398245D01*
X154033294Y-109406225D01*
X154109616Y-109421490D01*
X154109616Y-110138918D01*
X154109616Y-110856345D01*
X154242447Y-110856345D01*
X154375277Y-110856345D01*
X154389998Y-110752547D01*
X154390305Y-110750040D01*
X154392757Y-110702208D01*
X154394847Y-110610575D01*
X154396556Y-110479660D01*
X154397861Y-110313981D01*
X154398742Y-110118058D01*
X154399177Y-109896410D01*
X154399146Y-109653556D01*
X154398627Y-109394015D01*
X154397600Y-109122307D01*
X154390481Y-107595865D01*
X153967667Y-107589176D01*
X153854790Y-107587547D01*
X153729865Y-107586746D01*
X153640130Y-107588387D01*
X153577568Y-107593193D01*
X153534159Y-107601889D01*
X153501887Y-107615197D01*
X153472731Y-107633842D01*
X153466578Y-107638244D01*
X153426717Y-107669135D01*
X153395335Y-107701815D01*
X153371420Y-107742166D01*
X153353961Y-107796069D01*
X153341944Y-107869406D01*
X153334360Y-107968060D01*
X153330195Y-108097913D01*
X153328438Y-108264846D01*
X153328078Y-108474742D01*
X153328099Y-108528147D01*
X153328718Y-108718459D01*
X153330415Y-108866985D01*
X153333491Y-108979395D01*
X153338247Y-109061361D01*
X153344985Y-109118555D01*
X153354005Y-109156646D01*
X153365610Y-109181307D01*
X153371157Y-109189927D01*
X153388752Y-109228609D01*
X153382929Y-109267092D01*
X153351733Y-109325719D01*
X153340228Y-109346575D01*
X153327659Y-109376436D01*
X153322012Y-109397845D01*
X153317693Y-109414217D01*
X153309856Y-109465764D01*
X153303671Y-109536924D01*
X153298665Y-109633541D01*
X153294360Y-109761462D01*
X153290282Y-109926532D01*
X153285956Y-110134597D01*
X153271586Y-110856345D01*
X151828268Y-110856345D01*
X151876353Y-110823692D01*
X151956438Y-110746476D01*
X152020412Y-110663054D01*
X152054941Y-110588320D01*
X152057257Y-110569337D01*
X152060813Y-110501738D01*
X152064022Y-110392956D01*
X152066827Y-110247749D01*
X152069167Y-110070876D01*
X152070986Y-109867095D01*
X152072224Y-109641165D01*
X152072824Y-109397845D01*
X152072725Y-109141893D01*
X152070289Y-107781576D01*
X151973593Y-107682457D01*
X151952836Y-107662237D01*
X151814439Y-107566220D01*
X151648723Y-107506504D01*
X151463147Y-107485961D01*
X151434374Y-107486326D01*
X151257981Y-107508565D01*
X151110401Y-107566815D01*
X151072858Y-107595865D01*
X150985774Y-107663250D01*
X150885770Y-107764254D01*
X149724705Y-107764254D01*
X149725674Y-107595865D01*
X149290866Y-107589190D01*
X149223242Y-107588218D01*
X149080179Y-107587054D01*
X148974010Y-107588325D01*
X148896153Y-107592689D01*
X148838025Y-107600805D01*
X148791044Y-107613329D01*
X148746628Y-107630922D01*
X148743241Y-107632425D01*
X148692581Y-107657289D01*
X148652576Y-107685449D01*
X148621973Y-107722600D01*
X148599517Y-107774434D01*
X148591705Y-107810684D01*
X148583956Y-107846644D01*
X148574035Y-107944923D01*
X148568501Y-108074966D01*
X148566099Y-108242464D01*
X148565578Y-108453111D01*
X147344424Y-108453111D01*
X147344424Y-107810684D01*
X147289472Y-107727698D01*
X147271033Y-107703742D01*
X147190791Y-107633147D01*
X147078086Y-107565336D01*
X147000061Y-107528094D01*
X146922496Y-107501235D01*
X146841196Y-107488916D01*
X146733695Y-107485961D01*
X146687583Y-107487004D01*
X146510059Y-107514942D01*
X146361262Y-107581520D01*
X146239280Y-107687515D01*
X146234042Y-107693557D01*
X146172116Y-107764981D01*
X145048655Y-107764981D01*
X145048655Y-107693557D01*
X145048655Y-107559230D01*
X144462501Y-107559230D01*
X143876347Y-107559230D01*
X142752885Y-107559230D01*
X142581754Y-107559230D01*
X142410623Y-107559230D01*
X140831475Y-107559230D01*
X140705408Y-107538372D01*
X140540582Y-107538336D01*
X140383472Y-107562983D01*
X140246457Y-107610530D01*
X140141918Y-107679195D01*
X140066347Y-107749789D01*
X140066347Y-108056049D01*
X140067831Y-108170315D01*
X140072834Y-108275864D01*
X140080813Y-108347457D01*
X140091195Y-108377666D01*
X140111853Y-108382353D01*
X140171318Y-108382983D01*
X140249945Y-108376293D01*
X140383847Y-108359563D01*
X140383847Y-108171250D01*
X140383864Y-108157422D01*
X140386082Y-108063249D01*
X140394272Y-108002772D01*
X140411643Y-107962482D01*
X140441402Y-107928866D01*
X140445509Y-107925101D01*
X140537593Y-107872846D01*
X140643814Y-107859329D01*
X140746413Y-107886987D01*
X140823462Y-107926831D01*
X140823462Y-108792595D01*
X140823462Y-109232275D01*
X140823462Y-110537719D01*
X140758220Y-110580468D01*
X140716345Y-110601796D01*
X140623380Y-110621529D01*
X140530996Y-110613274D01*
X140459067Y-110577245D01*
X140445114Y-110563272D01*
X140425877Y-110532166D01*
X140414710Y-110485905D01*
X140409534Y-110413269D01*
X140408270Y-110303041D01*
X140408270Y-110074807D01*
X140237308Y-110074807D01*
X140066347Y-110074807D01*
X138869616Y-110074807D01*
X138686443Y-110074807D01*
X138503270Y-110074807D01*
X138503270Y-110272070D01*
X138502966Y-110333333D01*
X138499416Y-110411858D01*
X138488852Y-110463312D01*
X138467574Y-110501624D01*
X138431879Y-110540724D01*
X138412864Y-110558150D01*
X138325059Y-110605701D01*
X138235337Y-110610543D01*
X138153186Y-110576095D01*
X138088094Y-110505775D01*
X138049547Y-110402999D01*
X138045755Y-110370403D01*
X138042631Y-110289324D01*
X138042695Y-110183223D01*
X138045497Y-110064411D01*
X138050584Y-109945197D01*
X138057505Y-109837895D01*
X138065808Y-109754814D01*
X138075040Y-109708265D01*
X138091626Y-109686576D01*
X138139581Y-109635809D01*
X138212445Y-109563536D01*
X138304076Y-109475825D01*
X138408333Y-109378749D01*
X138433368Y-109355684D01*
X138555372Y-109240730D01*
X138646966Y-109148574D01*
X138714389Y-109072239D01*
X138763884Y-109004751D01*
X138801693Y-108939134D01*
X138876148Y-108792595D01*
X138872755Y-108369838D01*
X138871971Y-108282699D01*
X138869282Y-108138710D01*
X138863165Y-108030036D01*
X138851272Y-107947628D01*
X138831259Y-107882437D01*
X138800778Y-107825412D01*
X138757485Y-107767504D01*
X138699033Y-107699663D01*
X138596811Y-107583653D01*
X138277200Y-107583653D01*
X137957589Y-107583653D01*
X137853148Y-107692654D01*
X137832324Y-107714920D01*
X137781263Y-107779105D01*
X137748259Y-107844978D01*
X137730204Y-107924247D01*
X137723991Y-108028621D01*
X137726512Y-108169807D01*
X137733943Y-108377403D01*
X137895098Y-108384540D01*
X138056254Y-108391678D01*
X138071308Y-108178357D01*
X138073509Y-108148331D01*
X138083190Y-108050314D01*
X138096413Y-107985358D01*
X138116709Y-107940753D01*
X138147612Y-107903787D01*
X138182664Y-107875640D01*
X138269025Y-107843840D01*
X138358521Y-107850224D01*
X138434974Y-107895272D01*
X138446887Y-107908306D01*
X138465596Y-107938484D01*
X138479434Y-107982068D01*
X138490089Y-108047908D01*
X138499245Y-108144856D01*
X138508589Y-108281763D01*
X138516130Y-108426853D01*
X138518174Y-108552136D01*
X138513153Y-108641609D01*
X138500944Y-108701951D01*
X138497800Y-108710088D01*
X138459462Y-108772236D01*
X138385685Y-108864836D01*
X138277630Y-108986503D01*
X138136462Y-109135853D01*
X138095172Y-109178757D01*
X137957473Y-109327261D01*
X137851882Y-109455502D01*
X137774858Y-109573112D01*
X137722862Y-109689725D01*
X137692353Y-109814973D01*
X137679791Y-109958490D01*
X133373009Y-109958490D01*
X133272225Y-109899948D01*
X133130804Y-109817940D01*
X132983655Y-109732744D01*
X132940576Y-109707811D01*
X132790266Y-109620633D01*
X132645508Y-109536421D01*
X132515492Y-109460535D01*
X132409407Y-109398336D01*
X132336443Y-109355185D01*
X132165481Y-109253134D01*
X132157697Y-108717576D01*
X132157497Y-108699936D01*
X132157049Y-108618946D01*
X132156745Y-108491596D01*
X132156581Y-108319708D01*
X132156553Y-108105103D01*
X132156659Y-107849603D01*
X132156894Y-107555029D01*
X132157257Y-107223203D01*
X132157742Y-106855947D01*
X132158348Y-106455081D01*
X132159070Y-106022429D01*
X132159905Y-105559810D01*
X132160850Y-105069048D01*
X132161901Y-104551963D01*
X132163055Y-104010378D01*
X132164309Y-103446113D01*
X132165660Y-102860990D01*
X132167103Y-102256832D01*
X132167760Y-101990769D01*
X133276731Y-101990769D01*
X133276731Y-102112884D01*
X133471931Y-102112884D01*
X133667131Y-102112884D01*
X133673422Y-103633220D01*
X133679712Y-105153557D01*
X133802766Y-105160760D01*
X133846731Y-105162175D01*
X133910620Y-105159265D01*
X133943198Y-105150584D01*
X133943587Y-105149821D01*
X133946640Y-105117204D01*
X133949514Y-105040486D01*
X133952161Y-104923890D01*
X133954533Y-104771639D01*
X133956581Y-104587957D01*
X133958257Y-104377064D01*
X133959514Y-104143185D01*
X133960304Y-103890541D01*
X133960578Y-103623356D01*
X133960578Y-102113508D01*
X134186491Y-102119302D01*
X134412405Y-102125095D01*
X134419787Y-101996874D01*
X134427169Y-101868653D01*
X135670193Y-101868653D01*
X135670193Y-103506027D01*
X135670193Y-105143400D01*
X135857366Y-105136267D01*
X136044539Y-105129134D01*
X136100551Y-104823845D01*
X136136430Y-104627990D01*
X136195424Y-104304352D01*
X136246284Y-104022954D01*
X136289677Y-103780087D01*
X136326267Y-103572038D01*
X136356721Y-103395095D01*
X136360185Y-103374850D01*
X136381805Y-103255147D01*
X136402151Y-103152718D01*
X136419076Y-103077883D01*
X136430433Y-103040961D01*
X136433412Y-103047542D01*
X136437375Y-103095351D01*
X136441011Y-103183913D01*
X136444225Y-103308509D01*
X136446924Y-103464419D01*
X136449014Y-103646924D01*
X136450400Y-103851302D01*
X136450989Y-104072836D01*
X136451731Y-105141345D01*
X136557565Y-105141345D01*
X136584887Y-105140814D01*
X136647153Y-105135074D01*
X136679680Y-105125063D01*
X136681844Y-105114461D01*
X136685141Y-105060672D01*
X136687983Y-104966298D01*
X136690370Y-104836528D01*
X136692301Y-104676553D01*
X136693776Y-104491562D01*
X136694795Y-104286745D01*
X136695357Y-104067293D01*
X136695463Y-103838394D01*
X136695112Y-103605240D01*
X136694303Y-103373020D01*
X136693037Y-103146924D01*
X136691313Y-102932142D01*
X136689130Y-102733863D01*
X136686490Y-102557279D01*
X136683390Y-102407578D01*
X136679832Y-102289951D01*
X136663851Y-101868653D01*
X137938731Y-101868653D01*
X137946241Y-101972451D01*
X137953751Y-102076249D01*
X138362837Y-102082946D01*
X138771924Y-102089642D01*
X138771797Y-102522561D01*
X138771438Y-102615731D01*
X138769405Y-102782493D01*
X138765882Y-102944531D01*
X138761221Y-103087139D01*
X138755771Y-103195610D01*
X138739870Y-103435741D01*
X138340705Y-103418259D01*
X137941539Y-103400777D01*
X137941539Y-103526157D01*
X137941539Y-103651538D01*
X138344520Y-103651538D01*
X138747501Y-103651538D01*
X138747501Y-103838394D01*
X138747501Y-104274326D01*
X138747501Y-104897115D01*
X138344520Y-104897115D01*
X137941539Y-104897115D01*
X137941539Y-105007019D01*
X137941539Y-105116922D01*
X138411683Y-105113263D01*
X138414939Y-105113237D01*
X138565562Y-105111573D01*
X138702732Y-105109176D01*
X138817599Y-105106267D01*
X138901316Y-105103071D01*
X138945035Y-105099811D01*
X139008243Y-105090018D01*
X139024410Y-104061484D01*
X139024601Y-104049296D01*
X139028259Y-103799886D01*
X139031619Y-103541408D01*
X139034586Y-103283515D01*
X139037062Y-103035857D01*
X139038951Y-102808085D01*
X139039436Y-102728291D01*
X140280246Y-102728291D01*
X140280774Y-102943739D01*
X140282010Y-103200069D01*
X140283557Y-103501263D01*
X140284631Y-103722857D01*
X140286128Y-103995936D01*
X140287933Y-104226844D01*
X140290407Y-104419484D01*
X140293910Y-104577758D01*
X140298802Y-104705568D01*
X140305445Y-104806820D01*
X140314199Y-104885414D01*
X140325424Y-104945254D01*
X140339482Y-104990243D01*
X140356732Y-105024283D01*
X140377536Y-105051279D01*
X140402254Y-105075132D01*
X140431246Y-105099745D01*
X140509710Y-105165769D01*
X140959663Y-105165769D01*
X141409616Y-105165769D01*
X141409616Y-104849486D01*
X142600548Y-104849486D01*
X142665519Y-104943240D01*
X142690324Y-104974226D01*
X142764492Y-105043913D01*
X142846602Y-105100190D01*
X142945564Y-105141339D01*
X143089823Y-105172400D01*
X143241185Y-105180027D01*
X143383319Y-105163657D01*
X143499896Y-105122725D01*
X143502003Y-105121564D01*
X143575073Y-105064835D01*
X143650753Y-104981575D01*
X143714675Y-104889734D01*
X143752470Y-104807257D01*
X143756329Y-104784063D01*
X143762095Y-104706868D01*
X143767021Y-104582257D01*
X143771091Y-104411119D01*
X143774292Y-104194344D01*
X143776606Y-103932820D01*
X143778020Y-103627438D01*
X143778518Y-103279086D01*
X143778653Y-101867753D01*
X144950962Y-101867753D01*
X144950962Y-102002530D01*
X144950962Y-102137307D01*
X145146347Y-102137307D01*
X145341731Y-102137307D01*
X145341731Y-103651538D01*
X145341731Y-105165769D01*
X145500481Y-105165769D01*
X145659231Y-105165769D01*
X145659231Y-104277675D01*
X147220030Y-104277675D01*
X147220576Y-104466429D01*
X147223107Y-104625083D01*
X147229100Y-104764083D01*
X147240231Y-104869047D01*
X147258375Y-104947797D01*
X147285408Y-105008157D01*
X147323204Y-105057948D01*
X147373638Y-105104995D01*
X147377672Y-105108374D01*
X147408569Y-105131750D01*
X147441410Y-105147695D01*
X147485574Y-105157591D01*
X147550442Y-105162819D01*
X147645393Y-105164758D01*
X147779807Y-105164791D01*
X147856245Y-105164318D01*
X147990599Y-105160635D01*
X148089409Y-105150895D01*
X148161758Y-105132150D01*
X148216730Y-105101451D01*
X148263408Y-105055850D01*
X148310875Y-104992398D01*
X148327397Y-104968166D01*
X148353301Y-104924135D01*
X148369466Y-104879108D01*
X148378179Y-104821125D01*
X148381730Y-104738222D01*
X148382405Y-104618438D01*
X148382405Y-104347595D01*
X148205337Y-104340420D01*
X148028270Y-104333244D01*
X148028270Y-104527825D01*
X148028209Y-104553745D01*
X148025536Y-104646553D01*
X148016401Y-104708382D01*
X147997377Y-104753844D01*
X147965041Y-104797548D01*
X147910705Y-104845133D01*
X147823687Y-104875907D01*
X147734654Y-104866847D01*
X147655670Y-104819944D01*
X147598799Y-104737183D01*
X147586373Y-104693051D01*
X147573575Y-104596967D01*
X147566978Y-104473787D01*
X147566812Y-104336139D01*
X147573305Y-104196651D01*
X147586686Y-104067949D01*
X147592828Y-104028831D01*
X147612125Y-103958924D01*
X147647742Y-103905923D01*
X147712048Y-103848141D01*
X147769377Y-103798753D01*
X147852024Y-103723739D01*
X147947359Y-103634595D01*
X148044204Y-103541634D01*
X148127224Y-103459579D01*
X148213898Y-103366845D01*
X148277835Y-103283107D01*
X148322808Y-103198723D01*
X148352591Y-103104054D01*
X148370956Y-102989460D01*
X148381677Y-102845300D01*
X148388528Y-102661934D01*
X148391114Y-102571965D01*
X148392490Y-102507654D01*
X150755973Y-102507654D01*
X150756122Y-102729091D01*
X150756572Y-102972902D01*
X150757326Y-103234952D01*
X150758389Y-103511105D01*
X150765335Y-105116922D01*
X150874399Y-105116922D01*
X150983462Y-105116922D01*
X150983462Y-104384230D01*
X150983462Y-103651538D01*
X151288751Y-103651538D01*
X151594039Y-103651538D01*
X151594039Y-104384230D01*
X151594039Y-105116922D01*
X151716155Y-105116922D01*
X151838270Y-105116922D01*
X151838270Y-105099881D01*
X153083613Y-105099881D01*
X153084351Y-105110654D01*
X153097419Y-105131015D01*
X153135791Y-105138526D01*
X153211041Y-105136516D01*
X153338235Y-105129134D01*
X153379650Y-104884903D01*
X153389091Y-104828933D01*
X153409695Y-104705042D01*
X153428286Y-104591157D01*
X153441734Y-104506345D01*
X153462405Y-104372019D01*
X153600132Y-104364775D01*
X153737859Y-104357531D01*
X153766393Y-104523525D01*
X153770379Y-104546678D01*
X153789893Y-104659371D01*
X153812675Y-104790228D01*
X153834581Y-104915432D01*
X153874237Y-105141345D01*
X154000067Y-105141345D01*
X154046816Y-105140563D01*
X154108318Y-105136486D01*
X154137153Y-105130091D01*
X154139959Y-105121380D01*
X154140837Y-105092077D01*
X154138082Y-105039311D01*
X154131329Y-104959514D01*
X154120212Y-104849115D01*
X154104368Y-104704544D01*
X154083433Y-104522230D01*
X154057040Y-104298604D01*
X154024827Y-104030095D01*
X154013567Y-103936696D01*
X153970079Y-103574350D01*
X153932250Y-103256254D01*
X153899687Y-102979008D01*
X153871996Y-102739216D01*
X153848785Y-102533478D01*
X153829660Y-102358398D01*
X153814228Y-102210576D01*
X153802336Y-102107332D01*
X153799269Y-102086381D01*
X155329373Y-102086381D01*
X155519350Y-102093527D01*
X155709328Y-102100672D01*
X155715618Y-103621009D01*
X155721705Y-105092077D01*
X155721909Y-105141345D01*
X155880289Y-105141345D01*
X156038669Y-105141345D01*
X156039779Y-104873178D01*
X157595947Y-104873178D01*
X157658844Y-104968222D01*
X157728816Y-105046618D01*
X157851207Y-105125767D01*
X157866977Y-105133157D01*
X158023237Y-105184723D01*
X158181204Y-105202015D01*
X158333171Y-105187397D01*
X158471434Y-105143233D01*
X158588288Y-105071886D01*
X158676029Y-104975721D01*
X158726952Y-104857101D01*
X158730461Y-104823372D01*
X158734259Y-104743094D01*
X158737783Y-104622658D01*
X158740967Y-104466689D01*
X158743743Y-104279812D01*
X158746044Y-104066652D01*
X158747801Y-103831833D01*
X158748948Y-103579981D01*
X158749418Y-103315720D01*
X158750001Y-101868653D01*
X158615674Y-101868653D01*
X158481347Y-101868653D01*
X158479856Y-102057932D01*
X158479822Y-102062038D01*
X158479065Y-102128664D01*
X158477615Y-102237965D01*
X158475553Y-102384336D01*
X158472962Y-102562175D01*
X158469925Y-102765878D01*
X158466524Y-102989841D01*
X158462842Y-103228460D01*
X158458961Y-103476132D01*
X158455828Y-103672573D01*
X158451716Y-103918360D01*
X158447908Y-104122389D01*
X158444182Y-104288847D01*
X158440319Y-104421922D01*
X158436099Y-104525803D01*
X158431301Y-104604679D01*
X158425706Y-104662736D01*
X158419093Y-104704165D01*
X158411242Y-104733152D01*
X158401934Y-104753886D01*
X158390948Y-104770555D01*
X158378979Y-104784916D01*
X158301203Y-104839331D01*
X158202787Y-104867536D01*
X158104059Y-104862981D01*
X158099247Y-104861693D01*
X158017797Y-104817474D01*
X157949582Y-104743697D01*
X157911545Y-104658367D01*
X157910046Y-104640915D01*
X157908185Y-104576238D01*
X157906962Y-104470322D01*
X157906374Y-104327836D01*
X157906415Y-104153447D01*
X157907084Y-103951824D01*
X157908374Y-103727637D01*
X157910282Y-103485552D01*
X157912804Y-103230240D01*
X157927590Y-101868653D01*
X157792205Y-101868653D01*
X157656819Y-101868653D01*
X157642134Y-102143413D01*
X157642043Y-102145124D01*
X157638771Y-102226356D01*
X157635103Y-102350156D01*
X157631163Y-102510430D01*
X157627074Y-102701087D01*
X157622960Y-102916033D01*
X157618943Y-103149175D01*
X157615148Y-103394420D01*
X157611698Y-103645675D01*
X157595947Y-104873178D01*
X156039779Y-104873178D01*
X156044960Y-103621239D01*
X156051251Y-102101133D01*
X156271058Y-102100903D01*
X156490866Y-102100672D01*
X156490866Y-101978557D01*
X156490866Y-101856442D01*
X155916924Y-101850015D01*
X155342981Y-101843588D01*
X155341576Y-101868653D01*
X155336177Y-101964984D01*
X155329373Y-102086381D01*
X153799269Y-102086381D01*
X153787744Y-102007659D01*
X153773518Y-101934599D01*
X153761524Y-101899182D01*
X153744656Y-101888811D01*
X153689046Y-101876121D01*
X153613746Y-101869519D01*
X153535729Y-101869453D01*
X153471970Y-101876368D01*
X153439443Y-101890711D01*
X153434112Y-101909216D01*
X153423872Y-101969092D01*
X153411921Y-102058280D01*
X153399886Y-102165471D01*
X153398057Y-102183178D01*
X153387484Y-102283294D01*
X153372679Y-102421121D01*
X153354589Y-102587945D01*
X153334163Y-102775055D01*
X153312346Y-102973740D01*
X153290087Y-103175288D01*
X153254503Y-103496793D01*
X153218340Y-103824319D01*
X153187134Y-104107992D01*
X153160615Y-104350322D01*
X153138515Y-104553819D01*
X153120563Y-104720994D01*
X153106491Y-104854356D01*
X153096029Y-104956416D01*
X153088909Y-105029683D01*
X153084860Y-105076668D01*
X153083613Y-105099881D01*
X151838270Y-105099881D01*
X151838270Y-103492788D01*
X151838270Y-101868653D01*
X151700757Y-101868653D01*
X151563245Y-101868653D01*
X151574144Y-102612670D01*
X151576569Y-102792212D01*
X151578256Y-102970779D01*
X151578406Y-103109290D01*
X151576869Y-103212568D01*
X151573500Y-103285434D01*
X151568149Y-103332710D01*
X151560668Y-103359220D01*
X151550910Y-103369785D01*
X151525150Y-103374055D01*
X151457634Y-103378622D01*
X151362072Y-103381734D01*
X151250119Y-103382884D01*
X150983462Y-103382884D01*
X150983462Y-102613557D01*
X150983462Y-101844230D01*
X150876171Y-101844230D01*
X150855568Y-101844656D01*
X150789433Y-101854400D01*
X150760162Y-101874759D01*
X150759569Y-101880803D01*
X150758286Y-101928344D01*
X150757280Y-102018935D01*
X150756556Y-102148440D01*
X150756119Y-102312725D01*
X150756023Y-102440923D01*
X150755973Y-102507654D01*
X148392490Y-102507654D01*
X148393917Y-102440923D01*
X148393690Y-102344893D01*
X148389773Y-102274970D01*
X148381504Y-102222246D01*
X148368222Y-102177817D01*
X148349268Y-102132774D01*
X148316689Y-102070508D01*
X148226808Y-101961442D01*
X148107219Y-101887224D01*
X147952323Y-101843778D01*
X147905140Y-101836729D01*
X147745301Y-101826094D01*
X147599085Y-101835829D01*
X147563565Y-101844230D01*
X147477278Y-101864638D01*
X147447111Y-101880865D01*
X147390665Y-101911227D01*
X147370812Y-101928459D01*
X147317506Y-101984896D01*
X147281684Y-102047745D01*
X147260107Y-102127562D01*
X147249535Y-102234903D01*
X147246731Y-102380325D01*
X147246731Y-102650192D01*
X147414065Y-102650192D01*
X147581399Y-102650192D01*
X147596269Y-102439484D01*
X147601297Y-102379331D01*
X147618357Y-102269068D01*
X147646548Y-102193823D01*
X147690459Y-102144060D01*
X147754679Y-102110241D01*
X147808883Y-102103163D01*
X147887549Y-102121233D01*
X147958190Y-102161574D01*
X148000517Y-102215501D01*
X148001739Y-102219260D01*
X148010948Y-102270311D01*
X148020774Y-102357366D01*
X148030114Y-102469244D01*
X148037869Y-102594765D01*
X148039446Y-102626128D01*
X148044707Y-102754522D01*
X148045320Y-102846036D01*
X148040686Y-102910489D01*
X148030205Y-102957701D01*
X148013277Y-102997493D01*
X147986057Y-103036697D01*
X147929490Y-103105364D01*
X147850667Y-103194774D01*
X147755896Y-103297785D01*
X147651485Y-103407252D01*
X147592701Y-103467980D01*
X147471461Y-103596832D01*
X147379475Y-103705101D01*
X147312790Y-103802501D01*
X147267455Y-103898745D01*
X147239518Y-104003546D01*
X147225027Y-104126619D01*
X147220030Y-104277675D01*
X145659231Y-104277675D01*
X145659231Y-103649795D01*
X145659231Y-102133822D01*
X145872933Y-102141670D01*
X146086635Y-102149519D01*
X146086635Y-102015192D01*
X146086635Y-101880865D01*
X145518799Y-101874309D01*
X144950962Y-101867753D01*
X143778653Y-101867753D01*
X143778655Y-101844230D01*
X143632116Y-101844230D01*
X143485578Y-101844230D01*
X143482601Y-102155624D01*
X143482074Y-102206497D01*
X143480724Y-102324066D01*
X143478831Y-102479476D01*
X143476484Y-102665935D01*
X143473768Y-102876651D01*
X143470772Y-103104831D01*
X143467581Y-103343683D01*
X143464284Y-103586414D01*
X143448943Y-104705810D01*
X143369183Y-104777039D01*
X143300893Y-104824954D01*
X143200569Y-104852307D01*
X143100423Y-104831496D01*
X143004327Y-104762672D01*
X142918731Y-104677075D01*
X142927395Y-103266758D01*
X142936058Y-101856442D01*
X142798446Y-101849201D01*
X142660833Y-101841961D01*
X142646129Y-102203336D01*
X142643916Y-102265249D01*
X142640200Y-102394804D01*
X142636158Y-102561533D01*
X142631931Y-102758416D01*
X142627659Y-102978434D01*
X142623484Y-103214567D01*
X142619546Y-103459795D01*
X142618895Y-103504999D01*
X142615986Y-103707098D01*
X142600548Y-104849486D01*
X141409616Y-104849486D01*
X141409616Y-103504999D01*
X141409616Y-101844230D01*
X140963895Y-101844287D01*
X140518174Y-101844345D01*
X140441972Y-101911451D01*
X140434683Y-101917819D01*
X140401230Y-101946358D01*
X140372850Y-101971979D01*
X140349146Y-101998665D01*
X140329722Y-102030397D01*
X140314180Y-102071157D01*
X140302124Y-102124928D01*
X140293157Y-102195690D01*
X140286883Y-102287425D01*
X140282904Y-102404116D01*
X140282237Y-102450802D01*
X140280824Y-102549744D01*
X140280246Y-102728291D01*
X139039436Y-102728291D01*
X139040155Y-102609850D01*
X139040578Y-102450802D01*
X139040578Y-101868653D01*
X138489654Y-101868653D01*
X137938731Y-101868653D01*
X136663851Y-101868653D01*
X136510591Y-101868653D01*
X136469079Y-101868130D01*
X136420180Y-101868404D01*
X136385238Y-101875953D01*
X136360277Y-101897539D01*
X136341320Y-101939919D01*
X136324390Y-102009853D01*
X136305513Y-102114101D01*
X136280710Y-102259422D01*
X136279388Y-102267062D01*
X136243718Y-102472067D01*
X136206139Y-102686181D01*
X136167795Y-102903044D01*
X136129831Y-103116297D01*
X136093389Y-103319582D01*
X136059615Y-103506541D01*
X136029652Y-103670814D01*
X136004643Y-103806042D01*
X135985734Y-103905868D01*
X135974067Y-103963931D01*
X135960429Y-103996708D01*
X135938131Y-104005230D01*
X135932222Y-103977808D01*
X135927018Y-103904035D01*
X135922634Y-103786494D01*
X135919126Y-103627733D01*
X135916551Y-103430300D01*
X135914965Y-103196745D01*
X135914424Y-102929616D01*
X135914424Y-101868653D01*
X135792308Y-101868653D01*
X135670193Y-101868653D01*
X134427169Y-101868653D01*
X133851950Y-101868653D01*
X133276731Y-101868653D01*
X133276731Y-101990769D01*
X132167760Y-101990769D01*
X132168637Y-101635459D01*
X132170256Y-100998693D01*
X132171958Y-100348356D01*
X132173740Y-99686269D01*
X132175598Y-99014254D01*
X132176539Y-98675709D01*
X132178324Y-98015321D01*
X132180009Y-97368236D01*
X132181591Y-96736145D01*
X132183069Y-96120742D01*
X132184440Y-95523718D01*
X132185701Y-94946767D01*
X132186849Y-94391580D01*
X132187883Y-93859851D01*
X132188800Y-93353272D01*
X132189597Y-92873536D01*
X132190272Y-92422334D01*
X132190822Y-92001361D01*
X132191246Y-91612308D01*
X132191540Y-91256867D01*
X132191589Y-91159134D01*
X134052696Y-91159134D01*
X134068671Y-92575672D01*
X134084647Y-93992211D01*
X134158942Y-94145814D01*
X134186064Y-94197446D01*
X134305413Y-94367103D01*
X134458284Y-94520791D01*
X134632888Y-94647911D01*
X134817434Y-94737863D01*
X134830455Y-94742518D01*
X134872933Y-94755682D01*
X134919936Y-94765905D01*
X134977794Y-94773555D01*
X135052841Y-94778994D01*
X135151406Y-94782590D01*
X135279822Y-94784706D01*
X135444420Y-94785708D01*
X135651531Y-94785961D01*
X135694294Y-94785985D01*
X135870480Y-94786617D01*
X136028304Y-94788020D01*
X136161668Y-94790081D01*
X136264477Y-94792686D01*
X136330632Y-94795721D01*
X136354039Y-94799072D01*
X136341396Y-94817500D01*
X136301364Y-94867392D01*
X136238901Y-94942391D01*
X136159105Y-95036385D01*
X136067068Y-95143264D01*
X135962445Y-95264070D01*
X135832662Y-95414101D01*
X135692628Y-95576120D01*
X135553382Y-95737355D01*
X135425962Y-95885033D01*
X135326569Y-96000265D01*
X135191724Y-96156529D01*
X135041301Y-96330790D01*
X134883979Y-96512995D01*
X134728441Y-96693087D01*
X134583366Y-96861011D01*
X134533022Y-96919429D01*
X134415418Y-97057165D01*
X134310443Y-97181879D01*
X134222000Y-97288822D01*
X134153994Y-97373241D01*
X134110328Y-97430386D01*
X134094905Y-97455506D01*
X134101619Y-97462939D01*
X134136243Y-97471693D01*
X134203880Y-97478526D01*
X134308485Y-97483686D01*
X134454014Y-97487422D01*
X134644424Y-97489981D01*
X135193943Y-97495251D01*
X135490869Y-97148058D01*
X135618015Y-96999517D01*
X135780861Y-96809565D01*
X135952932Y-96609120D01*
X136128373Y-96404986D01*
X136301334Y-96203964D01*
X136465959Y-96012856D01*
X136616397Y-95838465D01*
X136746794Y-95687592D01*
X136851297Y-95567039D01*
X136941122Y-95463096D01*
X137063395Y-95320416D01*
X137186611Y-95175580D01*
X137294324Y-95047862D01*
X137514128Y-94785587D01*
X138991728Y-94791880D01*
X140469328Y-94798172D01*
X140481539Y-96165865D01*
X140493751Y-97533557D01*
X140899084Y-97537205D01*
X141304417Y-97540853D01*
X141320306Y-96145090D01*
X141320976Y-96085507D01*
X141323756Y-95826279D01*
X141326779Y-95527041D01*
X141329983Y-95194815D01*
X141333307Y-94836624D01*
X141336688Y-94459490D01*
X141340064Y-94070434D01*
X141343373Y-93676479D01*
X141346552Y-93284647D01*
X141349540Y-92901960D01*
X141352274Y-92535440D01*
X141357924Y-91757499D01*
X142431183Y-91757499D01*
X142805736Y-91757125D01*
X142874790Y-91756753D01*
X142999168Y-91754450D01*
X143102269Y-91750413D01*
X143174904Y-91745059D01*
X143207884Y-91738808D01*
X143209163Y-91737798D01*
X143223953Y-91702530D01*
X143236880Y-91633499D01*
X143245273Y-91544578D01*
X143255570Y-91441990D01*
X143284126Y-91340532D01*
X143336618Y-91260207D01*
X143420323Y-91186104D01*
X143421058Y-91185558D01*
X143432906Y-91177605D01*
X143447671Y-91170510D01*
X143468224Y-91164179D01*
X143497434Y-91158522D01*
X143538173Y-91153446D01*
X143593310Y-91148859D01*
X143665716Y-91144670D01*
X143758261Y-91140786D01*
X143873815Y-91137115D01*
X144015249Y-91133566D01*
X144185433Y-91130047D01*
X144387237Y-91126465D01*
X144623532Y-91122729D01*
X144897188Y-91118747D01*
X145211076Y-91114427D01*
X145568065Y-91109677D01*
X145971026Y-91104405D01*
X146332761Y-91099781D01*
X146719257Y-91095105D01*
X147061307Y-91091309D01*
X147361295Y-91088390D01*
X147621606Y-91086345D01*
X147844622Y-91085171D01*
X148032730Y-91084864D01*
X148188311Y-91085423D01*
X148313752Y-91086844D01*
X148411436Y-91089123D01*
X148483746Y-91092258D01*
X148533068Y-91096245D01*
X148561785Y-91101082D01*
X148579954Y-91106764D01*
X148670066Y-91149571D01*
X148747316Y-91205696D01*
X148826735Y-91281249D01*
X148842695Y-91840821D01*
X148843203Y-91858849D01*
X148848091Y-92053879D01*
X148852334Y-92261076D01*
X148855677Y-92465194D01*
X148857868Y-92650987D01*
X148858655Y-92803209D01*
X148858655Y-93206024D01*
X148761130Y-93298796D01*
X148728167Y-93327470D01*
X148651165Y-93378987D01*
X148584063Y-93405329D01*
X148550493Y-93407311D01*
X148471069Y-93409576D01*
X148349308Y-93412043D01*
X148188501Y-93414675D01*
X147991939Y-93417432D01*
X147762911Y-93420276D01*
X147504709Y-93423168D01*
X147220624Y-93426070D01*
X146913944Y-93428942D01*
X146587962Y-93431746D01*
X146245968Y-93434444D01*
X145891251Y-93436996D01*
X143277981Y-93454903D01*
X143094808Y-93545531D01*
X143045800Y-93571366D01*
X142883970Y-93678263D01*
X142734230Y-93808187D01*
X142608438Y-93949895D01*
X142518448Y-94092143D01*
X142447597Y-94236442D01*
X142440848Y-95473277D01*
X142440758Y-95489784D01*
X142439314Y-95765004D01*
X142438336Y-95996043D01*
X142437969Y-96187324D01*
X142438358Y-96343270D01*
X142439650Y-96468302D01*
X142441991Y-96566843D01*
X142445525Y-96643314D01*
X142450400Y-96702138D01*
X142456760Y-96747736D01*
X142464752Y-96784531D01*
X142474521Y-96816945D01*
X142486213Y-96849400D01*
X142519859Y-96923314D01*
X142613679Y-97064852D01*
X142738894Y-97201579D01*
X142885044Y-97322792D01*
X143041670Y-97417787D01*
X143226393Y-97509134D01*
X143887187Y-97510156D01*
X143952136Y-97510195D01*
X144104016Y-97510023D01*
X144296893Y-97509559D01*
X144525729Y-97508825D01*
X144785481Y-97507842D01*
X145071112Y-97506632D01*
X145377579Y-97505218D01*
X145699843Y-97503620D01*
X146032865Y-97501860D01*
X146371603Y-97499961D01*
X146711017Y-97497945D01*
X148874053Y-97484711D01*
X149031210Y-97402599D01*
X149135407Y-97344815D01*
X149332161Y-97209817D01*
X149486326Y-97060016D01*
X149600942Y-96890285D01*
X149679048Y-96695494D01*
X149723682Y-96470517D01*
X149737885Y-96210225D01*
X149737885Y-96007115D01*
X149286058Y-96007115D01*
X148834231Y-96007115D01*
X148834231Y-96193511D01*
X148834085Y-96215483D01*
X148823253Y-96347675D01*
X148790713Y-96448344D01*
X148730090Y-96530760D01*
X148635009Y-96608190D01*
X148533267Y-96678749D01*
X147871682Y-96691731D01*
X147790091Y-96693161D01*
X147625349Y-96695457D01*
X147421313Y-96697773D01*
X147183825Y-96700063D01*
X146918725Y-96702283D01*
X146631855Y-96704387D01*
X146329056Y-96706332D01*
X146016169Y-96708072D01*
X145699035Y-96709563D01*
X145383496Y-96710760D01*
X145213210Y-96711317D01*
X144892873Y-96712289D01*
X144616262Y-96712945D01*
X144379920Y-96713210D01*
X144180386Y-96713008D01*
X144014203Y-96712266D01*
X143877912Y-96710909D01*
X143768053Y-96708861D01*
X143681169Y-96706048D01*
X143613799Y-96702395D01*
X143562486Y-96697827D01*
X143523770Y-96692269D01*
X143494192Y-96685647D01*
X143470295Y-96677886D01*
X143448618Y-96668910D01*
X143446844Y-96668120D01*
X143355621Y-96611303D01*
X143290471Y-96539978D01*
X143285219Y-96531268D01*
X143273512Y-96508709D01*
X143264119Y-96481802D01*
X143256829Y-96445602D01*
X143251432Y-96395166D01*
X143247720Y-96325549D01*
X143245481Y-96231808D01*
X143244508Y-96108999D01*
X143244589Y-95952177D01*
X143245516Y-95756399D01*
X143247079Y-95516720D01*
X143253558Y-94574499D01*
X143322348Y-94484343D01*
X143338339Y-94462091D01*
X143354801Y-94437201D01*
X143370120Y-94415158D01*
X143387074Y-94395791D01*
X143408438Y-94378928D01*
X143436992Y-94364397D01*
X143475510Y-94352028D01*
X143526772Y-94341647D01*
X143593554Y-94333083D01*
X143678632Y-94326165D01*
X143784785Y-94320720D01*
X143914789Y-94316578D01*
X144071422Y-94313566D01*
X144257460Y-94311513D01*
X144475681Y-94310247D01*
X144728862Y-94309596D01*
X145019780Y-94309389D01*
X145351212Y-94309453D01*
X145725935Y-94309618D01*
X146146727Y-94309711D01*
X148773174Y-94309711D01*
X148988751Y-94206618D01*
X149195238Y-94086960D01*
X149379879Y-93937246D01*
X149531830Y-93766416D01*
X149643201Y-93582000D01*
X149725674Y-93406057D01*
X149725674Y-92292966D01*
X149725674Y-91179874D01*
X149622257Y-90971171D01*
X149553594Y-90850160D01*
X149405615Y-90659586D01*
X149226628Y-90496698D01*
X149024786Y-90368403D01*
X148808243Y-90281607D01*
X148801677Y-90279794D01*
X148775115Y-90273884D01*
X148740971Y-90268649D01*
X148696494Y-90264061D01*
X148638932Y-90260086D01*
X148565536Y-90256695D01*
X148473554Y-90253855D01*
X148360236Y-90251537D01*
X148222830Y-90249708D01*
X148058585Y-90248337D01*
X147864751Y-90247394D01*
X147638577Y-90246846D01*
X147377311Y-90246664D01*
X147078204Y-90246816D01*
X146738503Y-90247270D01*
X146355459Y-90247995D01*
X145926320Y-90248961D01*
X143180289Y-90255480D01*
X143045303Y-90321554D01*
X143021374Y-90333267D01*
X142881511Y-90417328D01*
X142734448Y-90539045D01*
X142608532Y-90678266D01*
X142517231Y-90821938D01*
X142500756Y-90856155D01*
X142479121Y-90907240D01*
X142463921Y-90958560D01*
X142453754Y-91019837D01*
X142447212Y-91100792D01*
X142442893Y-91211148D01*
X142439390Y-91360624D01*
X142431183Y-91757499D01*
X141357924Y-91757499D01*
X141368353Y-90321554D01*
X141163071Y-90307417D01*
X141120516Y-90305781D01*
X141029434Y-90303912D01*
X140895549Y-90302024D01*
X140722055Y-90300137D01*
X140512142Y-90298273D01*
X140269004Y-90296451D01*
X139995833Y-90294691D01*
X139695823Y-90293014D01*
X139372164Y-90291441D01*
X139028051Y-90289992D01*
X138666674Y-90288687D01*
X138291228Y-90287546D01*
X137904905Y-90286591D01*
X134852020Y-90279903D01*
X134717693Y-90346138D01*
X134566243Y-90442116D01*
X134414926Y-90580456D01*
X134277914Y-90749146D01*
X134163959Y-90938820D01*
X134052696Y-91159134D01*
X132191589Y-91159134D01*
X132191702Y-90936732D01*
X132191730Y-90653595D01*
X132191621Y-90409148D01*
X132191373Y-90205085D01*
X132191352Y-90196561D01*
X150738200Y-90196561D01*
X150744821Y-93462078D01*
X150749982Y-96007115D01*
X150751443Y-96727595D01*
X150840366Y-96910769D01*
X150860032Y-96949686D01*
X150985971Y-97142315D01*
X151140303Y-97295207D01*
X151323052Y-97408384D01*
X151484135Y-97484711D01*
X152461058Y-97485579D01*
X152607971Y-97485578D01*
X152830185Y-97485263D01*
X153089464Y-97484624D01*
X153379270Y-97483688D01*
X153693064Y-97482483D01*
X154024306Y-97481036D01*
X154366458Y-97479373D01*
X154712980Y-97477522D01*
X155057334Y-97475512D01*
X155392980Y-97473367D01*
X157347979Y-97460288D01*
X157513113Y-97352688D01*
X157675596Y-97229100D01*
X157843857Y-97049680D01*
X157971975Y-96845347D01*
X158046722Y-96694445D01*
X158025909Y-93450539D01*
X158005097Y-90206634D01*
X157577693Y-90206634D01*
X157150289Y-90206634D01*
X157136645Y-93332788D01*
X157136008Y-93476577D01*
X157133713Y-93955739D01*
X157131350Y-94388096D01*
X157128898Y-94775241D01*
X157126337Y-95118768D01*
X157123645Y-95420267D01*
X157120802Y-95681334D01*
X157117786Y-95903559D01*
X157114577Y-96088535D01*
X157111153Y-96237856D01*
X157107494Y-96353114D01*
X157103579Y-96435901D01*
X157099387Y-96487810D01*
X157094897Y-96510435D01*
X157085492Y-96528745D01*
X157076198Y-96546253D01*
X157065001Y-96561732D01*
X157049140Y-96575318D01*
X157025854Y-96587149D01*
X156992380Y-96597359D01*
X156945959Y-96606085D01*
X156883828Y-96613464D01*
X156803226Y-96619630D01*
X156701392Y-96624722D01*
X156575565Y-96628874D01*
X156422983Y-96632223D01*
X156240884Y-96634905D01*
X156026509Y-96637056D01*
X155777095Y-96638812D01*
X155489881Y-96640310D01*
X155162105Y-96641686D01*
X154791007Y-96643075D01*
X154373824Y-96644615D01*
X151792744Y-96654326D01*
X151715357Y-96581057D01*
X151698631Y-96564509D01*
X151648245Y-96505816D01*
X151618377Y-96457487D01*
X151618222Y-96456990D01*
X151615973Y-96423732D01*
X151614124Y-96344782D01*
X151612674Y-96223107D01*
X151611621Y-96061673D01*
X151610964Y-95863446D01*
X151610701Y-95631391D01*
X151610832Y-95368476D01*
X151611355Y-95077666D01*
X151612269Y-94761928D01*
X151613572Y-94424227D01*
X151615263Y-94067531D01*
X151617340Y-93694804D01*
X151619803Y-93309013D01*
X151620014Y-93277843D01*
X151622539Y-92893796D01*
X151624840Y-92523542D01*
X151626904Y-92170003D01*
X151628720Y-91836100D01*
X151630276Y-91524753D01*
X151631562Y-91238884D01*
X151632565Y-90981413D01*
X151633275Y-90755262D01*
X151633679Y-90563350D01*
X151633766Y-90408600D01*
X151633526Y-90293932D01*
X151632945Y-90222267D01*
X151632014Y-90196525D01*
X151608971Y-90192568D01*
X151544382Y-90189564D01*
X151446219Y-90187949D01*
X151322365Y-90187848D01*
X151180703Y-90189386D01*
X150738200Y-90196561D01*
X132191352Y-90196561D01*
X132190983Y-90043097D01*
X132190449Y-89924878D01*
X132189768Y-89852119D01*
X132188939Y-89826513D01*
X132178781Y-89825375D01*
X132134037Y-89841183D01*
X132063090Y-89875542D01*
X131975652Y-89924014D01*
X131960882Y-89932613D01*
X131869625Y-89984939D01*
X131747739Y-90053923D01*
X131605238Y-90133935D01*
X131452141Y-90219349D01*
X131298462Y-90304536D01*
X131255066Y-90328518D01*
X131106582Y-90410758D01*
X130965573Y-90489120D01*
X130840867Y-90558682D01*
X130741291Y-90614523D01*
X130675674Y-90651722D01*
X130659707Y-90660831D01*
X130587932Y-90701261D01*
X130482446Y-90760237D01*
X130349953Y-90834025D01*
X130197161Y-90918894D01*
X130030775Y-91011115D01*
X129857501Y-91106954D01*
X129185866Y-91478046D01*
X129169687Y-101295417D01*
X129169358Y-101497276D01*
X129168289Y-102183664D01*
X129167319Y-102857164D01*
X129166448Y-103516140D01*
X129165675Y-104158957D01*
X129165000Y-104783983D01*
X129164424Y-105389582D01*
X129163946Y-105974119D01*
X129163567Y-106535962D01*
X129163286Y-107073474D01*
X129163103Y-107585022D01*
X129163019Y-108068971D01*
X128302065Y-108068971D01*
X128302055Y-108053093D01*
X128301814Y-107552709D01*
X128301638Y-107025488D01*
X128301528Y-106473072D01*
X128301485Y-105897101D01*
X128301511Y-105299215D01*
X128301606Y-104681054D01*
X128301772Y-104044260D01*
X128302010Y-103390473D01*
X128302320Y-102721333D01*
X128302705Y-102038481D01*
X128303164Y-101343557D01*
X128310224Y-91403365D01*
X128676878Y-90792788D01*
X128680958Y-90785993D01*
X128754679Y-90663110D01*
X128850402Y-90503390D01*
X128965270Y-90311609D01*
X129096424Y-90092542D01*
X129241007Y-89850966D01*
X129396161Y-89591656D01*
X129559028Y-89319389D01*
X129726750Y-89038939D01*
X129896468Y-88755082D01*
X130065326Y-88472595D01*
X130225433Y-88204714D01*
X130401800Y-87909636D01*
X130578926Y-87613293D01*
X130753584Y-87321085D01*
X130922546Y-87038410D01*
X131082586Y-86770669D01*
X131230475Y-86523261D01*
X131362988Y-86301583D01*
X131476897Y-86111036D01*
X131568974Y-85957019D01*
X131647732Y-85825272D01*
X131778915Y-85605780D01*
X131914112Y-85379519D01*
X132047506Y-85156225D01*
X132173281Y-84945639D01*
X132285617Y-84757497D01*
X132378700Y-84601538D01*
X132447320Y-84487055D01*
X132539436Y-84335988D01*
X132612474Y-84220522D01*
X132669402Y-84136349D01*
X132713184Y-84079163D01*
X132746785Y-84044656D01*
X132773171Y-84028520D01*
X132785303Y-84025191D01*
X132842592Y-84020504D01*
X132933528Y-84024510D01*
X133062855Y-84037530D01*
X133235318Y-84059888D01*
X133253462Y-84062400D01*
X133407777Y-84083551D01*
X133593658Y-84108730D01*
X133796295Y-84135948D01*
X134000878Y-84163215D01*
X134192597Y-84188538D01*
X134238995Y-84194662D01*
X134423595Y-84219534D01*
X134609067Y-84245234D01*
X134783081Y-84270013D01*
X134933304Y-84292122D01*
X135047405Y-84309810D01*
X135161154Y-84327316D01*
X135274375Y-84342877D01*
X135365349Y-84353421D01*
X135421132Y-84357302D01*
X135427093Y-84356901D01*
X135459925Y-84347939D01*
X135511694Y-84326007D01*
X135585234Y-84289525D01*
X135683377Y-84236916D01*
X135808956Y-84166600D01*
X135964804Y-84076999D01*
X136153753Y-83966533D01*
X136378636Y-83833624D01*
X136642286Y-83676692D01*
X136778701Y-83595294D01*
X137129581Y-83386044D01*
X137441844Y-83200043D01*
X137717890Y-83035902D01*
X137960116Y-82892231D01*
X138170923Y-82767640D01*
X138352708Y-82660741D01*
X138507871Y-82570143D01*
X138638810Y-82494457D01*
X138747925Y-82432293D01*
X138837614Y-82382263D01*
X138910277Y-82342976D01*
X138968311Y-82313043D01*
X139014116Y-82291075D01*
X139050091Y-82275681D01*
X139078635Y-82265473D01*
X139095794Y-82260129D01*
X139130090Y-82250755D01*
X139165008Y-82244934D01*
X139205194Y-82243611D01*
X139255295Y-82247727D01*
X139319958Y-82258227D01*
X139403829Y-82276054D01*
X139511555Y-82302150D01*
X139647783Y-82337459D01*
X139817159Y-82382924D01*
X140024330Y-82439488D01*
X140273943Y-82508095D01*
X140607058Y-82599568D01*
X140964974Y-82697353D01*
X141276474Y-82781844D01*
X141541856Y-82853120D01*
X141761418Y-82911260D01*
X141935458Y-82956344D01*
X142064272Y-82988448D01*
X142148161Y-83007654D01*
X142187420Y-83014038D01*
X142204072Y-83013002D01*
X142242809Y-83004122D01*
X142295141Y-82983824D01*
X142366691Y-82949309D01*
X142463083Y-82897777D01*
X142589940Y-82826427D01*
X142752885Y-82732460D01*
X142815440Y-82696331D01*
X142916139Y-82638485D01*
X143047743Y-82563084D01*
X143206179Y-82472447D01*
X143387373Y-82368896D01*
X143587253Y-82254753D01*
X143801744Y-82132338D01*
X144026773Y-82003973D01*
X144258268Y-81871979D01*
X144492153Y-81738676D01*
X144724357Y-81606386D01*
X144950805Y-81477430D01*
X145167424Y-81354130D01*
X145370141Y-81238806D01*
X145554882Y-81133779D01*
X145717575Y-81041371D01*
X145854144Y-80963902D01*
X145960518Y-80903695D01*
X146032622Y-80863069D01*
X146066384Y-80844347D01*
X146092916Y-80835267D01*
X146129920Y-80836833D01*
X146183921Y-80852944D01*
X146263691Y-80886278D01*
X146378001Y-80939515D01*
X146429307Y-80964273D01*
X146540141Y-81019703D01*
X146665530Y-81084977D01*
X146809388Y-81162259D01*
X146975633Y-81253714D01*
X147168180Y-81361507D01*
X147390944Y-81487803D01*
X147647842Y-81634766D01*
X147942789Y-81804562D01*
X148166315Y-81933494D01*
X148407926Y-82072745D01*
X148649165Y-82211675D01*
X148885372Y-82347607D01*
X149111888Y-82477863D01*
X149324053Y-82599768D01*
X149517208Y-82710643D01*
X149686693Y-82807811D01*
X149827850Y-82888596D01*
X149936018Y-82950321D01*
X150006539Y-82990308D01*
X150037864Y-83008021D01*
X150124236Y-83057186D01*
X150240098Y-83123399D01*
X150377108Y-83201885D01*
X150526921Y-83287865D01*
X150681194Y-83376563D01*
X150783619Y-83435046D01*
X150920869Y-83511888D01*
X151041257Y-83577521D01*
X151138460Y-83628574D01*
X151206159Y-83661677D01*
X151238032Y-83673461D01*
X151248268Y-83673016D01*
X151271815Y-83668503D01*
X151303592Y-83656993D01*
X151348400Y-83635884D01*
X151411042Y-83602574D01*
X151496318Y-83554462D01*
X151609029Y-83488946D01*
X151753977Y-83403425D01*
X151935962Y-83295297D01*
X151948623Y-83287763D01*
X152128740Y-83180823D01*
X152328065Y-83062864D01*
X152531317Y-82942907D01*
X152723210Y-82829973D01*
X152888462Y-82733082D01*
X152908585Y-82721313D01*
X153056267Y-82634793D01*
X153200673Y-82549960D01*
X153332073Y-82472547D01*
X153440739Y-82408284D01*
X153516941Y-82362901D01*
X153543965Y-82346983D01*
X153628220Y-82301053D01*
X153696774Y-82268981D01*
X153736855Y-82256922D01*
X153741539Y-82257442D01*
X153767507Y-82268703D01*
X153809676Y-82296447D01*
X153870885Y-82343027D01*
X153953970Y-82410793D01*
X154061768Y-82502099D01*
X154197117Y-82619296D01*
X154362854Y-82764735D01*
X154561816Y-82940769D01*
X154588542Y-82964461D01*
X154723132Y-83083332D01*
X154874260Y-83216245D01*
X155025321Y-83348616D01*
X155159712Y-83465865D01*
X155219161Y-83517635D01*
X155328007Y-83612734D01*
X155447738Y-83717743D01*
X155582008Y-83835888D01*
X155734472Y-83970395D01*
X155908786Y-84124490D01*
X156108606Y-84301401D01*
X156337585Y-84504352D01*
X156599380Y-84736571D01*
X156703031Y-84828292D01*
X156852741Y-84960216D01*
X157014728Y-85102483D01*
X157175421Y-85243177D01*
X157321251Y-85370384D01*
X157452187Y-85484692D01*
X157595465Y-85610469D01*
X157734668Y-85733292D01*
X157858838Y-85843494D01*
X157957021Y-85931409D01*
X157962393Y-85936250D01*
X158048639Y-86013433D01*
X158163600Y-86115559D01*
X158299765Y-86235997D01*
X158449625Y-86368116D01*
X158605670Y-86505282D01*
X158760390Y-86640865D01*
X158893546Y-86757427D01*
X159077659Y-86918791D01*
X159268922Y-87086607D01*
X159456350Y-87251227D01*
X159628956Y-87403009D01*
X159775756Y-87532307D01*
X159902167Y-87643776D01*
X160070429Y-87792153D01*
X160255356Y-87955224D01*
X160446346Y-88123643D01*
X160632800Y-88288063D01*
X160804118Y-88439137D01*
X160955755Y-88572800D01*
X161140299Y-88735356D01*
X161330227Y-88902550D01*
X161515039Y-89065143D01*
X161684233Y-89213893D01*
X161827308Y-89339559D01*
X161999358Y-89490625D01*
X162143102Y-89616989D01*
X162259155Y-89719233D01*
X162352098Y-89801418D01*
X162426514Y-89867607D01*
X162486985Y-89921864D01*
X162538095Y-89968250D01*
X162584424Y-90010829D01*
X162608548Y-90032743D01*
X162674110Y-90091071D01*
X162763112Y-90169368D01*
X162867007Y-90260126D01*
X162977245Y-90355837D01*
X163009674Y-90383939D01*
X163145208Y-90501974D01*
X163289766Y-90628625D01*
X163427990Y-90750410D01*
X163544524Y-90853845D01*
X163804461Y-91085865D01*
X163805198Y-96617692D01*
X163805302Y-97067312D01*
X163805578Y-97689135D01*
X163806003Y-98338812D01*
X163806567Y-99010864D01*
X163807263Y-99699812D01*
X163808082Y-100400178D01*
X163809015Y-101106483D01*
X163810054Y-101813249D01*
X163811190Y-102514997D01*
X163812414Y-103206249D01*
X163813719Y-103881525D01*
X163815095Y-104535349D01*
X163816535Y-105162240D01*
X163818028Y-105756721D01*
X163819568Y-106313313D01*
X163821145Y-106826538D01*
X163834878Y-111049486D01*
X163836355Y-111503557D01*
G37*
%TD*%
M02*
